<?xml version="1.0" encoding="utf-8"?>
<!-- Generator: Adobe Illustrator 27.5.0, SVG Export Plug-In . SVG Version: 6.00 Build 0)  -->
<svg version="1.1" xmlns="http://www.w3.org/2000/svg" xmlns:xlink="http://www.w3.org/1999/xlink" x="0px" y="0px"
	 viewBox="0 0 3710 3710" style="enable-background:new 0 0 3710 3710;" xml:space="preserve">
<g id="Background">
	<g>
		<g>
			<rect style="fill:#FFFFFF;" width="3710" height="3710"/>
		</g>
	</g>
</g>
<g id="Illustration">
	<g>
		<linearGradient id="SVGID_1_" gradientUnits="userSpaceOnUse" x1="3394.8032" y1="3594.1509" x2="1353.3992" y2="1390.7302">
			<stop  offset="0" style="stop-color:#B37CFF"/>
			<stop  offset="1" style="stop-color:#F895E7"/>
		</linearGradient>
		<path style="opacity:0.3;fill:url(#SVGID_1_);" d="M3110.32,2338.504c-280.504,655.645-1020.944,937.26-1601.089,889.244
			c-158.403-13.11-477.115-39.489-725.967-274.82c-477.904-451.939-404.302-1396.617,53.189-1952.792
			c58.915-71.624,466.719-551.495,1102.205-545.072c465.268,4.703,791.835,267.527,831.544,300.269
			c50.164,41.363,160.804,139.655,260.518,295.588C3265.012,1417.31,3285.607,1928.791,3110.32,2338.504z"/>
		<g>
			<g>
				
					<linearGradient id="SVGID_00000005988277141469096170000010311090794272723103_" gradientUnits="userSpaceOnUse" x1="2080.8843" y1="3196.1333" x2="2049.0457" y2="2565.7332">
					<stop  offset="0" style="stop-color:#2B3582"/>
					<stop  offset="1" style="stop-color:#150E42"/>
				</linearGradient>
				<polygon style="fill:url(#SVGID_00000005988277141469096170000010311090794272723103_);" points="1800.089,2188.82 
					1747.209,2663.076 2360.715,2663.076 2280.805,2188.82 				"/>
				
					<linearGradient id="SVGID_00000050661972249849469860000002275488212182610565_" gradientUnits="userSpaceOnUse" x1="2007.7819" y1="2021.2391" x2="1884.3713" y2="-54.9549">
					<stop  offset="0" style="stop-color:#2B3582"/>
					<stop  offset="1" style="stop-color:#150E42"/>
				</linearGradient>
				<path style="fill:url(#SVGID_00000050661972249849469860000002275488212182610565_);" d="M732.536,986.458v1117.679
					c0,91.944,73.268,167.132,165.181,169.502c408.231,10.526,1836.026,36.052,2224.635,30.323
					c66.792-0.984,120.899-54.434,122.826-121.205c7.494-259.652,19.664-884.029-25.374-1173.902
					c-9.485-61.044-61.011-106.692-122.757-108.667c-342.046-10.942-1855.602-45.687-2244.03-36.964
					C786.028,864.729,732.536,919.451,732.536,986.458z"/>
				
					<linearGradient id="SVGID_00000024719911849940737870000010409706356633610924_" gradientUnits="userSpaceOnUse" x1="2092.1387" y1="119.4842" x2="1899.766" y2="2602.2">
					<stop  offset="0" style="stop-color:#53D8FF"/>
					<stop  offset="1" style="stop-color:#3840F7"/>
				</linearGradient>
				<path style="fill:url(#SVGID_00000024719911849940737870000010409706356633610924_);" d="M802.668,981.017v1061.873
					c0,53.682,43.092,97.423,96.768,98.226l2167.01,26.773c53.216,0.795,96.837-42.019,97.035-95.24l3.625-1052.385
					c0.142-38.055-30.176-69.235-68.219-70.161L880.27,905.28C837.72,904.245,802.668,938.455,802.668,981.017z"/>
				<path style="opacity:0.65;fill:#FFFFFF;" d="M3179.796,2211.886c-0.021,0-0.04,0-0.061,0l-2377.125-40.502
					c-1.923-0.035-3.456-1.62-3.423-3.543c0.031-1.923,1.599-3.439,3.541-3.425l2377.125,40.502c1.923,0.035,3.456,1.62,3.423,3.543
					C3183.245,2210.363,3181.691,2211.886,3179.796,2211.886z"/>
				
					<linearGradient id="SVGID_00000118357299804785216080000011534329576293935791_" gradientUnits="userSpaceOnUse" x1="2228.6689" y1="2362.5151" x2="1889.8992" y2="3014.772">
					<stop  offset="0" style="stop-color:#2B3582"/>
					<stop  offset="1" style="stop-color:#150E42"/>
				</linearGradient>
				<path style="fill:url(#SVGID_00000118357299804785216080000011534329576293935791_);" d="M2492.864,2760.108h-897.908
					c-24.393,0-42.712-17.366-37.995-36.019l11.522-45.566c3.465-13.703,18.54-23.764,36.446-24.322l865.615-27.011
					c18.707-0.583,35.271,9.346,39.347,23.588l20.77,72.577C2536.057,2742.21,2517.651,2760.108,2492.864,2760.108z"/>
				
					<linearGradient id="SVGID_00000120546010412928986000000016944671283485522057_" gradientUnits="userSpaceOnUse" x1="3492.5271" y1="381.8008" x2="-574.3533" y2="3479.5969">
					<stop  offset="0" style="stop-color:#FDF53F"/>
					<stop  offset="0.6645" style="stop-color:#E57A58"/>
					<stop  offset="1" style="stop-color:#D93C65"/>
				</linearGradient>
				<path style="fill:url(#SVGID_00000120546010412928986000000016944671283485522057_);" d="M802.668,981.017v1061.873
					c0,53.682,43.092,97.423,96.768,98.226l2167.01,26.773c53.216,0.795,96.837-42.019,97.035-95.24l3.625-1052.385
					c0.142-38.055-30.176-69.235-68.219-70.161L880.27,905.28C837.72,904.245,802.668,938.455,802.668,981.017z"/>
			</g>
			<g>
				<ellipse style="fill:#FFFFFF;" cx="2024.26" cy="1442.081" rx="340.877" ry="345.239"/>
				
					<linearGradient id="SVGID_00000061449422092469572100000012006740102362582417_" gradientUnits="userSpaceOnUse" x1="2475.4043" y1="279.6622" x2="1707.6488" y2="2060.0605">
					<stop  offset="0" style="stop-color:#A737D5"/>
					<stop  offset="1" style="stop-color:#EF497A"/>
				</linearGradient>
				<path style="fill:url(#SVGID_00000061449422092469572100000012006740102362582417_);" d="M2012.255,1628.108
					c-14.776,0-28.52-7.839-36.165-20.727l-128.241-216.194c-12.003-20.234-5.536-46.487,14.442-58.642
					c19.968-12.152,45.895-5.61,57.898,14.624l89.021,150.077l117.682-234.105c10.573-21.034,35.986-29.403,56.749-18.694
					c20.768,10.709,29.034,36.441,18.461,57.473l-152.238,302.841c-6.961,13.846-20.797,22.777-36.126,23.32
					C2013.244,1628.098,2012.75,1628.108,2012.255,1628.108z"/>
			</g>
		</g>
		<g>
			
				<linearGradient id="SVGID_00000148651741916553257810000012986004130624901793_" gradientUnits="userSpaceOnUse" x1="6789.4629" y1="948.2423" x2="7836.9912" y2="948.2423" gradientTransform="matrix(0.9241 0.3823 -0.3823 0.9241 -5471.54 -1929.6399)">
				<stop  offset="0" style="stop-color:#A737D5"/>
				<stop  offset="1" style="stop-color:#EF497A"/>
			</linearGradient>
			<path style="fill:url(#SVGID_00000148651741916553257810000012986004130624901793_);" d="M672.409,985.742
				c-2.594-11.043,12.94-18.384,22.453-10.67c96.596,78.329,328.688,312.892,270.846,722.806
				c-72.571,514.299,51.498,701.962,205.933,816.433c0,0-212.091-53.832-345.529-244.256
				C498.492,1802.519,718.535,1182.094,672.409,985.742z"/>
			<path style="fill:#FFFFFF;" d="M745.919,1146.378c12.084,57.254,22.855,114.684,31.178,172.371
				c8.672,57.639,15.318,115.48,19.865,173.416c4.29,57.946,7.32,115.953,7.492,173.985c0.474,58.028-1.938,116.009-4.596,174.215
				c-2.28,58.186-4.96,116.791-0.701,175.811c4.188,58.9,16.587,118.314,41.19,174.012c6.15,13.881,12.617,27.719,19.964,41.091
				c7.063,13.495,14.82,26.723,22.848,39.825c16.211,26.143,34.459,51.401,54.794,75.375
				c40.818,47.866,90.046,90.327,144.277,126.264c5.708,3.782,13.885,2.853,18.266-2.076c4.301-4.839,3.34-11.736-2.1-15.565
				l-0.039-0.027c-12.904-9.063-25.672-18.242-37.922-27.882c-6.216-4.736-12.175-9.7-18.239-14.565
				c-5.844-5.057-11.918-9.921-17.574-15.129c-23.028-20.496-44.362-42.364-63.717-65.485
				c-38.931-46.028-70.097-97.319-93.71-150.491c-11.462-26.709-20.625-54.102-27.314-82.008
				c-6.666-27.913-10.858-56.312-13.177-84.939c-4.644-57.286-2.546-115.311-0.75-173.507c1.709-58.211,2.962-116.718,1.426-175.177
				c-0.677-29.228-1.961-58.442-3.852-87.621c-0.848-14.594-2.022-29.171-3.167-43.747c-1.306-14.567-2.706-29.126-4.242-43.672
				c-6.271-58.177-14.594-116.16-25.026-173.836c-10.753-57.632-23.274-114.998-38.332-171.851
				c-0.431-1.626-2.305-2.641-4.186-2.269C746.751,1143.256,745.59,1144.801,745.919,1146.378z"/>
		</g>
		<g>
			<g>
				
					<linearGradient id="SVGID_00000110453794617423754670000002708429271542179721_" gradientUnits="userSpaceOnUse" x1="-1087.813" y1="4279.3628" x2="-83.1741" y2="4279.3628" gradientTransform="matrix(0.6312 -0.7758 0.7758 0.6312 -1946.3445 -1491.1105)">
					<stop  offset="0" style="stop-color:#CE1567"/>
					<stop  offset="1" style="stop-color:#7A1DBC"/>
				</linearGradient>
				<path style="fill:url(#SVGID_00000110453794617423754670000002708429271542179721_);" d="M922.636,2216.761
					c-11.844,12.566-32.673,8.953-39.797-6.777c-39.314-86.792-128.277-342.237,18.649-636.523
					c124.073-248.511,167.734-395.055,182.944-462.954c3.217-14.358,22.893-16.264,28.832-2.802
					C1178.79,1256.226,1351.807,1761.415,922.636,2216.761z"/>
				<path style="fill:#FFFFFF;" d="M901.123,2207.602c-0.421,0.075-0.855,0.111-1.299,0.104c-3.723-0.057-6.695-3.121-6.638-6.844
					c0.065-4.22,8.279-426.088,165.184-779.42c1.511-3.4,5.494-4.934,8.899-3.426c3.403,1.512,4.936,5.495,3.426,8.9
					c-155.764,350.759-163.963,769.96-164.027,774.152C906.619,2204.348,904.236,2207.044,901.123,2207.602z"/>
			</g>
		</g>
		<g>
			
				<linearGradient id="SVGID_00000129189358036410257300000008808432370218355331_" gradientUnits="userSpaceOnUse" x1="2139.2571" y1="2001.488" x2="500.9397" y2="2898.1804">
				<stop  offset="0" style="stop-color:#2B3582"/>
				<stop  offset="1" style="stop-color:#150E42"/>
			</linearGradient>
			<path style="fill:url(#SVGID_00000129189358036410257300000008808432370218355331_);" d="M583.134,2882.918
				c0,15.681,12.842,28.51,28.538,28.51H2154.87c15.696,0,28.538-12.83,28.538-28.51l12.841-886.833
				c0-15.68-18.474-46.293-52.332-43.993l-1508.184-39.024c-19.694-0.51-38.735,7.07-52.681,20.971
				c-13.946,13.901-21.577,32.906-21.111,52.581L583.134,2882.918z"/>
			
				<linearGradient id="SVGID_00000086687039204608248660000006276529258292842118_" gradientUnits="userSpaceOnUse" x1="1400.3798" y1="2222.2949" x2="1000.3544" y2="4674.146">
				<stop  offset="0" style="stop-color:#FDF53F"/>
				<stop  offset="0.6645" style="stop-color:#E57A58"/>
				<stop  offset="1" style="stop-color:#D93C65"/>
			</linearGradient>
			<path style="fill:url(#SVGID_00000086687039204608248660000006276529258292842118_);" d="M611.308,2855.566
				c0,14.849,12.149,26.999,26.998,26.999h1479.348c14.849,0,26.999-12.15,26.999-26.999l12.117-805.075
				c-1.427-48.448-43.902-65.86-69.65-64.832L641.664,1946.88c-13.836-0.371-27.213,4.959-37.012,14.734
				c-9.799,9.774-15.189,23.151-14.841,36.987L611.308,2855.566z"/>
			
				<linearGradient id="SVGID_00000165926901558907468150000000144540000026479263_" gradientUnits="userSpaceOnUse" x1="2000.203" y1="2276.4829" x2="606.171" y2="3752.1155">
				<stop  offset="0" style="stop-color:#2B3582"/>
				<stop  offset="1" style="stop-color:#150E42"/>
			</linearGradient>
			<path style="fill:url(#SVGID_00000165926901558907468150000000144540000026479263_);" d="M463.596,2985.047h1808.062
				c3.109,0,5.654-2.544,5.654-5.654v-66.613c0-3.109-2.544-5.654-5.654-5.654H463.596c-3.109,0-5.654,2.544-5.654,5.654v66.613
				C457.943,2982.503,460.487,2985.047,463.596,2985.047z"/>
			<g>
				<path style="fill:#FFFFFF;" d="M2128.667,2473.099c-0.02,0-0.04,0-0.059,0c-2.186-0.032-3.932-1.829-3.898-4.017l0.958-65.29
					c0.032-2.164,1.797-3.898,3.953-3.898c0.02,0,0.04,0,0.059,0c2.186,0.032,3.932,1.829,3.898,4.017l-0.958,65.29
					C2132.589,2471.365,2130.824,2473.099,2128.667,2473.099z"/>
				<path style="fill:#FFFFFF;" d="M2131.017,2313.104c-0.02,0-0.04,0-0.059,0c-2.186-0.031-3.931-1.833-3.898-4.016l3.671-250.063
					c-0.069-14.854-4.577-26.713-13.402-35.169c-16.473-15.781-42.625-14.976-43.727-14.925l-462-12.389
					c-2.184-0.055-3.908-1.876-3.849-4.06c0.057-2.184,1.736-4.044,4.062-3.847l461.725,12.389
					c2.873-0.17,30.718-0.652,49.262,17.116c10.432,9.996,15.762,23.767,15.841,40.923l-3.673,250.142
					C2134.939,2311.371,2133.174,2313.104,2131.017,2313.104z"/>
			</g>
			<g>
				<ellipse style="fill:#FFFFFF;" cx="1437.427" cy="2423.013" rx="280.383" ry="283.971"/>
				
					<linearGradient id="SVGID_00000083782191250399773030000002148496767650201753_" gradientUnits="userSpaceOnUse" x1="1808.5085" y1="1466.8843" x2="1177.0035" y2="2931.3225">
					<stop  offset="0" style="stop-color:#A737D5"/>
					<stop  offset="1" style="stop-color:#EF497A"/>
				</linearGradient>
				<path style="fill:url(#SVGID_00000083782191250399773030000002148496767650201753_);" d="M1427.552,2576.027
					c-12.154,0-23.459-6.448-29.747-17.049l-105.482-177.826c-9.873-16.643-4.554-38.237,11.879-48.235
					c16.425-9.995,37.75-4.614,47.623,12.029l73.223,123.443l96.798-192.559c8.697-17.301,29.599-24.185,46.678-15.377
					c17.083,8.808,23.881,29.974,15.185,47.273l-125.221,249.097c-5.726,11.389-17.106,18.735-29.715,19.181
					C1428.366,2576.018,1427.959,2576.027,1427.552,2576.027z"/>
			</g>
		</g>
		<g>
			<g style="opacity:0.3;">
				
					<linearGradient id="SVGID_00000128463955885951415710000013511845266501876615_" gradientUnits="userSpaceOnUse" x1="2528.7742" y1="1640.4524" x2="3041.4558" y2="1640.4524">
					<stop  offset="0" style="stop-color:#B37CFF"/>
					<stop  offset="1" style="stop-color:#F895E7"/>
				</linearGradient>
				<path style="fill:url(#SVGID_00000128463955885951415710000013511845266501876615_);" d="M2539.591,1842.858
					c-4.543,0-8.446-3.433-8.928-8.051c-1.059-10.098-1.693-20.392-1.887-30.595c-0.095-4.964,3.852-9.065,8.814-9.16
					c0.06,0,0.117,0,0.175,0c4.884,0,8.89,3.911,8.983,8.816c0.184,9.694,0.788,19.472,1.792,29.064
					c0.518,4.936-3.065,9.36-8.003,9.876C2540.22,1842.844,2539.904,1842.858,2539.591,1842.858z M2540.171,1764.556
					c-0.351,0-0.708-0.021-1.066-0.063c-4.929-0.583-8.455-5.052-7.872-9.982c1.199-10.126,2.843-20.301,4.886-30.24
					c0.999-4.863,5.73-7.984,10.614-6.997c4.863,1.001,7.993,5.755,6.994,10.614c-1.941,9.448-3.502,19.114-4.64,28.738
					C2548.546,1761.196,2544.663,1764.556,2540.171,1764.556z M2557.977,1688.329c-1,0-2.019-0.169-3.016-0.523
					c-4.675-1.668-7.117-6.808-5.451-11.484c3.413-9.585,7.287-19.142,11.514-28.404c2.064-4.515,7.396-6.499,11.909-4.445
					c4.515,2.061,6.506,7.394,4.445,11.909c-4.015,8.795-7.692,17.868-10.935,26.972
					C2565.134,1686.032,2561.671,1688.329,2557.977,1688.329z M2592.388,1617.982c-1.654,0-3.327-0.457-4.824-1.411
					c-4.185-2.668-5.414-8.226-2.746-12.411c5.477-8.584,11.39-17.035,17.574-25.118c3.018-3.936,8.656-4.687,12.601-1.675
					c3.941,3.016,4.691,8.658,1.675,12.601c-5.874,7.675-11.491,15.701-16.693,23.861
					C2598.26,1616.515,2595.357,1617.982,2592.388,1617.982z M2641.621,1557.077c-2.319,0-4.636-0.892-6.394-2.672
					c-3.49-3.532-3.455-9.223,0.077-12.71c7.226-7.138,14.86-14.068,22.69-20.592c3.811-3.181,9.48-2.668,12.659,1.148
					c3.177,3.813,2.663,9.48-1.15,12.661c-7.443,6.2-14.699,12.787-21.566,19.57
					C2646.186,1556.213,2643.903,1557.077,2641.621,1557.077z M2703.097,1508.583c-3.004,0-5.939-1.503-7.642-4.241
					c-2.621-4.217-1.329-9.757,2.886-12.38c8.639-5.372,17.618-10.442,26.686-15.062c4.425-2.254,9.836-0.495,12.09,3.929
					c2.254,4.42,0.495,9.834-3.927,12.088c-8.616,4.392-17.146,9.206-25.355,14.311
					C2706.357,1508.148,2704.718,1508.583,2703.097,1508.583z M3032.46,1487.183c-1.245,0-2.507-0.26-3.713-0.807
					c-8.792-3.995-17.876-7.661-27.001-10.891c-4.678-1.657-7.129-6.794-5.472-11.47c1.655-4.68,6.792-7.131,11.472-5.474
					c9.61,3.402,19.179,7.261,28.438,11.467c4.52,2.054,6.518,7.384,4.464,11.902
					C3039.144,1485.224,3035.876,1487.183,3032.46,1487.183z M2773.746,1474.941c-3.729,0-7.214-2.338-8.497-6.06
					c-1.619-4.694,0.875-9.81,5.566-11.428c9.619-3.318,19.499-6.256,29.366-8.735c4.819-1.187,9.699,1.71,10.909,6.527
					c1.209,4.814-1.713,9.698-6.529,10.909c-9.371,2.352-18.752,5.144-27.886,8.293
					C2775.705,1474.779,2774.716,1474.941,2773.746,1474.941z M2957.978,1463.035c-0.593,0-1.195-0.056-1.799-0.179
					c-9.469-1.927-19.147-3.469-28.764-4.589c-4.931-0.576-8.463-5.038-7.889-9.968c0.576-4.929,5.035-8.486,9.968-7.889
					c10.118,1.18,20.302,2.802,30.266,4.827c4.865,0.99,8.007,5.737,7.017,10.6
					C2965.911,1460.096,2962.163,1463.035,2957.978,1463.035z M2850.138,1457.923c-4.536,0-8.435-3.423-8.927-8.033
					c-0.527-4.937,3.048-9.364,7.984-9.894c10.106-1.078,20.396-1.734,30.581-1.945c0.063-0.004,0.128-0.004,0.191-0.004
					c4.876,0,8.879,3.901,8.983,8.799c0.104,4.965-3.834,9.072-8.798,9.174c-9.675,0.203-19.448,0.828-29.05,1.854
					C2850.778,1457.905,2850.456,1457.923,2850.138,1457.923z"/>
				
					<linearGradient id="SVGID_00000170956776521327482250000004074915856709510556_" gradientUnits="userSpaceOnUse" x1="3066.3787" y1="1505.4137" x2="3096.321" y2="1505.4137">
					<stop  offset="0" style="stop-color:#B37CFF"/>
					<stop  offset="1" style="stop-color:#F895E7"/>
				</linearGradient>
				<path style="fill:url(#SVGID_00000170956776521327482250000004074915856709510556_);" d="M3087.323,1518.385
					c-1.77,0-3.559-0.52-5.123-1.608c-3.804-2.647-7.728-5.256-11.66-7.763c-4.187-2.665-5.421-8.223-2.754-12.408
					c2.665-4.188,8.225-5.428,12.41-2.753c4.138,2.633,8.263,5.379,12.267,8.163c4.074,2.833,5.082,8.437,2.249,12.51
					C3092.965,1517.041,3090.167,1518.385,3087.323,1518.385z"/>
			</g>
			<g style="opacity:0.3;">
				
					<linearGradient id="SVGID_00000152984133883270181640000014375044092982382979_" gradientUnits="userSpaceOnUse" x1="3221.7959" y1="1734.2106" x2="3242.3428" y2="1734.2106">
					<stop  offset="0" style="stop-color:#B37CFF"/>
					<stop  offset="1" style="stop-color:#F895E7"/>
				</linearGradient>
				<path style="fill:url(#SVGID_00000152984133883270181640000014375044092982382979_);" d="M3233.342,1750.273
					c-4.338,0-8.156-3.146-8.865-7.566c-0.732-4.575-1.573-9.213-2.5-13.781c-0.987-4.866,2.157-9.61,7.022-10.596
					c4.886-0.99,9.61,2.159,10.596,7.022c0.974,4.81,1.861,9.694,2.633,14.511c0.785,4.901-2.552,9.511-7.454,10.297
					C3234.294,1750.238,3233.814,1750.273,3233.342,1750.273z"/>
				
					<linearGradient id="SVGID_00000067956172191445847960000005985355531283345854_" gradientUnits="userSpaceOnUse" x1="2718.6602" y1="1967.9249" x2="3246.7346" y2="1967.9249">
					<stop  offset="0" style="stop-color:#B37CFF"/>
					<stop  offset="1" style="stop-color:#F895E7"/>
				</linearGradient>
				<path style="fill:url(#SVGID_00000067956172191445847960000005985355531283345854_);" d="M2888.077,2155.987
					c-4.136,0-8.288-0.071-12.453-0.211c-4.961-0.169-8.848-4.325-8.681-9.287c0.167-4.961,4.348-8.865,9.285-8.683
					c9.615,0.323,19.221,0.256,28.66-0.207c4.963-0.235,9.174,3.577,9.418,8.535c0.244,4.961-3.579,9.178-8.537,9.42
					C2899.931,2155.843,2893.978,2155.987,2888.077,2155.987z M2828.417,2150.941c-0.502,0-1.013-0.042-1.526-0.13
					c-9.885-1.688-19.809-3.816-29.494-6.323c-4.805-1.243-7.693-6.147-6.45-10.951c1.245-4.806,6.158-7.706,10.954-6.449
					c9.199,2.38,18.626,4.399,28.02,6.007c4.893,0.835,8.181,5.481,7.345,10.371
					C2836.517,2147.848,2832.716,2150.941,2828.417,2150.941z M2952.738,2149.965c-4.238,0-8.01-3.009-8.823-7.324
					c-0.918-4.881,2.293-9.578,7.171-10.498c9.332-1.755,18.716-3.936,27.893-6.485c4.786-1.32,9.738,1.475,11.065,6.257
					c1.327,4.785-1.475,9.739-6.258,11.067c-9.664,2.682-19.548,4.978-29.375,6.829
					C2953.849,2149.916,2953.289,2149.965,2952.738,2149.965z M2754.336,2129.668c-1.141,0-2.3-0.221-3.419-0.681
					c-9.264-3.816-18.477-8.075-27.381-12.657c-4.413-2.271-6.149-7.689-3.878-12.102c2.272-4.417,7.688-6.155,12.104-3.88
					c8.455,4.35,17.202,8.395,26.001,12.018c4.591,1.888,6.778,7.145,4.887,11.733
					C2761.222,2127.569,2757.87,2129.668,2754.336,2129.668z M3026.374,2127.425c-3.476,0-6.787-2.029-8.254-5.425
					c-1.97-4.557,0.128-9.848,4.685-11.818c8.712-3.763,17.386-7.956,25.783-12.457c4.375-2.345,9.824-0.702,12.169,3.676
					c2.344,4.375,0.699,9.82-3.676,12.165c-8.839,4.74-17.971,9.153-27.145,13.117
					C3028.775,2127.186,3027.564,2127.425,3026.374,2127.425z M3093.283,2089.271c-2.779,0-5.519-1.285-7.278-3.704
					c-2.917-4.017-2.028-9.638,1.989-12.555c7.701-5.597,15.257-11.583,22.456-17.79c3.755-3.248,9.429-2.83,12.677,0.934
					c3.242,3.76,2.823,9.434-0.936,12.678c-7.577,6.534-15.527,12.833-23.632,18.72
					C3096.964,2088.713,3095.116,2089.271,3093.283,2089.271z M3150.282,2037.438c-2.114,0-4.234-0.741-5.944-2.25
					c-3.722-3.283-4.076-8.964-0.792-12.686c6.306-7.145,12.378-14.63,18.048-22.256c2.961-3.981,8.588-4.814,12.576-1.847
					c3.982,2.964,4.81,8.592,1.847,12.577c-5.969,8.023-12.359,15.905-18.993,23.422
					C3155.249,2036.409,3152.772,2037.438,3150.282,2037.438z M3194.618,1974.412c-1.465,0-2.948-0.358-4.323-1.113
					c-4.35-2.391-5.937-7.854-3.546-12.204c4.589-8.346,8.871-16.979,12.729-25.666c2.016-4.536,7.333-6.58,11.862-4.568
					c4.538,2.015,6.582,7.327,4.566,11.864c-4.064,9.15-8.574,18.243-13.403,27.028
					C3200.865,1972.73,3197.79,1974.412,3194.618,1974.412z M3224.047,1903.163c-0.823,0-1.661-0.116-2.491-0.355
					c-4.77-1.373-7.524-6.355-6.149-11.123c2.628-9.129,4.901-18.489,6.755-27.828c0.967-4.87,5.712-8.026,10.566-7.064
					c4.869,0.966,8.033,5.698,7.066,10.568c-1.952,9.831-4.345,19.686-7.113,29.296
					C3231.546,1900.597,3227.951,1903.163,3224.047,1903.163z M3237.095,1827.241c-0.185,0-0.37-0.007-0.557-0.018
					c-4.954-0.302-8.726-4.564-8.423-9.518c0.427-6.994,0.642-14.083,0.642-21.077c0-2.531-0.03-5.059-0.084-7.577
					c-0.107-4.964,3.829-9.076,8.792-9.181c5.022-0.207,9.073,3.827,9.181,8.788c0.058,2.651,0.088,5.305,0.088,7.97
					c0,7.356-0.228,14.816-0.677,22.172C3245.768,1823.569,3241.809,1827.241,3237.095,1827.241z"/>
				
					<linearGradient id="SVGID_00000025405204954752804800000008475623470249057431_" gradientUnits="userSpaceOnUse" x1="2666.022" y1="2079.2354" x2="2695.5823" y2="2079.2354">
					<stop  offset="0" style="stop-color:#B37CFF"/>
					<stop  offset="1" style="stop-color:#F895E7"/>
				</linearGradient>
				<path style="fill:url(#SVGID_00000025405204954752804800000008475623470249057431_);" d="M2686.587,2092.476
					c-1.787,0-3.59-0.53-5.161-1.633c-3.981-2.798-7.979-5.733-11.881-8.725c-3.941-3.02-4.688-8.662-1.668-12.601
					c3.021-3.939,8.658-4.691,12.601-1.668c3.708,2.841,7.505,5.628,11.284,8.286c4.06,2.851,5.04,8.458,2.186,12.52
					C2692.197,2091.146,2689.413,2092.476,2686.587,2092.476z"/>
			</g>
			<g>
				
					<linearGradient id="SVGID_00000137131095864719460370000011369307774950874001_" gradientUnits="userSpaceOnUse" x1="4879.6997" y1="1172.892" x2="5705.4844" y2="2629.7671" gradientTransform="matrix(-0.4937 0.8696 -0.8696 -0.4937 6622.9307 -1869.9039)">
					<stop  offset="0" style="stop-color:#CB236D"/>
					<stop  offset="1" style="stop-color:#4C246D"/>
				</linearGradient>
				<path style="fill:url(#SVGID_00000137131095864719460370000011369307774950874001_);" d="M2698.715,1988.222
					c1.133,1.388,3.023,1.906,4.705,1.287l47.987-17.647c18.918,14.569,40.294,26.227,63.533,34.214l11.704,49.738
					c0.41,1.745,1.883,3.036,3.666,3.217l61.017,6.181c1.784,0.18,3.484-0.791,4.237-2.417l21.44-46.381
					c24.368-3.165,47.648-10.299,69.103-20.779l43.474,26.912c1.524,0.943,3.478,0.816,4.867-0.317l47.516-38.775
					c1.389-1.134,1.906-3.023,1.287-4.705l-17.647-47.987c14.57-18.917,26.227-40.295,34.214-63.533l49.739-11.704
					c1.744-0.41,3.036-1.882,3.217-3.665l6.181-61.018c0.181-1.783-0.79-3.485-2.417-4.236l-46.381-21.441
					c-3.165-24.368-10.298-47.648-20.779-69.103l26.912-43.475c0.942-1.523,0.815-3.478-0.317-4.866l-38.775-47.516
					c-1.133-1.39-3.022-1.906-4.704-1.287l-47.988,17.647c-18.917-14.57-40.294-26.228-63.532-34.214l-11.704-49.739
					c-0.411-1.744-1.882-3.036-3.665-3.217l-61.018-6.18c-1.783-0.181-3.484,0.79-4.236,2.417l-21.44,46.381
					c-24.368,3.164-47.649,10.298-69.104,20.779l-43.474-26.912c-1.524-0.944-3.479-0.816-4.867,0.317l-47.516,38.775
					c-1.388,1.133-1.905,3.022-1.287,4.704l17.647,47.987c-14.57,18.917-26.227,40.295-34.214,63.533l-49.739,11.704
					c-1.744,0.41-3.037,1.882-3.216,3.666l-6.181,61.016c-0.18,1.783,0.79,3.484,2.416,4.237l46.381,21.44
					c3.165,24.368,10.299,47.648,20.778,69.103l-26.911,43.474c-0.944,1.524-0.816,3.478,0.317,4.867L2698.715,1988.222z"/>
				<path style="opacity:0.56;fill:#FFFFFF;" d="M2887.916,1855.866c-30.051,0-56.438-22.067-60.947-52.662
					c-4.956-33.632,18.371-65.02,52-69.978c16.292-2.405,32.543,1.685,45.757,11.506c13.217,9.82,21.819,24.201,24.219,40.492
					c4.956,33.632-18.371,65.02-51.999,69.978C2893.913,1855.649,2890.895,1855.866,2887.916,1855.866z M2888.056,1746.941
					c-2.321,0-4.654,0.169-6.992,0.513c-25.783,3.799-43.668,27.87-39.869,53.652c3.801,25.785,27.863,43.68,53.653,39.871
					c25.783-3.799,43.668-27.87,39.869-53.651c-1.841-12.493-8.435-23.517-18.569-31.048
					C2907.911,1750.157,2898.135,1746.941,2888.056,1746.941z"/>
				<path style="opacity:0.56;fill:#FFFFFF;" d="M2889.177,1944.905c-5.161,0-10.352-0.26-15.557-0.786l0,0
					c-1.638-0.165-3.274-0.358-4.907-0.576c-8.049-1.078-16-2.795-23.729-5.122c-0.105-0.032-0.211-0.063-0.316-0.095
					c-0.299-0.091-0.597-0.183-0.895-0.278c-0.581-0.179-1.16-0.365-1.738-0.551c-1.52-0.491-2.488-1.899-2.489-3.416
					c0-0.369,0.058-0.744,0.177-1.113c0.611-1.889,2.64-2.917,4.528-2.31c9.72,3.149,19.844,5.27,30.093,6.306
					c50.904,5.165,98.4-16.912,127.978-54.367c16.454-20.831,27.363-46.422,30.23-74.735c0.504-4.965,0.753-9.919,0.751-14.841
					c-0.004-33.13-11.307-64.985-32.536-90.998c-24.384-29.882-58.946-48.48-97.316-52.366
					c-79.247-8.019-150.185,49.895-158.207,129.103c-0.495,4.884-0.741,9.775-0.739,14.651c0.004,21.133,4.631,42.031,13.625,61.176
					c0.232,0.495,0.342,1.015,0.341,1.527c0,1.348-0.763,2.644-2.066,3.255c-1.801,0.839-3.939,0.077-4.783-1.727
					c-9.441-20.1-14.302-42.041-14.306-64.227c-0.002-5.119,0.256-10.252,0.774-15.378c8.423-83.162,82.955-143.955,166.086-135.535
					c40.283,4.08,76.564,23.605,102.163,54.975c22.288,27.308,34.153,60.751,34.158,95.531c0,5.168-0.262,10.368-0.788,15.578
					c-4.082,40.285-23.605,76.568-54.974,102.167C2957.416,1933.042,2923.963,1944.905,2889.177,1944.905z"/>
			</g>
		</g>
		<g>
			
				<linearGradient id="SVGID_00000160902396904173556630000010199136481253500032_" gradientUnits="userSpaceOnUse" x1="2417.0664" y1="2783.282" x2="3091.2693" y2="1704.5582">
				<stop  offset="0" style="stop-color:#2B3582"/>
				<stop  offset="1" style="stop-color:#150E42"/>
			</linearGradient>
			<path style="fill:url(#SVGID_00000160902396904173556630000010199136481253500032_);" d="M2981.917,2978.586l-601.625,2.589
				c-49.492,0.213-90.125-37.105-91.604-84.132c-6.565-208.87-22.928-818.547-20.7-1017.414
				c0.383-34.18,29.034-61.991,64.972-63.132c139.749-4.436,475.813-12.11,631.946,10.265c32.88,4.712,57.564,30.973,58.763,62.563
				c6.643,175.002,28.158,828.543,24.318,1027.324C3047.324,2950.932,3017.986,2978.43,2981.917,2978.586z"/>
			
				<linearGradient id="SVGID_00000159427498998939664020000008400747069584230788_" gradientUnits="userSpaceOnUse" x1="3070.2026" y1="1748.6193" x2="1755.5756" y2="3846.9656">
				<stop  offset="0" style="stop-color:#FDF53F"/>
				<stop  offset="0.6645" style="stop-color:#E57A58"/>
				<stop  offset="1" style="stop-color:#D93C65"/>
			</linearGradient>
			<path style="fill:url(#SVGID_00000159427498998939664020000008400747069584230788_);" d="M2958.419,2927.245l-559.585,2.408
				c-28.289,0.122-51.433-21.446-51.972-48.432l-18.286-970.722c-0.534-26.755,21.934-48.784,49.979-49.004l554.577-4.209
				c20.054-0.158,36.551,15.015,37.121,34.141l27.909,996.629C2998.8,2909.447,2980.848,2927.149,2958.419,2927.245z"/>
		</g>
		<g>
			<ellipse style="fill:#FFFFFF;" cx="2662.042" cy="2272.427" rx="225.713" ry="228.602"/>
			
				<linearGradient id="SVGID_00000034070787727615616280000017468654361444374685_" gradientUnits="userSpaceOnUse" x1="2960.7683" y1="1502.7272" x2="2452.396" y2="2681.6252">
				<stop  offset="0" style="stop-color:#A737D5"/>
				<stop  offset="1" style="stop-color:#EF497A"/>
			</linearGradient>
			<path style="fill:url(#SVGID_00000034070787727615616280000017468654361444374685_);" d="M2654.092,2395.606
				c-9.784,0-18.885-5.19-23.947-13.725l-84.915-143.153c-7.948-13.398-3.666-30.782,9.563-38.83
				c13.222-8.047,30.389-3.714,38.337,9.683l58.946,99.374L2730,2153.942c7.001-13.928,23.828-19.469,37.577-12.379
				c13.752,7.091,19.225,24.13,12.224,38.056l-100.805,200.528c-4.61,9.168-13.771,15.082-23.921,15.441
				C2654.747,2395.599,2654.42,2395.606,2654.092,2395.606z"/>
		</g>
		<g>
			
				<linearGradient id="SVGID_00000052789165493898455210000010082259628100134824_" gradientUnits="userSpaceOnUse" x1="2360.1692" y1="3443.2156" x2="3093.4739" y2="2546.9541">
				<stop  offset="0" style="stop-color:#2B3582"/>
				<stop  offset="1" style="stop-color:#150E42"/>
			</linearGradient>
			<path style="fill:url(#SVGID_00000052789165493898455210000010082259628100134824_);" d="M2691.163,2407.485
				c-1.065,121.199-4.21,539.251,1.602,687.31c0.616,15.685,11.524,28.146,24.943,28.493c66.367,1.717,309.63,5.138,418.067-1.532
				c22.586-1.39,40.292-23.027,40.433-49.489c0.678-127.208,1.217-484.978-12.639-648.698c-1.66-19.616-15.027-35.088-31.81-36.842
				c-72.348-7.559-316.833-25.197-410.485-16.918C2704.384,2371.302,2691.337,2387.667,2691.163,2407.485z"/>
			
				<linearGradient id="SVGID_00000154424262322228201340000008382722134570844844_" gradientUnits="userSpaceOnUse" x1="2937.3982" y1="2443.5198" x2="2761.2305" y2="4147.3589" gradientTransform="matrix(0.9999 -0.0124 0.0124 0.9999 -10.0962 0.2244)">
				<stop  offset="0" style="stop-color:#FDF53F"/>
				<stop  offset="0.6645" style="stop-color:#E57A58"/>
				<stop  offset="1" style="stop-color:#D93C65"/>
			</linearGradient>
			<path style="fill:url(#SVGID_00000154424262322228201340000008382722134570844844_);" d="M2721.223,2444.292
				c-2.358,97.844-9.586,423.339-4.52,543.604c0.74,17.579,12.764,31.65,27.792,32.492c61.874,3.466,272.91,10.182,363.482,0.563
				c16.309-1.732,28.93-17.339,29.574-36.485c3.358-99.833,12.795-402.948,7.894-521.867c-0.782-18.971-13.541-34.314-29.728-35.811
				c-66.968-6.196-291.302-20.132-368.296-14.258C2732.968,2413.635,2721.631,2427.354,2721.223,2444.292z"/>
			<path style="opacity:0.5;fill:#FFFFFF;" d="M2854.906,2389.328L2854.906,2389.328c0.046,3.718,2.561,6.754,5.737,6.908
				c15.68,0.765,59.851,2.934,79.594,4.028c3.893,0.216,6.895-3.912,6.101-8.378l-0.135-0.762c-0.542-3.047-2.735-5.319-5.385-5.57
				c-13.351-1.264-53.634-4.729-80.277-3.285C2857.339,2382.444,2854.859,2385.579,2854.906,2389.328z"/>
		</g>
		<g>
			<ellipse style="fill:#FFFFFF;" cx="2936.879" cy="2730.699" rx="160.407" ry="162.46"/>
			
				<linearGradient id="SVGID_00000002377918390576606080000007374095306389156251_" gradientUnits="userSpaceOnUse" x1="3149.1741" y1="2183.6987" x2="2787.8906" y2="3021.5027">
				<stop  offset="0" style="stop-color:#A737D5"/>
				<stop  offset="1" style="stop-color:#EF497A"/>
			</linearGradient>
			<path style="fill:url(#SVGID_00000002377918390576606080000007374095306389156251_);" d="M2931.229,2818.238
				c-6.953,0-13.421-3.689-17.018-9.754l-60.346-101.735c-5.648-9.521-2.605-21.875,6.796-27.595
				c9.396-5.719,21.597-2.64,27.245,6.882l41.891,70.622l55.378-110.163c4.975-9.898,16.934-13.836,26.705-8.797
				c9.773,5.039,13.662,17.148,8.687,27.045l-71.639,142.509c-3.276,6.515-9.787,10.718-17,10.974
				C2931.695,2818.233,2931.462,2818.238,2931.229,2818.238z"/>
		</g>
	</g>
</g>
</svg>
