<?xml version="1.0" encoding="utf-8"?>
<!-- Generator: Adobe Illustrator 27.5.0, SVG Export Plug-In . SVG Version: 6.00 Build 0)  -->
<svg version="1.1" xmlns="http://www.w3.org/2000/svg" xmlns:xlink="http://www.w3.org/1999/xlink" x="0px" y="0px"
	 viewBox="0 0 3710 3710" style="enable-background:new 0 0 3710 3710;" xml:space="preserve">
<g id="Background">
	<g>
		<g>
			<rect style="fill:#FFFFFF;" width="3710" height="3710"/>
		</g>
	</g>
</g>
<g id="Illustration">
	<g>
		<linearGradient id="SVGID_1_" gradientUnits="userSpaceOnUse" x1="3596.374" y1="4050.3767" x2="1117.0786" y2="971.2474">
			<stop  offset="0" style="stop-color:#DAE3FE"/>
			<stop  offset="1" style="stop-color:#E9EFFD"/>
		</linearGradient>
		<path style="fill:url(#SVGID_1_);" d="M2914.304,2836.079c-56.948,59.953-110.832,98.616-153.406,129.162
			c-500.434,359.067-1092.581,254.401-1218.429,228.84c-185.838-37.745-545.058-110.704-804.768-416.118
			c-392.919-462.065-331.736-1190.036-26.961-1670.58c55.748-87.9,350.226-575.763,948.75-654.001
			c362.221-47.349,784.453,48.148,1090.223,304.322C3391.551,1295.438,3345.859,2381.752,2914.304,2836.079z"/>
		<g>
			<g>
				
					<linearGradient id="SVGID_00000091718998555100503710000015472364517920032693_" gradientUnits="userSpaceOnUse" x1="2111.1497" y1="2979.0049" x2="2080.6511" y2="2375.1431">
					<stop  offset="0" style="stop-color:#09005D"/>
					<stop  offset="1" style="stop-color:#1A0F91"/>
				</linearGradient>
				<polygon style="fill:url(#SVGID_00000091718998555100503710000015472364517920032693_);" points="1856.284,2293.462 
					1805.631,2747.753 2393.31,2747.753 2316.764,2293.462 				"/>
				
					<linearGradient id="SVGID_00000152957377413622443800000010343393310710619276_" gradientUnits="userSpaceOnUse" x1="833.6733" y1="1713.4449" x2="3247.5715" y2="1713.4449">
					<stop  offset="0" style="stop-color:#09005D"/>
					<stop  offset="1" style="stop-color:#1A0F91"/>
				</linearGradient>
				<path style="fill:url(#SVGID_00000152957377413622443800000010343393310710619276_);" d="M833.673,1141.717v1070.628
					c0,88.074,70.184,160.096,158.228,162.367c391.046,10.083,1758.734,34.534,2130.983,29.046
					c63.979-0.943,115.809-52.142,117.655-116.102c7.178-248.722,18.836-846.813-24.306-1124.484
					c-9.085-58.474-58.443-102.2-117.589-104.092c-327.647-10.482-1777.486-43.764-2149.562-35.408
					C884.913,1025.113,833.673,1077.53,833.673,1141.717z"/>
				
					<linearGradient id="SVGID_00000049180066395871597400000013150496312073000377_" gradientUnits="userSpaceOnUse" x1="2136.0398" y1="311.2406" x2="1951.7654" y2="2689.4404">
					<stop  offset="0" style="stop-color:#53D8FF"/>
					<stop  offset="1" style="stop-color:#3840F7"/>
				</linearGradient>
				<path style="fill:url(#SVGID_00000049180066395871597400000013150496312073000377_);" d="M900.852,1136.505v1017.171
					c0,51.422,41.278,93.322,92.694,94.091l2075.784,25.646c50.975,0.762,92.76-40.25,92.95-91.231l3.472-1008.082
					c0.136-36.453-28.905-66.32-65.347-67.207l-2125.218-42.935C934.429,1062.965,900.852,1095.735,900.852,1136.505z"/>
				<path style="fill:#7D97F4;" d="M3177.909,2315.557c-0.02,0-0.038,0-0.058,0L900.796,2276.76
					c-1.842-0.033-3.31-1.552-3.279-3.394c0.03-1.842,1.532-3.294,3.392-3.281l2277.055,38.797c1.842,0.033,3.31,1.552,3.279,3.394
					C3181.213,2314.099,3179.725,2315.557,3177.909,2315.557z"/>
				
					<linearGradient id="SVGID_00000021815969007759503690000011134071002025622444_" gradientUnits="userSpaceOnUse" x1="2113.0476" y1="2751.1436" x2="1832.465" y2="3367.2053">
					<stop  offset="0" style="stop-color:#09005D"/>
					<stop  offset="1" style="stop-color:#1A0F91"/>
				</linearGradient>
				<path style="fill:url(#SVGID_00000021815969007759503690000011134071002025622444_);" d="M2519.895,2840.701h-860.108
					c-23.366,0-40.914-16.635-36.396-34.502l11.037-43.648c3.319-13.126,17.76-22.763,34.912-23.299l829.175-25.874
					c17.919-0.559,33.786,8.953,37.69,22.595l19.896,69.521C2561.271,2823.557,2543.639,2840.701,2519.895,2840.701z"/>
				<path style="fill:#91B3FA;" d="M900.852,1136.505v1017.171c0,51.422,41.278,93.322,92.694,94.091l2075.784,25.646
					c50.975,0.762,92.76-40.25,92.95-91.231l3.472-1008.082c0.136-36.453-28.905-66.32-65.347-67.207l-2125.218-42.935
					C934.429,1062.965,900.852,1095.735,900.852,1136.505z"/>
				
					<linearGradient id="SVGID_00000178896575683511113310000002164617025172292232_" gradientUnits="userSpaceOnUse" x1="901.9387" y1="1177.9451" x2="3165.7537" y2="1177.9451">
					<stop  offset="0" style="stop-color:#4F52FF"/>
					<stop  offset="1" style="stop-color:#4042E2"/>
				</linearGradient>
				<path style="fill:url(#SVGID_00000178896575683511113310000002164617025172292232_);" d="M3165.346,1292.011l0.407-118.135
					c0.136-36.452-28.905-66.209-65.347-67.096l-2124.675-42.88c-40.759-0.991-73.792,31.834-73.792,72.604v155.506H3165.346z"/>
				<g>
					
						<ellipse transform="matrix(0.2298 -0.9732 0.9732 0.2298 -370.9598 1935.8295)" style="fill:#91B3FA;" cx="1037.533" cy="1202.279" rx="24.334" ry="24.334"/>
					
						<ellipse transform="matrix(0.2298 -0.9732 0.9732 0.2298 -306.0233 2017.8804)" style="fill:#91B3FA;" cx="1121.84" cy="1202.279" rx="24.334" ry="24.334"/>
					
						<ellipse transform="matrix(0.1602 -0.9871 0.9871 0.1602 -175.9945 2197.7009)" style="fill:#91B3FA;" cx="1203.547" cy="1202.279" rx="24.334" ry="24.334"/>
				</g>
				<path style="fill:#BDD0FB;" d="M3039.243,2217.792l-1995.324-28.764c-30.327-0.437-54.683-25.146-54.683-55.477v-199.702
					c0-28.222,23.049-51.01,51.269-50.69l2000.009,22.741c22.963,0.261,41.441,18.951,41.441,41.916v227.873
					C3081.957,2199.181,3062.733,2218.13,3039.243,2217.792z"/>
				<path style="fill:#BDD0FB;" d="M2320.893,1858.201l-1275.496-18.35c-31.146-0.448-56.16-25.824-56.16-56.973v-394.861
					c0-22.299,18.077-40.376,40.376-40.376h1282.789c25.603,0,46.359,20.755,46.359,46.359v426.874
					C2358.761,1841.701,2341.718,1858.501,2320.893,1858.201z"/>
				<path style="fill:#BDD0FB;" d="M3039.833,1858.746h-607.662c-21.462,0-38.861-17.399-38.861-38.861v-423.835
					c0-26.736,21.673-48.409,48.409-48.409h611.032c16.13,0,29.206,13.076,29.206,29.206v439.775
					C3081.957,1839.887,3063.097,1858.746,3039.833,1858.746z"/>
			</g>
		</g>
		<g>
			
				<linearGradient id="SVGID_00000004539363654853678650000002572485939003351470_" gradientUnits="userSpaceOnUse" x1="1421.2606" y1="1809.0748" x2="1393.4456" y2="3090.8965">
				<stop  offset="0" style="stop-color:#09005D"/>
				<stop  offset="1" style="stop-color:#1A0F91"/>
			</linearGradient>
			<path style="fill:url(#SVGID_00000004539363654853678650000002572485939003351470_);" d="M595.369,2805.144
				c0,16.173,13.245,29.406,29.434,29.406h1591.674c16.188,0,29.434-13.233,29.434-29.406l13.244-914.691
				c0-16.173-19.055-47.747-53.976-45.375l-1555.559-40.25c-20.312-0.526-39.952,7.292-54.335,21.629
				c-14.384,14.337-22.254,33.939-21.774,54.233L595.369,2805.144z"/>
			<path style="fill:#91B3FA;" d="M624.428,2776.933c0,15.315,12.531,27.847,27.847,27.847h1525.818
				c15.316,0,27.847-12.531,27.847-27.847l12.498-830.365c-1.472-49.969-45.281-67.929-71.837-66.868l-1490.862-39.997
				c-14.27-0.383-28.067,5.115-38.174,15.196c-10.107,10.081-15.666,23.878-15.308,38.149L624.428,2776.933z"/>
			
				<linearGradient id="SVGID_00000062872490017040007090000013500693588775467948_" gradientUnits="userSpaceOnUse" x1="1428.8834" y1="1840.374" x2="1408.5618" y2="2698.939">
				<stop  offset="0" style="stop-color:#09005D"/>
				<stop  offset="1" style="stop-color:#1A0F91"/>
			</linearGradient>
			<path style="fill:url(#SVGID_00000062872490017040007090000013500693588775467948_);" d="M471.9,2910.48h1865.213
				c3.11,0,5.654-2.544,5.654-5.654v-69.061c0-3.109-2.544-5.654-5.654-5.654H471.9c-3.11,0-5.654,2.544-5.654,5.654v69.06
				C466.246,2907.936,468.79,2910.48,471.9,2910.48z"/>
			
				<linearGradient id="SVGID_00000110447130839032532380000007108459646230253484_" gradientUnits="userSpaceOnUse" x1="1245.9537" y1="3977.1379" x2="1444.125" y2="1536.4825">
				<stop  offset="0" style="stop-color:#4F52FF"/>
				<stop  offset="1" style="stop-color:#4042E2"/>
			</linearGradient>
			<path style="fill:url(#SVGID_00000110447130839032532380000007108459646230253484_);" d="M2217.194,2030.303l1.244-83.2
				c-1.472-49.969-45.281-68.197-71.838-67.136l-1490.862-40.131c-14.27-0.383-28.067,5.048-38.175,15.129
				c-10.106,10.081-15.665,24.381-15.307,38.651l3.417,136.687H2217.194z"/>
			<g>
				<path style="fill:#FFFFFF;" d="M2189.452,2382.451c0,0-0.041,0-0.061,0c-2.255-0.032-4.055-1.886-4.02-4.143l0.988-67.341
					c0.032-2.232,1.853-4.02,4.077-4.02c0.02,0,0.041,0,0.041,0c2.275,0.032,4.075,1.886,4.041,4.143l-0.988,67.341
					C2193.497,2380.663,2191.676,2382.451,2189.452,2382.451z"/>
				<path style="fill:#BDD0FB;" d="M2191.876,2217.43c-0.021,0-0.041,0-0.061,0c-2.255-0.033-4.055-1.89-4.021-4.143l3.786-257.918
					c-0.071-15.32-4.721-27.552-13.823-36.273c-16.99-16.277-43.964-15.446-45.1-15.393l-476.512-12.778
					c-2.253-0.057-4.031-1.935-3.97-4.187c0.059-2.253,1.79-4.171,4.189-3.968l476.229,12.778
					c2.963-0.175,31.683-0.672,50.809,17.654c10.76,10.31,16.257,24.514,16.338,42.208l-3.788,258
					C2195.921,2215.642,2194.1,2217.43,2191.876,2217.43z"/>
			</g>
			<path style="fill:#BDD0FB;" d="M1543.171,2453.327H707.484c-20.783,0-37.631-16.848-37.631-37.631v-307.198
				c0-20.783,16.848-37.631,37.631-37.631h835.687c20.783,0,37.631,16.848,37.631,37.631v307.198
				C1580.802,2436.479,1563.954,2453.327,1543.171,2453.327z"/>
			<path style="fill:#BDD0FB;" d="M2146.075,2453.327h-490.796c-14.889,0-26.959-12.07-26.959-26.96v-328.54
				c0-14.889,12.07-26.959,26.959-26.959h490.796c14.889,0,26.959,12.07,26.959,26.959v328.54
				C2173.034,2441.257,2160.964,2453.327,2146.075,2453.327z"/>
			<path style="fill:#BDD0FB;" d="M2139.897,2768.566H702.991c-18.301,0-33.138-14.836-33.138-33.138v-193.333
				c0-18.302,14.836-33.138,33.138-33.138h1436.906c18.302,0,33.138,14.836,33.138,33.138v193.333
				C2173.034,2753.73,2158.198,2768.566,2139.897,2768.566z"/>
			
				<ellipse transform="matrix(0.1602 -0.9871 0.9871 0.1602 -1334.9823 2295.6462)" style="fill:#91B3FA;" cx="681.613" cy="1932.365" rx="19.146" ry="19.146"/>
			
				<ellipse transform="matrix(0.7071 -0.7071 0.7071 0.7071 -1149.3612 1093.6174)" style="fill:#91B3FA;" cx="745.432" cy="1934.21" rx="19.146" ry="19.146"/>
			
				<ellipse transform="matrix(0.7071 -0.7071 0.7071 0.7071 -1134.4221 1136.7745)" style="fill:#91B3FA;" cx="804.997" cy="1937.756" rx="19.146" ry="19.146"/>
		</g>
		<g>
			<ellipse style="fill:#FFFFFF;" cx="2159.622" cy="1338.771" rx="262.767" ry="266.13"/>
			
				<linearGradient id="SVGID_00000160898151039097221770000016958783731483022013_" gradientUnits="userSpaceOnUse" x1="2159.6223" y1="442.7102" x2="2159.6223" y2="954.9394">
				<stop  offset="0" style="stop-color:#FEBBBA"/>
				<stop  offset="1" style="stop-color:#FF928E"/>
			</linearGradient>
			<path style="fill:url(#SVGID_00000160898151039097221770000016958783731483022013_);" d="M2150.368,1482.172
				c-11.39,0-21.985-6.042-27.878-15.978l-98.855-166.654c-9.253-15.597-4.268-35.835,11.133-45.204
				c15.393-9.367,35.378-4.324,44.631,11.273l68.623,115.688l90.716-180.462c8.15-16.214,27.74-22.666,43.745-14.411
				c16.01,8.255,22.381,28.091,14.23,44.303l-117.354,233.448c-5.366,10.673-16.032,17.558-27.848,17.976
				C2151.13,1482.164,2150.749,1482.172,2150.368,1482.172z"/>
		</g>
		<g>
			<ellipse style="fill:#FFFFFF;" cx="979.679" cy="2360.054" rx="262.767" ry="266.13"/>
			
				<linearGradient id="SVGID_00000045606523411541455820000004666448602428515469_" gradientUnits="userSpaceOnUse" x1="979.6785" y1="442.7103" x2="979.6785" y2="954.9395">
				<stop  offset="0" style="stop-color:#FEBBBA"/>
				<stop  offset="1" style="stop-color:#FF928E"/>
			</linearGradient>
			<path style="fill:url(#SVGID_00000045606523411541455820000004666448602428515469_);" d="M970.424,2503.454
				c-11.39,0-21.985-6.042-27.878-15.978l-98.855-166.655c-9.253-15.597-4.268-35.835,11.133-45.204
				c15.393-9.368,35.378-4.324,44.631,11.273l68.623,115.688l90.716-180.462c8.15-16.214,27.74-22.666,43.745-14.411
				c16.009,8.255,22.381,28.091,14.231,44.303l-117.354,233.448c-5.366,10.673-16.032,17.558-27.848,17.976
				C971.187,2503.447,970.805,2503.454,970.424,2503.454z"/>
		</g>
		<g>
			
				<linearGradient id="SVGID_00000142881560587664239390000016243303265078458788_" gradientUnits="userSpaceOnUse" x1="1286.9183" y1="181.6734" x2="594.4345" y2="1455.4419">
				<stop  offset="0" style="stop-color:#FEBBBA"/>
				<stop  offset="1" style="stop-color:#FF928E"/>
			</linearGradient>
			<path style="fill:url(#SVGID_00000142881560587664239390000016243303265078458788_);" d="M924.57,1093.502
				c33.886-65.823,96.914-112.229,170.122-120.518l5.008-316.939c0.043-2.707-2.155-4.937-4.862-4.908
				c-206.486,2.237-388.686,130.751-473.718,321.107c-1.237,2.769,0.131,6.017,2.966,7.095L924.57,1093.502z"/>
			
				<linearGradient id="SVGID_00000061466754814303487830000011671055889766722963_" gradientUnits="userSpaceOnUse" x1="1112.3026" y1="1145.1282" x2="1248.6805" y2="1483.5934">
				<stop  offset="0" style="stop-color:#FF928E"/>
				<stop  offset="1" style="stop-color:#FE7062"/>
			</linearGradient>
			<path style="fill:url(#SVGID_00000061466754814303487830000011671055889766722963_);" d="M1332.586,1245.348
				c-4.238-0.114-8.032,2.585-9.298,6.631c-3.546,11.332-10.026,33.073-11.088,35.824c-5.162,13.375-11.208,26.421-18.291,38.89
				c-13.134,23.124-29.931,44.318-50.655,61.1c-52.523,42.532-128.027,50.434-191.005,29.384c-1.795-0.6-3.574-1.245-5.347-1.908
				c-3.281-1.227-6.963,0.135-8.647,3.206l-158.798,289.596c77.11,38.668,149.674,48.78,240.713,42.945
				c264.503-16.951,472.203-231.716,495.256-498.043L1332.586,1245.348z"/>
			
				<linearGradient id="SVGID_00000001638544936716010310000008006366591382806460_" gradientUnits="userSpaceOnUse" x1="1818.6335" y1="470.7434" x2="1126.1482" y2="1744.5146">
				<stop  offset="0" style="stop-color:#FEBBBA"/>
				<stop  offset="1" style="stop-color:#FF928E"/>
			</linearGradient>
			<path style="fill:url(#SVGID_00000001638544936716010310000008006366591382806460_);" d="M1332.586,1245.348
				c-17.217,105.683-95.319,188.259-201.452,191.863c-29.858,1.014-65.483-5.922-91.672-16.531
				c-2.731-1.106-5.861,0.011-7.342,2.558L868.896,1704.03c77.11,38.668,164.185,57.595,255.224,51.761
				c264.503-16.951,472.203-238.235,495.256-504.563L1332.586,1245.348z"/>
			
				<linearGradient id="SVGID_00000073688329485859365410000013598379708059050134_" gradientUnits="userSpaceOnUse" x1="1457.1757" y1="2106.4792" x2="1128.6075" y2="1727.3623">
				<stop  offset="0" style="stop-color:#FF928E"/>
				<stop  offset="1" style="stop-color:#FE7062"/>
			</linearGradient>
			<path style="fill:url(#SVGID_00000073688329485859365410000013598379708059050134_);" d="M834.874,1659.697l158.042-283.464
				c1.119-2.007,0.644-4.512-1.114-5.993c-48.655-40.974-87.553-95.911-87.553-167.151c0-17.57-7.791-43.144-4.222-59.63
				l-297.214-106.278c-16.498,53.667-25.406,110.786-25.406,169.97c0,191.326,101.66,359.599,241.243,456.327
				C824.106,1667.259,831.641,1665.495,834.874,1659.697z"/>
			
				<linearGradient id="SVGID_00000129205938684204223430000005505966867655916184_" gradientUnits="userSpaceOnUse" x1="1331.8046" y1="206.0782" x2="639.3201" y2="1479.848">
				<stop  offset="0" style="stop-color:#FEBBBA"/>
				<stop  offset="1" style="stop-color:#FF928E"/>
			</linearGradient>
			<path style="fill:url(#SVGID_00000129205938684204223430000005505966867655916184_);" d="M819.071,1651.642l163.779-279.958
				c2.081-3.557,1.365-8.091-1.73-10.813c-46.981-41.321-76.872-103.435-76.872-173.516c0-17.57,1.898-34.7,5.467-51.185
				l-302.451-113.059c-2.409-0.901-5.093,0.418-5.829,2.882c-15.616,52.342-24.029,107.908-24.029,165.424
				C577.407,1387.399,674.241,1556.156,819.071,1651.642z"/>
			<g>
				
					<linearGradient id="SVGID_00000076580125297478356660000012937227978781072804_" gradientUnits="userSpaceOnUse" x1="1118.3492" y1="600.3528" x2="2018.4442" y2="1426.0603">
					<stop  offset="0" style="stop-color:#E1473D"/>
					<stop  offset="1" style="stop-color:#E9605A"/>
				</linearGradient>
				<path style="fill:url(#SVGID_00000076580125297478356660000012937227978781072804_);" d="M1152.632,974.49
					c93.747,15.68,166.444,94.618,178.759,193.261c0.659,5.276,5.015,9.309,10.328,9.487l453.417,15.195
					c1.409-1.366,2.152-2.086,3.562-3.452c-1.387-379.309-273.37-704.275-637.694-747.289L1152.632,974.49z"/>
			</g>
		</g>
		<g>
			
				<linearGradient id="SVGID_00000105416874702495832490000007943832365698532783_" gradientUnits="userSpaceOnUse" x1="18805.4805" y1="2766.7334" x2="18461.8574" y2="2962.8687" gradientTransform="matrix(-1 0 0 1 19947.5723 0)">
				<stop  offset="0" style="stop-color:#FEBBBA"/>
				<stop  offset="1" style="stop-color:#FF928E"/>
			</linearGradient>
			<path style="fill:url(#SVGID_00000105416874702495832490000007943832365698532783_);" d="M1194.334,3086.48
				c0.405-0.156,218.362-381.85,247.814-417.77c4.955-6.041,12.623-9.118,20.383-8.193l60.835,7.25l71.469,154.613l-119.065-69.342
				c11.782,81.482-141.173,202.573-193.63,246.759c-5.324,4.484-5.76,12.516-0.953,17.548l20.942,21.923
				c-34.382,34.851-74.056,57.229-118.834,67.579L1194.334,3086.48z"/>
			
				<linearGradient id="SVGID_00000021089320050137474520000018025535151651771025_" gradientUnits="userSpaceOnUse" x1="-8847.9912" y1="-3456.6956" x2="-8874.3691" y2="-3052.2234" gradientTransform="matrix(0.8974 -0.4412 0.4412 0.8974 10652.2939 2161.1482)">
				<stop  offset="0" style="stop-color:#4F52FF"/>
				<stop  offset="1" style="stop-color:#4042E2"/>
			</linearGradient>
			<path style="fill:url(#SVGID_00000021089320050137474520000018025535151651771025_);" d="M1290.016,3027.435
				c0,0,13.366,4.318,17.891,16.222c2.165,5.696-0.169,12.146-5.122,15.695c-22.009,15.768-94.606,66.675-128.107,76.645
				c-2.746,0.817-5.359-1.667-4.741-4.465c1.719-7.782,7.28-23.324,25.196-46.075l-1.607,3.251
				c-2.034,4.115,2.446,8.398,6.443,6.142C1222.377,3082.201,1268.017,3054.515,1290.016,3027.435z"/>
			
				<linearGradient id="SVGID_00000135656940111824972790000014872797614247325863_" gradientUnits="userSpaceOnUse" x1="18772.2402" y1="2815.6479" x2="19947.9473" y2="2079.6372" gradientTransform="matrix(-1 0 0 1 19947.5723 0)">
				<stop  offset="0" style="stop-color:#FEBBBA"/>
				<stop  offset="1" style="stop-color:#FF928E"/>
			</linearGradient>
			<path style="fill:url(#SVGID_00000135656940111824972790000014872797614247325863_);" d="M1279.23,3180.16
				c0.365-0.235,33.066-79.021,33.432-79.255c29.982-182.547,103.134-338.885,124.708-380.022
				c3.63-6.919,10.516-11.483,18.303-12.149l61.043-5.212l101.28,136.949l-130.634-43.811
				c28.028,77.411-97.255,226.952-139.685,280.839c-4.306,5.469-3.109,13.423,2.619,17.378l24.946,17.231
				c-26.617,41.087-60.942,71.031-102.699,90.229L1279.23,3180.16z"/>
			
				<linearGradient id="SVGID_00000078007971963757982560000016714766065435096966_" gradientUnits="userSpaceOnUse" x1="-7359.687" y1="-5886.2139" x2="-7386.064" y2="-5481.7681" gradientTransform="matrix(0.7895 -0.6137 0.6137 0.7895 10669.8828 3191.1018)">
				<stop  offset="0" style="stop-color:#4F52FF"/>
				<stop  offset="1" style="stop-color:#4042E2"/>
			</linearGradient>
			<path style="fill:url(#SVGID_00000078007971963757982560000016714766065435096966_);" d="M1360.982,3102.974
				c0,0,13.963,1.523,20.804,12.265c3.272,5.139,2.293,11.929-1.84,16.407c-18.362,19.895-79.155,84.44-109.945,100.984
				c-2.524,1.356-5.585-0.548-5.547-3.413c0.108-7.969,2.409-24.315,15.35-50.221l-0.916,3.509c-1.159,4.441,4.095,7.73,7.553,4.711
				C1305.826,3170.295,1344.919,3133.946,1360.982,3102.974z"/>
			<g>
				
					<linearGradient id="SVGID_00000168099787799211898400000005935268755660000168_" gradientUnits="userSpaceOnUse" x1="10651.9141" y1="2520.4661" x2="10369.2969" y2="2830.1831" gradientTransform="matrix(-1 0 0 1 12115.873 0)">
					<stop  offset="0" style="stop-color:#E1473D"/>
					<stop  offset="1" style="stop-color:#E9605A"/>
				</linearGradient>
				<path style="fill:url(#SVGID_00000168099787799211898400000005935268755660000168_);" d="M1802.453,2674.68
					c0,0,55.222,82.135,59.753,119.602c4.531,37.466-15.27,50.423-73.069,55.201c-171.999,14.219-256.788-37.33-256.788-37.33
					c-11.766-75.02-20.138-94.105-118.405-134.895c0,0,124.29,9.868,149.304,0.161
					C1588.263,2667.712,1802.453,2674.68,1802.453,2674.68z"/>
			</g>
			<g>
				
					<linearGradient id="SVGID_00000079481390511298796790000003827155971848727185_" gradientUnits="userSpaceOnUse" x1="-11910.0537" y1="-117.0856" x2="-11825.5557" y2="94.8753" gradientTransform="matrix(0.9446 -0.3283 0.3283 0.9446 12812.0361 -1699.1722)">
					<stop  offset="0" style="stop-color:#09005D"/>
					<stop  offset="1" style="stop-color:#1A0F91"/>
				</linearGradient>
				<path style="fill:url(#SVGID_00000079481390511298796790000003827155971848727185_);" d="M1582.246,2214.505
					c0,0,38.461-45.506,79.351,10.326c7.406,10.112,35.85,1.77,46.278,22.936c5.384,10.928,17.014,17.136,28.994,14.927
					c29.838-5.503,78.608-5.967,102.688,40.791c18.38,35.69,4.189,56.577-14.184,68.485c-13.494,8.747-18.311,26.503-10.151,40.359
					c7.827,13.291,9.298,31.288-10.911,52.949c-45.289,48.539-134.94-30.803-134.94-30.803l-71.182-168.204L1582.246,2214.505z"/>
				
					<linearGradient id="SVGID_00000069382344187499869820000014847027236901638064_" gradientUnits="userSpaceOnUse" x1="1936.2467" y1="2086.2568" x2="1862.1082" y2="2227.7939">
					<stop  offset="0" style="stop-color:#FF928E"/>
					<stop  offset="1" style="stop-color:#FE7062"/>
				</linearGradient>
				<path style="fill:url(#SVGID_00000069382344187499869820000014847027236901638064_);" d="M1653.111,2663.806
					c0,0-64.306-61.232-95.96-101.79c-17.111-21.923-22.484-50.784-14.571-77.445c14.452-48.689,40.135-99.118,42.477-106.967
					c3.59-12.03,75.694-11.53,75.694-11.53s141.887,92.086,197.634,248.072l-62.608,19.491c0,0-37.047-62.152-73.651-101.668
					c0,0,63.338,83.672,65.569,117.926L1653.111,2663.806z"/>
				
					<linearGradient id="SVGID_00000127028429849168472940000002856193780267168917_" gradientUnits="userSpaceOnUse" x1="-9807.1748" y1="2653.679" x2="-9464.876" y2="2653.679" gradientTransform="matrix(1 0 0 1 11551.1094 0)">
					<stop  offset="0" style="stop-color:#FEBBBA"/>
					<stop  offset="1" style="stop-color:#FF928E"/>
				</linearGradient>
				<path style="fill:url(#SVGID_00000127028429849168472940000002856193780267168917_);" d="M1530.587,2687.97l48.319-52.572
					l55.804,15.026c0,0,65.059,10.08,102.294,0c37.236-10.079,37.236-10.079,37.236-10.079l84.145-26.197l13.215,37.349
					c3.356,9.483-0.016,20.01-8.215,25.836c-7.28,5.173-15.813,10.858-21.252,13.238c-11.081,4.848-255.263,1.533-255.263,1.533
					L1530.587,2687.97z"/>
				
					<linearGradient id="SVGID_00000166661219604611340780000001492620542103377567_" gradientUnits="userSpaceOnUse" x1="-11753.7969" y1="1546.3411" x2="-11737.0645" y2="1423.9266" gradientTransform="matrix(0.9974 -0.0717 0.0717 0.9974 13216.9805 105.0094)">
					<stop  offset="0" style="stop-color:#FEBBBA"/>
					<stop  offset="1" style="stop-color:#FF928E"/>
				</linearGradient>
				<path style="fill:url(#SVGID_00000166661219604611340780000001492620542103377567_);" d="M1611.196,2279.382l48.461,90.116
					c-3.2,19.671-52.745,20.226-60.398,8.48c-0.779-1.195-1.224-2.578-1.52-3.974l-28.99-60.213
					c-1.245-5.871,14.852-25.655,20.15-28.475l19.262-10.253C1615.577,2271.115,1584.628,2270.804,1611.196,2279.382z"/>
				<g>
					
						<linearGradient id="SVGID_00000088814679120710802050000004276996176002375559_" gradientUnits="userSpaceOnUse" x1="-10631.0605" y1="-4033.0537" x2="-10473.5098" y2="-4313.4419" gradientTransform="matrix(0.5458 -0.8379 0.8379 0.5458 10797.9961 -4320.769)">
						<stop  offset="0" style="stop-color:#FEBBBA"/>
						<stop  offset="1" style="stop-color:#FF928E"/>
					</linearGradient>
					<path style="fill:url(#SVGID_00000088814679120710802050000004276996176002375559_);" d="M1513.118,2258.233
						c0,0-5.47,30.446,18.46,69.156c23.93,38.71,47.759,36.963,59.866,23.158c12.106-13.805,26.608-36.798,20.01-75.407
						C1604.855,2236.531,1521.384,2219.408,1513.118,2258.233z"/>
					
						<linearGradient id="SVGID_00000063626375036839175360000015128919994282389683_" gradientUnits="userSpaceOnUse" x1="-10597.1807" y1="-4277.228" x2="-10518.4063" y2="-4079.6228" gradientTransform="matrix(0.5458 -0.8379 0.8379 0.5458 10797.9961 -4320.769)">
						<stop  offset="0" style="stop-color:#09005D"/>
						<stop  offset="1" style="stop-color:#1A0F91"/>
					</linearGradient>
					<path style="fill:url(#SVGID_00000063626375036839175360000015128919994282389683_);" d="M1582.484,2279.336
						c0,0-38.748-50.896-68.497-6.528l0.502,15.327c0,0-38.685-1.809-34.49-37.464c4.195-35.656,35.778-60.014,79.562-47.832
						c43.784,12.182,69.368,26.055,74.313,56.455c4.945,30.399-19.878,25.432-19.878,25.432s-9.481-20.976-20.931-22.408
						c-11.449-1.433-7.312,15.159-7.312,15.159L1582.484,2279.336z"/>
					
						<linearGradient id="SVGID_00000093166527800932432020000004889666918104398749_" gradientUnits="userSpaceOnUse" x1="-10597.5234" y1="-4014.2119" x2="-10439.9727" y2="-4294.5981" gradientTransform="matrix(0.5458 -0.8379 0.8379 0.5458 10797.9961 -4320.769)">
						<stop  offset="0" style="stop-color:#FEBBBA"/>
						<stop  offset="1" style="stop-color:#FF928E"/>
					</linearGradient>
					<path style="fill:url(#SVGID_00000093166527800932432020000004889666918104398749_);" d="M1591.376,2277.979
						c0,0-20.072-26.046-1.801-31.452c18.271-5.406,17.588,25.521,16.398,37.027L1591.376,2277.979z"/>
				</g>
			</g>
			<g>
				
					<linearGradient id="SVGID_00000171710630271067285370000012847627530534220188_" gradientUnits="userSpaceOnUse" x1="-9902.8662" y1="2218.219" x2="-10081.9336" y2="2267.2966" gradientTransform="matrix(0.9988 -0.0494 0.0494 0.9988 11509.6406 -55.0328)">
					<stop  offset="0" style="stop-color:#09005D"/>
					<stop  offset="1" style="stop-color:#1A0F91"/>
				</linearGradient>
				<path style="fill:url(#SVGID_00000171710630271067285370000012847627530534220188_);" d="M1690.531,2708.777
					c-0.17,0.008-0.34,0.013-0.511,0.012l-222.249-0.243c-5.494-0.004-9.943-4.463-9.938-9.958c0.005-5.496,4.48-10.036,9.96-9.937
					l222.25,0.242c5.494,0.005,9.943,4.463,9.937,9.958C1699.973,2704.174,1695.787,2708.517,1690.531,2708.777z"/>
				
					<linearGradient id="SVGID_00000068655918153573806350000002864035301532805765_" gradientUnits="userSpaceOnUse" x1="1263.4854" y1="2620.9023" x2="2874.0073" y2="2485.4019">
					<stop  offset="0" style="stop-color:#09005D"/>
					<stop  offset="1" style="stop-color:#1A0F91"/>
				</linearGradient>
				<path style="fill:url(#SVGID_00000068655918153573806350000002864035301532805765_);" d="M1267.978,2506.988h185.091
					c13.654,0,26.082,7.88,31.906,20.23l85.567,181.44h-230.018c-8.799,0-16.705-5.376-19.939-13.56l-66.354-167.896
					C1250.398,2517.501,1257.547,2506.988,1267.978,2506.988z"/>
				
					<linearGradient id="SVGID_00000111872995281607290580000008709982687507441055_" gradientUnits="userSpaceOnUse" x1="1534.1621" y1="2236.0767" x2="1345.0421" y2="2701.6038">
					<stop  offset="0" style="stop-color:#4F52FF"/>
					<stop  offset="1" style="stop-color:#4042E2"/>
				</linearGradient>
				<path style="fill:url(#SVGID_00000111872995281607290580000008709982687507441055_);" d="M1398.377,2600.019
					c4.011,12.461,1.048,24.564-6.619,27.031c-7.666,2.468-17.132-5.634-21.143-18.096c-4.011-12.461-1.048-24.563,6.618-27.031
					C1384.9,2579.455,1394.366,2587.557,1398.377,2600.019z"/>
			</g>
		</g>
		<g>
			
				<linearGradient id="SVGID_00000099659423519169749310000008293573399923207299_" gradientUnits="userSpaceOnUse" x1="2309.3867" y1="2284.4719" x2="2917.5234" y2="2284.4719">
				<stop  offset="0" style="stop-color:#4F52FF"/>
				<stop  offset="1" style="stop-color:#4042E2"/>
			</linearGradient>
			<path style="fill:url(#SVGID_00000099659423519169749310000008293573399923207299_);" d="M2883.008,1414.266
				c2.981-12.689-14.869-21.123-25.798-12.259c-110.99,90.001-377.664,359.515-311.204,830.509
				c83.385,590.932-59.172,806.559-236.619,938.086c0,0,243.694-61.853,397.015-280.652
				C3082.839,2352.748,2830.008,1639.877,2883.008,1414.266z"/>
			<path style="fill:#7D97F4;" d="M2798.543,1598.838c-13.885,65.785-26.26,131.772-35.823,198.056
				c-9.964,66.228-17.6,132.687-22.825,199.256c-4.929,66.58-8.411,133.231-8.609,199.909
				c-0.545,66.675,2.227,133.295,5.281,200.175c2.62,66.855,5.699,134.193,0.805,202.008
				c-4.813,67.677-19.058,135.944-47.327,199.94c-7.067,15.949-14.498,31.85-22.939,47.213
				c-8.115,15.506-17.028,30.705-26.252,45.76c-18.626,30.038-39.593,59.06-62.958,86.606
				c-46.9,54.998-103.464,103.787-165.776,145.078c-6.558,4.346-15.955,3.278-20.988-2.385c-4.942-5.561-3.838-13.485,2.413-17.884
				l0.044-0.031c14.826-10.413,29.497-20.96,43.572-32.036c7.142-5.442,13.989-11.145,20.957-16.736
				c6.714-5.811,13.693-11.399,20.193-17.383c26.459-23.55,50.972-48.676,73.211-75.243
				c44.732-52.887,80.543-111.82,107.673-172.915c13.169-30.689,23.698-62.163,31.384-94.228
				c7.659-32.073,12.476-64.703,15.14-97.595c5.336-65.822,2.925-132.493,0.862-199.361c-1.963-66.885-3.404-134.109-1.639-201.28
				c0.777-33.583,2.254-67.15,4.425-100.677c0.974-16.768,2.324-33.518,3.638-50.266c1.501-16.738,3.109-33.466,4.874-50.179
				c7.205-66.846,16.769-133.469,28.755-199.738c12.355-66.219,26.742-132.133,44.044-197.458c0.495-1.868,2.648-3.035,4.81-2.607
				C2797.588,1595.251,2798.922,1597.027,2798.543,1598.838z"/>
		</g>
		<g>
			<g>
				<path style="fill:#7D97F4;" d="M2591.225,3018.245c14.671,15.566,40.471,11.09,49.296-8.395
					c48.698-107.509,158.895-423.925-23.101-788.453c-153.687-307.827-207.769-489.349-226.611-573.454
					c-3.984-17.785-28.357-20.146-35.714-3.471C2273.931,1828.444,2059.618,2454.214,2591.225,3018.245z"/>
				<path style="fill:#91B3FA;" d="M2617.874,3006.9c0.522,0.094,1.059,0.138,1.609,0.129c4.611-0.071,8.292-3.866,8.222-8.478
					c-0.08-5.228-10.255-527.79-204.611-965.456c-1.872-4.211-6.805-6.112-11.023-4.243c-4.215,1.873-6.114,6.807-4.244,11.024
					c192.943,434.48,203.098,953.739,203.178,958.932C2611.066,3002.87,2614.018,3006.21,2617.874,3006.9z"/>
			</g>
		</g>
		<g>
			
				<linearGradient id="SVGID_00000017511152160355816670000016956236150098291603_" gradientUnits="userSpaceOnUse" x1="1932.4458" y1="2679.4397" x2="2577.3945" y2="2679.4397">
				<stop  offset="0" style="stop-color:#09005D"/>
				<stop  offset="1" style="stop-color:#1A0F91"/>
			</linearGradient>
			<path style="fill:url(#SVGID_00000017511152160355816670000016956236150098291603_);" d="M1942.995,2227.845
				c-3.396,160.239-14.408,712.959-9.151,908.827c0.557,20.75,14.776,37.405,32.513,38.084
				c87.726,3.358,409.327,11.871,552.817,4.828c29.887-1.467,53.654-29.787,54.274-64.774c2.982-168.191,9.56-641.245-6.076-857.952
				c-1.874-25.964-19.294-46.641-41.457-49.235c-95.538-11.181-418.521-38.511-542.489-29.1
				C1961.07,2180.219,1943.551,2201.643,1942.995,2227.845z"/>
			<path style="fill:#91B3FA;" d="M1982.139,2277.007c-4.722,129.336-19.616,559.606-14.889,718.711
				c0.691,23.256,16.358,42.059,36.215,43.419c81.757,5.597,360.691,17.938,480.608,6.705c21.593-2.023,38.537-22.452,39.703-47.757
				c6.077-131.949,23.525-532.591,18.994-689.913c-0.723-25.097-17.341-45.593-38.721-47.839
				c-88.448-9.291-384.847-31.395-486.748-24.891C1998.171,2236.662,1982.956,2254.616,1982.139,2277.007z"/>
			<path style="opacity:0.5;fill:#FFFFFF;" d="M2159.802,2206.521L2159.802,2206.521c0,4.917,3.275,8.972,7.472,9.229
				c20.72,1.269,79.09,4.861,105.177,6.632c5.143,0.349,9.18-5.059,8.205-10.978l-0.166-1.01c-0.666-4.038-3.529-7.078-7.029-7.453
				c-17.633-1.89-70.84-7.132-106.093-5.659C2163.134,2197.459,2159.802,2201.564,2159.802,2206.521z"/>
			
				<linearGradient id="SVGID_00000158005330715565610470000012349261902744456096_" gradientUnits="userSpaceOnUse" x1="2206.8687" y1="3144.9065" x2="2276.4075" y2="2115.7405">
				<stop  offset="0" style="stop-color:#4F52FF"/>
				<stop  offset="1" style="stop-color:#4042E2"/>
			</linearGradient>
			<path style="fill:url(#SVGID_00000158005330715565610470000012349261902744456096_);" d="M2543.483,2357.12
				c-0.073-17.385-0.302-34.471-0.714-48.786c-0.723-25.097-17.341-45.675-38.72-47.92c-88.448-9.29-384.847-31.436-486.749-24.932
				c-19.129,1.221-34.344,19.318-35.161,41.708c-0.733,20.063-1.258,35.873-2.369,67.165L2543.483,2357.12z"/>
			<path style="opacity:0.42;fill:#FFFFFF;" d="M2257.623,2632.775h-230.528c-13.627,0-24.674-11.375-24.674-25.408v-202.42
				c0-12.824,10.254-23.134,22.704-22.827l232.663,5.726c12.798,0.315,23.014,11.089,23.014,24.271v196.79
				C2280.802,2622.089,2270.425,2632.775,2257.623,2632.775z"/>
			<path style="opacity:0.42;fill:#FFFFFF;" d="M2507.391,2632.775h-197.238c-4.964,0-8.989-4.024-8.989-8.989v-228.36
				c0-3.874,3.141-7.014,7.014-7.014h199.687c3.898,0,7.059,3.16,7.059,7.059v229.771
				C2514.925,2629.403,2511.552,2632.775,2507.391,2632.775z"/>
			<path style="opacity:0.42;fill:#FFFFFF;" d="M2507.688,2831.137H2002.15c-4.425,0-8.011-3.587-8.011-8.011v-151.801
				c0-3.59,2.91-6.5,6.5-6.5h506.727c4.175,0,7.559,3.384,7.559,7.559V2823.9
				C2514.925,2827.897,2511.685,2831.137,2507.688,2831.137z"/>
			<path style="opacity:0.42;fill:#FFFFFF;" d="M2460.95,3018.886l-443.295-6.179c-13.141-0.183-23.686-9.767-23.686-21.525
				v-107.313c0-10.351,9.378-18.742,20.946-18.742h466.348c11.061,0,20.036,8.009,20.066,17.906l0.296,99.926
				C2501.685,3003.006,2483.353,3019.198,2460.95,3018.886z"/>
			
				<ellipse transform="matrix(0.9239 -0.3827 0.3827 0.9239 -727.4528 951.6175)" style="opacity:0.74;fill:#FFFFFF;" cx="2028.328" cy="2304.387" rx="15.646" ry="15.646"/>
			
				<ellipse transform="matrix(0.7071 -0.7071 0.7071 0.7071 -1021.1549 2146.5037)" style="opacity:0.74;fill:#FFFFFF;" cx="2080.482" cy="2305.895" rx="15.646" ry="15.646"/>
			
				<ellipse transform="matrix(0.9239 -0.3827 0.3827 0.9239 -721.4635 990.5389)" style="opacity:0.74;fill:#FFFFFF;" cx="2129.158" cy="2308.792" rx="15.646" ry="15.646"/>
		</g>
		<g>
			<ellipse style="fill:#FFFFFF;" cx="2277.476" cy="2602.935" rx="203.332" ry="205.934"/>
			
				<linearGradient id="SVGID_00000142162306736089400900000005789106668093905323_" gradientUnits="userSpaceOnUse" x1="2277.4758" y1="442.7106" x2="2277.4758" y2="954.9409">
				<stop  offset="0" style="stop-color:#FEBBBA"/>
				<stop  offset="1" style="stop-color:#FF928E"/>
			</linearGradient>
			<path style="fill:url(#SVGID_00000142162306736089400900000005789106668093905323_);" d="M2270.315,2713.899
				c-8.814,0-17.012-4.676-21.572-12.364l-76.495-128.959c-7.16-12.069-3.302-27.729,8.615-34.979
				c11.911-7.249,27.376-3.346,34.536,8.723l53.101,89.52l70.197-139.643c6.307-12.547,21.465-17.539,33.851-11.151
				c12.388,6.388,17.319,21.737,11.012,34.282l-90.809,180.644c-4.153,8.259-12.406,13.586-21.549,13.91
				C2270.905,2713.893,2270.61,2713.899,2270.315,2713.899z"/>
		</g>
	</g>
</g>
</svg>
