<?xml version="1.0" encoding="utf-8"?>
<!-- Generator: Adobe Illustrator 27.5.0, SVG Export Plug-In . SVG Version: 6.00 Build 0)  -->
<svg version="1.1" xmlns="http://www.w3.org/2000/svg" xmlns:xlink="http://www.w3.org/1999/xlink" x="0px" y="0px"
	 viewBox="0 0 3710 3710" style="enable-background:new 0 0 3710 3710;" xml:space="preserve">
<g id="Background">
	<g>
		<g>
			<rect style="fill:#FFFFFF;" width="3710" height="3710"/>
		</g>
	</g>
</g>
<g id="Illustration">
	<g>
		<linearGradient id="SVGID_1_" gradientUnits="userSpaceOnUse" x1="3490.6545" y1="3663.1519" x2="1536.7682" y2="1583.2089">
			<stop  offset="0" style="stop-color:#DAE3FE"/>
			<stop  offset="1" style="stop-color:#E9EFFD"/>
		</linearGradient>
		<path style="fill:url(#SVGID_1_);" d="M2904.002,2828.688c-72.129,74.349-136.668,118.053-186.082,151.047
			c-481.918,321.781-1032.803,229.036-1203.122,197.336c-274.79-51.144-506.751-87.224-706.047-267.28
			c-452.86-409.142-430.834-1262.641-84.794-1791.347c41.03-62.689,386.547-574.852,938.624-647.02
			c13.503-1.765,23.578-2.77,32.402-3.705c85.405-9.042,614.643-56.767,1046.184,304.778
			c61.773,51.753,161.184,145.103,253.369,287.477C3331.611,1580.556,3332.679,2386.824,2904.002,2828.688z"/>
		<g>
			<g>
				
					<linearGradient id="SVGID_00000133492001967814062710000004710533933517491644_" gradientUnits="userSpaceOnUse" x1="2111.4978" y1="2832.6062" x2="2080.7288" y2="2223.384">
					<stop  offset="0" style="stop-color:#09005D"/>
					<stop  offset="1" style="stop-color:#1A0F91"/>
				</linearGradient>
				<polygon style="fill:url(#SVGID_00000133492001967814062710000004710533933517491644_);" points="1854.37,2140.978 
					1803.267,2599.302 2396.163,2599.302 2318.937,2140.978 				"/>
				
					<linearGradient id="SVGID_00000177456193746433459260000003818670593784891308_" gradientUnits="userSpaceOnUse" x1="822.6817" y1="1555.8123" x2="3258.0073" y2="1555.8123">
					<stop  offset="0" style="stop-color:#09005D"/>
					<stop  offset="1" style="stop-color:#1A0F91"/>
				</linearGradient>
				<path style="fill:url(#SVGID_00000177456193746433459260000003818670593784891308_);" d="M822.682,979.009V2059.14
					c0,88.855,70.807,161.518,159.632,163.808c394.517,10.173,1774.346,34.84,2149.899,29.304
					c64.548-0.951,116.837-52.605,118.7-117.133c7.242-250.929,19.003-854.33-24.522-1134.466
					c-9.166-58.994-58.962-103.108-118.633-105.016c-330.555-10.575-1793.265-44.153-2168.643-35.722
					C874.377,861.37,822.682,914.253,822.682,979.009z"/>
				
					<linearGradient id="SVGID_00000076593167644658574050000004271615852365672886_" gradientUnits="userSpaceOnUse" x1="2136.6089" y1="141.1608" x2="1950.6987" y2="2540.4714">
					<stop  offset="0" style="stop-color:#53D8FF"/>
					<stop  offset="1" style="stop-color:#3840F7"/>
				</linearGradient>
				<path style="fill:url(#SVGID_00000076593167644658574050000004271615852365672886_);" d="M890.457,973.751v1026.2
					c0,51.879,41.644,94.15,93.517,94.926l2094.21,25.873c51.428,0.769,93.583-40.607,93.775-92.041l3.503-1017.031
					c0.137-36.776-29.162-66.909-65.927-67.804L965.452,900.558C924.331,899.558,890.457,932.619,890.457,973.751z"/>
				<path style="opacity:0.65;fill:#FFFFFF;" d="M3187.727,2163.27c-0.02,0-0.039,0-0.059,0l-2297.268-39.141
					c-1.858-0.034-3.34-1.566-3.308-3.424c0.03-1.858,1.546-3.323,3.422-3.31l2297.268,39.141c1.858,0.034,3.34,1.566,3.308,3.424
					C3191.06,2161.798,3189.558,2163.27,3187.727,2163.27z"/>
				
					<linearGradient id="SVGID_00000039841269204786449610000009958816935811798183_" gradientUnits="userSpaceOnUse" x1="2113.4128" y1="2602.7222" x2="1830.3392" y2="3224.2527">
					<stop  offset="0" style="stop-color:#09005D"/>
					<stop  offset="1" style="stop-color:#1A0F91"/>
				</linearGradient>
				<path style="fill:url(#SVGID_00000039841269204786449610000009958816935811798183_);" d="M2523.872,2693.075h-867.743
					c-23.574,0-41.277-16.782-36.719-34.809l11.135-44.036c3.348-13.243,17.917-22.966,35.222-23.505l836.536-26.104
					c18.078-0.564,34.086,9.032,38.025,22.796l20.073,70.139C2565.614,2675.778,2547.826,2693.075,2523.872,2693.075z"/>
				
					<linearGradient id="SVGID_00000147918472027035316880000005000882684684803742_" gradientUnits="userSpaceOnUse" x1="2074.3298" y1="961.7743" x2="1842.8179" y2="3859.1855">
					<stop  offset="0" style="stop-color:#FF928E"/>
					<stop  offset="1" style="stop-color:#FE7062"/>
				</linearGradient>
				<path style="fill:url(#SVGID_00000147918472027035316880000005000882684684803742_);" d="M890.457,973.751v1026.2
					c0,51.879,41.644,94.15,93.517,94.926l2094.21,25.873c51.428,0.769,93.583-40.607,93.775-92.041l3.503-1017.031
					c0.137-36.776-29.162-66.909-65.927-67.804L965.452,900.558C924.331,899.558,890.457,932.619,890.457,973.751z"/>
				
					<linearGradient id="SVGID_00000115478447056218547770000007990910781714150833_" gradientUnits="userSpaceOnUse" x1="2098.4727" y1="152.9232" x2="2037.2751" y2="996.0865">
					<stop  offset="0" style="stop-color:#FF928E"/>
					<stop  offset="1" style="stop-color:#FE7062"/>
				</linearGradient>
				<path style="fill:url(#SVGID_00000115478447056218547770000007990910781714150833_);" d="M3175.052,1130.637l0.411-119.183
					c0.137-36.776-29.162-66.797-65.927-67.692l-2143.535-43.26c-41.121-1-74.448,32.117-74.448,73.248v156.887H3175.052z"/>
				<g>
					<circle style="opacity:0.74;fill:#FFFFFF;" cx="1028.351" cy="1040.109" r="24.55"/>
					<circle style="opacity:0.74;fill:#FFFFFF;" cx="1113.406" cy="1040.109" r="24.55"/>
					<circle style="opacity:0.74;fill:#FFFFFF;" cx="1195.839" cy="1040.109" r="24.55"/>
				</g>
				<path style="opacity:0.42;fill:#FFFFFF;" d="M3047.83,2064.636l-2013.036-29.019c-30.596-0.441-55.168-25.37-55.168-55.969
					v-201.475c0-28.473,23.253-51.463,51.724-51.14l2017.763,22.943c23.167,0.263,41.809,19.119,41.809,42.288v229.896
					C3090.923,2045.86,3071.528,2064.978,3047.83,2064.636z"/>
				<path style="opacity:0.42;fill:#FFFFFF;" d="M2323.103,1701.854l-1286.818-18.513c-31.422-0.452-56.658-26.053-56.658-57.479
					v-398.366c0-22.497,18.238-40.735,40.735-40.735h1294.177c25.83,0,46.77,20.94,46.77,46.77v430.663
					C2361.307,1685.207,2344.113,1702.156,2323.103,1701.854z"/>
				<path style="opacity:0.42;fill:#FFFFFF;" d="M3078.423,1702.403h-670.728c-6.369,0-11.532-5.163-11.532-11.532v-489.745
					c0-7.934,6.431-14.365,14.365-14.365h671.729c4.786,0,8.667,3.88,8.667,8.667v494.475
					C3090.923,1696.807,3085.326,1702.403,3078.423,1702.403z"/>
			</g>
		</g>
		<g>
			
				<linearGradient id="SVGID_00000132774474315787030100000006180835897256770705_" gradientUnits="userSpaceOnUse" x1="1415.4849" y1="1652.291" x2="1387.4229" y2="2945.4912">
				<stop  offset="0" style="stop-color:#09005D"/>
				<stop  offset="1" style="stop-color:#1A0F91"/>
			</linearGradient>
			<path style="fill:url(#SVGID_00000132774474315787030100000006180835897256770705_);" d="M582.262,2657.202
				c0,16.317,13.363,29.667,29.695,29.667H2217.76c16.332,0,29.695-13.35,29.695-29.667l13.362-922.811
				c0-16.316-19.224-48.171-54.455-45.777l-1569.367-40.607c-20.493-0.53-40.306,7.357-54.818,21.821
				c-14.511,14.464-22.452,34.241-21.967,54.714L582.262,2657.202z"/>
			
				<linearGradient id="SVGID_00000106843143645374164560000018330239617998675106_" gradientUnits="userSpaceOnUse" x1="1432.6624" y1="1969.7782" x2="1016.4088" y2="4521.0957">
				<stop  offset="0" style="stop-color:#FF928E"/>
				<stop  offset="1" style="stop-color:#FE7062"/>
			</linearGradient>
			<path style="fill:url(#SVGID_00000106843143645374164560000018330239617998675106_);" d="M611.579,2628.74
				c0,15.451,12.642,28.094,28.094,28.094h1539.362c15.452,0,28.094-12.643,28.094-28.094l12.609-837.736
				c-1.485-50.413-45.683-68.532-72.475-67.462L643.167,1683.19c-14.397-0.386-28.316,5.161-38.513,15.331
				c-10.197,10.171-15.805,24.09-15.444,38.487L611.579,2628.74z"/>
			
				<linearGradient id="SVGID_00000017476126189666798410000007522189883293924285_" gradientUnits="userSpaceOnUse" x1="1400.1427" y1="2668.2896" x2="1426.02" y2="1762.5955">
				<stop  offset="0" style="stop-color:#09005D"/>
				<stop  offset="1" style="stop-color:#1A0F91"/>
			</linearGradient>
			<path style="fill:url(#SVGID_00000017476126189666798410000007522189883293924285_);" d="M457.646,2763.473h1881.87
				c3.11,0,5.654-2.544,5.654-5.654v-69.774c0-3.11-2.544-5.654-5.654-5.654H457.646c-3.109,0-5.654,2.544-5.654,5.654v69.774
				C451.993,2760.929,454.537,2763.473,457.646,2763.473z"/>
			
				<linearGradient id="SVGID_00000045614137462370498580000015453562008628084101_" gradientUnits="userSpaceOnUse" x1="1446.655" y1="1083.3271" x2="1399.0576" y2="1885.6884">
				<stop  offset="0" style="stop-color:#FF928E"/>
				<stop  offset="1" style="stop-color:#FE7062"/>
			</linearGradient>
			<path style="fill:url(#SVGID_00000045614137462370498580000015453562008628084101_);" d="M2218.483,1875.484l1.256-83.938
				c-1.485-50.413-45.683-68.802-72.475-67.733l-1504.096-40.487c-14.397-0.386-28.317,5.093-38.513,15.263
				c-10.196,10.171-15.804,24.597-15.443,38.995l3.447,137.9H2218.483z"/>
			<g>
				<path style="fill:#FFFFFF;" d="M2190.495,2230.757c-0.021,0-0.041,0-0.062,0c-2.274-0.033-4.091-1.903-4.056-4.179l0.996-67.939
					c0.033-2.252,1.87-4.056,4.114-4.056c0.021,0,0.041,0,0.062,0c2.275,0.033,4.091,1.903,4.056,4.179l-0.997,67.939
					C2194.576,2228.953,2192.739,2230.757,2190.495,2230.757z"/>
				<path style="opacity:0.42;fill:#FFFFFF;" d="M2192.94,2064.271c-0.021,0-0.041,0-0.062,0c-2.275-0.033-4.091-1.907-4.056-4.179
					l3.82-260.208c-0.072-15.456-4.763-27.797-13.946-36.595c-17.141-16.422-44.354-15.583-45.501-15.53l-480.742-12.892
					c-2.273-0.058-4.066-1.952-4.005-4.225c0.06-2.273,1.806-4.208,4.227-4.003l480.457,12.892
					c2.99-0.177,31.964-0.678,51.26,17.811c10.855,10.401,16.401,24.731,16.483,42.583l-3.822,260.29
					C2197.021,2062.467,2195.184,2064.271,2192.94,2064.271z"/>
			</g>
			<path style="opacity:0.42;fill:#FFFFFF;" d="M1565.276,2302.262H668.574c-6.167,0-11.167-5-11.167-11.167v-363.521
				c0-6.167,5-11.167,11.167-11.167h896.702c6.167,0,11.167,5,11.167,11.167v363.521
				C1576.442,2297.262,1571.443,2302.262,1565.276,2302.262z"/>
			<path style="opacity:0.42;fill:#FFFFFF;" d="M2165.932,2302.262h-533.55c-4.418,0-8-3.582-8-8v-369.854c0-4.418,3.582-8,8-8
				h533.55c4.418,0,8,3.582,8,8v369.854C2173.932,2298.68,2170.35,2302.262,2165.932,2302.262z"/>
			<path style="opacity:0.42;fill:#FFFFFF;" d="M2164.099,2620.299H667.241c-5.431,0-9.833-4.403-9.833-9.833v-242.247
				c0-5.431,4.403-9.833,9.833-9.833h1496.858c5.431,0,9.833,4.403,9.833,9.833v242.247
				C2173.932,2615.897,2169.53,2620.299,2164.099,2620.299z"/>
			
				<ellipse transform="matrix(0.1612 -0.9869 0.9869 0.1612 -1192.0363 2150.8857)" style="opacity:0.74;fill:#FFFFFF;" cx="669.271" cy="1776.675" rx="19.316" ry="19.316"/>
			<circle style="opacity:0.74;fill:#FFFFFF;" cx="733.657" cy="1778.537" r="19.316"/>
			<circle style="opacity:0.74;fill:#FFFFFF;" cx="793.751" cy="1782.114" r="19.316"/>
		</g>
		<g>
			<path style="fill:#7D97F4;" d="M2813.991,1321.794c2.616-11.138-13.051-18.541-22.645-10.761
				c-97.422,78.999-331.499,315.568-273.163,728.989c73.192,518.697-51.938,707.966-207.695,823.416
				c0,0,213.905-54.292,348.484-246.345C2989.395,2145.557,2767.47,1519.826,2813.991,1321.794z"/>
			<path style="fill:#FFFFFF;" d="M2739.852,1483.804c-12.188,57.744-23.05,115.665-31.444,173.846
				c-8.746,58.132-15.449,116.468-20.035,174.899c-4.327,58.442-7.383,116.945-7.556,175.473
				c-0.479,58.525,1.955,117.001,4.635,175.706c2.3,58.683,5.003,117.789,0.707,177.315c-4.224,59.404-16.729,119.326-41.542,175.5
				c-6.203,14-12.725,27.957-20.135,41.442c-7.124,13.61-14.947,26.952-23.043,40.166c-16.349,26.366-34.753,51.841-55.262,76.02
				c-41.167,48.275-90.816,91.1-145.511,127.344c-5.757,3.815-14.004,2.877-18.423-2.094c-4.338-4.881-3.369-11.837,2.118-15.698
				l0.039-0.027c13.014-9.14,25.892-18.398,38.246-28.12c6.269-4.777,12.279-9.783,18.396-14.69
				c5.894-5.101,12.019-10.006,17.724-15.258c23.225-20.671,44.741-42.726,64.261-66.045
				c39.264-46.422,70.697-98.151,94.511-151.778c11.56-26.938,20.801-54.564,27.548-82.71c6.723-28.152,10.951-56.794,13.289-85.666
				c4.684-57.776,2.568-116.297,0.757-174.991c-1.723-58.709-2.988-117.716-1.439-176.676c0.682-29.478,1.979-58.942,3.885-88.371
				c0.855-14.719,2.04-29.42,3.194-44.121c1.317-14.692,2.729-29.375,4.278-44.045c6.324-58.675,14.719-117.154,25.24-175.323
				c10.845-58.125,23.473-115.982,38.66-173.321c0.435-1.64,2.324-2.664,4.222-2.289
				C2739.013,1480.656,2740.184,1482.214,2739.852,1483.804z"/>
		</g>
		<g>
			<g>
				<path style="fill:#91B3FA;" d="M2561.623,2563.342c11.945,12.674,32.952,9.029,40.137-6.835
					c39.65-87.535,129.374-345.164-18.809-641.968c-125.134-250.637-169.168-398.434-184.509-466.913
					c-3.244-14.481-23.089-16.403-29.078-2.826C2303.278,1594.592,2128.782,2104.101,2561.623,2563.342z"/>
				<path style="fill:#FFFFFF;" d="M2583.32,2554.105c0.425,0.076,0.862,0.112,1.31,0.105c3.754-0.057,6.752-3.148,6.695-6.902
					c-0.065-4.257-8.35-429.733-166.597-786.086c-1.524-3.429-5.541-4.976-8.975-3.455c-3.432,1.525-4.978,5.542-3.455,8.976
					c157.096,353.759,165.365,776.546,165.43,780.774C2577.778,2550.823,2580.181,2553.543,2583.32,2554.105z"/>
			</g>
		</g>
		<g>
			
				<linearGradient id="SVGID_00000090255480644946438110000006358616059910815364_" gradientUnits="userSpaceOnUse" x1="-1759.8699" y1="5650.96" x2="-1879.1786" y2="6473.7773" gradientTransform="matrix(0.2154 -0.9765 0.9765 0.2154 -2206.3413 -124.2187)">
				<stop  offset="0" style="stop-color:#4F52FF"/>
				<stop  offset="1" style="stop-color:#4042E2"/>
			</linearGradient>
			<path style="fill:url(#SVGID_00000090255480644946438110000006358616059910815364_);" d="M2704.424,3028.927
				c224.836-43.92,386.621-255.904,419.816-414.356l-56.964-57.721c-85.415,140.606-155.685,235.299-318.472,260.981
				c-8.826,1.393-15.927,8.017-17.852,16.743l-39.852,180.631C2689.329,3023.231,2696.358,3030.502,2704.424,3028.927z"/>
			
				<linearGradient id="SVGID_00000016788743155502416150000012249397999395039902_" gradientUnits="userSpaceOnUse" x1="-1462.9825" y1="5694.0156" x2="-1582.2858" y2="6516.7954" gradientTransform="matrix(0.2154 -0.9765 0.9765 0.2154 -2206.3413 -124.2187)">
				<stop  offset="0" style="stop-color:#4F52FF"/>
				<stop  offset="1" style="stop-color:#4042E2"/>
			</linearGradient>
			<path style="fill:url(#SVGID_00000016788743155502416150000012249397999395039902_);" d="M3209.113,2690.651l-74.514-231.964
				c-1.529-4.759-7.513-6.272-11.12-2.812l-123.665,118.622c-4.839,4.641-3.851,12.632,1.973,15.955l194.238,110.817
				C3203.189,2705.355,3211.635,2698.503,3209.113,2690.651z"/>
		</g>
		<g>
			
				<linearGradient id="SVGID_00000090292444014047114120000007799570291569397693_" gradientUnits="userSpaceOnUse" x1="1006.0607" y1="878.9763" x2="808.5817" y2="2310.7019" gradientTransform="matrix(1 -0.0062 0.0062 1 -221.2816 -190.4001)">
				<stop  offset="0" style="stop-color:#4F52FF"/>
				<stop  offset="1" style="stop-color:#4042E2"/>
			</linearGradient>
			<path style="fill:url(#SVGID_00000090292444014047114120000007799570291569397693_);" d="M509.754,902.499
				c89.717-210.787,330.712-324.95,492.603-324.467l44.612,67.723c-155.295,54.306-262.531,103.348-321.506,257.234
				c-3.198,8.344-11.154,13.911-20.089,13.98l-184.97,1.416C512.186,918.448,506.535,910.061,509.754,902.499z"/>
			
				<linearGradient id="SVGID_00000150076319411341252980000008529356373362629274_" gradientUnits="userSpaceOnUse" x1="1252.9692" y1="913.0411" x2="1055.4763" y2="2344.8674" gradientTransform="matrix(1 -0.0062 0.0062 1 -221.2816 -190.4001)">
				<stop  offset="0" style="stop-color:#4F52FF"/>
				<stop  offset="1" style="stop-color:#4042E2"/>
			</linearGradient>
			<path style="fill:url(#SVGID_00000150076319411341252980000008529356373362629274_);" d="M945.591,479.193l232.797,57.034
				c15.974,3.914,20.534,24.441,7.719,34.75l-170.428,137.095c-5.546,3.768-13.156,1.139-15.195-5.248l-68-213.037
				C929.976,481.93,938.435,475.093,945.591,479.193z"/>
		</g>
		<g>
			<g>
				<g style="opacity:0.3;">
					
						<linearGradient id="SVGID_00000115509598032343564830000005253316295443434372_" gradientUnits="userSpaceOnUse" x1="2911.3486" y1="6663.3818" x2="3311.0959" y2="8019.3867" gradientTransform="matrix(0.2646 -0.9644 0.9644 0.2646 -6493.4893 3471.7615)">
						<stop  offset="0" style="stop-color:#4F52FF"/>
						<stop  offset="1" style="stop-color:#4042E2"/>
					</linearGradient>
					<path style="fill:url(#SVGID_00000115509598032343564830000005253316295443434372_);" d="M1537.675,2195.899
						c5.175,0.306,9.39,4.48,9.628,9.772c0.526,11.574,0.554,23.344,0.089,34.98c-0.227,5.662-4.998,10.068-10.658,9.841
						c-0.068-0.004-0.134-0.008-0.2-0.012c-5.563-0.329-9.864-5.054-9.639-10.648c0.443-11.055,0.414-22.235-0.084-33.23
						c-0.258-5.658,4.122-10.457,9.783-10.712C1536.958,2195.873,1537.319,2195.878,1537.675,2195.899z M1531.74,2285.061
						c0.4,0.024,0.805,0.071,1.21,0.144c5.576,0.996,9.291,6.325,8.295,11.901c-2.048,11.454-4.606,22.935-7.603,34.12
						c-1.466,5.473-7.065,8.709-12.563,7.256c-5.472-1.467-8.717-7.094-7.252-12.562c2.848-10.632,5.277-21.538,7.222-32.425
						C1521.972,2288.323,1526.622,2284.758,1531.74,2285.061z M1506.32,2370.697c1.14,0.067,2.288,0.328,3.4,0.799
						c5.213,2.215,7.649,8.235,5.436,13.45c-4.534,10.689-9.591,21.315-15.031,31.581c-2.656,5.005-8.863,6.906-13.866,4.262
						c-5.004-2.652-6.913-8.862-4.261-13.866c5.166-9.749,9.967-19.836,14.274-29.989
						C1498.012,2372.831,1502.112,2370.448,1506.32,2370.697z M1462.38,2448.516c1.884,0.111,3.759,0.744,5.4,1.933
						c4.588,3.322,5.613,9.736,2.292,14.324c-6.818,9.41-14.123,18.639-21.713,27.43c-3.703,4.28-10.177,4.756-14.468,1.059
						c-4.286-3.701-4.76-10.179-1.059-14.468c7.208-8.348,14.149-17.112,20.624-26.057
						C1455.592,2449.792,1458.998,2448.316,1462.38,2448.516z M1402.192,2514.581c2.642,0.156,5.222,1.328,7.104,3.475
						c3.738,4.259,3.314,10.74-0.944,14.474c-8.712,7.644-17.876,15.025-27.235,21.929c-4.556,3.367-10.979,2.401-14.343-2.16
						c-3.362-4.558-2.395-10.979,2.163-14.345c8.897-6.562,17.606-13.577,25.886-20.841
						C1396.934,2515.258,1399.592,2514.427,1402.192,2514.581z M1328.893,2565.682c3.422,0.202,6.664,2.112,8.42,5.346
						c2.702,4.98,0.856,11.205-4.122,13.909c-10.203,5.537-20.774,10.708-31.414,15.36c-5.193,2.27-11.238-0.099-13.508-5.29
						c-2.27-5.187,0.099-11.236,5.288-13.506c10.111-4.423,20.152-9.332,29.848-14.594
						C1325.15,2565.959,1327.047,2565.573,1328.893,2565.682z M952.248,2567.871c1.418,0.084,2.838,0.465,4.175,1.17
						c9.746,5.144,19.848,9.931,30.025,14.226c5.218,2.203,7.664,8.219,5.461,13.436c-2.201,5.22-8.217,7.666-13.438,5.463
						c-10.718-4.523-21.359-9.564-31.623-14.979c-5.011-2.644-6.928-8.85-4.284-13.859
						C944.502,2569.652,948.356,2567.641,952.248,2567.871z M1246.145,2599.247c4.248,0.251,8.06,3.15,9.271,7.476
						c1.528,5.457-1.657,11.116-7.111,12.644c-11.181,3.131-22.634,5.814-34.042,7.973c-5.569,1.027-10.934-2.601-11.987-8.17
						c-1.054-5.565,2.605-10.932,8.172-11.987c10.834-2.049,21.709-4.596,32.326-7.569
						C1243.902,2599.3,1245.039,2599.182,1246.145,2599.247z M1035.469,2600.398c0.676,0.04,1.358,0.145,2.038,0.325
						c10.657,2.833,21.578,5.241,32.458,7.165c5.579,0.989,9.302,6.31,8.316,11.887c-0.988,5.577-6.307,9.328-11.887,8.316
						c-11.447-2.026-22.939-4.56-34.154-7.538c-5.475-1.456-8.735-7.075-7.279-12.548
						C1026.234,2603.211,1030.702,2600.116,1035.469,2600.398z M1157.974,2613.487c5.167,0.305,9.379,4.468,9.628,9.753
						c0.267,5.659-4.103,10.462-9.762,10.733c-11.586,0.547-23.351,0.602-34.968,0.156c-0.072,0-0.146-0.004-0.218-0.009
						c-5.555-0.329-9.852-5.042-9.64-10.628c0.217-5.663,4.979-10.077,10.641-9.858c11.035,0.42,22.21,0.366,33.218-0.155
						C1157.243,2613.464,1157.612,2613.466,1157.974,2613.487z"/>
					
						<linearGradient id="SVGID_00000093878679936324641350000011587693613993255094_" gradientUnits="userSpaceOnUse" x1="2795.9827" y1="6697.3989" x2="3195.72" y2="8053.3701" gradientTransform="matrix(0.2646 -0.9644 0.9644 0.2646 -6493.4893 3471.7615)">
						<stop  offset="0" style="stop-color:#4F52FF"/>
						<stop  offset="1" style="stop-color:#4042E2"/>
					</linearGradient>
					<path style="fill:url(#SVGID_00000093878679936324641350000011587693613993255094_);" d="M891.851,2528.63
						c2.016,0.119,4.019,0.832,5.727,2.177c4.155,3.272,8.449,6.508,12.76,9.629c4.59,3.318,5.622,9.732,2.302,14.321
						c-3.318,4.592-9.735,5.629-14.322,2.3c-4.536-3.279-9.051-6.684-13.425-10.126c-4.451-3.502-5.221-9.954-1.719-14.402
						C885.333,2529.781,888.611,2528.438,891.851,2528.63z"/>
				</g>
				<g style="opacity:0.3;">
					
						<linearGradient id="SVGID_00000034048847384163282900000008517315885097688761_" gradientUnits="userSpaceOnUse" x1="3058.5046" y1="6620.0156" x2="3458.2366" y2="7975.9692" gradientTransform="matrix(0.2646 -0.9644 0.9644 0.2646 -6493.4893 3471.7615)">
						<stop  offset="0" style="stop-color:#4F52FF"/>
						<stop  offset="1" style="stop-color:#4042E2"/>
					</linearGradient>
					<path style="fill:url(#SVGID_00000034048847384163282900000008517315885097688761_);" d="M741.132,2254.631
						c4.942,0.292,9.08,4.133,9.59,9.217c0.526,5.261,1.171,10.601,1.919,15.867c0.796,5.61-3.105,10.802-8.713,11.598
						c-5.632,0.799-10.802-3.107-11.598-8.713c-0.786-5.545-1.467-11.168-2.022-16.708c-0.564-5.636,3.548-10.663,9.185-11.229
						C740.046,2254.607,740.594,2254.599,741.132,2254.631z"/>
					
						<linearGradient id="SVGID_00000135650198922301827400000013439124172292623549_" gradientUnits="userSpaceOnUse" x1="3299.6223" y1="6548.9351" x2="3699.3687" y2="7904.937" gradientTransform="matrix(0.2646 -0.9644 0.9644 0.2646 -6493.4893 3471.7615)">
						<stop  offset="0" style="stop-color:#4F52FF"/>
						<stop  offset="1" style="stop-color:#4042E2"/>
					</linearGradient>
					<path style="fill:url(#SVGID_00000135650198922301827400000013439124172292623549_);" d="M1161.784,1815.712
						c4.711,0.279,9.436,0.639,14.172,1.079c5.64,0.526,9.788,5.524,9.264,11.164c-0.524,5.64-5.551,9.806-11.162,9.266
						c-10.931-1.016-21.878-1.587-32.663-1.695c-5.67-0.067-10.21-4.694-10.154-10.358c0.057-5.668,4.696-10.214,10.36-10.156
						C1148.271,1815.078,1155.062,1815.314,1161.784,1815.712z M1229.408,1825.479c0.572,0.034,1.151,0.116,1.729,0.251
						c11.147,2.59,22.309,5.682,33.173,9.19c5.39,1.74,8.349,7.521,6.61,12.91c-1.742,5.392-7.535,8.364-12.913,6.609
						c-10.319-3.331-20.922-6.266-31.515-8.731c-5.517-1.281-8.95-6.795-7.668-12.31
						C1219.972,1828.457,1224.51,1825.189,1229.408,1825.479z M1087.718,1818.215c4.828,0.286,8.922,3.967,9.558,8.938
						c0.717,5.622-3.257,10.757-8.876,11.476c-10.749,1.371-21.585,3.223-32.212,5.508c-5.541,1.182-10.994-2.336-12.184-7.873
						c-1.189-5.541,2.336-10.995,7.875-12.185c11.19-2.405,22.604-4.354,33.924-5.8
						C1086.449,1818.196,1087.09,1818.178,1087.718,1818.215z M1312.365,1854.703c1.3,0.077,2.605,0.407,3.849,1.006
						c10.296,4.972,20.504,10.444,30.339,16.263c4.874,2.885,6.487,9.174,3.602,14.048c-2.886,4.879-9.172,6.494-14.05,3.604
						c-9.338-5.525-19.031-10.722-28.81-15.443c-5.102-2.461-7.24-8.596-4.777-13.696
						C1304.38,1856.631,1308.34,1854.465,1312.365,1854.703z M1002.315,1838.932c3.96,0.234,7.595,2.769,9.038,6.736
						c1.937,5.324-0.809,11.21-6.134,13.147c-10.179,3.7-20.342,7.892-30.211,12.453c-5.142,2.377-11.238,0.138-13.615-5.008
						c-2.375-5.142-0.135-11.234,5.007-13.611c10.389-4.804,21.089-9.216,31.807-13.114
						C999.563,1839.042,1000.959,1838.852,1002.315,1838.932z M923.523,1877.889c3.165,0.187,6.201,1.836,8.042,4.71
						c3.053,4.772,1.661,11.116-3.112,14.169c-9.15,5.857-18.161,12.167-26.78,18.754c-4.496,3.447-10.932,2.589-14.378-1.918
						c-3.44-4.502-2.58-10.937,1.92-14.38c9.071-6.933,18.553-13.573,28.183-19.734
						C919.292,1878.276,921.435,1877.765,923.523,1877.889z M855.099,1933.095c2.408,0.142,4.773,1.129,6.62,2.964
						c4.019,3.99,4.04,10.486,0.047,14.504c-7.665,7.714-15.086,15.833-22.06,24.138c-3.642,4.336-10.108,4.905-14.451,1.257
						c-4.336-3.644-4.901-10.111-1.257-14.451c7.34-8.737,15.15-17.286,23.214-25.402
						C849.372,1933.932,852.263,1932.927,855.099,1933.095z M800.347,2001.906c1.668,0.099,3.334,0.607,4.849,1.559
						c4.795,3.017,6.234,9.347,3.217,14.142c-5.789,9.198-11.249,18.745-16.23,28.38c-2.602,5.032-8.797,7.001-13.82,4.405
						c-5.034-2.602-7.004-8.791-4.402-13.823c5.246-10.149,10.996-20.204,17.089-29.886
						C793.116,2003.401,796.733,2001.692,800.347,2001.906z M762.022,2081.088c0.938,0.055,1.884,0.244,2.814,0.572
						c5.341,1.885,8.143,7.746,6.256,13.085c-3.609,10.222-6.829,20.732-9.57,31.246c-1.43,5.482-7.048,8.759-12.513,7.336
						c-5.482-1.428-8.767-7.033-7.337-12.515c2.886-11.067,6.276-22.134,10.077-32.894
						C753.305,2083.507,757.574,2080.825,762.022,2081.088z M742.042,2166.698c0.21,0.012,0.421,0.033,0.633,0.058
						c5.623,0.678,9.634,5.787,8.954,11.41c-0.957,7.939-1.681,15.999-2.152,23.967c-0.171,2.884-0.307,5.765-0.415,8.637
						c-0.212,5.663-4.973,10.081-10.634,9.867c-5.736-0.102-10.078-4.971-9.867-10.629c0.113-3.024,0.258-6.05,0.437-9.085
						c0.496-8.379,1.258-16.863,2.265-25.212C731.915,2170.297,736.672,2166.38,742.042,2166.698z"/>
					
						<linearGradient id="SVGID_00000044877070176684590970000009786721137175415219_" gradientUnits="userSpaceOnUse" x1="3388.0098" y1="6522.897" x2="3787.7461" y2="7878.8652" gradientTransform="matrix(0.2646 -0.9644 0.9644 0.2646 -6493.4893 3471.7615)">
						<stop  offset="0" style="stop-color:#4F52FF"/>
						<stop  offset="1" style="stop-color:#4042E2"/>
					</linearGradient>
					<path style="fill:url(#SVGID_00000044877070176684590970000009786721137175415219_);" d="M1387.039,1901.637
						c2.036,0.12,4.054,0.845,5.77,2.208c4.347,3.456,8.703,7.069,12.947,10.739c4.286,3.705,4.756,10.183,1.051,14.467
						c-3.707,4.284-10.179,4.76-14.467,1.051c-4.032-3.486-8.17-6.917-12.296-10.199c-4.434-3.521-5.172-9.975-1.647-14.41
						C1380.558,1902.774,1383.819,1901.446,1387.039,1901.637z"/>
				</g>
				<g>
					
						<linearGradient id="SVGID_00000000938603985071359050000015612878007263981709_" gradientUnits="userSpaceOnUse" x1="3094.6443" y1="6609.3623" x2="3494.3838" y2="7965.3413" gradientTransform="matrix(0.2646 -0.9644 0.9644 0.2646 -6493.4893 3471.7615)">
						<stop  offset="0" style="stop-color:#4F52FF"/>
						<stop  offset="1" style="stop-color:#4042E2"/>
					</linearGradient>
					<path style="fill:url(#SVGID_00000000938603985071359050000015612878007263981709_);" d="M1366.198,2019.583
						c-1.197-1.658-3.315-2.374-5.272-1.783l-55.855,16.87c-20.569-17.871-44.135-32.592-70.07-43.256l-9.982-57.448
						c-0.35-2.016-1.94-3.586-3.959-3.912l-69.093-11.152c-2.02-0.325-4.023,0.666-4.989,2.467l-27.549,51.391
						c-27.973,1.964-54.974,8.522-80.121,19.016l-47.712-33.587c-1.672-1.177-3.907-1.164-5.565,0.033l-56.742,40.97
						c-1.659,1.198-2.375,3.316-1.783,5.273l16.87,55.855c-17.872,20.569-32.592,44.136-43.256,70.07l-57.45,9.982
						c-2.015,0.35-3.586,1.94-3.912,3.959l-11.152,69.094c-0.326,2.019,0.665,4.023,2.468,4.988l51.391,27.55
						c1.963,27.973,8.521,54.974,19.015,80.12l-33.587,47.712c-1.176,1.672-1.163,3.907,0.034,5.565l40.971,56.741
						c1.197,1.659,3.315,2.374,5.272,1.783l55.855-16.87c20.568,17.872,44.135,32.593,70.07,43.256l9.982,57.45
						c0.35,2.014,1.94,3.585,3.959,3.912l69.094,11.151c2.019,0.327,4.022-0.665,4.989-2.468l27.549-51.391
						c27.973-1.962,54.974-8.521,80.121-19.015l47.711,33.586c1.672,1.178,3.908,1.164,5.566-0.033l56.741-40.971
						c1.658-1.197,2.374-3.314,1.783-5.272l-16.87-55.855c17.872-20.568,32.592-44.136,43.256-70.07l57.45-9.982
						c2.014-0.35,3.586-1.94,3.911-3.96l11.152-69.092c0.326-2.019-0.665-4.023-2.467-4.99l-51.391-27.549
						c-1.964-27.972-8.522-54.973-19.015-80.12l33.586-47.712c1.178-1.673,1.164-3.907-0.033-5.566L1366.198,2019.583z"/>
					<path style="fill:#91B3FA;" d="M1141.748,2157.613c34.233,2.024,62.806,28.94,65.882,64.097
						c3.38,38.646-25.308,72.832-63.951,76.214c-18.722,1.642-36.959-4.112-51.35-16.189c-14.395-12.077-23.225-29.04-24.861-47.76
						c-3.38-38.647,25.308-72.832,63.951-76.214C1134.902,2157.457,1138.354,2157.413,1141.748,2157.613z M1134.249,2281.689
						c2.644,0.156,5.313,0.121,8-0.113c29.627-2.591,51.623-28.807,49.033-58.433c-2.592-29.629-28.798-51.637-58.434-49.035
						c-29.627,2.591-51.623,28.807-49.033,58.433c1.256,14.355,8.025,27.358,19.062,36.62
						C1111.848,2276.688,1122.769,2281.01,1134.249,2281.689z"/>
					<path style="fill:#91B3FA;" d="M1146.311,2056.097c5.879,0.348,11.776,0.993,17.669,1.944l0,0
						c1.855,0.298,3.706,0.629,5.551,0.987c9.097,1.77,18.038,4.262,26.687,7.434c0.118,0.043,0.236,0.086,0.354,0.129
						c0.334,0.124,0.668,0.248,1.001,0.376c0.65,0.243,1.297,0.494,1.943,0.745c1.699,0.662,2.706,2.331,2.606,4.059
						c-0.025,0.42-0.116,0.844-0.277,1.256c-0.823,2.111-3.204,3.146-5.313,2.327c-10.861-4.242-22.251-7.341-33.856-9.211
						c-57.641-9.313-113.234,12.637-149.452,53.313c-20.148,22.622-34.299,51.04-39.472,83.1
						c-0.909,5.622-1.526,11.248-1.856,16.856c-2.228,37.741,8.503,74.791,30.934,105.855
						c25.764,35.684,63.884,59.199,107.332,66.211c89.736,14.474,174.448-46.721,188.924-136.412
						c0.893-5.53,1.502-11.085,1.829-16.641c1.42-24.074-2.444-48.192-11.399-70.608c-0.231-0.58-0.322-1.179-0.285-1.763
						c0.091-1.536,1.048-2.96,2.573-3.568c2.108-0.834,4.493,0.177,5.333,2.29c9.401,23.534,13.46,48.856,11.969,74.13
						c-0.343,5.832-0.983,11.661-1.918,17.466c-15.198,94.169-104.198,158.401-198.333,143.209
						c-45.615-7.362-85.63-32.048-112.678-69.509c-23.55-32.611-34.814-71.507-32.477-111.128
						c0.348-5.887,0.997-11.793,1.947-17.693c7.364-45.617,32.048-85.634,69.508-112.682
						C1067.774,2065.015,1106.682,2053.754,1146.311,2056.097z"/>
				</g>
			</g>
			<g>
				<g style="opacity:0.3;">
					
						<linearGradient id="SVGID_00000181792822246644204880000002539009112189301165_" gradientUnits="userSpaceOnUse" x1="3336.8286" y1="6538.0137" x2="3736.5571" y2="7893.9546" gradientTransform="matrix(0.2646 -0.9644 0.9644 0.2646 -6493.4893 3471.7615)">
						<stop  offset="0" style="stop-color:#4F52FF"/>
						<stop  offset="1" style="stop-color:#4042E2"/>
					</linearGradient>
					<path style="fill:url(#SVGID_00000181792822246644204880000002539009112189301165_);" d="M1903.049,1946.731
						c2.736,0.162,5.15,2.095,5.796,4.904c1.208,5.241,2.274,10.59,3.166,15.898c0.58,3.449-1.745,6.714-5.198,7.297
						c-3.453,0.595-6.717-1.748-7.297-5.198c-0.85-5.058-1.865-10.156-3.017-15.158c-0.787-3.406,1.342-6.806,4.751-7.596
						C1901.855,1946.741,1902.459,1946.696,1903.049,1946.731z"/>
					
						<linearGradient id="SVGID_00000001644404337986947020000002831706856580029330_" gradientUnits="userSpaceOnUse" x1="3166.4614" y1="6588.1675" x2="3566.2114" y2="7944.1821" gradientTransform="matrix(0.2646 -0.9644 0.9644 0.2646 -6493.4893 3471.7615)">
						<stop  offset="0" style="stop-color:#4F52FF"/>
						<stop  offset="1" style="stop-color:#4042E2"/>
					</linearGradient>
					<path style="fill:url(#SVGID_00000001644404337986947020000002831706856580029330_);" d="M1909.585,1995.024
						c3.205,0.189,5.81,2.779,5.948,6.053c0.395,9.252,0.318,18.63-0.229,27.869c-0.115,1.945-0.252,3.896-0.408,5.851
						c-0.284,3.491-3.515,5.946-6.823,5.813c-3.488-0.281-6.087-3.335-5.81-6.82c0.15-1.869,0.283-3.733,0.393-5.592
						c0.521-8.813,0.594-17.758,0.221-26.58c-0.15-3.498,2.563-6.449,6.058-6.602
						C1909.155,1995.011,1909.372,1995.011,1909.585,1995.024z M1904.313,2060.591c0.299,0.018,0.604,0.054,0.904,0.115
						c3.429,0.705,5.639,4.052,4.937,7.481c-2.25,10.998-5.203,21.954-8.777,32.557c-1.116,3.318-4.726,5.088-8.026,3.981
						c-3.318-1.119-5.098-4.708-3.981-8.025c3.409-10.117,6.224-20.567,8.372-31.056
						C1898.383,2062.521,1901.219,2060.408,1904.313,2060.591z M1883.299,2122.922c0.802,0.047,1.609,0.251,2.378,0.618
						c3.151,1.519,4.47,5.31,2.951,8.461c-4.873,10.093-10.429,19.996-16.521,29.421c-1.9,2.943-5.811,3.784-8.76,1.881
						c-2.937-1.897-3.78-5.82-1.884-8.757c5.809-8.99,11.108-18.426,15.752-28.054
						C1878.367,2124.111,1880.813,2122.775,1883.299,2122.922z M1847.602,2178.181c1.31,0.077,2.604,0.563,3.688,1.464
						c2.681,2.247,3.037,6.247,0.789,8.928c-7.212,8.609-15.018,16.842-23.21,24.477c-2.561,2.383-6.572,2.233-8.952-0.319
						c-2.387-2.558-2.245-6.565,0.316-8.955c7.808-7.273,15.258-15.131,22.132-23.338
						C1843.706,2178.836,1845.667,2178.066,1847.602,2178.181z M1799.494,2223.044c1.828,0.108,3.597,1.006,4.758,2.605
						c2.054,2.829,1.423,6.79-1.407,8.847c-9.079,6.584-18.648,12.674-28.444,18.094c-3.063,1.703-6.917,0.589-8.611-2.474
						c-1.693-3.063-0.585-6.92,2.474-8.61c9.348-5.174,18.477-10.98,27.137-17.267
						C1796.635,2223.346,1798.083,2222.961,1799.494,2223.044z M1741.962,2254.867c2.368,0.14,4.562,1.615,5.508,3.964
						c1.305,3.244-0.271,6.931-3.515,8.239c-10.405,4.182-21.171,7.753-31.993,10.609c-3.396,0.884-6.849-1.131-7.743-4.511
						c-0.893-3.381,1.127-6.849,4.508-7.74c10.322-2.724,20.581-6.127,30.501-10.114
						C1740.125,2254.951,1741.057,2254.814,1741.962,2254.867z M1678.412,2271.654c2.964,0.175,5.487,2.425,5.898,5.474
						c0.468,3.467-1.964,6.658-5.432,7.128c-11.077,1.496-22.392,2.313-33.636,2.436c-3.506-0.021-6.368-2.776-6.402-6.272
						c-0.038-3.498,2.768-6.363,6.266-6.403c10.725-0.11,21.517-0.891,32.079-2.317
						C1677.6,2271.643,1678.01,2271.631,1678.412,2271.654z M1580.177,2266.65c0.364,0.021,0.736,0.075,1.106,0.165
						c8.983,2.149,18.241,3.843,27.52,5.036c1.405,0.188,2.786,0.357,4.165,0.507c3.479,0.392,5.983,3.521,5.595,6.999
						c-0.383,3.486-3.549,6.087-6.996,5.598c-1.471-0.168-2.939-0.342-4.412-0.54c-9.693-1.249-19.399-3.025-28.819-5.281
						c-3.404-0.815-5.501-4.23-4.686-7.634C1574.374,2268.469,1577.166,2266.472,1580.177,2266.65z"/>
				</g>
				<g style="opacity:0.3;">
					
						<linearGradient id="SVGID_00000022541041878659363120000009224016293918612378_" gradientUnits="userSpaceOnUse" x1="3485.9302" y1="6494.0176" x2="3885.6738" y2="7850.0107" gradientTransform="matrix(0.2646 -0.9644 0.9644 0.2646 -6493.4893 3471.7615)">
						<stop  offset="0" style="stop-color:#4F52FF"/>
						<stop  offset="1" style="stop-color:#4042E2"/>
					</linearGradient>
					<path style="fill:url(#SVGID_00000022541041878659363120000009224016293918612378_);" d="M1654.578,1739.71
						c3.452,0.204,6.11,3.15,5.952,6.618c-0.16,3.492-3.125,6.199-6.619,6.035c-10.522-0.486-21.163-0.334-31.628,0.453
						c-3.469,0.229-6.533-2.35-6.794-5.843c-0.262-3.492,2.357-6.529,5.843-6.794c10.975-0.82,22.13-0.984,33.16-0.475
						C1654.519,1739.706,1654.55,1739.708,1654.578,1739.71z M1686.805,1743.147c0.229,0.014,0.453,0.04,0.683,0.078
						c10.878,1.821,21.755,4.323,32.33,7.434c3.356,0.992,5.277,4.507,4.288,7.864c-0.986,3.363-4.525,5.267-7.864,4.295
						c-10.091-2.97-20.47-5.357-30.849-7.098c-3.449-0.576-5.778-3.844-5.2-7.292
						C1680.734,1745.198,1683.619,1742.958,1686.805,1743.147z M1590.075,1744.572c2.804,0.166,5.256,2.195,5.835,5.08
						c0.687,3.424-1.534,6.764-4.965,7.453c-10.333,2.078-20.624,4.798-30.592,8.095c-3.333,1.085-6.905-0.706-8.001-4.031
						c-1.099-3.319,0.705-6.906,4.027-8.004c10.449-3.454,21.24-6.305,32.071-8.478
						C1588.999,1744.576,1589.543,1744.54,1590.075,1744.572z M1748.884,1761.457c0.719,0.042,1.443,0.209,2.145,0.511
						c10.127,4.386,20.086,9.443,29.594,15.032c3.018,1.771,4.025,5.654,2.254,8.673c-1.771,3.006-5.654,4.016-8.67,2.251
						c-9.068-5.326-18.56-10.145-28.216-14.33c-3.209-1.392-4.686-5.123-3.294-8.332
						C1743.785,1762.754,1746.303,1761.304,1748.884,1761.457z M1528.665,1764.881c2.239,0.132,4.339,1.452,5.36,3.62
						c1.496,3.168,0.138,6.943-3.024,8.435c-9.509,4.482-18.841,9.595-27.74,15.204c-2.964,1.87-6.875,0.976-8.739-1.986
						c-1.864-2.961-0.976-6.875,1.985-8.739c9.334-5.875,19.118-11.24,29.086-15.943
						C1526.588,1765.006,1527.643,1764.821,1528.665,1764.881z M1473.918,1799.33c1.714,0.101,3.378,0.894,4.545,2.327
						c2.207,2.715,1.797,6.706-0.917,8.913c-8.177,6.65-16.022,13.852-23.313,21.403c-2.433,2.521-6.447,2.588-8.959,0.158
						c-2.518-2.43-2.588-6.437-0.159-8.953c7.645-7.92,15.867-15.472,24.435-22.44
						C1470.828,1799.699,1472.393,1799.239,1473.918,1799.33z M1428.996,1845.906c1.204,0.071,2.401,0.483,3.436,1.269
						c2.795,2.105,3.35,6.08,1.242,8.874c-6.351,8.406-12.236,17.281-17.494,26.371c-1.752,3.02-5.629,4.061-8.655,2.308
						c-3.029-1.753-4.064-5.626-2.311-8.658c5.516-9.528,11.687-18.837,18.344-27.659
						C1424.886,1846.654,1426.952,1845.785,1428.996,1845.906z"/>
					
						<linearGradient id="SVGID_00000080903913825747536670000015813664048848666525_" gradientUnits="userSpaceOnUse" x1="3487.259" y1="6493.6489" x2="3886.9944" y2="7849.6138" gradientTransform="matrix(0.2646 -0.9644 0.9644 0.2646 -6493.4893 3471.7615)">
						<stop  offset="0" style="stop-color:#4F52FF"/>
						<stop  offset="1" style="stop-color:#4042E2"/>
					</linearGradient>
					<path style="fill:url(#SVGID_00000080903913825747536670000015813664048848666525_);" d="M1804.932,1794.401
						c1.22,0.072,2.431,0.497,3.475,1.296c4.304,3.298,8.529,6.739,12.562,10.225c2.644,2.289,2.938,6.291,0.649,8.938
						c-2.291,2.635-6.287,2.931-8.938,0.649c-3.844-3.326-7.876-6.608-11.982-9.757c-2.777-2.128-3.301-6.107-1.173-8.882
						C1800.854,1795.139,1802.903,1794.281,1804.932,1794.401z"/>
				</g>
				<g>
					
						<linearGradient id="SVGID_00000057114256452239529450000009310047498699955359_" gradientUnits="userSpaceOnUse" x1="3289.4766" y1="6551.9321" x2="3689.217" y2="7907.9146" gradientTransform="matrix(0.2646 -0.9644 0.9644 0.2646 -6493.4893 3471.7615)">
						<stop  offset="0" style="stop-color:#4F52FF"/>
						<stop  offset="1" style="stop-color:#4042E2"/>
					</linearGradient>
					<path style="fill:url(#SVGID_00000057114256452239529450000009310047498699955359_);" d="M1794.843,1875.788
						c-0.801-1.109-2.218-1.589-3.528-1.193l-37.376,11.289c-13.763-11.958-29.533-21.809-46.887-28.945l-6.68-38.442
						c-0.234-1.348-1.298-2.399-2.649-2.618l-46.234-7.463c-1.352-0.218-2.692,0.446-3.339,1.651l-18.434,34.389
						c-18.719,1.314-36.786,5.702-53.613,12.724l-31.926-22.475c-1.119-0.787-2.615-0.778-3.725,0.023l-37.969,27.415
						c-1.11,0.802-1.589,2.219-1.193,3.528l11.289,37.375c-11.959,13.763-21.809,29.534-28.945,46.888l-38.443,6.679
						c-1.348,0.234-2.399,1.298-2.618,2.649l-7.462,46.234c-0.218,1.352,0.445,2.692,1.651,3.338l34.389,18.435
						c1.313,18.718,5.702,36.786,12.724,53.613l-22.475,31.927c-0.787,1.119-0.779,2.614,0.022,3.723l27.416,37.969
						c0.801,1.11,2.218,1.588,3.528,1.193l37.376-11.289c13.763,11.96,29.533,21.809,46.887,28.945l6.68,38.443
						c0.234,1.348,1.297,2.399,2.649,2.618l46.234,7.462c1.351,0.218,2.691-0.445,3.338-1.651l18.434-34.389
						c18.718-1.313,36.787-5.702,53.614-12.724l31.926,22.474c1.119,0.788,2.616,0.779,3.725-0.022l37.969-27.415
						c1.109-0.802,1.589-2.218,1.193-3.529l-11.288-37.375c11.959-13.763,21.809-29.534,28.945-46.888l38.443-6.679
						c1.347-0.234,2.4-1.298,2.617-2.65l7.463-46.233c0.218-1.352-0.445-2.692-1.651-3.339l-34.389-18.435
						c-1.314-18.718-5.702-36.785-12.723-53.613l22.474-31.927c0.788-1.119,0.779-2.614-0.022-3.725L1794.843,1875.788z"/>
					<path style="fill:#91B3FA;" d="M1644.771,1967.308c10.202,0.603,19.904,4.443,27.874,11.13
						c9.804,8.228,15.818,19.782,16.932,32.534c2.305,26.314-17.234,49.602-43.558,51.912
						c-26.362,2.259-49.614-17.244-51.915-43.564c-1.117-12.753,2.8-25.176,11.027-34.977c8.227-9.808,19.782-15.823,32.537-16.935
						C1640.051,1967.203,1642.426,1967.17,1644.771,1967.308z M1639.739,2050.336c1.702,0.101,3.429,0.078,5.176-0.072
						c19.362-1.699,33.734-18.828,32.04-38.19c-0.821-9.376-5.243-17.88-12.455-23.927c-7.216-6.054-16.351-8.925-25.732-8.116l0,0
						c-9.379,0.821-17.88,5.246-23.931,12.455c-6.054,7.216-8.934,16.353-8.113,25.736
						C1608.265,2035.832,1622.586,2049.322,1639.739,2050.336z"/>
					<path style="fill:#91B3FA;" d="M1648.038,1896.652c4.002,0.237,8.023,0.68,12.062,1.327c8.021,1.292,15.918,3.402,23.492,6.279
						c0.339,0.132,0.679,0.264,1.018,0.395c2.623,1.023,4.178,3.6,4.023,6.268c-0.038,0.648-0.179,1.303-0.428,1.939
						c-1.272,3.259-4.948,4.852-8.204,3.593c-7.045-2.753-14.419-4.757-21.915-5.963l-0.003,0c-0.411-0.067-0.826-0.129-1.234-0.19
						c-17.767-2.693-35.532-0.856-51.989,5.112c-8.933,3.24-17.483,7.705-25.436,13.339c-0.065,0.046-0.129,0.091-0.194,0.137
						c-0.198,0.144-0.395,0.281-0.589,0.424c-23.099,16.681-38.323,41.357-42.862,69.486c-0.59,3.64-0.988,7.28-1.203,10.911
						c-1.442,24.432,5.506,48.418,20.027,68.532c16.681,23.099,41.358,38.317,69.484,42.856
						c28.111,4.526,56.341-2.147,79.443-18.821c23.099-16.681,38.323-41.357,42.862-69.486c0.58-3.579,0.973-7.175,1.185-10.769
						c0.919-15.589-1.582-31.199-7.38-45.709c-0.356-0.895-0.497-1.82-0.441-2.722c0.14-2.372,1.618-4.571,3.973-5.51
						c3.252-1.289,6.934,0.28,8.235,3.536c6.486,16.236,9.286,33.706,8.261,51.14c-0.238,4.026-0.677,8.048-1.323,12.051
						c-5.081,31.474-22.111,59.08-47.958,77.743c-25.844,18.657-57.393,26.162-88.875,21.059
						c-31.471-5.077-59.078-22.105-77.737-47.955c-16.248-22.497-24.02-49.333-22.406-76.668c0.24-4.057,0.685-8.134,1.342-12.204
						C1533.106,1935.853,1587.706,1893.084,1648.038,1896.652z"/>
				</g>
			</g>
		</g>
		<g>
			
				<linearGradient id="SVGID_00000177444643954735033440000012117925186709103802_" gradientUnits="userSpaceOnUse" x1="1931.2076" y1="2530.3818" x2="2581.8813" y2="2530.3818">
				<stop  offset="0" style="stop-color:#09005D"/>
				<stop  offset="1" style="stop-color:#1A0F91"/>
			</linearGradient>
			<path style="fill:url(#SVGID_00000177444643954735033440000012117925186709103802_);" d="M1941.851,2074.778
				c-3.426,161.661-14.536,719.288-9.232,916.894c0.562,20.934,14.907,37.737,32.802,38.422
				c88.505,3.388,412.96,11.976,557.725,4.871c30.152-1.48,54.13-30.052,54.756-65.349c3.009-169.683,9.645-646.938-6.13-865.568
				c-1.891-26.195-19.466-47.055-41.825-49.672c-96.386-11.28-422.236-38.853-547.305-29.359
				C1960.086,2026.73,1942.411,2048.344,1941.851,2074.778z"/>
			
				<linearGradient id="SVGID_00000109028640590953640300000004028294510048410759_" gradientUnits="userSpaceOnUse" x1="2310.3452" y1="1948.5358" x2="2075.3257" y2="4221.5698">
				<stop  offset="0" style="stop-color:#FF928E"/>
				<stop  offset="1" style="stop-color:#FE7062"/>
			</linearGradient>
			<path style="fill:url(#SVGID_00000109028640590953640300000004028294510048410759_);" d="M1981.342,2124.377
				c-4.764,130.484-19.791,564.574-15.021,725.091c0.697,23.462,16.504,42.433,36.537,43.804
				c82.483,5.647,363.892,18.097,484.874,6.764c21.784-2.041,38.879-22.651,40.055-48.181
				c6.131-133.121,23.734-537.319,19.163-696.037c-0.729-25.32-17.495-45.998-39.064-48.263
				c-89.233-9.373-388.263-31.674-491.069-25.112C1997.516,2083.674,1982.166,2101.787,1981.342,2124.377z"/>
			<path style="opacity:0.5;fill:#FFFFFF;" d="M2160.583,2053.265L2160.583,2053.265c0,4.96,3.304,9.052,7.539,9.311
				c20.904,1.281,79.792,4.904,106.111,6.691c5.189,0.352,9.262-5.104,8.278-11.075l-0.168-1.019
				c-0.672-4.074-3.56-7.14-7.092-7.519c-17.79-1.907-71.469-7.195-107.035-5.71
				C2163.943,2044.123,2160.583,2048.264,2160.583,2053.265z"/>
			
				<linearGradient id="SVGID_00000137830163722870756010000009563831654659127435_" gradientUnits="userSpaceOnUse" x1="2278.1428" y1="1471.937" x2="2242.4473" y2="3221.071">
				<stop  offset="0" style="stop-color:#FF928E"/>
				<stop  offset="1" style="stop-color:#FE7062"/>
			</linearGradient>
			<path style="fill:url(#SVGID_00000137830163722870756010000009563831654659127435_);" d="M2547.669,2205.201
				c-0.073-17.539-0.304-34.777-0.72-49.219c-0.729-25.32-17.495-46.08-39.064-48.346c-89.233-9.373-388.263-31.715-491.07-25.153
				c-19.299,1.232-34.649,19.489-35.473,42.079c-0.739,20.241-1.269,36.191-2.39,67.761L2547.669,2205.201z"/>
			<path style="opacity:0.42;fill:#FFFFFF;" d="M2259.271,2483.303h-232.574c-13.748,0-24.893-11.477-24.893-25.634v-204.217
				c0-12.938,10.345-23.339,22.906-23.03l234.729,5.776c12.912,0.318,23.218,11.188,23.218,24.487v198.536
				C2282.657,2472.522,2272.187,2483.303,2259.271,2483.303z"/>
			<path style="opacity:0.42;fill:#FFFFFF;" d="M2511.324,2483.303h-199.135c-4.964,0-8.989-4.024-8.989-8.989v-230.53
				c0-3.874,3.14-7.014,7.014-7.014h201.584c3.898,0,7.059,3.16,7.059,7.059v231.941
				C2518.857,2479.931,2515.484,2483.303,2511.324,2483.303z"/>
			<path style="opacity:0.42;fill:#FFFFFF;" d="M2511.62,2683.426h-510.161c-4.425,0-8.011-3.587-8.011-8.011v-153.277
				c0-3.59,2.91-6.5,6.5-6.5h511.35c4.175,0,7.559,3.384,7.559,7.559v152.992C2518.857,2680.186,2515.617,2683.426,2511.62,2683.426
				z"/>
			<path style="opacity:0.42;fill:#FFFFFF;" d="M2464.403,2872.841l-447.23-6.233c-13.257-0.185-23.896-9.853-23.896-21.717
				v-108.266c0-10.443,9.461-18.908,21.132-18.908h470.488c11.159,0,20.214,8.08,20.244,18.065l0.299,100.813
				C2505.5,2856.821,2487.005,2873.156,2464.403,2872.841z"/>
			
				<ellipse transform="matrix(0.7071 -0.7071 0.7071 0.7071 -927.7233 2064.2771)" style="opacity:0.74;fill:#FFFFFF;" cx="2027.941" cy="2152" rx="15.785" ry="15.785"/>
			
				<ellipse transform="matrix(0.7071 -0.7071 0.7071 0.7071 -913.3882 2101.9282)" style="opacity:0.74;fill:#FFFFFF;" cx="2080.558" cy="2153.521" rx="15.785" ry="15.785"/>
			
				<ellipse transform="matrix(0.2298 -0.9732 0.9732 0.2298 -458.3889 3733.689)" style="opacity:0.74;fill:#FFFFFF;" cx="2129.667" cy="2156.444" rx="15.785" ry="15.785"/>
		</g>
	</g>
</g>
</svg>
