<?xml version="1.0" encoding="utf-8"?>
<!-- Generator: Adobe Illustrator 27.5.0, SVG Export Plug-In . SVG Version: 6.00 Build 0)  -->
<svg version="1.1" xmlns="http://www.w3.org/2000/svg" xmlns:xlink="http://www.w3.org/1999/xlink" x="0px" y="0px"
	 viewBox="0 0 750 500" style="enable-background:new 0 0 750 500;" xml:space="preserve">
<g id="BACKGROUND">
	<rect style="fill:#FFFFFF;" width="750" height="500"/>
</g>
<g id="OBJECTS">
	<g>
		<g>
			<g>
				<g>
					<circle style="fill:none;stroke:#D7DFFA;stroke-width:1.5855;stroke-miterlimit:10;" cx="268.079" cy="277.474" r="2.378"/>
					<path style="fill:none;stroke:#D7DFFA;stroke-width:1.5855;stroke-miterlimit:10;" d="M268.079,279.852
						c0.304,13.549,0.304,41.339,0.304,41.339l-12.458,12.457l-1.917,31.623l14.374,18.207l-0.106,19.568"/>
				</g>
				<g>
					<circle style="fill:none;stroke:#D7DFFA;stroke-width:1.5855;stroke-miterlimit:10;" cx="277.806" cy="294.063" r="2.378"/>
					<path style="fill:none;stroke:#D7DFFA;stroke-width:1.5855;stroke-miterlimit:10;" d="M277.806,296.441
						c-0.799,9.418-0.799,29.541-0.799,29.541l-14.374,14.374l-0.958,23.957l15.332,15.332l-0.01,23.395"/>
				</g>
			</g>
			<g>
				<g>
					<circle style="fill:none;stroke:#D7DFFA;stroke-width:1.5855;stroke-miterlimit:10;" cx="321.109" cy="288.095" r="2.378"/>
					<path style="fill:none;stroke:#D7DFFA;stroke-width:1.5855;stroke-miterlimit:10;" d="M321.109,290.473
						c-0.022,13.47-0.022,26.885-0.022,40.301c-7.666,5.75-20.124,19.165-20.124,19.165l0.327,53.231"/>
				</g>
				<g>
					<circle style="fill:none;stroke:#D7DFFA;stroke-width:1.5855;stroke-miterlimit:10;" cx="328.244" cy="311.107" r="2.378"/>
					<path style="fill:none;stroke:#D7DFFA;stroke-width:1.5855;stroke-miterlimit:10;" d="M328.244,313.485
						c-0.449,7.706-0.449,14.414-0.449,22.08c-6.708,4.791-18.207,17.249-18.207,17.249l-0.766,50.357"/>
				</g>
				<g>
					<path style="fill:none;stroke:#D7DFFA;stroke-width:1.5855;stroke-miterlimit:10;" d="M296.303,278.05
						c-1.313,0-2.378,1.065-2.378,2.378c0,1.313,1.065,2.378,2.378,2.378c1.314,0,2.378-1.065,2.378-2.378
						C298.681,279.115,297.617,278.05,296.303,278.05z"/>
					<path style="fill:none;stroke:#D7DFFA;stroke-width:1.5855;stroke-miterlimit:10;" d="M300.438,329.279
						c-0.929,0.929-0.929,2.435,0,3.363c0.929,0.929,2.435,0.929,3.363,0c0.929-0.929,0.929-2.435,0-3.363
						C302.872,328.351,301.367,328.351,300.438,329.279z"/>
					<polyline style="fill:none;stroke:#D7DFFA;stroke-width:1.5855;stroke-miterlimit:10;" points="296.303,282.806 
						296.303,310.042 296.303,313.983 296.303,325.145 300.438,329.279 					"/>
				</g>
			</g>
		</g>
		<g>
			<g>
				<g>
					<circle style="fill:none;stroke:#D7DFFA;stroke-width:1.5855;stroke-miterlimit:10;" cx="351.853" cy="277.474" r="2.378"/>
					<path style="fill:none;stroke:#D7DFFA;stroke-width:1.5855;stroke-miterlimit:10;" d="M351.853,279.852
						c0.304,13.549,0.304,41.339,0.304,41.339l-12.457,12.457l-1.917,31.623l14.374,18.207l-0.106,19.568"/>
				</g>
				<g>
					<path style="fill:none;stroke:#D7DFFA;stroke-width:1.5855;stroke-miterlimit:10;" d="M361.58,291.685
						c-1.313,0-2.378,1.065-2.378,2.378c0,1.313,1.065,2.378,2.378,2.378c1.313,0,2.378-1.065,2.378-2.378
						C363.958,292.75,362.893,291.685,361.58,291.685z"/>
					<path style="fill:none;stroke:#D7DFFA;stroke-width:1.5855;stroke-miterlimit:10;" d="M361.58,296.441
						c-0.799,9.418-0.799,29.541-0.799,29.541l-14.374,14.374l-0.958,23.957l15.332,15.332l-0.01,23.395"/>
				</g>
			</g>
			<g>
				<g>
					<circle style="fill:none;stroke:#D7DFFA;stroke-width:1.5855;stroke-miterlimit:10;" cx="404.883" cy="288.095" r="2.378"/>
					<path style="fill:none;stroke:#D7DFFA;stroke-width:1.5855;stroke-miterlimit:10;" d="M404.883,290.473
						c-0.022,13.47-0.022,26.885-0.022,40.301c-7.666,5.75-20.124,19.165-20.124,19.165l0.327,53.231"/>
				</g>
				<g>
					<circle style="fill:none;stroke:#D7DFFA;stroke-width:1.5855;stroke-miterlimit:10;" cx="412.017" cy="311.107" r="2.378"/>
					<path style="fill:none;stroke:#D7DFFA;stroke-width:1.5855;stroke-miterlimit:10;" d="M412.017,313.485
						c-0.449,7.706-0.449,14.414-0.449,22.08c-6.708,4.791-18.207,17.249-18.207,17.249l-0.766,50.357"/>
				</g>
				<g>
					<path style="fill:none;stroke:#D7DFFA;stroke-width:1.5855;stroke-miterlimit:10;" d="M380.077,278.05
						c-1.314,0-2.378,1.065-2.378,2.378c0,1.313,1.065,2.378,2.378,2.378c1.313,0,2.378-1.065,2.378-2.378
						C382.455,279.115,381.391,278.05,380.077,278.05z"/>
					<path style="fill:none;stroke:#D7DFFA;stroke-width:1.5855;stroke-miterlimit:10;" d="M384.212,329.279
						c-0.929,0.929-0.929,2.435,0,3.363c0.929,0.929,2.435,0.929,3.363,0c0.929-0.929,0.929-2.435,0-3.363
						C386.647,328.351,385.141,328.351,384.212,329.279z"/>
					<polyline style="fill:none;stroke:#D7DFFA;stroke-width:1.5855;stroke-miterlimit:10;" points="380.077,282.806 
						380.077,310.042 380.077,313.983 380.077,325.145 384.212,329.279 					"/>
				</g>
			</g>
		</g>
		<g>
			<g>
				<g>
					<circle style="fill:none;stroke:#D7DFFA;stroke-width:1.5855;stroke-miterlimit:10;" cx="435.626" cy="277.474" r="2.378"/>
					<path style="fill:none;stroke:#D7DFFA;stroke-width:1.5855;stroke-miterlimit:10;" d="M435.626,279.852
						c0.304,13.549,0.304,41.339,0.304,41.339l-12.457,12.457l-1.917,31.623l14.374,18.207l-0.106,19.568"/>
				</g>
				<g>
					<circle style="fill:none;stroke:#D7DFFA;stroke-width:1.5855;stroke-miterlimit:10;" cx="445.354" cy="294.063" r="2.378"/>
					<path style="fill:none;stroke:#D7DFFA;stroke-width:1.5855;stroke-miterlimit:10;" d="M445.354,296.441
						c-0.799,9.418-0.799,29.541-0.799,29.541l-14.374,14.374l-0.958,23.957l15.332,15.332l-0.01,23.395"/>
				</g>
			</g>
			<g>
				<g>
					<circle style="fill:none;stroke:#D7DFFA;stroke-width:1.5855;stroke-miterlimit:10;" cx="488.657" cy="288.095" r="2.378"/>
					<path style="fill:none;stroke:#D7DFFA;stroke-width:1.5855;stroke-miterlimit:10;" d="M488.657,290.473
						c-0.022,13.47-0.022,26.885-0.022,40.301c-7.666,5.75-20.124,19.165-20.124,19.165l0.327,53.231"/>
				</g>
				<g>
					<circle style="fill:none;stroke:#D7DFFA;stroke-width:1.5855;stroke-miterlimit:10;" cx="495.792" cy="311.107" r="2.378"/>
					<path style="fill:none;stroke:#D7DFFA;stroke-width:1.5855;stroke-miterlimit:10;" d="M495.792,313.485
						c-0.449,7.706-0.449,14.414-0.449,22.08c-6.708,4.791-18.207,17.249-18.207,17.249l-0.766,50.357"/>
				</g>
				<g>
					<path style="fill:none;stroke:#D7DFFA;stroke-width:1.5855;stroke-miterlimit:10;" d="M463.851,278.05
						c-1.313,0-2.378,1.065-2.378,2.378c0,1.313,1.065,2.378,2.378,2.378c1.313,0,2.378-1.065,2.378-2.378
						C466.229,279.115,465.164,278.05,463.851,278.05z"/>
					<path style="fill:none;stroke:#D7DFFA;stroke-width:1.5855;stroke-miterlimit:10;" d="M467.986,329.279
						c-0.929,0.929-0.929,2.435,0,3.363c0.929,0.929,2.435,0.929,3.363,0c0.929-0.929,0.929-2.435,0-3.363
						C470.42,328.351,468.915,328.351,467.986,329.279z"/>
					<polyline style="fill:none;stroke:#D7DFFA;stroke-width:1.5855;stroke-miterlimit:10;" points="463.851,282.806 
						463.851,310.042 463.851,313.983 463.851,325.145 467.986,329.279 					"/>
				</g>
			</g>
		</g>
		<g>
			<g>
				<g>
					<circle style="fill:none;stroke:#D7DFFA;stroke-width:1.5855;stroke-miterlimit:10;" cx="519.4" cy="277.474" r="2.378"/>
					<path style="fill:none;stroke:#D7DFFA;stroke-width:1.5855;stroke-miterlimit:10;" d="M519.4,279.852
						c0.304,13.549,0.304,41.339,0.304,41.339l-12.457,12.457l-1.917,31.623l14.374,18.207l-0.106,19.568"/>
				</g>
				<g>
					<path style="fill:none;stroke:#D7DFFA;stroke-width:1.5855;stroke-miterlimit:10;" d="M529.128,291.685
						c-1.313,0-2.378,1.065-2.378,2.378c0,1.313,1.065,2.378,2.378,2.378c1.313,0,2.378-1.065,2.378-2.378
						C531.506,292.75,530.441,291.685,529.128,291.685z"/>
					<path style="fill:none;stroke:#D7DFFA;stroke-width:1.5855;stroke-miterlimit:10;" d="M529.128,296.441
						c-0.799,9.418-0.799,29.541-0.799,29.541l-14.374,14.374l-0.958,23.957l15.332,15.332l-0.01,23.395"/>
				</g>
			</g>
			<g>
				<g>
					<path style="fill:none;stroke:#D7DFFA;stroke-width:1.5855;stroke-miterlimit:10;" d="M572.431,285.716
						c-1.314,0-2.378,1.065-2.378,2.378c0,1.313,1.065,2.378,2.378,2.378c1.313,0,2.378-1.065,2.378-2.378
						C574.809,286.781,573.744,285.716,572.431,285.716z"/>
					<path style="fill:none;stroke:#D7DFFA;stroke-width:1.5855;stroke-miterlimit:10;" d="M572.431,290.473
						c-0.022,13.47-0.022,26.885-0.022,40.301c-7.666,5.75-20.123,19.165-20.123,19.165l0.327,53.231"/>
				</g>
				<g>
					<circle style="fill:none;stroke:#D7DFFA;stroke-width:1.5855;stroke-miterlimit:10;" cx="579.565" cy="311.107" r="2.378"/>
					<path style="fill:none;stroke:#D7DFFA;stroke-width:1.5855;stroke-miterlimit:10;" d="M579.565,313.485
						c-0.449,7.706-0.449,14.414-0.449,22.08c-6.708,4.791-18.207,17.249-18.207,17.249l-0.766,50.357"/>
				</g>
				<g>
					<path style="fill:none;stroke:#D7DFFA;stroke-width:1.5855;stroke-miterlimit:10;" d="M547.625,278.05
						c-1.313,0-2.378,1.065-2.378,2.378c0,1.313,1.065,2.378,2.378,2.378c1.313,0,2.378-1.065,2.378-2.378
						C550.003,279.115,548.938,278.05,547.625,278.05z"/>
					<path style="fill:none;stroke:#D7DFFA;stroke-width:1.5855;stroke-miterlimit:10;" d="M551.76,329.279
						c-0.929,0.929-0.929,2.435,0,3.363c0.929,0.929,2.435,0.929,3.363,0c0.929-0.929,0.929-2.435,0-3.363
						C554.194,328.351,552.689,328.351,551.76,329.279z"/>
					<polyline style="fill:none;stroke:#D7DFFA;stroke-width:1.5855;stroke-miterlimit:10;" points="547.625,282.806 
						547.625,310.042 547.625,313.983 547.625,325.145 551.76,329.279 					"/>
				</g>
			</g>
		</g>
		<g>
			<g>
				<g>
					<path style="fill:none;stroke:#D7DFFA;stroke-width:1.5855;stroke-miterlimit:10;" d="M603.174,275.095
						c-1.313,0-2.378,1.065-2.378,2.378c0,1.313,1.065,2.378,2.378,2.378c1.313,0,2.378-1.065,2.378-2.378
						C605.552,276.16,604.488,275.095,603.174,275.095z"/>
					<path style="fill:none;stroke:#D7DFFA;stroke-width:1.5855;stroke-miterlimit:10;" d="M603.174,279.852
						c0.304,13.549,0.304,41.339,0.304,41.339l-12.457,12.457l-1.917,31.623l14.374,18.207l-0.106,19.568"/>
				</g>
				<g>
					<circle style="fill:none;stroke:#D7DFFA;stroke-width:1.5855;stroke-miterlimit:10;" cx="612.902" cy="294.063" r="2.378"/>
					<path style="fill:none;stroke:#D7DFFA;stroke-width:1.5855;stroke-miterlimit:10;" d="M612.902,296.441
						c-0.799,9.418-0.799,29.541-0.799,29.541l-14.374,14.374l-0.958,23.957l15.332,15.332l-0.01,23.395"/>
				</g>
			</g>
			<g>
				<g>
					<path style="fill:none;stroke:#D7DFFA;stroke-width:1.5855;stroke-miterlimit:10;" d="M631.399,278.05
						c-1.313,0-2.378,1.065-2.378,2.378c0,1.313,1.065,2.378,2.378,2.378c1.313,0,2.378-1.065,2.378-2.378
						C633.777,279.115,632.712,278.05,631.399,278.05z"/>
					<path style="fill:none;stroke:#D7DFFA;stroke-width:1.5855;stroke-miterlimit:10;" d="M635.534,329.279
						c-0.929,0.929-0.929,2.435,0,3.363c0.929,0.929,2.435,0.929,3.363,0c0.929-0.929,0.929-2.435,0-3.363
						C637.968,328.351,636.463,328.351,635.534,329.279z"/>
					<polyline style="fill:none;stroke:#D7DFFA;stroke-width:1.5855;stroke-miterlimit:10;" points="631.399,282.806 
						631.399,310.042 631.399,313.983 631.399,325.145 635.534,329.279 					"/>
				</g>
			</g>
		</g>
	</g>
	<g>
		<g>
			<g>
				<path style="fill:#FFD74A;" d="M325.167,371.817c-0.723,1.928-1.708,3.555-2.952,4.88c-1.247,1.326-2.651,2.41-4.218,3.254
					c-0.189,0.101-0.381,0.188-0.571,0.283c-2.295-1.223-4.254-2.814-5.858-4.802c-1.687-2.088-2.973-4.498-3.856-7.23
					c-0.885-2.73-1.326-5.582-1.326-8.556c0-2.651,0.381-5.321,1.145-8.014c0.763-2.691,1.928-5.101,3.495-7.23
					c1.567-2.128,3.574-3.856,6.025-5.182c0.077-0.042,0.158-0.076,0.235-0.117c0.217,0.099,0.436,0.19,0.651,0.298
					c1.606,0.805,3.073,1.889,4.399,3.254c1.325,1.367,2.389,3.093,3.193,5.182h17.853l17.956-12.774
					c-2.973-5.623-7.492-10.142-13.557-13.558c-6.067-3.414-13.237-5.122-21.511-5.122c-3.091,0-6.021,0.264-8.806,0.762
					c-2.854-0.504-5.868-0.762-9.048-0.762c-6.91,0-13.056,1.247-18.438,3.736c-5.383,2.491-9.963,5.745-13.738,9.761
					c-3.778,4.018-6.649,8.557-8.617,13.618c-1.97,5.062-2.952,10.204-2.952,15.426c0,5.464,1.043,10.845,3.133,16.148
					c2.089,5.302,5.041,10.043,8.858,14.22c3.815,4.178,8.355,7.531,13.618,10.063c5.261,2.531,11.066,3.796,17.413,3.796
					c2.942,0,17.853,0,17.853,0c3.615,0,7.331-0.443,11.147-1.326c3.815-0.883,7.391-2.169,10.725-3.856
					c3.333-1.687,6.306-3.775,8.918-6.266c2.61-2.49,4.559-5.303,5.845-8.436l-19.161-11.448H325.167z"/>
				<polygon style="fill:#4AB7FF;" points="343.485,335.061 325.529,347.836 343.382,347.836 361.338,335.061 				"/>
				<polygon style="fill:#4AB7FF;" points="362.069,383.198 343.021,371.817 325.167,371.817 344.328,383.198 				"/>
				<path style="fill:#1E2778;" d="M264.672,358.922c0-5.222,0.983-10.364,2.952-15.426c1.968-5.061,4.839-9.599,8.617-13.618
					c3.775-4.016,8.355-7.27,13.738-9.761c5.382-2.489,11.527-3.736,18.438-3.736c8.274,0,15.444,1.708,21.511,5.122
					c6.065,3.416,10.584,7.935,13.557,13.558l-17.956,12.774c-0.804-2.089-1.868-3.815-3.193-5.182
					c-1.326-1.365-2.793-2.449-4.399-3.254c-1.608-0.802-3.274-1.365-5.001-1.687c-1.728-0.32-3.395-0.482-5.001-0.482
					c-3.374,0-6.287,0.663-8.737,1.988c-2.452,1.326-4.459,3.054-6.025,5.182c-1.567,2.13-2.732,4.54-3.495,7.23
					c-0.764,2.693-1.145,5.363-1.145,8.014c0,2.974,0.441,5.827,1.326,8.556c0.883,2.732,2.169,5.142,3.856,7.23
					c1.688,2.09,3.755,3.757,6.207,5.001c2.45,1.246,5.201,1.868,8.255,1.868c1.606,0,3.254-0.181,4.941-0.542
					c1.687-0.362,3.314-0.965,4.881-1.808c1.567-0.844,2.971-1.928,4.218-3.254c1.245-1.325,2.229-2.952,2.952-4.88l19.161,11.448
					c-1.286,3.133-3.235,5.946-5.845,8.436c-2.612,2.491-5.585,4.579-8.918,6.266c-3.335,1.688-6.911,2.974-10.725,3.856
					c-3.817,0.883-7.532,1.326-11.147,1.326c-6.347,0-12.153-1.265-17.413-3.796c-5.263-2.531-9.803-5.885-13.618-10.063
					c-3.817-4.177-6.769-8.918-8.858-14.22C265.715,369.768,264.672,364.386,264.672,358.922z"/>
			</g>
			<g>
				<path style="fill:#FFD74A;" d="M583.797,366.032c-1.205-2.811-2.934-5.201-5.182-7.17c-2.25-1.968-4.961-3.676-8.134-5.122
					c-3.175-1.446-6.73-2.771-10.665-3.977c-2.491-0.802-4.721-1.485-6.688-2.048c-1.969-0.561-3.636-1.145-5.001-1.748
					c-1.367-0.603-2.41-1.265-3.133-1.988c-0.723-0.723-1.085-1.646-1.085-2.772c0-0.681,0.131-1.269,0.379-1.774
					c1.35,0.493,2.629,1.003,3.821,1.533c2.57,1.126,5.062,2.41,7.472,3.857h17.853l10.123-19.402
					c-1.928-0.965-4.098-1.988-6.508-3.074c-2.41-1.084-5.001-2.088-7.773-3.013c-2.772-0.922-5.645-1.687-8.617-2.289
					c-2.973-0.603-6.025-0.904-9.159-0.904c-2.98,0-5.849,0.312-8.612,0.922c-0.028-0.006-0.055-0.012-0.082-0.018
					c-2.973-0.603-6.025-0.904-9.159-0.904c-4.259,0-8.296,0.624-12.111,1.868c-3.817,1.246-7.212,3.073-10.183,5.483
					c-2.973,2.41-5.323,5.423-7.049,9.038c-1.729,3.616-2.591,7.794-2.591,12.533c0,3.133,0.422,5.906,1.265,8.316
					c0.844,2.41,2.149,4.561,3.917,6.447c1.766,1.889,4.016,3.576,6.749,5.062c2.73,1.487,5.984,2.873,9.761,4.157
					c2.57,0.885,5.001,1.648,7.291,2.29c2.29,0.644,4.318,1.286,6.086,1.928c1.766,0.644,3.152,1.387,4.157,2.23
					c1.004,0.843,1.507,1.868,1.507,3.073c0,0.679-0.205,1.267-0.57,1.784c-2.606-0.834-4.99-1.747-7.124-2.748
					c-3.054-1.365-5.986-2.932-8.797-4.7h-17.853l-10.123,20.607c2.57,1.527,5.362,2.892,8.375,4.097
					c3.013,1.205,6.146,2.25,9.399,3.133c3.254,0.885,6.527,1.567,9.822,2.048c3.293,0.482,6.507,0.723,9.641,0.723
					c2.787,0,17.853,0,17.853,0c3.935,0,7.852-0.463,11.75-1.386c3.896-0.922,7.39-2.429,10.484-4.519
					c3.092-2.088,5.583-4.881,7.472-8.375c1.887-3.494,2.832-7.813,2.832-12.955C585.605,372.259,585.002,368.845,583.797,366.032z"
					/>
				<polygon style="fill:#4AB7FF;" points="555.58,344.823 573.433,344.823 583.556,325.421 565.703,325.421 				"/>
				<path style="fill:#1E2778;" d="M555.58,344.823c-2.41-1.446-4.901-2.731-7.472-3.857c-2.169-0.964-4.6-1.868-7.291-2.711
					c-2.693-0.844-5.323-1.265-7.893-1.265c-2.09,0-3.756,0.322-5.001,0.964c-1.247,0.644-1.868,1.729-1.868,3.254
					c0,1.127,0.362,2.049,1.085,2.772c0.723,0.723,1.766,1.386,3.133,1.988c1.365,0.603,3.032,1.186,5.001,1.748
					c1.968,0.563,4.197,1.246,6.688,2.048c3.935,1.206,7.49,2.531,10.665,3.977c3.173,1.446,5.884,3.154,8.134,5.122
					c2.248,1.969,3.977,4.359,5.182,7.17c1.205,2.814,1.808,6.228,1.808,10.243c0,5.142-0.945,9.461-2.832,12.955
					c-1.889,3.495-4.38,6.287-7.472,8.375c-3.094,2.09-6.589,3.597-10.484,4.519c-3.898,0.922-7.815,1.386-11.75,1.386
					c-3.133,0-6.348-0.241-9.641-0.723c-3.295-0.482-6.568-1.163-9.822-2.048c-3.254-0.883-6.387-1.929-9.399-3.133
					c-3.013-1.206-5.805-2.57-8.375-4.097l10.123-20.607c2.811,1.768,5.743,3.335,8.797,4.7c2.57,1.205,5.483,2.29,8.737,3.254
					c3.254,0.964,6.568,1.446,9.942,1.446c2.57,0,4.357-0.341,5.362-1.024c1.004-0.682,1.507-1.586,1.507-2.712
					c0-1.205-0.503-2.229-1.507-3.073c-1.005-0.844-2.391-1.586-4.157-2.23c-1.768-0.642-3.796-1.284-6.086-1.928
					c-2.29-0.642-4.721-1.405-7.291-2.29c-3.778-1.284-7.031-2.67-9.761-4.157c-2.732-1.486-4.982-3.173-6.749-5.062
					c-1.768-1.886-3.073-4.037-3.917-6.447c-0.843-2.41-1.265-5.182-1.265-8.316c0-4.739,0.863-8.917,2.591-12.533
					c1.726-3.615,4.076-6.628,7.049-9.038c2.971-2.41,6.367-4.237,10.183-5.483c3.815-1.245,7.852-1.868,12.111-1.868
					c3.133,0,6.186,0.301,9.159,0.904c2.971,0.602,5.845,1.366,8.617,2.289c2.772,0.925,5.362,1.929,7.773,3.013
					c2.41,1.085,4.58,2.109,6.508,3.074L555.58,344.823z"/>
			</g>
			<g>
				<polygon style="fill:#4AB7FF;" points="457.263,316.864 439.409,316.864 429.807,337.691 420.267,316.864 402.413,316.864 
					394.598,316.864 376.745,316.864 376.745,402.426 394.598,402.426 400.244,402.426 418.097,402.426 418.097,389.049 
					427.118,389.049 441.458,389.049 441.458,402.426 459.311,402.426 464.958,402.426 482.811,402.426 482.811,316.864 
					464.958,316.864 				"/>
				<polygon style="fill:#FFD74A;" points="439.409,316.864 429.807,337.691 420.267,316.864 401.362,316.864 418.097,389.049 
					441.458,389.049 441.458,402.426 451.239,316.864 				"/>
				<path style="fill:#1E2778;" d="M441.458,402.426v-45.07l-14.34,31.693h-12.533l-14.341-31.693v45.07h-23.499v-85.562h25.669
					l18.438,40.25l18.558-40.25h25.548v85.562H441.458z"/>
			</g>
		</g>
		<g>
			<g>
				<g>
					<path style="fill:#4AB7FF;" d="M93.432,401.398c0,0-28.164-42.471,0-93.285c0,0,45.525,33.717,29.151,93.285H93.432z"/>
					<path style="fill:#FFFFFF;" d="M125.627,366.69c-0.033-0.303-0.065-0.605-0.102-0.906c-4.743,6.711-9.898,13.177-15.663,18.642
						c-1.321-10.428-3.075-21.245-5.037-31.541l0.023,0.016c3.912-5.703,7.54-11.668,10.826-17.776
						c-0.115-0.212-0.232-0.422-0.348-0.632c-3.233,6.039-6.807,11.938-10.656,17.585c-3.421-17.81-7.447-33.966-10.899-43.704
						c-0.219-0.171-0.34-0.262-0.34-0.262c-0.079,0.143-0.152,0.286-0.231,0.429c3.426,9.631,7.428,25.666,10.837,43.378
						c-8.038-6.117-14.967-11.701-20.939-16.879c-0.05,0.224-0.103,0.449-0.15,0.672c6.06,5.243,13.091,10.897,21.259,17.099
						c1.988,10.423,3.763,21.389,5.092,31.949c-9.028-3.083-18.114-7.242-26.669-12.157c0.051,0.264,0.104,0.527,0.157,0.788
						c8.544,4.87,17.601,8.992,26.597,12.042c0.681,5.483,1.24,10.848,1.643,15.963h0.606c-0.41-5.195-0.981-10.649-1.677-16.222
						C115.728,379.765,120.884,373.356,125.627,366.69z"/>
				</g>
				<g>
					<path style="fill:#FFD74A;" d="M139.316,401.398c0,0,20.223-30.496,0-66.983c0,0-32.689,24.21-20.932,66.983H139.316z"/>
					<path style="fill:#FFFFFF;" d="M116.198,376.476c0.024-0.217,0.047-0.435,0.073-0.651c3.406,4.819,7.107,9.462,11.247,13.386
						c0.949-7.488,2.208-15.255,3.617-22.648l-0.017,0.012c-2.809-4.095-5.414-8.378-7.774-12.764
						c0.083-0.152,0.166-0.303,0.25-0.454c2.321,4.336,4.888,8.572,7.651,12.627c2.457-12.788,5.347-24.389,7.826-31.381
						c0.157-0.123,0.245-0.188,0.245-0.188c0.057,0.103,0.109,0.205,0.166,0.308c-2.46,6.915-5.334,18.429-7.781,31.148
						c5.772-4.393,10.747-8.402,15.035-12.12c0.036,0.161,0.074,0.323,0.108,0.483c-4.352,3.765-9.4,7.825-15.265,12.278
						c-1.427,7.484-2.702,15.358-3.656,22.941c6.483-2.214,13.007-5.2,19.15-8.729c-0.037,0.19-0.074,0.378-0.112,0.566
						c-6.135,3.497-12.639,6.457-19.098,8.646c-0.489,3.937-0.891,7.79-1.18,11.462h-0.435c0.294-3.73,0.704-7.647,1.204-11.648
						C123.306,385.865,119.604,381.262,116.198,376.476z"/>
				</g>
			</g>
			<g>
				<g>
					<path style="fill:#FFD74A;" d="M653.927,405.249c0,0,34.108-51.435,0-112.974c0,0-55.133,40.833-35.303,112.974H653.927z"/>
					<path style="fill:#FFFFFF;" d="M614.936,363.215c0.04-0.366,0.079-0.733,0.123-1.097c5.744,8.127,11.987,15.958,18.969,22.576
						c1.6-12.629,3.724-25.728,6.1-38.198l-0.028,0.019c-4.737-6.906-9.132-14.13-13.111-21.527c0.14-0.257,0.281-0.511,0.421-0.766
						c3.916,7.314,8.244,14.457,12.905,21.297c4.143-21.568,9.019-41.134,13.199-52.928c0.265-0.207,0.412-0.317,0.412-0.317
						c0.096,0.174,0.185,0.346,0.28,0.52c-4.149,11.663-8.996,31.083-13.124,52.534c9.734-7.408,18.126-14.171,25.358-20.441
						c0.06,0.271,0.124,0.544,0.182,0.814c-7.339,6.349-15.853,13.197-25.746,20.708c-2.407,12.622-4.558,25.903-6.167,38.692
						c10.934-3.733,21.937-8.771,32.298-14.723c-0.062,0.32-0.125,0.638-0.189,0.955c-10.347,5.898-21.316,10.89-32.21,14.583
						c-0.825,6.64-1.502,13.138-1.99,19.333h-0.734c0.496-6.292,1.188-12.897,2.031-19.646
						C626.925,379.05,620.681,371.288,614.936,363.215z"/>
				</g>
				<g>
					<path style="fill:#4AB7FF;" d="M601.356,405.249c0,0-21.91-33.04,0-72.571c0,0,35.416,26.23,22.678,72.571H601.356z"/>
					<path style="fill:#FFFFFF;" d="M626.402,378.247c-0.026-0.235-0.051-0.471-0.079-0.705c-3.69,5.221-7.7,10.251-12.185,14.502
						c-1.028-8.112-2.393-16.527-3.919-24.537l0.018,0.012c3.043-4.436,5.866-9.077,8.422-13.828
						c-0.09-0.165-0.18-0.329-0.271-0.492c-2.515,4.698-5.296,9.287-8.29,13.68c-2.662-13.855-5.793-26.424-8.479-33.999
						c-0.17-0.133-0.265-0.204-0.265-0.204c-0.062,0.112-0.119,0.222-0.18,0.334c2.666,7.492,5.779,19.967,8.431,33.746
						c-6.253-4.759-11.643-9.103-16.289-13.131c-0.039,0.174-0.08,0.349-0.117,0.523c4.715,4.079,10.184,8.477,16.539,13.302
						c1.546,8.108,2.928,16.64,3.962,24.855c-7.023-2.398-14.092-5.634-20.747-9.458c0.04,0.206,0.081,0.41,0.122,0.613
						c6.646,3.789,13.693,6.995,20.691,9.368c0.53,4.265,0.965,8.439,1.278,12.419h0.471c-0.319-4.042-0.763-8.284-1.304-12.62
						C618.701,388.419,622.712,383.433,626.402,378.247z"/>
				</g>
			</g>
		</g>
		<rect x="88.508" y="401.398" style="fill:#1E2778;" width="571.773" height="15.05"/>
		<g>
			<g>
				<rect x="157.637" y="320.174" style="fill:#1E2778;" width="85.202" height="40.84"/>
				<rect x="157.637" y="354.978" style="fill:#141B5E;" width="85.202" height="6.035"/>
				<g>
					<g>
						<path style="fill:#39439E;" d="M187.071,323.259H167.47c-3.721,0-6.748,3.028-6.748,6.748v17.073h26.349V323.259z"/>
						<path style="fill:#39439E;" d="M233.005,323.259h-44.521v23.821h51.269v-17.073
							C239.753,326.286,236.726,323.259,233.005,323.259z"/>
						<g>
							<g>
								<g>
									<rect x="192.142" y="326.172" style="fill:#F2CF31;" width="2.571" height="2.571"/>
									<rect x="192.142" y="331.313" style="fill:#79CAFF;" width="2.571" height="2.571"/>
									<rect x="192.142" y="336.454" style="fill:#F2CF31;" width="2.571" height="2.571"/>
									<rect x="192.142" y="341.596" style="fill:#79CAFF;" width="2.571" height="2.571"/>
								</g>
								<g>
									<rect x="196.897" y="326.172" style="fill:#FFFFFF;" width="2.571" height="2.571"/>
									<rect x="196.897" y="331.313" style="fill:#F2CF31;" width="2.571" height="2.571"/>
									<rect x="196.897" y="336.454" style="fill:#79CAFF;" width="2.571" height="2.571"/>
									<rect x="196.897" y="341.596" style="fill:#FFFFFF;" width="2.571" height="2.571"/>
								</g>
								<g>
									<rect x="201.653" y="326.172" style="fill:#79CAFF;" width="2.571" height="2.571"/>
									<rect x="201.653" y="331.313" style="fill:#FFFFFF;" width="2.571" height="2.571"/>
									<rect x="201.653" y="336.454" style="fill:#79CAFF;" width="2.571" height="2.571"/>
									<rect x="201.653" y="341.596" style="fill:#F2CF31;" width="2.571" height="2.571"/>
								</g>
							</g>
							<g>
								<rect x="206.409" y="326.172" style="fill:#1E2778;" width="24.632" height="2.571"/>
								<rect x="206.409" y="331.313" style="fill:#1E2778;" width="24.632" height="2.571"/>
								<rect x="206.409" y="336.454" style="fill:#1E2778;" width="24.632" height="2.571"/>
								<rect x="206.409" y="341.596" style="fill:#1E2778;" width="24.632" height="2.571"/>
							</g>
						</g>
						<circle style="fill:#FFFFFF;" cx="173.896" cy="335.169" r="9.597"/>
						<circle style="fill:#1E2778;" cx="173.896" cy="335.169" r="8.212"/>
						<path style="fill:#141B5E;" d="M170.04,335.169c0-2.13,1.726-3.856,3.856-3.856c2.13,0,3.856,1.726,3.856,3.856
							c0,2.13-1.726,3.856-3.856,3.856C171.766,339.025,170.04,337.299,170.04,335.169z"/>
					</g>
					<g>
						<rect x="160.721" y="350.122" style="fill:#F2CF31;" width="8.529" height="1.542"/>
						<rect x="174.822" y="350.122" style="fill:#F2CF31;" width="8.529" height="1.542"/>
						<rect x="188.923" y="350.122" style="fill:#39439E;" width="8.529" height="1.542"/>
						<rect x="203.023" y="350.122" style="fill:#39439E;" width="8.529" height="1.542"/>
						<rect x="217.124" y="350.122" style="fill:#39439E;" width="8.529" height="1.542"/>
						<rect x="231.224" y="350.122" style="fill:#39439E;" width="8.529" height="1.542"/>
					</g>
				</g>
			</g>
			<g>
				<rect x="157.637" y="279.333" style="fill:#1E2778;" width="85.202" height="40.84"/>
				<rect x="157.637" y="314.138" style="fill:#141B5E;" width="85.202" height="6.035"/>
				<g>
					<g>
						<path style="fill:#39439E;" d="M187.071,282.418H167.47c-3.721,0-6.748,3.027-6.748,6.749v17.073h26.349V282.418z"/>
						<path style="fill:#39439E;" d="M233.005,282.418h-44.521v23.821h51.269v-17.073
							C239.753,285.446,236.726,282.418,233.005,282.418z"/>
						<g>
							<g>
								<g>
									<rect x="192.142" y="285.332" style="fill:#F2CF31;" width="2.571" height="2.571"/>
									<rect x="192.142" y="290.473" style="fill:#79CAFF;" width="2.571" height="2.571"/>
									<rect x="192.142" y="295.614" style="fill:#F2CF31;" width="2.571" height="2.571"/>
									<rect x="192.142" y="300.756" style="fill:#79CAFF;" width="2.571" height="2.571"/>
								</g>
								<g>
									<rect x="196.897" y="285.332" style="fill:#FFFFFF;" width="2.571" height="2.571"/>
									<rect x="196.897" y="290.473" style="fill:#F2CF31;" width="2.571" height="2.571"/>
									<rect x="196.897" y="295.614" style="fill:#79CAFF;" width="2.571" height="2.571"/>
									<rect x="196.897" y="300.756" style="fill:#FFFFFF;" width="2.571" height="2.571"/>
								</g>
								<g>
									<rect x="201.653" y="285.332" style="fill:#79CAFF;" width="2.571" height="2.571"/>
									<rect x="201.653" y="290.473" style="fill:#FFFFFF;" width="2.571" height="2.571"/>
									<rect x="201.653" y="295.614" style="fill:#79CAFF;" width="2.571" height="2.571"/>
									<rect x="201.653" y="300.756" style="fill:#F2CF31;" width="2.571" height="2.571"/>
								</g>
							</g>
							<g>
								<rect x="206.409" y="285.332" style="fill:#1E2778;" width="24.632" height="2.571"/>
								<rect x="206.409" y="290.473" style="fill:#1E2778;" width="24.632" height="2.571"/>
								<rect x="206.409" y="295.614" style="fill:#1E2778;" width="24.632" height="2.571"/>
								<rect x="206.409" y="300.756" style="fill:#1E2778;" width="24.632" height="2.571"/>
							</g>
						</g>
						
							<ellipse transform="matrix(0.7071 -0.7071 0.7071 0.7071 -157.189 209.17)" style="fill:#FFFFFF;" cx="173.896" cy="294.329" rx="9.597" ry="9.597"/>
						<circle style="fill:#1E2778;" cx="173.896" cy="294.329" r="8.212"/>
						<path style="fill:#141B5E;" d="M170.04,294.329c0-2.13,1.726-3.856,3.856-3.856c2.13,0,3.856,1.726,3.856,3.856
							c0,2.13-1.726,3.856-3.856,3.856C171.766,298.185,170.04,296.459,170.04,294.329z"/>
					</g>
					<g>
						<rect x="160.721" y="309.282" style="fill:#F2CF31;" width="8.529" height="1.542"/>
						<rect x="174.822" y="309.282" style="fill:#F2CF31;" width="8.529" height="1.542"/>
						<rect x="188.923" y="309.282" style="fill:#39439E;" width="8.529" height="1.542"/>
						<rect x="203.023" y="309.282" style="fill:#39439E;" width="8.529" height="1.542"/>
						<rect x="217.124" y="309.282" style="fill:#39439E;" width="8.529" height="1.542"/>
						<rect x="231.224" y="309.282" style="fill:#39439E;" width="8.529" height="1.542"/>
					</g>
				</g>
			</g>
			<g>
				<rect x="157.637" y="361.014" style="fill:#1E2778;" width="85.202" height="40.84"/>
				<rect x="157.637" y="395.819" style="fill:#141B5E;" width="85.202" height="6.035"/>
				<g>
					<g>
						<path style="fill:#39439E;" d="M187.071,364.099H167.47c-3.721,0-6.748,3.028-6.748,6.749v17.073h26.349V364.099z"/>
						<path style="fill:#39439E;" d="M233.005,364.099h-44.521v23.821h51.269v-17.073
							C239.753,367.126,236.726,364.099,233.005,364.099z"/>
						<g>
							<g>
								<g>
									<rect x="192.142" y="367.012" style="fill:#F2CF31;" width="2.571" height="2.571"/>
									<rect x="192.142" y="372.153" style="fill:#79CAFF;" width="2.571" height="2.571"/>
									<rect x="192.142" y="377.295" style="fill:#F2CF31;" width="2.571" height="2.571"/>
									<rect x="192.142" y="382.436" style="fill:#79CAFF;" width="2.571" height="2.571"/>
								</g>
								<g>
									<rect x="196.897" y="367.012" style="fill:#FFFFFF;" width="2.571" height="2.571"/>
									<rect x="196.897" y="372.153" style="fill:#F2CF31;" width="2.571" height="2.571"/>
									<rect x="196.897" y="377.295" style="fill:#79CAFF;" width="2.571" height="2.571"/>
									<rect x="196.897" y="382.436" style="fill:#FFFFFF;" width="2.571" height="2.571"/>
								</g>
								<g>
									<rect x="201.653" y="367.012" style="fill:#79CAFF;" width="2.571" height="2.571"/>
									<rect x="201.653" y="372.153" style="fill:#FFFFFF;" width="2.571" height="2.571"/>
									<rect x="201.653" y="377.295" style="fill:#79CAFF;" width="2.571" height="2.571"/>
									<rect x="201.653" y="382.436" style="fill:#F2CF31;" width="2.571" height="2.571"/>
								</g>
							</g>
							<g>
								<rect x="206.409" y="367.012" style="fill:#1E2778;" width="24.632" height="2.571"/>
								<rect x="206.409" y="372.153" style="fill:#1E2778;" width="24.632" height="2.571"/>
								<rect x="206.409" y="377.295" style="fill:#1E2778;" width="24.632" height="2.571"/>
								<rect x="206.409" y="382.436" style="fill:#1E2778;" width="24.632" height="2.571"/>
							</g>
						</g>
						<circle style="fill:#FFFFFF;" cx="173.896" cy="376.009" r="9.597"/>
						<circle style="fill:#1E2778;" cx="173.896" cy="376.009" r="8.212"/>
						<path style="fill:#141B5E;" d="M170.04,376.009c0-2.13,1.726-3.856,3.856-3.856c2.13,0,3.856,1.726,3.856,3.856
							s-1.726,3.856-3.856,3.856C171.766,379.865,170.04,378.139,170.04,376.009z"/>
					</g>
					<g>
						<rect x="160.721" y="390.962" style="fill:#F2CF31;" width="8.529" height="1.542"/>
						<rect x="174.822" y="390.962" style="fill:#F2CF31;" width="8.529" height="1.542"/>
						<rect x="188.923" y="390.962" style="fill:#39439E;" width="8.529" height="1.542"/>
						<rect x="203.023" y="390.962" style="fill:#39439E;" width="8.529" height="1.542"/>
						<rect x="217.124" y="390.962" style="fill:#39439E;" width="8.529" height="1.542"/>
						<rect x="231.224" y="390.962" style="fill:#39439E;" width="8.529" height="1.542"/>
					</g>
				</g>
			</g>
			<rect x="242.838" y="279.333" style="fill:#141B5E;" width="12.878" height="122.125"/>
		</g>
	</g>
	<g>
		<g>
			<g>
				<path style="fill:#1E2778;" d="M491.671,180.057l2.187-2.095c1.313,1.007,2.707,1.855,4.165,2.535l-0.844,2.899
					c-0.108,0.372,0.105,0.76,0.477,0.869l5.259,1.531c0.372,0.108,0.761-0.105,0.869-0.477l0.842-2.894
					c1.619,0.211,3.254,0.246,4.88,0.105l0.717,2.927c0.092,0.376,0.472,0.606,0.848,0.514l5.32-1.304
					c0.376-0.092,0.606-0.472,0.514-0.848l-0.719-2.933c1.486-0.617,2.915-1.404,4.27-2.354l2.095,2.187
					c0.268,0.279,0.711,0.289,0.991,0.021l3.955-3.789c0.279-0.268,0.289-0.711,0.021-0.991l-2.095-2.187
					c1.007-1.313,1.855-2.707,2.535-4.165l2.899,0.844c0.372,0.108,0.761-0.105,0.869-0.477l1.531-5.259
					c0.108-0.372-0.105-0.761-0.477-0.869l-2.893-0.842c0.211-1.619,0.246-3.254,0.105-4.88l2.927-0.717
					c0.376-0.092,0.606-0.472,0.514-0.848l-1.304-5.32c-0.092-0.376-0.471-0.606-0.847-0.514l-2.933,0.719
					c-0.617-1.486-1.404-2.915-2.354-4.27l2.187-2.095c0.28-0.268,0.289-0.711,0.021-0.991l-3.789-3.955
					c-0.268-0.28-0.711-0.289-0.991-0.021l-2.187,2.095c-1.313-1.007-2.707-1.855-4.165-2.535l0.844-2.899
					c0.108-0.372-0.105-0.761-0.477-0.869l-5.259-1.531c-0.372-0.108-0.761,0.105-0.869,0.477l-0.842,2.893
					c-1.619-0.211-3.254-0.246-4.88-0.105l-0.717-2.927c-0.092-0.376-0.472-0.606-0.848-0.514l-5.32,1.304
					c-0.376,0.092-0.606,0.472-0.514,0.848l0.719,2.933c-1.486,0.617-2.915,1.404-4.27,2.354l-2.095-2.187
					c-0.268-0.279-0.711-0.289-0.991-0.021l-3.955,3.789c-0.279,0.268-0.289,0.711-0.021,0.991l2.095,2.187
					c-1.007,1.313-1.855,2.707-2.535,4.165l-2.899-0.844c-0.372-0.108-0.761,0.105-0.869,0.477l-1.531,5.259
					c-0.108,0.372,0.105,0.761,0.477,0.869l2.893,0.842c-0.211,1.619-0.246,3.254-0.105,4.88l-2.927,0.717
					c-0.376,0.092-0.606,0.472-0.514,0.847l1.304,5.32c0.092,0.376,0.472,0.606,0.848,0.514l2.933-0.719
					c0.617,1.486,1.404,2.915,2.354,4.27l-2.187,2.095c-0.279,0.268-0.289,0.711-0.021,0.991l3.789,3.955
					C490.948,180.316,491.392,180.325,491.671,180.057z M498.086,150.211c5.454-5.225,14.11-5.039,19.335,0.415
					c5.225,5.454,5.039,14.11-0.414,19.335c-5.454,5.225-14.11,5.039-19.335-0.415C492.447,164.092,492.633,155.436,498.086,150.211
					z"/>
				
					<ellipse transform="matrix(0.9744 -0.2249 0.2249 0.9744 -23.0026 118.2697)" style="fill:#1E2778;" cx="507.546" cy="160.086" rx="8.806" ry="8.806"/>
			</g>
			<g>
				<path style="fill:#1E2778;" d="M428.03,215.31l2.954-2.83c1.774,1.361,3.657,2.507,5.628,3.425l-1.14,3.917
					c-0.146,0.502,0.142,1.028,0.645,1.174l7.105,2.068c0.502,0.146,1.028-0.143,1.174-0.645l1.138-3.91
					c2.187,0.285,4.396,0.332,6.593,0.141l0.969,3.955c0.124,0.508,0.637,0.819,1.145,0.694l7.187-1.762
					c0.508-0.124,0.819-0.637,0.694-1.145l-0.971-3.962c2.008-0.833,3.939-1.897,5.769-3.181l2.83,2.954
					c0.362,0.378,0.961,0.391,1.339,0.029l5.344-5.119c0.378-0.362,0.391-0.961,0.029-1.339l-2.83-2.954
					c1.361-1.773,2.507-3.657,3.425-5.627l3.917,1.14c0.502,0.146,1.028-0.143,1.174-0.645l2.068-7.105
					c0.146-0.502-0.142-1.028-0.644-1.174l-3.909-1.138c0.285-2.187,0.332-4.396,0.141-6.593l3.954-0.969
					c0.508-0.124,0.819-0.637,0.694-1.145l-1.762-7.187c-0.125-0.508-0.637-0.819-1.145-0.694l-3.962,0.971
					c-0.833-2.008-1.897-3.939-3.181-5.769l2.954-2.83c0.378-0.362,0.391-0.961,0.029-1.339l-5.119-5.343
					c-0.362-0.378-0.961-0.391-1.339-0.029l-2.954,2.83c-1.774-1.361-3.657-2.507-5.627-3.425l1.14-3.917
					c0.146-0.502-0.142-1.028-0.644-1.174l-7.105-2.068c-0.502-0.146-1.028,0.143-1.174,0.645l-1.138,3.909
					c-2.187-0.285-4.396-0.332-6.594-0.141l-0.969-3.954c-0.125-0.508-0.637-0.819-1.145-0.694l-7.187,1.761
					c-0.508,0.124-0.819,0.637-0.694,1.145l0.971,3.962c-2.008,0.833-3.939,1.897-5.769,3.181l-2.83-2.954
					c-0.362-0.378-0.961-0.391-1.339-0.029l-5.343,5.119c-0.378,0.362-0.39,0.961-0.029,1.339l2.83,2.954
					c-1.361,1.773-2.507,3.657-3.425,5.628l-3.917-1.14c-0.502-0.146-1.028,0.143-1.174,0.645l-2.068,7.105
					c-0.146,0.502,0.142,1.027,0.645,1.174l3.909,1.138c-0.285,2.187-0.332,4.396-0.141,6.593l-3.954,0.969
					c-0.508,0.124-0.819,0.637-0.694,1.145l1.761,7.187c0.124,0.508,0.637,0.819,1.145,0.694l3.962-0.971
					c0.833,2.008,1.897,3.939,3.181,5.769l-2.954,2.83c-0.378,0.362-0.39,0.961-0.029,1.339l5.119,5.343
					C427.054,215.659,427.653,215.672,428.03,215.31z M436.698,174.986c7.368-7.059,19.064-6.808,26.122,0.56
					c7.059,7.368,6.808,19.064-0.56,26.122c-7.368,7.059-19.064,6.808-26.122-0.56C429.079,193.74,429.33,182.045,436.698,174.986z"
					/>
				
					<ellipse transform="matrix(0.9075 -0.42 0.42 0.9075 -37.5308 206.2162)" style="fill:#1E2778;" cx="449.479" cy="188.327" rx="11.897" ry="11.897"/>
			</g>
		</g>
		<g>
			<g>
				<g>
					<path style="fill:#4AB7FF;" d="M443.808,242.12H309.681c-3.069,0-5.557-2.488-5.557-5.557V146.73
						c0-3.069,2.488-5.557,5.557-5.557h134.127c3.069,0,5.557,2.488,5.557,5.557v89.834
						C449.365,239.632,446.877,242.12,443.808,242.12z"/>
					
						<rect x="333.409" y="126.164" transform="matrix(-1.836970e-16 1 -1 -1.836970e-16 568.3909 -185.0983)" style="fill:#FFFFFF;" width="86.671" height="130.964"/>
					<path style="fill:#39439E;" d="M304.124,223.149v13.414c0,3.069,2.488,5.557,5.557,5.557h134.127
						c3.069,0,5.557-2.488,5.557-5.557v-13.414H304.124z"/>
				</g>
				<g>
					<path style="fill:#39439E;" d="M405.853,256.104l-9.993-1.842h-19.974h-19.974l-9.993,1.842
						c-0.613,0.613-0.26,4.485,1.001,4.485h28.966h28.966C406.113,260.59,406.374,256.625,405.853,256.104z"/>
					<path style="fill:#1E2778;" d="M395.86,254.262l-2.023-12.142h-35.901l-2.023,12.142l-9.993,1.842c0,0,59.454,0.15,59.935,0
						L395.86,254.262z"/>
					<polygon style="fill:#141B5E;" points="395.86,254.262 393.836,242.12 357.935,242.12 355.912,254.262 					"/>
				</g>
			</g>
			<g>
				<g>
					<g>
						<g>
							<path style="fill:#4AB7FF;" d="M428.684,174.567H348.28c-0.307,0-0.556-0.249-0.556-0.556v-16.583
								c0-0.307,0.249-0.556,0.556-0.556h80.404c0.307,0,0.556,0.249,0.556,0.556v16.583
								C429.24,174.318,428.991,174.567,428.684,174.567z"/>
							<g>
								<g>
									<rect x="349.36" y="158.256" style="fill:#FFFFFF;" width="11.967" height="1.865"/>
									<rect x="349.36" y="161.147" style="fill:#FFFFFF;" width="11.967" height="0.932"/>
									<rect x="363.447" y="158.256" style="fill:#FFFFFF;" width="11.967" height="1.865"/>
								</g>
								<rect x="349.36" y="164.148" style="fill:#FFFFFF;" width="77.289" height="9.034"/>
							</g>
						</g>
						<g>
							<path style="fill:#FFD74A;" d="M428.684,194.888H348.28c-0.307,0-0.556-0.249-0.556-0.556v-16.583
								c0-0.307,0.249-0.556,0.556-0.556h80.404c0.307,0,0.556,0.249,0.556,0.556v16.583
								C429.24,194.639,428.991,194.888,428.684,194.888z"/>
							<g>
								<g>
									<rect x="349.36" y="178.578" style="fill:#FFFFFF;" width="11.967" height="1.865"/>
									<rect x="349.36" y="181.469" style="fill:#FFFFFF;" width="11.967" height="0.932"/>
									<rect x="363.447" y="178.578" style="fill:#FFFFFF;" width="11.967" height="1.865"/>
								</g>
								<rect x="349.36" y="184.47" style="fill:#FFFFFF;" width="77.289" height="9.034"/>
							</g>
						</g>
						<g>
							<path style="fill:#1E2778;" d="M391.637,215.21H348.28c-0.307,0-0.556-0.249-0.556-0.556v-16.583
								c0-0.307,0.249-0.556,0.556-0.556h80.404c0.307,0,0.556,0.249,0.556,0.556v16.583
								C429.24,214.961,391.944,215.21,391.637,215.21z"/>
							<g>
								<g>
									<rect x="349.36" y="198.899" style="fill:#FFFFFF;" width="11.967" height="1.865"/>
									<rect x="349.36" y="201.79" style="fill:#FFFFFF;" width="11.967" height="0.932"/>
									<rect x="363.447" y="198.899" style="fill:#FFFFFF;" width="11.967" height="1.865"/>
								</g>
								<rect x="349.36" y="204.791" style="fill:#FFFFFF;" width="77.289" height="9.034"/>
							</g>
						</g>
					</g>
					<g>
						<g>
							<g>
								<g>
									<path style="fill:#FCCE2F;" d="M339.33,197.047h-3.298c-0.744,0-1.347-0.603-1.347-1.347l0,0
										c0-0.744,0.603-1.347,1.347-1.347h3.298c0.744,0,1.347,0.603,1.347,1.347l0,0
										C340.677,196.444,340.074,197.047,339.33,197.047z"/>
									<g>
										<path style="fill:#FFFFFF;" d="M334.999,195.7c0-0.557,0.451-1.008,1.008-1.008c0.556,0,1.008,0.451,1.008,1.008
											c0,0.556-0.451,1.008-1.008,1.008C335.45,196.707,334.999,196.256,334.999,195.7z"/>
									</g>
								</g>
								<g>
									<path style="fill:#1E2778;" d="M336.032,197.983h3.298c0.744,0,1.347,0.603,1.347,1.347v0c0,0.744-0.603,1.347-1.347,1.347
										h-3.298c-0.744,0-1.347-0.603-1.347-1.347v0C334.685,198.586,335.288,197.983,336.032,197.983z"/>
									<g>
										<path style="fill:#FFFFFF;" d="M340.364,199.33c0,0.556-0.451,1.008-1.008,1.008c-0.556,0-1.008-0.451-1.008-1.008
											c0-0.557,0.451-1.008,1.008-1.008C339.913,198.323,340.364,198.774,340.364,199.33z"/>
									</g>
								</g>
							</g>
							<g>
								<g>
									<path style="fill:#FCCE2F;" d="M339.33,204.323h-3.298c-0.744,0-1.347-0.603-1.347-1.347l0,0
										c0-0.744,0.603-1.347,1.347-1.347h3.298c0.744,0,1.347,0.603,1.347,1.347l0,0
										C340.677,203.72,340.074,204.323,339.33,204.323z"/>
									<g>
										<path style="fill:#FFFFFF;" d="M334.999,202.976c0-0.557,0.451-1.008,1.008-1.008c0.556,0,1.008,0.451,1.008,1.008
											c0,0.556-0.451,1.007-1.008,1.007C335.45,203.984,334.999,203.533,334.999,202.976z"/>
									</g>
								</g>
								<g>
									<path style="fill:#1E2778;" d="M336.032,205.259h3.298c0.744,0,1.347,0.603,1.347,1.347l0,0
										c0,0.744-0.603,1.347-1.347,1.347h-3.298c-0.744,0-1.347-0.603-1.347-1.347l0,0
										C334.685,205.863,335.288,205.259,336.032,205.259z"/>
									<g>
										<path style="fill:#FFFFFF;" d="M340.364,206.607c0,0.556-0.451,1.008-1.008,1.008c-0.556,0-1.008-0.451-1.008-1.008
											c0-0.556,0.451-1.008,1.008-1.008C339.913,205.599,340.364,206.05,340.364,206.607z"/>
									</g>
								</g>
							</g>
							<g>
								<g>
									<path style="fill:#FCCE2F;" d="M339.33,211.6h-3.298c-0.744,0-1.347-0.603-1.347-1.347l0,0
										c0-0.744,0.603-1.347,1.347-1.347h3.298c0.744,0,1.347,0.603,1.347,1.347l0,0C340.677,210.997,340.074,211.6,339.33,211.6z
										"/>
									<g>
										<path style="fill:#FFFFFF;" d="M334.999,210.252c0-0.556,0.451-1.007,1.008-1.007c0.556,0,1.008,0.451,1.008,1.007
											c0,0.557-0.451,1.008-1.008,1.008C335.45,211.26,334.999,210.809,334.999,210.252z"/>
									</g>
								</g>
								<g>
									<path style="fill:#1E2778;" d="M336.032,212.536h3.298c0.744,0,1.347,0.603,1.347,1.347l0,0
										c0,0.744-0.603,1.347-1.347,1.347h-3.298c-0.744,0-1.347-0.603-1.347-1.347l0,0
										C334.685,213.139,335.288,212.536,336.032,212.536z"/>
									<g>
										<circle style="fill:#FFFFFF;" cx="339.356" cy="213.883" r="1.008"/>
									</g>
								</g>
							</g>
						</g>
						<g>
							<g>
								<path style="fill:#FCCE2F;" d="M325.301,158.378c0-0.649,0.526-1.175,1.175-1.175c0.649,0,1.175,0.526,1.175,1.175
									c0,0.649-0.526,1.175-1.175,1.175C325.827,159.553,325.301,159.027,325.301,158.378z"/>
								<rect x="328.884" y="157.35" style="fill:#4AB7FF;" width="11.602" height="2.056"/>
							</g>
							<g>
								<path style="fill:#1E2778;" d="M325.301,163.22c0-0.649,0.526-1.175,1.175-1.175c0.649,0,1.175,0.526,1.175,1.175
									c0,0.649-0.526,1.175-1.175,1.175C325.827,164.396,325.301,163.869,325.301,163.22z"/>
								<rect x="328.884" y="162.192" style="fill:#4AB7FF;" width="11.602" height="2.056"/>
							</g>
						</g>
						<g>
							<g>
								<path style="fill:#FCCE2F;" d="M325.301,171.231c0-0.649,0.526-1.175,1.175-1.175c0.649,0,1.175,0.526,1.175,1.175
									c0,0.649-0.526,1.175-1.175,1.175C325.827,172.406,325.301,171.88,325.301,171.231z"/>
								<rect x="328.884" y="170.203" style="fill:#4AB7FF;" width="11.602" height="2.056"/>
							</g>
							<g>
								<path style="fill:#1E2778;" d="M325.301,176.073c0-0.649,0.526-1.175,1.175-1.175c0.649,0,1.175,0.526,1.175,1.175
									c0,0.649-0.526,1.175-1.175,1.175C325.827,177.248,325.301,176.722,325.301,176.073z"/>
								<rect x="328.884" y="175.045" style="fill:#4AB7FF;" width="11.602" height="2.056"/>
							</g>
						</g>
						<g>
							<g>
								<path style="fill:#1E2778;" d="M325.301,184.084c0-0.649,0.526-1.175,1.175-1.175c0.649,0,1.175,0.526,1.175,1.175
									c0,0.649-0.526,1.175-1.175,1.175C325.827,185.259,325.301,184.733,325.301,184.084z"/>
								<rect x="328.884" y="183.055" style="fill:#4AB7FF;" width="11.602" height="2.056"/>
							</g>
							<g>
								<circle style="fill:#FCCE2F;" cx="326.476" cy="188.926" r="1.175"/>
								<rect x="328.884" y="187.898" style="fill:#4AB7FF;" width="11.602" height="2.056"/>
							</g>
						</g>
						
							<line style="fill:none;stroke:#A5B7F2;stroke-width:0.4173;stroke-miterlimit:10;" x1="322.532" y1="167.319" x2="343.255" y2="167.319"/>
						
							<line style="fill:none;stroke:#A5B7F2;stroke-width:0.4173;stroke-miterlimit:10;" x1="322.532" y1="180.078" x2="343.255" y2="180.078"/>
						
							<line style="fill:none;stroke:#A5B7F2;stroke-width:0.4173;stroke-miterlimit:10;" x1="322.532" y1="192.227" x2="343.255" y2="192.227"/>
						<rect x="325.412" y="194.671" style="fill:#1E2778;" width="7.482" height="2.056"/>
						<rect x="325.412" y="198.302" style="fill:#FCCE2F;" width="7.482" height="2.056"/>
						<rect x="325.412" y="201.932" style="fill:#1E2778;" width="7.482" height="2.056"/>
						<rect x="325.412" y="205.563" style="fill:#1E2778;" width="7.482" height="2.056"/>
						<rect x="325.412" y="209.193" style="fill:#FCCE2F;" width="7.482" height="2.056"/>
						<rect x="325.412" y="212.824" style="fill:#FCCE2F;" width="7.482" height="2.056"/>
					</g>
				</g>
			</g>
		</g>
	</g>
	<g>
		<g>
			<g>
				<path style="fill:#4AB7FF;" d="M134.441,221.655v12.922l-8.814,7.473l-8.815-7.473v-12.922l-8.409,11.34v13.068l9.23,7.999
					v51.903c0,4.514,3.659,8.173,8.173,8.173h0c4.316,0,7.815-3.499,7.815-7.815v-52.261l9.23-7.999v-13.068L134.441,221.655z"/>
				<path style="fill:#1E2778;" d="M133.621,267.33c-5.329-0.02-10.659-0.051-15.988-0.086v38.721c0,4.514,3.659,8.173,8.173,8.173
					c4.316,0,7.815-3.499,7.815-7.815L133.621,267.33z"/>
			</g>
			<path style="fill:#FFD74A;" d="M122.463,302.674c1.918-1.918,5.027-1.918,6.944,0c1.918,1.918,1.918,5.027,0,6.944
				s-5.027,1.918-6.944,0S120.545,304.592,122.463,302.674z"/>
		</g>
		<g>
			<g>
				<path style="fill:#FFD74A;" d="M148.199,174.451c0.007-0.386,0.004-0.774-0.009-1.164
					c-0.396-11.985-10.254-21.644-22.245-21.809c-12.614-0.174-22.894,9.999-22.894,22.573c0,0.163,0.002,0.325,0.005,0.487
					c0.022,1.051,0.122,2.094,0.295,3.123c0.651,3.866,2.395,7.466,4.924,10.462l17.352,20.557l17.358-20.564
					c2.426-2.874,4.132-6.304,4.835-9.999C148.049,176.914,148.178,175.688,148.199,174.451z"/>
				<circle style="fill:#FFFFFF;" cx="125.627" cy="174.051" r="18.364"/>
			</g>
			<path style="fill:#4AB7FF;" d="M131.3,165.163c-2.573,0-4.77,1.591-5.673,3.841c-0.903-2.25-3.1-3.841-5.673-3.841
				c-3.377,0-6.114,2.738-6.114,6.114c0,8.374,11.787,14.992,11.787,14.992s11.787-7.429,11.787-14.992
				C137.414,167.901,134.677,165.163,131.3,165.163z"/>
		</g>
	</g>
	<g>
		<g>
			<g>
				<rect x="157.637" y="260.615" style="fill:#FFD74A;" width="98.08" height="10.618"/>
			</g>
			<g>
				<rect x="326.826" y="260.615" style="fill:#4AB7FF;" width="98.08" height="10.618"/>
			</g>
			<g>
				<rect x="487.81" y="260.615" style="fill:#FFD74A;" width="53.091" height="10.618"/>
				<rect x="532.781" y="240.628" style="fill:#FFD74A;" width="53.091" height="10.618"/>
				<rect x="577.752" y="220.641" style="fill:#FFD74A;" width="53.091" height="10.618"/>
			</g>
		</g>
		<g>
			<g>
				<g>
					<g>
						<path style="fill:#1A2242;" d="M234.755,178.363l0.615-0.078l2.936,2.352l-4.356,12.758c-0.081-0.045-0.615,0.078-0.615,0.078
							c-0.374-0.208-2.434-2.766-2.781-2.954L234.755,178.363z"/>
						<path style="fill:#29AAFF;" d="M230.554,190.519l4.201-12.156l2.936,2.352l-4.356,12.758
							C232.962,193.265,230.901,190.707,230.554,190.519z"/>
					</g>
					<g>
						<path style="fill:#E8A179;" d="M197.552,180.095c0.388-0.898,1.103-1.587,2.016-1.941c0.006-0.002,0.081-0.03,0.087-0.032
							c0.866-0.311,1.809-0.281,2.654,0.083c0.032,0.014,0.064,0.03,0.094,0.048c2.756,1.659,10.517,5.934,13.483,5.902
							c0.113-0.021,0.31-0.072,0.639-0.19c2.963-1.062,10.581-5.386,11.44-5.876l0.002,0.004c0.701-0.555,2.188-1.18,2.206-1.186
							c0.183-0.066,0.355-0.114,0.505-0.14c0.737-0.132,1.412,0.114,1.987,0.355c1.467,0.615,1.951,2.032,2.34,3.171
							c0.075,0.219,0.149,0.437,0.237,0.669c0.184,0.527-0.067,1.064-0.583,1.249c-0.546,0.196-1.206-0.071-1.535-0.619
							c-0.121-0.202-0.209-0.38-0.283-0.55c-0.032,0.013-0.064,0.025-0.096,0.036c-0.244,0.087-0.502,0.145-0.787,0.175
							c-0.138,0.015-0.279,0.009-0.419-0.017c-0.088,0.039-0.177,0.074-0.266,0.106c-0.255,0.091-0.504,0.149-0.739,0.172
							c-0.599,0.059-0.984-0.249-1.239-0.513c-1.999,1.665-8.336,6.797-12.052,8.129c-0.389,0.139-0.747,0.236-1.066,0.289
							c-4.111,0.677-15.255-3.8-16.178-4.175c-1.074-0.299-1.963-1.09-2.383-2.126l-0.092-0.226
							C197.153,181.987,197.164,180.993,197.552,180.095z"/>
						<path style="fill:#29AAFF;" d="M196.833,179.785c0.471-1.092,1.342-1.93,2.425-2.349c0.008-0.004,0.124-0.047,0.132-0.05
							c1.053-0.378,2.199-0.342,3.236,0.104c0.063,0.028,0.124,0.06,0.18,0.093c3.704,2.231,10.464,5.747,12.997,5.79
							c0.079-0.019,0.223-0.06,0.457-0.144c1.707-0.612,5.034-2.354,7.656-3.783c1.12,1.477,2.047,3.008,2.736,4.676
							c-2.851,2.201-6.555,4.815-9.146,5.744l-0.001,0c-0.432,0.155-0.837,0.264-1.202,0.324c-4.25,0.7-15.137-3.629-16.561-4.207
							c-1.285-0.373-2.349-1.331-2.854-2.573l-0.091-0.225C196.349,182.086,196.362,180.878,196.833,179.785z"/>
					</g>
					<g>
						<g>
							<g>
								<path style="fill:#E8A179;" d="M195.55,259.23v1.359h-11.837l0.561-1.359c0,0,8.503-39.244,9.83-53.837l0,0h11.191
									c-4.221,18.657-17.021,51.277-17.021,51.277L195.55,259.23z"/>
								<path style="fill:#E8A179;" d="M213.485,205.393l1.904,51.277l7.277,2.561v1.359h-11.838l0.561-1.359
									c0,0-2.718-30.214-7.727-49.575l0,0c-0.012,0.088-0.025,0.176-0.037,0.264v-4.527H213.485z"/>
								<path style="fill:#1E2778;" d="M189.561,254.97c2.793-7.268,12.711-33.553,16.307-49.448
									c0.039-0.174-0.003-0.357-0.114-0.496c-0.111-0.139-0.281-0.221-0.459-0.221h-11.19c-0.304,0-0.558,0.232-0.586,0.534
									c-1.055,11.597-6.73,39.157-8.939,49.631H189.561z"/>
								<path style="fill:#1E2778;" d="M210.374,254.97h5.54l-1.841-49.599c-0.011-0.316-0.271-0.566-0.587-0.566h-9.86
									c-0.325,0-0.588,0.263-0.588,0.588v4.527c0,0.174,0.076,0.332,0.198,0.44C206.977,225.104,209.434,246.034,210.374,254.97z"
									/>
							</g>
							<g>
								<polygon style="fill:#1A2242;" points="215.389,256.669 222.666,259.23 222.666,260.59 210.828,260.59 210.828,259.23 
									211.11,256.669 								"/>
								<polygon style="fill:#1A2242;" points="188.274,256.669 195.55,259.23 195.55,260.59 183.713,260.59 183.713,259.23 
									184.567,256.669 								"/>
							</g>
						</g>
					</g>
					<path style="fill:#4AB7FF;" d="M203.548,172.011h0.606c0.16,0,0.319,0.004,0.478,0.013c3.9,0.209,6.939,3.898,7.194,7.759
						c0.019,0.287,2.492,25.61,2.492,25.61h-21.542l2.435-25.61c0.13-4.322,3.496-7.548,7.9-7.762
						C203.257,172.014,203.402,172.011,203.548,172.011z"/>
					<g>
						<path style="fill:#E8A179;" d="M227.012,191.126c0.006-0.036,0.014-0.071,0.02-0.106c1.386-0.065,2.768-0.223,4.137-0.465
							c0.008-0.015,0.016-0.03,0.024-0.045c0.019-0.035,0.039-0.069,0.059-0.102c0.019-0.033,0.038-0.065,0.059-0.097
							c0.023-0.034,0.048-0.067,0.073-0.1c0.022-0.029,0.043-0.059,0.066-0.087c0.028-0.033,0.058-0.064,0.088-0.096
							c0.024-0.025,0.047-0.052,0.072-0.076c0.034-0.032,0.071-0.062,0.107-0.092c0.025-0.021,0.049-0.043,0.076-0.063
							c0.043-0.033,0.09-0.062,0.136-0.092c0.023-0.015,0.045-0.031,0.069-0.046c0.073-0.042,0.149-0.082,0.23-0.117
							c0.123-0.054,0.255-0.092,0.387-0.129c0.28-0.297,0.385-0.693,0.535-1.068c0.134-0.336,0.325-0.723,0.754-0.663
							c0.776,0.109,0.696,1.36,0.566,2.005l0.417-0.013c2.136-0.078,1.854,5.185-0.554,5.308l-1.068,0.033
							c-0.108,0.008-0.221,0.012-0.338,0.01l-0.156,0.005c-0.064,0.002-0.126-0.008-0.186-0.023
							c-0.352-0.032-0.691-0.106-0.918-0.239c-0.212-0.123-0.362-0.309-0.473-0.524c-1.358,0.281-2.73,0.475-4.108,0.582
							C226.992,194.455,226.872,191.969,227.012,191.126z"/>
						<g>
							<path style="fill:#4AB7FF;" d="M199.806,179.063l7.256,4.582c1.146,3.56,2.706,6.688,5.413,8.109
								c1.299,0.604,10.282-0.929,16.216-2.022c1.008,1.788,1.165,3.808,0.453,5.796c-5.817,0.929-16.014,3.722-19.952,1.7
								C203.742,194.429,200.917,185.933,199.806,179.063z"/>
							<path style="fill:#29AAFF;" d="M199.806,179.063c0,0,3.741,14.41,9.669,16.839c1.299,0.605,6.801,1.568,19.668-0.374
								c-5.817,0.929-16.014,3.722-19.952,1.7C203.742,194.429,200.917,185.933,199.806,179.063z"/>
							<path style="fill:#69C3FF;" d="M207.062,183.646c1.146,3.56,2.706,6.688,5.413,8.109c1.299,0.604,10.282-0.929,16.216-2.022
								c0,0-13.087,4.342-17.024,2.32C207.837,189.609,207.062,183.646,207.062,183.646z"/>
						</g>
					</g>
					<g>
						<path style="fill:#E8A179;" d="M199.078,159.628c0-3.649,2.923-6.615,6.555-6.684c3.748-0.072,6.816,3.067,6.816,6.816
							c0,1.325,0,2.892,0,4.406c0,3.387-2.746,6.132-6.133,6.132h-0.249v2.396c0,1.669-1.353,3.022-3.022,3.022l0,0
							c-1.669,0-3.022-1.353-3.022-3.022v-4.078c0-2.51-0.203-5.027-0.771-7.472C199.138,160.658,199.078,160.15,199.078,159.628z"
							/>
						<path style="fill:#1A2242;" d="M216.204,155.151c-0.772-3.75-4.962-4.311-7.945-2.892c-1.721-0.511-3.582-0.606-5.317-0.294
							c-2.871,0.517-5.599,2.117-7.247,4.55c-1.496,2.21-1.992,4.996-1.49,7.605c0.347,1.802,1.191,3.442,2.436,4.787
							c0.811,0.876,2.232,2.308,3.382,2.73c0,0,2.513-9.214,2.778-9.932c0.06-0.163,3.835-0.049,4.266-0.078
							c1.498-0.1,3-0.313,4.43-0.784C213.971,160.027,216.824,158.161,216.204,155.151z"/>
						<path style="fill:#E8A179;" d="M201.71,163.672c0.372,0,0.708,0.141,0.97,0.367v2.248c-0.261,0.226-0.598,0.367-0.97,0.367
							c-0.824,0-1.491-0.668-1.491-1.491C200.219,164.34,200.887,163.672,201.71,163.672z"/>
					</g>
				</g>
			</g>
			<g>
				<path style="fill:#FFD74A;" d="M247.361,124.735c-8.956,0-16.243,7.287-16.243,16.243c0,2.736,0.691,5.426,2.003,7.813
					c0,0-1.437,5.473-1.744,6.58c-0.121,0.436-0.302,1.167-0.365,1.627c-0.033,0.245,0.067,0.67,0.512,0.606
					c0.431-0.062,1.033-0.283,1.135-0.321c1.582-0.598,6.329-2.387,6.329-2.387c2.526,1.523,5.408,2.326,8.374,2.326
					c8.956,0,16.243-7.287,16.243-16.243C263.605,132.021,256.318,124.735,247.361,124.735z M238.857,143.618
					c-1.349,0-2.446-1.097-2.446-2.445c0-1.349,1.097-2.446,2.446-2.446c1.348,0,2.446,1.097,2.446,2.446
					C241.302,142.522,240.205,143.618,238.857,143.618z M247.305,143.618c-1.349,0-2.446-1.097-2.446-2.445
					c0-1.349,1.097-2.446,2.446-2.446c1.349,0,2.446,1.097,2.446,2.446C249.751,142.522,248.654,143.618,247.305,143.618z
					 M255.754,143.618c-1.349,0-2.446-1.097-2.446-2.445c0-1.349,1.097-2.446,2.446-2.446c1.349,0,2.446,1.097,2.446,2.446
					C258.2,142.522,257.103,143.618,255.754,143.618z"/>
			</g>
		</g>
		<g>
			<g>
				<g>
					<g>
						<path style="fill:#1E2778;" d="M615.376,128.409c-0.27-0.408-0.611-0.778-0.95-1.17c-0.577-0.668-0.556-1.31-0.323-2.129
							c0.161-0.564,0.274-1.06,0.154-1.65c-0.271-1.334-1.301-2.047-2.277-2.868c-1.665-1.401-1.164-3.625-1.99-5.466
							c-1.491-3.32-6.445-4.327-9.686-3.626c-3.478,0.752-5.975,3.972-5.975,7.508v1.403l10.22-0.009
							c0.003,0.002,0.111,0.005,0.295,0.008v11.653c0.166,1.603,0.979,3.256,1.953,4.328c1.437,1.583,3.815,2.181,5.845,1.532
							C616.791,136.599,617.724,131.604,615.376,128.409z"/>
						<path style="fill:#1E2778;" d="M601.366,112.104c-1.383,0.199-2.722,0.684-3.837,1.517c-0.811,0.606-1.346,1.395-1.6,2.375
							c-0.216,0.834-0.251,1.697-0.393,2.544c-0.28,1.67-2.066,2.191-2.979,3.448c-0.292,0.402-0.505,0.86-0.604,1.347
							c-0.12,0.59-0.007,1.086,0.154,1.65c0.233,0.818,0.254,1.46-0.323,2.129c-0.338,0.392-0.679,0.762-0.95,1.17
							c-2.348,3.195-1.415,8.19,2.734,9.515c2.029,0.648,4.407,0.05,5.845-1.533c0.974-1.073,1.787-2.725,1.953-4.328V112.104z"/>
						<g>
							<g>
								<g>
									<g>
										<polygon style="fill:#E8A179;" points="595.81,209.965 591.473,209.965 591.385,216.689 584.051,219.27 584.051,220.641 
											595.983,220.641 595.417,219.27 										"/>
										<polygon style="fill:#1E2778;" points="591.385,216.689 584.051,219.27 584.051,220.641 595.983,220.641 595.983,219.27 
											595.698,216.689 										"/>
									</g>
									<g>
										<polygon style="fill:#E8A179;" points="620.605,209.965 616.268,209.965 618.717,216.689 611.383,219.27 611.383,220.641 
											623.314,220.641 622.749,219.27 										"/>
										<polygon style="fill:#1E2778;" points="618.717,216.689 611.383,219.27 611.383,220.641 623.314,220.641 623.314,219.27 
											622.453,216.689 										"/>
									</g>
								</g>
								<g>
									<path style="fill:#4AB7FF;" d="M603.243,169.567v-4.563h-9.938c0,0-2.369,16.33-2.109,45.27h5.03
										c0,0,1.931-21.458,6.98-40.974l0,0C603.218,169.389,603.231,169.478,603.243,169.567z"/>
									<path style="fill:#4AB7FF;" d="M612.84,165.004L612.84,165.004h-11.28c4.255,18.806,14.428,45.27,14.428,45.27h5.049
										C621.037,210.274,614.178,179.714,612.84,165.004z"/>
									<path style="fill:#78C9FF;" d="M608.424,165.004h-2.94c4.255,18.806,12.461,45.27,12.461,45.27h1.465L608.424,165.004z"/>
								</g>
							</g>
							<g>
								<rect x="590.388" y="207.589" style="fill:#78C9FF;" width="6.525" height="2.685"/>
								<polygon style="fill:#78C9FF;" points="621.545,210.274 615.02,210.274 614.345,207.589 620.87,207.589 								"/>
							</g>
						</g>
						<g>
							<g>
								<g>
									<path style="fill:#E8A179;" d="M588.471,158.284c-0.028-0.023-0.057-0.045-0.085-0.068
										c-1.347,1.039-2.775,1.976-4.274,2.796c0.599,1.194,1.561,2.225,2.724,2.649c1.392-0.731,2.723-1.566,3.991-2.483
										C590.658,160.828,589.129,158.84,588.471,158.284z"/>
									<g>
										<path style="fill:#E8A179;" d="M581.948,161.636c-0.153,0.496,0.058,1.057,0.097,1.601
											c0.02,0.278,0.029,0.633,0.263,0.828c0.221,0.185,0.508,0.103,0.688-0.096c0.216-0.239,0.269-0.571,0.204-0.885
											c0.414,0.691,0.842,1.386,1.402,1.968c0.365,0.379,0.695,0.799,1.22,0.539c0.494-0.245,1.258-0.93,1.449-1.471
											c0.234-0.663-0.224-1.39-0.574-1.919c-0.72-1.086-1.87-2.149-3.266-1.731c-0.447,0.134-0.884,0.383-1.211,0.718
											C582.08,161.33,581.996,161.48,581.948,161.636z"/>
										<g>
											<g>
												<path style="fill:#4AB7FF;" d="M580.7,153.523l0.697,1.504l-0.623,1.345l-1.429-0.395l-0.697-1.504l-0.367,1.774
													l0.705,1.521l1.506,0.433l4.135,9.182c0.243,0.525,0.867,0.754,1.392,0.511l0,0c0.503-0.233,0.721-0.829,0.488-1.331
													l-4.154-9.224l0.643-1.429l-0.705-1.521L580.7,153.523z"/>
												<path style="fill:#1E2778;" d="M583.068,158.884c-0.621,0.285-1.244,0.569-1.866,0.852l3.424,7.648
													c0.243,0.525,0.867,0.754,1.392,0.511c0.503-0.233,0.721-0.829,0.488-1.331L583.068,158.884z"/>
											</g>
											<path style="fill:#FFD74A;" d="M585.01,166.741c0.12-0.327,0.482-0.494,0.808-0.375c0.327,0.12,0.494,0.482,0.375,0.808
												c-0.12,0.327-0.482,0.494-0.808,0.374C585.058,167.429,584.89,167.067,585.01,166.741z"/>
										</g>
										<path style="fill:#E39366;" d="M583.308,160.844l-1.836,1.464c-1.692,1.334,1.959,5.193,3.888,3.717l1.231-0.982
											c0.296-0.236,0.345-0.667,0.109-0.963c-0.196-0.246-0.527-0.318-0.803-0.201c0.187-0.244,0.193-0.591-0.007-0.842
											c-0.196-0.246-0.527-0.318-0.803-0.201c0.187-0.244,0.193-0.591-0.007-0.842c-0.196-0.246-0.527-0.318-0.803-0.201
											c0.187-0.244,0.193-0.591-0.007-0.842C584.035,160.657,583.604,160.608,583.308,160.844z"/>
										<path style="fill:#E8A179;" d="M582.217,161.19c-0.137,0.14-0.221,0.29-0.27,0.446c-0.153,0.496,0.058,1.057,0.097,1.601
											c0.02,0.278,0.029,0.633,0.263,0.828c0.221,0.185,0.508,0.103,0.688-0.096c0.231-0.256,0.222-0.621,0.257-0.943
											c0.031-0.288,0.204-0.868,0.997-1.203c0.724-0.306,1.896-0.266,2.35,0.241c-0.724-1.035-1.834-1.993-3.171-1.592
											C582.981,160.606,582.544,160.855,582.217,161.19z"/>
									</g>
								</g>
							</g>
							<g>
								<path style="fill:#FFD74A;" d="M597.032,151.159c-2.803,2.123-7.555,5.172-11.1,7.397c0.47,2.015,1.73,3.622,3.613,4.613
									c2.024-1.338,4.803-2.943,7.487-4.659V151.159z"/>
								<path style="fill:#FFC700;" d="M597.032,151.159c-2.803,2.123-7.555,5.172-11.1,7.397c0,0,6.859-3.084,11.1-6.38V151.159z"
									/>
							</g>
						</g>
						<path style="fill:#FFD74A;" d="M603.321,131.356h-0.611c-0.161,0-0.322,0.004-0.482,0.013
							c-3.932,0.211-6.995,3.929-7.251,7.821c-0.019,0.29-2.512,25.814-2.512,25.814h21.713l-2.454-25.814
							c-0.131-4.357-3.524-7.608-7.963-7.823C603.615,131.359,603.468,131.356,603.321,131.356z"/>
						<g>
							<path style="fill:#E8A179;" d="M608.35,118.874c0-3.678-2.946-6.667-6.607-6.737c-3.778-0.072-6.87,3.091-6.87,6.87
								c0,1.336,0,2.915,0,4.441c0,3.414,2.768,6.181,6.182,6.181h0.251v2.415c0,1.682,1.364,3.046,3.046,3.046l0,0
								c1.682,0,3.046-1.364,3.046-3.046v-4.11c0-2.53,0.204-5.067,0.777-7.531C608.29,119.912,608.35,119.4,608.35,118.874z"/>
							<path style="fill:#D58A73;" d="M601.366,125.137c0-0.666,0.54-1.207,1.207-1.207c0.666,0,1.207,0.54,1.207,1.207
								c0,0.666-0.54,1.207-1.207,1.207C601.906,126.344,601.366,125.804,601.366,125.137z"/>
							<path style="fill:#1E2778;" d="M604.844,120.409l-0.002,8.035c-0.001,4.41,4.698,7.231,8.59,5.156l3.189-1.7
								c-0.073-1.229-0.483-2.455-1.245-3.492c-0.27-0.408-0.611-0.778-0.95-1.17c-0.577-0.668-0.556-1.31-0.323-2.129
								c0.161-0.564,0.274-1.06,0.154-1.65c-0.271-1.334-1.301-2.047-2.277-2.868c-1.665-1.401-1.164-3.625-1.99-5.466
								c-1.491-3.32-6.445-4.327-9.686-3.626c-3.478,0.752-5.975,3.972-5.975,7.508v1.403l10.22-0.009
								C604.552,120.404,604.66,120.406,604.844,120.409z"/>
							<g>
								<g>
									<path style="opacity:0.44;fill:#FFFFFF;" d="M600.931,120.565c-1.076,0-1.952,0.876-1.952,1.952
										c0,1.076,0.875,1.951,1.952,1.951s1.952-0.875,1.952-1.951C602.883,121.441,602.008,120.565,600.931,120.565z"/>
									<path style="fill:#4AB7FF;" d="M600.931,119.896c-1.328,0-2.425,0.993-2.595,2.275h-0.369
										c-0.165-1.287-1.265-2.286-2.597-2.286c-1.445,0-2.621,1.176-2.621,2.621c0,1.445,1.176,2.621,2.621,2.621
										c1.332,0,2.432-0.999,2.597-2.286h0.366c0.16,1.293,1.263,2.297,2.599,2.297c1.445,0,2.621-1.175,2.621-2.62
										S602.377,119.896,600.931,119.896z M600.931,124.468c-1.076,0-1.952-0.875-1.952-1.951c0-1.076,0.875-1.952,1.952-1.952
										s1.952,0.876,1.952,1.952C602.883,123.593,602.008,124.468,600.931,124.468z M595.37,124.458
										c-1.076,0-1.952-0.876-1.952-1.952c0-1.076,0.875-1.952,1.952-1.952s1.952,0.876,1.952,1.952
										C597.322,123.582,596.446,124.458,595.37,124.458z"/>
									<path style="opacity:0.44;fill:#FFFFFF;" d="M595.37,120.554c-1.076,0-1.952,0.876-1.952,1.952
										c0,1.076,0.875,1.952,1.952,1.952s1.952-0.876,1.952-1.952C597.322,121.43,596.446,120.554,595.37,120.554z"/>
								</g>
								<rect x="603.368" y="122.11" style="fill:#4AB7FF;" width="4.081" height="0.802"/>
							</g>
						</g>
					</g>
				</g>
				<g>
					<path style="fill:#E8A179;" d="M608.042,93.51c0.271,1.261,1.328,3.531,1.808,5.375c-0.673-0.412-1.644-0.878-1.77,0.017
						c0.515-0.018,1.314,1.271,2.349,2.104c0.385,1.758,0.935,5.033,1.081,6.744c1.174-0.234,2.373-0.699,3.323-1.067
						c-0.206-1.492-0.772-4.43-1.19-6.082c0.292-0.669,0.326-1.512,0.29-2.155c-0.074-1.351-0.374-2.637-0.474-3.987
						c-0.026-0.344-0.524-0.41-0.609-0.061c-0.102,0.421-0.163,1.317-0.265,1.739c-0.011-0.369-0.197-2.915-0.61-3.556
						c-0.176-0.273-0.55-0.122-0.57,0.172c-0.076,1.105,0.03,2.123-0.046,3.228c-0.313-1.186-0.642-2.367-1.018-3.536
						c-0.113-0.35-0.577-0.24-0.604,0.096c-0.081,1.017,0.272,2.791,0.446,3.822c-0.335-0.842-1.149-2.282-1.623-3.087
						C608.421,93.04,607.989,93.265,608.042,93.51z"/>
					<path style="fill:#FFD74A;" d="M609.997,105.166c1.645,10.142,0.245,20.683-3.99,30.05c1.272,1.762,3.003,2.977,5.398,3.307
						c5.324-10.769,6.819-23.242,4.191-34.965C613.641,103.667,611.695,104.238,609.997,105.166z"/>
				</g>
			</g>
			<g>
				<path style="fill:#4AB7FF;" d="M571.795,114.188c-0.307-1.106-1.744-6.58-1.744-6.58c1.312-2.388,2.003-5.077,2.003-7.813
					c0-8.957-7.287-16.243-16.243-16.243c-8.957,0-16.244,7.287-16.244,16.243c0,8.957,7.287,16.243,16.244,16.243
					c2.966,0,5.847-0.802,8.374-2.326c0,0,4.747,1.789,6.329,2.387c0.102,0.038,0.704,0.259,1.135,0.321
					c0.445,0.064,0.545-0.361,0.512-0.606C572.097,115.355,571.915,114.623,571.795,114.188z"/>
				<g>
					<polygon style="fill:#FFFFFF;" points="557.646,103.497 558.047,89.774 553.686,89.774 554.086,103.497 					"/>
					<path style="fill:#FFFFFF;" d="M555.866,105.612c-1.78,0-3.089,1.362-3.089,3.246c0,1.832,1.257,3.246,3.089,3.246
						c1.884,0,3.089-1.414,3.089-3.246C558.955,106.973,557.751,105.612,555.866,105.612z"/>
				</g>
			</g>
		</g>
	</g>
</g>
</svg>
