<?xml version="1.0" encoding="utf-8"?>
<!-- Generator: Adobe Illustrator 27.5.0, SVG Export Plug-In . SVG Version: 6.00 Build 0)  -->
<svg version="1.1" xmlns="http://www.w3.org/2000/svg" xmlns:xlink="http://www.w3.org/1999/xlink" x="0px" y="0px"
	 viewBox="0 0 3710 3710" style="enable-background:new 0 0 3710 3710;" xml:space="preserve">
<g id="Background">
	<g>
		<g>
			<rect style="fill:#FFFFFF;" width="3710" height="3710"/>
		</g>
	</g>
</g>
<g id="Illustration">
	<g>
		<path style="fill:#F4F7FA;" d="M3187.046,1646.831c-76.055-497.814-387.879-1109.413-1003.922-1173.418
			c0,0-467.729-56.892-928.806,29.334c-273.65,51.175-513.601,203.511-665.432,422.457
			c-151.833,218.946-202.549,485.92-140.998,740.447c39.977,165.318,66.992,336.415,59.577,506.288
			c-12.903,295.649-5.479,571.616,281.441,747.933c256.187,157.431,578.602,296.28,886.191,320.599
			c209.035,16.527,443.455-10.218,644.925-64.64C3346.761,2898.477,3263.101,2144.644,3187.046,1646.831z"/>
		<g>
			<g>
				<g>
					<defs>
						<path id="SVGID_1_" d="M1587.323,2490.711c92.664-77.286,84.664-248.765,41.813-359.213
							c-50.028-128.951-127.485-122.959-157.629-225.943c-56.126-191.741,189.36-291.141,149.981-488.499
							c-32.192-161.34-208.467-156.132-234.986-336.246c-19.136-129.968,63.451-195.15,4.926-303.388
							c-5.003-9.253-60.567-108.353-164.072-120.33c-104.468-12.088-196.675,71.649-238.833,135.13
							c-77.928,117.344,3.525,182.984-31.526,352.273c-47.723,230.482-226.952,245.241-222.696,421.418
							c3.513,145.481,126.539,168.973,126.837,330.347c0.276,149.852-105.707,184.049-94.672,284.848
							C791.851,2412.995,1398.317,2648.355,1587.323,2490.711z"/>
					</defs>
					<use xlink:href="#SVGID_1_"  style="overflow:visible;fill:#D8DEE8;"/>
					<clipPath id="SVGID_00000127765248372229173780000015899315031501590674_">
						<use xlink:href="#SVGID_1_"  style="overflow:visible;"/>
					</clipPath>
					<g style="clip-path:url(#SVGID_00000127765248372229173780000015899315031501590674_);">
						<path style="opacity:0.7;fill:#FFFFFF;" d="M1455.154,2615.688c0.822,0.185,1.697-0.191,2.031-0.909
							c0.368-0.791-0.056-1.698-0.941-2.027c-103.571-38.25-193.606-94.116-267.6-166.036
							c-70.09-68.128-142.569-138.573-152.806-235.853c-7.744-73.574,24.649-117.727,65.659-173.625
							c39.899-54.389,89.559-122.076,113.49-239.201c13.667-66.877,30.676-150.103-7.023-243.021
							c-21.959-54.125-51.283-82.552-77.154-107.635c-27.13-26.303-48.559-47.08-51.389-88.347
							c-4.617-67.281,29.016-115.198,67.957-170.684c24.037-34.246,48.893-69.659,68.677-114.262
							c55.68-125.544,33.389-282.196-66.258-465.607c-0.418-0.772-1.465-1.091-2.326-0.72c-0.864,0.373-1.226,1.299-0.808,2.071
							c99.206,182.597,121.461,338.413,66.154,463.116c-19.667,44.343-44.438,79.632-68.391,113.76
							c-39.258,55.934-73.166,104.242-68.481,172.514c2.908,42.364,25.798,64.557,52.303,90.256
							c25.647,24.865,54.72,53.052,76.441,106.588c37.378,92.135,20.464,174.905,6.876,241.414
							c-23.807,116.509-73.253,183.906-112.982,238.06c-41.382,56.406-74.07,100.958-66.211,175.61
							c10.345,98.318,83.226,169.154,153.706,237.657c74.34,72.26,164.788,128.381,268.829,166.809
							C1454.991,2615.646,1455.072,2615.67,1455.154,2615.688z"/>
						<path style="opacity:0.7;fill:#FFFFFF;" d="M1220.202,1601.735c0.622,0.14,1.307-0.036,1.752-0.5
							c143.981-151.082,202.248-282.058,225.774-365.327c25.523-90.346,16.807-145.733,16.716-146.284
							c-0.137-0.846-1.033-1.434-1.975-1.305c-0.953,0.124-1.609,0.912-1.469,1.758c0.09,0.545,8.703,55.476-16.708,145.283
							c-23.456,82.907-81.532,213.332-224.992,363.866c-0.623,0.653-0.533,1.63,0.2,2.185
							C1219.712,1601.572,1219.951,1601.679,1220.202,1601.735z"/>
						<path style="opacity:0.7;fill:#FFFFFF;" d="M1185.403,1892.544c0.722,0.162,1.505-0.103,1.912-0.698
							c0.501-0.73,0.242-1.684-0.582-2.128c-100.901-54.732-181.436-120.968-239.367-196.863
							c-46.326-60.698-78.392-127.683-95.296-199.096c-28.783-121.582-3.261-214.992-2.998-215.921
							c0.232-0.83-0.333-1.671-1.264-1.88l-0.003-0.001c-0.932-0.206-1.877,0.299-2.112,1.128
							c-0.262,0.937-25.977,95.041,2.97,217.313c17,71.808,49.238,139.166,95.824,200.199
							c58.211,76.265,139.106,142.802,240.437,197.767C1185.076,1892.448,1185.239,1892.507,1185.403,1892.544z"/>
						<path style="opacity:0.7;fill:#FFFFFF;" d="M1108.502,2375.414c0.368,0.082,0.767,0.057,1.141-0.09
							c102.68-41.19,189.966-93.077,259.433-154.221c55.599-48.936,99.965-103.875,131.877-163.293
							c54.355-101.215,53.634-181.477,53.618-182.275c-0.011-0.857-0.81-1.535-1.765-1.526c-0.963,0.013-1.729,0.717-1.714,1.572
							c0.014,0.793,0.7,80.46-53.366,181.051c-49.896,92.831-157.975,222.988-389.515,315.866c-0.877,0.353-1.265,1.271-0.872,2.051
							C1107.568,2374.995,1108.004,2375.302,1108.502,2375.414z"/>
						<path style="opacity:0.7;fill:#FFFFFF;" d="M1218.669,1052.191c0.631,0.142,1.327-0.04,1.77-0.518
							c0.611-0.661,0.505-1.64-0.238-2.183c-69.324-50.734-121.432-109.649-154.886-175.106
							c-26.759-52.366-41.716-109.022-44.446-168.398c-4.657-101.163,28.27-176.133,28.603-176.879
							c0.353-0.794-0.081-1.695-0.975-2.013c-0.894-0.306-1.902,0.076-2.261,0.868c-0.334,0.748-33.505,76.227-28.852,178.023
							c2.734,59.793,17.781,116.859,44.724,169.607c33.673,65.922,86.119,125.237,155.879,176.292
							C1218.193,1052.034,1218.427,1052.137,1218.669,1052.191z"/>
					</g>
				</g>
			</g>
			<g>
				<g>
					<g>
						<defs>
							<path id="SVGID_00000143585966607267752220000002690211591513416609_" d="M1696.353,2875.753
								c19.376,9.43,69.84,12.866,83.365,8.338c90.003-30.135,262.179-75.608,312.268-162.548
								c8.555-14.849-46.607-70.112-46.934-89.118c-26.617-43.771-38.565-57.304-43.427-111.347
								c-14.353-159.548,304.902-231.555,129.46-445.961c-128.509-157.048-301.832-191.146-119.29-430.915
								c182.542-239.771,284.252-828.489-96.203-827.626c-218.346,0.495-204.231,315.71-386.142,421.79
								c-172.863,100.804-190.42,265.8-90.422,460.224c99.998,194.424-30.387,207.649-170.153,319.554
								c-167.889,134.422,75.137,337.549,195.336,421.757C1561.004,2507.711,1761.724,2745.682,1696.353,2875.753z"/>
						</defs>
						
							<linearGradient id="SVGID_00000035529528684785092210000007501615323796289926_" gradientUnits="userSpaceOnUse" x1="-1348.8973" y1="1147.9532" x2="-62.1641" y2="1147.9532" gradientTransform="matrix(-0.8587 -0.5124 -0.5124 0.8587 1842.4327 507.4834)">
							<stop  offset="0" style="stop-color:#FF9085"/>
							<stop  offset="1" style="stop-color:#FB6FBB"/>
						</linearGradient>
						
							<use xlink:href="#SVGID_00000143585966607267752220000002690211591513416609_"  style="overflow:visible;fill:url(#SVGID_00000035529528684785092210000007501615323796289926_);"/>
						<clipPath id="SVGID_00000132803499808467181790000014226513119711167139_">
							<use xlink:href="#SVGID_00000143585966607267752220000002690211591513416609_"  style="overflow:visible;"/>
						</clipPath>
						<g style="opacity:0.7;clip-path:url(#SVGID_00000132803499808467181790000014226513119711167139_);">
							<g>
								<path style="fill:#FCFDFE;" d="M1928.879,2808.56l3.938-2.339c-360.338-606.888-321.56-1361.801,103.73-2019.389
									l-3.848-2.491c-201.556,311.651-320.436,658.521-343.785,1003.111C1664.362,2149.722,1747.343,2502.816,1928.879,2808.56z"
									/>
								<path style="fill:#FCFDFE;" d="M1192.684,2066.01c186.335,50.468,443.609,217.622,573.502,372.618l3.511-2.944
									c-130.405-155.605-388.714-323.422-575.813-374.098L1192.684,2066.01z"/>
								<path style="fill:#FCFDFE;" d="M1859.507,2688.616l4.434-1.158c-26.515-101.718-0.587-212.934,77.062-330.555
									c56.935-86.246,139.837-173.864,246.408-260.424l-2.891-3.556c-106.931,86.854-190.15,174.82-247.341,261.454
									C1858.782,2473.129,1832.649,2585.583,1859.507,2688.616z"/>
								<path style="fill:#FCFDFE;" d="M1694.127,1738.67l4.489-0.927c-40.118-194.304-190.995-338.404-310.501-425.077
									l-2.691,3.712C1504.275,1402.573,1654.308,1545.805,1694.127,1738.67z"/>
								<path style="fill:#FCFDFE;" d="M1786.284,1293.946l4.002,2.234c108.949-195.16,324.042-288.855,442.557-327.337l-1.415-4.36
									C2112.273,1003.173,1895.996,1097.419,1786.284,1293.946z"/>
							</g>
						</g>
					</g>
				</g>
			</g>
		</g>
		<g>
			<g>
				
					<linearGradient id="SVGID_00000035524865681403339670000001655465010240498841_" gradientUnits="userSpaceOnUse" x1="1552.6082" y1="2921.981" x2="1374.547" y2="2996.7666">
					<stop  offset="0" style="stop-color:#40447E"/>
					<stop  offset="0.9964" style="stop-color:#3C3B6B"/>
				</linearGradient>
				<path style="fill:url(#SVGID_00000035524865681403339670000001655465010240498841_);" d="M3016.693,2824.546l-2534.757-22.076
					v65.319c0,17.729,11.056,32.804,26.029,35.49l716.753,128.625c8.506,1.527,17.132,1.931,25.716,1.208l1738.714-146.654
					c15.523-1.309,27.545-16.431,27.545-34.646V2824.546z"/>
				
					<linearGradient id="SVGID_00000157988148225130883180000007914836157688935568_" gradientUnits="userSpaceOnUse" x1="1314.842" y1="2137.2056" x2="1121.5997" y2="2218.3672">
					<stop  offset="0" style="stop-color:#40447E"/>
					<stop  offset="0.9964" style="stop-color:#3C3B6B"/>
				</linearGradient>
				<path style="fill:url(#SVGID_00000157988148225130883180000007914836157688935568_);" d="M2200.723,2718.66L509.834,2838.154
					c-30.257,2.138-54.859-20.583-54.859-50.754V1578.615c0-30.172,24.602-54.631,54.859-54.631h1690.889
					c24.927,0,45.082,22.11,45.082,49.385v1092.719C2245.805,2693.363,2225.65,2716.898,2200.723,2718.66z"/>
				
					<linearGradient id="SVGID_00000157271888440851887760000009488427623011344030_" gradientUnits="userSpaceOnUse" x1="481.9363" y1="2181.1389" x2="2272.7661" y2="2181.1389">
					<stop  offset="0" style="stop-color:#40447E"/>
					<stop  offset="0.9964" style="stop-color:#3C3B6B"/>
				</linearGradient>
				<path style="fill:url(#SVGID_00000157271888440851887760000009488427623011344030_);" d="M2227.684,2718.66L536.795,2838.154
					c-30.258,2.138-54.859-20.583-54.859-50.754V1578.615c0-30.172,24.601-54.631,54.859-54.631h1690.888
					c24.928,0,45.083,22.11,45.083,49.385v1092.719C2272.766,2693.363,2252.612,2716.898,2227.684,2718.66z"/>
				
					<linearGradient id="SVGID_00000058572102362092109960000017519689649463346595_" gradientUnits="userSpaceOnUse" x1="1979.7067" y1="1289.4354" x2="524.3015" y2="3323.2686">
					<stop  offset="0" style="stop-color:#FFC444"/>
					<stop  offset="0.9964" style="stop-color:#F36F56"/>
				</linearGradient>
				<path style="fill:url(#SVGID_00000058572102362092109960000017519689649463346595_);" d="M2175.008,2641.621L600.122,2745.417
					c-24.623,1.623-44.632-17.026-44.632-41.656V1645.468c0-24.631,20.01-44.682,44.632-44.783l1574.886-6.517
					c20.563-0.085,37.197,18.032,37.197,40.467v963.915C2212.205,2620.983,2195.571,2640.267,2175.008,2641.621z"/>
				
					<linearGradient id="SVGID_00000129193559099610847960000010988036576519724433_" gradientUnits="userSpaceOnUse" x1="481.9363" y1="2843.3806" x2="3016.6931" y2="2843.3806">
					<stop  offset="0" style="stop-color:#40447E"/>
					<stop  offset="0.9964" style="stop-color:#3C3B6B"/>
				</linearGradient>
				<path style="fill:url(#SVGID_00000129193559099610847960000010988036576519724433_);" d="M2185.492,2713.241L481.936,2839.019
					l742.782,133.295c8.506,1.526,17.132,1.932,25.716,1.208l1766.259-148.977l-804.102-110.45
					C2203.599,2712.86,2194.529,2712.574,2185.492,2713.241z"/>
				<g>
					<ellipse style="fill:#FFFFFF;" cx="1482.247" cy="2157.081" rx="272.805" ry="276.296"/>
					
						<linearGradient id="SVGID_00000066502936089112008010000005322938684986352560_" gradientUnits="userSpaceOnUse" x1="1336.2366" y1="2150.571" x2="1628.2577" y2="2150.571">
						<stop  offset="0" style="stop-color:#FF9085"/>
						<stop  offset="1" style="stop-color:#FB6FBB"/>
					</linearGradient>
					<path style="fill:url(#SVGID_00000066502936089112008010000005322938684986352560_);" d="M1472.639,2305.959
						c-11.825,0-22.825-6.273-28.943-16.588l-102.632-173.021c-9.606-16.193-4.431-37.204,11.558-46.931
						c15.981-9.725,36.73-4.49,46.336,11.704l71.244,120.107l94.181-187.355c8.462-16.834,28.8-23.531,45.417-14.961
						c16.621,8.57,23.236,29.164,14.774,45.996l-121.836,242.365c-5.571,11.081-16.644,18.229-28.912,18.663
						C1473.431,2305.951,1473.035,2305.959,1472.639,2305.959z"/>
				</g>
				
					<linearGradient id="SVGID_00000065796486200612431280000017878138272288895638_" gradientUnits="userSpaceOnUse" x1="730.5118" y1="2822.6123" x2="2587.7122" y2="2822.6123">
					<stop  offset="0" style="stop-color:#40447E"/>
					<stop  offset="0.9964" style="stop-color:#3C3B6B"/>
				</linearGradient>
				<polygon style="opacity:0.3;fill:url(#SVGID_00000065796486200612431280000017878138272288895638_);" points="730.512,2842.182 
					2148.773,2735.908 2587.712,2795.714 1181.669,2909.317 				"/>
				<path style="opacity:0.48;fill:#FFFFFF;" d="M1820.291,2387.132c-130.352-70.136-232.848,18.734-331.763-68.95
					c-59.969-53.16-30.527-92.802-104.318-172.243c-81.729-87.988-134.939-58.411-217.075-137.601
					c-103.856-100.13-51.913-178.034-141.372-249.924c-108.526-87.214-225.565-6.492-328.874-90.132
					c-44.558-36.074-69.006-88.52-81.773-144.297H514.034c-17.713,0-32.098,14.356-32.098,32.066v1253.01
					c0,17.71,14.384,31.046,32.098,29.788l1723.292-122.323c8.457-0.6,15.956-5.538,20.769-12.697
					c-126.15-4.598-203.65-46.887-253.191-90.605C1907.99,2527.701,1924.8,2443.362,1820.291,2387.132z"/>
			</g>
			<g>
				<g>
					<g>
						
							<linearGradient id="SVGID_00000066481986543530926590000003041413988863286178_" gradientUnits="userSpaceOnUse" x1="2833.394" y1="3007.8921" x2="2342.0796" y2="2588.7783">
							<stop  offset="0" style="stop-color:#444B8C"/>
							<stop  offset="0.9964" style="stop-color:#26264F"/>
						</linearGradient>
						<path style="fill:url(#SVGID_00000066481986543530926590000003041413988863286178_);" d="M2768.586,2154.739v943.739
							c0,14.113-15.442,18.253-32.96,19.953l-605.885,67.755l-9.26,0.899c-19.01,1.846-34.598-8.706-34.598-23.453v-986.17
							c0-14.748,15.588-27.306,34.598-27.907l12.567-0.397l608.026,1.993C2758.589,2150.591,2768.586,2140.625,2768.586,2154.739z"
							/>
						
							<linearGradient id="SVGID_00000056394947397252122620000011394428300836052392_" gradientUnits="userSpaceOnUse" x1="-1402.7262" y1="3816.5295" x2="342.2778" y2="3881.4421" gradientTransform="matrix(0 -1 1 0 -1389.0323 1734.3226)">
							<stop  offset="0" style="stop-color:#444B8C"/>
							<stop  offset="0.9964" style="stop-color:#26264F"/>
						</linearGradient>
						<path style="fill:url(#SVGID_00000056394947397252122620000011394428300836052392_);" d="M2787.274,2153.664v943.483
							c0,14.109-14.295,27.042-31.803,28.742l-615.95,59.828c-19,1.845-34.58-8.704-34.58-23.448v-985.9
							c0-14.744,15.58-27.299,34.58-27.899l615.95-19.455C2772.979,2128.462,2787.274,2139.555,2787.274,2153.664z"/>
						
							<linearGradient id="SVGID_00000065052814339312756710000006964933725296539835_" gradientUnits="userSpaceOnUse" x1="2603.6917" y1="2445.0012" x2="1979.4404" y2="3284.3496">
							<stop  offset="0" style="stop-color:#FFC444"/>
							<stop  offset="0.9964" style="stop-color:#F36F56"/>
						</linearGradient>
						<path style="fill:url(#SVGID_00000065052814339312756710000006964933725296539835_);" d="M2767.528,2206.682v874.276
							c0,13.177-13.367,25.238-29.736,26.807l-579.177,55.501c-17.677,1.694-32.169-8.153-32.169-21.885v-911.157
							c0-13.732,14.492-25.477,32.169-26.098l579.177-20.355C2754.161,2183.194,2767.528,2193.505,2767.528,2206.682z"/>
					</g>
				</g>
				<g>
					<path style="fill:#FFFFFF;" d="M2675.246,2590.581c0,118.111-95.173,220.22-212.937,228.093
						c-118.166,7.899-214.254-82.018-214.254-200.859s96.089-221.01,214.254-228.177
						C2580.073,2382.495,2675.246,2472.47,2675.246,2590.581z"/>
					
						<linearGradient id="SVGID_00000004544311299443802060000017153628730357143171_" gradientUnits="userSpaceOnUse" x1="2347.8" y1="2596.6323" x2="2576.4397" y2="2596.6323">
						<stop  offset="0" style="stop-color:#FF9085"/>
						<stop  offset="1" style="stop-color:#FB6FBB"/>
					</linearGradient>
					<path style="fill:url(#SVGID_00000004544311299443802060000017153628730357143171_);" d="M2454.786,2720.238
						c-9.262,0.606-17.879-3.703-22.674-11.401l-80.519-129.296c-7.546-12.116-3.48-28.712,9.077-37.065
						c12.547-8.348,28.83-5.299,36.366,6.813l55.841,89.752l73.681-150.062c6.612-13.467,22.5-19.645,35.475-13.804
						c12.973,5.839,18.135,21.481,11.532,34.939l-95.217,194.08c-4.361,8.886-13.028,15.002-22.634,15.967
						C2455.406,2720.191,2455.095,2720.217,2454.786,2720.238z"/>
				</g>
				<g style="opacity:0.48;">
					<path style="fill:#FFFFFF;" d="M2588.16,2696.583c-56.04-112.455-187.005-85.614-236.203-208.253
						c-29.349-73.163,7.185-107.859-14.816-197.113c-14.89-60.404-47.4-108.537-84.232-146.327l-113.389,3.581
						c-18.999,0.601-34.579,13.156-34.579,27.899v985.9c0,14.744,15.58,25.293,34.579,23.448l495.682-48.146
						c-36.704-51.006-52.414-98.976-58.078-140.595C2559.559,2867.882,2637.935,2796.467,2588.16,2696.583z"/>
				</g>
			</g>
			<g>
				<g>
					<g>
						
							<linearGradient id="SVGID_00000008151138152757023360000003044655405763715752_" gradientUnits="userSpaceOnUse" x1="3173.4314" y1="3111.3564" x2="2867.436" y2="2850.3284">
							<stop  offset="0" style="stop-color:#444B8C"/>
							<stop  offset="0.9964" style="stop-color:#26264F"/>
						</linearGradient>
						<path style="fill:url(#SVGID_00000008151138152757023360000003044655405763715752_);" d="M3104.079,2549.397v651.299
							c0,9.74-8.323,12.436-17.763,13.425l-325.145,40.257l-4.949,0.519c-10.158,1.066-18.486-6.35-18.486-16.482v-677.503
							c0-10.132,8.328-18.667,18.486-18.966l6.717-0.198l326.313,5.007C3098.69,2546.475,3104.079,2539.657,3104.079,2549.397z"/>
						
							<linearGradient id="SVGID_00000062193572554770847040000015671847043847201156_" gradientUnits="userSpaceOnUse" x1="-1484.9945" y1="4307.4502" x2="-297.3524" y2="4351.6294" gradientTransform="matrix(0 -1 1 0 -1389.0323 1734.3226)">
							<stop  offset="0" style="stop-color:#444B8C"/>
							<stop  offset="0.9964" style="stop-color:#26264F"/>
						</linearGradient>
						<path style="fill:url(#SVGID_00000062193572554770847040000015671847043847201156_);" d="M3114.154,2548.768v651.204
							c0,9.738-7.707,18.515-17.144,19.505l-330.612,34.686c-10.155,1.065-18.48-6.349-18.48-16.479v-677.403
							c0-10.13,8.325-18.664,18.48-18.963l330.612-9.748C3106.447,2531.289,3114.154,2539.03,3114.154,2548.768z"/>
						
							<linearGradient id="SVGID_00000096759355052044955370000016703116693722164632_" gradientUnits="userSpaceOnUse" x1="3031.3157" y1="2758.8389" x2="2634.2761" y2="3292.6855">
							<stop  offset="0" style="stop-color:#FFC444"/>
							<stop  offset="0.9964" style="stop-color:#F36F56"/>
						</linearGradient>
						<path style="fill:url(#SVGID_00000096759355052044955370000016703116693722164632_);" d="M3103.508,2585.238v603.356
							c0,9.094-7.205,17.279-16.025,18.191l-310.877,32.149c-9.45,0.977-17.197-5.942-17.197-15.379v-626.137
							c0-9.437,7.747-17.418,17.197-17.735l310.877-10.44C3096.304,2568.946,3103.508,2576.144,3103.508,2585.238z"/>
					</g>
				</g>
				<g>
					<path style="fill:#FFFFFF;" d="M3066.833,2853.369c0,70.327-56.376,131.212-126.047,135.999
						c-69.813,4.796-126.511-48.53-126.511-119.116s56.698-131.492,126.511-136.03
						C3010.456,2729.694,3066.833,2783.041,3066.833,2853.369z"/>
					
						<linearGradient id="SVGID_00000097458366606645594270000000124194579344618129_" gradientUnits="userSpaceOnUse" x1="2873.1318" y1="2857.2339" x2="3008.3057" y2="2857.2339">
						<stop  offset="0" style="stop-color:#FF9085"/>
						<stop  offset="1" style="stop-color:#FB6FBB"/>
					</linearGradient>
					<path style="fill:url(#SVGID_00000097458366606645594270000000124194579344618129_);" d="M2936.337,2930.837
						c-5.475,0.372-10.568-2.18-13.402-6.752l-47.564-76.742c-4.456-7.188-2.055-17.058,5.36-22.045
						c7.409-4.985,17.027-3.202,21.479,3.984l33,53.271l43.575-89.385c3.912-8.025,13.314-11.734,20.993-8.285
						c7.68,3.448,10.736,12.746,6.826,20.768l-56.335,115.614c-2.578,5.291-7.703,8.938-13.382,9.524
						C2936.704,2930.809,2936.521,2930.825,2936.337,2930.837z"/>
				</g>
				<g style="opacity:0.48;">
					<path style="fill:#FFFFFF;" d="M3006.673,2938.791c-30.17-75.847-111.49-57.93-136.824-134.587
						c-20.677-62.57,25.318-99.236,7.311-171.682c-10.103-40.649-34.963-70.851-60.376-92.691l-50.386,1.485
						c-10.155,0.299-18.481,8.833-18.481,18.963v677.403c0,10.13,8.325,17.545,18.481,16.479l253.466-26.592
						c-20.342-32.068-28.515-61.371-31.402-85.706C2977.954,3053.305,3034.314,3008.279,3006.673,2938.791z"/>
				</g>
			</g>
		</g>
		<g>
			
				<linearGradient id="SVGID_00000080195149011141475820000007512880956111422596_" gradientUnits="userSpaceOnUse" x1="1309.6155" y1="1280.4117" x2="2149.645" y2="1280.4117" gradientTransform="matrix(1 0 0 1 918.7108 0)">
				<stop  offset="0" style="stop-color:#444B8C"/>
				<stop  offset="0.9964" style="stop-color:#26264F"/>
			</linearGradient>
			<path style="fill:url(#SVGID_00000080195149011141475820000007512880956111422596_);" d="M3068.356,1308.747
				c0,227.27-177.711,406.052-404.846,399.077c-236.38-7.259-435.183-211.409-435.183-455.709
				c0-244.3,198.803-421.644,435.183-397.03C2890.645,878.734,3068.356,1081.477,3068.356,1308.747z"/>
			
				<linearGradient id="SVGID_00000009578189791999604930000006970591647314373255_" gradientUnits="userSpaceOnUse" x1="1981.9674" y1="838.8785" x2="1544.6166" y2="1803.7561" gradientTransform="matrix(1 0 0 1 918.7108 0)">
				<stop  offset="0" style="stop-color:#AA80F9"/>
				<stop  offset="0.9964" style="stop-color:#6165D7"/>
			</linearGradient>
			<path style="fill:url(#SVGID_00000009578189791999604930000006970591647314373255_);" d="M3129.732,1289.151
				c0,227.27-177.711,406.051-404.846,399.076c-236.38-7.259-435.184-211.408-435.184-455.709
				c0-244.301,198.803-421.644,435.184-397.031C2952.021,859.138,3129.732,1061.881,3129.732,1289.151z"/>
			
				<linearGradient id="SVGID_00000169524814534499670610000009548620812842100136_" gradientUnits="userSpaceOnUse" x1="1519.7505" y1="1693.3197" x2="1747.613" y2="1331.4198" gradientTransform="matrix(1 0 0 1 918.7108 0)">
				<stop  offset="0" style="stop-color:#AA80F9"/>
				<stop  offset="0.9964" style="stop-color:#6165D7"/>
			</linearGradient>
			<path style="fill:url(#SVGID_00000169524814534499670610000009548620812842100136_);" d="M3111.904,1287.948
				c0,217.262-170.037,387.882-387.018,380.856c-225.403-7.299-414.652-202.127-414.652-434.902
				c0-232.775,189.249-402.086,414.652-378.992C2941.867,877.14,3111.904,1070.687,3111.904,1287.948z"/>
			<path style="opacity:0.53;fill:#FFFFFF;" d="M3093.121,1286.683c0,190.784-137.852,343.615-321.229,360.739
				c-15.407,1.449-31.189,1.933-47.186,1.396c-214.188-7.194-393.806-192.448-393.806-413.508
				c0-192.233,135.813-339.052,312.102-359.827c26.413-3.114,53.789-3.436,81.704-0.591
				C2931.112,895.774,3093.121,1079.848,3093.121,1286.683z"/>
			
				<linearGradient id="SVGID_00000133530400866134650380000004746196012334935219_" gradientUnits="userSpaceOnUse" x1="1620.433" y1="1160.5406" x2="1960.2075" y2="1881.8171" gradientTransform="matrix(1 0 0 1 918.7108 0)">
				<stop  offset="0" style="stop-color:#AA80F9"/>
				<stop  offset="0.9964" style="stop-color:#6165D7"/>
			</linearGradient>
			<path style="fill:url(#SVGID_00000133530400866134650380000004746196012334935219_);" d="M2771.891,1647.422
				c-15.407,1.449-31.189,1.933-47.186,1.396c-214.188-7.194-393.806-192.448-393.806-413.508
				c0-192.233,135.813-339.052,312.102-359.827c59.535,46.488,112.839,105.967,122.018,176.451
				c14.977,114.878-99.793,167.755-112.461,292.617C2642.144,1447.566,2691.477,1562.337,2771.891,1647.422z"/>
			<g>
				<defs>
					<path id="SVGID_00000165224171587775566330000009005748139425206194_" d="M3055.587,1284.15
						c0,186.461-146.024,332.714-332.151,326.465c-193.101-6.483-355.03-173.488-355.03-372.792
						c0-199.305,161.93-344.476,355.03-324.922C2909.563,931.747,3055.587,1097.69,3055.587,1284.15z"/>
				</defs>
				<clipPath id="SVGID_00000041261151851884298080000011363026983503738757_">
					<use xlink:href="#SVGID_00000165224171587775566330000009005748139425206194_"  style="overflow:visible;"/>
				</clipPath>
			</g>
		</g>
		<g>
			<path style="fill:#FFFFFF;" d="M2820.019,1362.895l-21.089-4.129c0.084-9.718-0.655-19.44-2.227-29.053l20.325-7.093
				c5.479-1.912,8.367-7.977,6.448-13.548l-12.021-34.903c-1.926-5.591-7.942-8.58-13.44-6.67l-20.414,7.09
				c-4.685-8.457-10.168-16.569-16.374-24.27l14.168-16.614c3.804-4.46,3.292-11.248-1.145-15.164l-27.81-24.536
				c-4.457-3.932-11.165-3.494-14.979,0.979l-14.211,16.664c-8.447-5.176-17.208-9.572-26.209-13.118l3.967-21.717
				c1.07-5.856-2.761-11.56-8.56-12.74l-36.324-7.392c-5.82-1.184-11.403,2.617-12.467,8.49l-3.939,21.749
				c-9.787-0.242-19.567,0.383-29.232,1.847l-7.403-20.997c-2.003-5.685-8.163-8.743-13.757-6.828l-35.02,11.993
				c-5.607,1.919-8.513,8.09-6.491,13.778l7.391,20.799c-8.499,4.705-16.623,10.248-24.316,16.536l-16.683-14.47
				c-4.566-3.961-11.391-3.517-15.238,0.996l-24.064,28.218c-3.847,4.512-3.252,11.372,1.326,15.319l16.592,14.306
				c-5.085,8.618-9.35,17.565-12.745,26.756l-21.213-4.152c-5.889-1.154-11.507,2.672-12.544,8.544l-6.48,36.673
				c-1.036,5.858,2.898,11.527,8.781,12.663l21.093,4.073c-0.027,9.962,0.831,19.916,2.54,29.745l-20.052,6.964
				c-5.604,1.946-8.493,8.079-6.451,13.693l12.745,35.044c2.034,5.594,8.214,8.544,13.799,6.595l19.84-6.924
				c4.898,8.577,10.63,16.774,17.094,24.53l-13.589,15.936c-3.815,4.474-3.231,11.217,1.302,15.059l28.287,23.976
				c4.514,3.826,11.256,3.309,15.059-1.151l13.549-15.889c8.641,5.099,17.583,9.398,26.752,12.812l-3.71,20.487
				c-1.044,5.76,2.798,11.299,8.578,12.371l36.077,6.692c5.759,1.068,11.275-2.722,12.324-8.467l3.76-20.583
				c9.791,0.086,19.563-0.676,29.2-2.295l7.026,19.771c1.955,5.502,7.991,8.385,13.482,6.443l34.295-12.133
				c5.478-1.938,8.348-7.964,6.408-13.463l-6.998-19.852c8.344-4.74,16.325-10.282,23.871-16.564l16.009,13.805
				c4.405,3.798,11.033,3.291,14.804-1.132l23.585-27.659c3.773-4.423,3.269-11.096-1.125-14.907l-16.098-13.962
				c4.952-8.451,9.135-17.213,12.468-26.215l20.857,4.028c5.689,1.099,11.173-2.668,12.247-8.414l6.728-35.974
				C2829.458,1369.583,2825.715,1364.01,2820.019,1362.895z M2713.987,1426.85c-38.259,44.865-105.852,49.95-151.22,11.145
				c-45.642-39.04-51.49-107.631-12.81-152.989c38.68-45.358,106.896-49.904,152.116-10.371
				C2747.022,1313.932,2752.246,1381.985,2713.987,1426.85z"/>
			<path style="fill:#FFFFFF;" d="M2954.611,1080.616l-11.741-2.32c-0.085-5.26-0.627-10.525-1.629-15.732l11.159-3.759
				c3.01-1.013,4.525-4.284,3.385-7.305l-7.137-18.92c-1.144-3.029-4.514-4.666-7.531-3.653l-11.201,3.76
				c-2.706-4.587-5.848-8.988-9.384-13.17l7.61-8.925c2.043-2.396,1.669-6.063-0.839-8.192l-15.701-13.331
				c-2.515-2.135-6.214-1.92-8.263,0.481l-7.626,8.944c-4.734-2.819-9.629-5.218-14.643-7.159l1.904-11.697
				c0.512-3.153-1.676-6.239-4.89-6.892l-20.131-4.09c-3.224-0.655-6.252,1.377-6.762,4.536l-1.893,11.706
				c-5.396-0.16-10.779,0.146-16.086,0.905l-4.342-11.331c-1.177-3.068-4.606-4.732-7.663-3.717l-19.127,6.351
				c-3.06,1.016-4.583,4.329-3.4,7.398l4.325,11.223c-4.619,2.507-9.022,5.466-13.178,8.827l-9.356-7.846
				c-2.559-2.147-6.306-1.929-8.367,0.488l-12.887,15.112c-2.062,2.417-1.652,6.113,0.913,8.254l9.297,7.764
				c-2.692,4.625-4.931,9.432-6.687,14.373l-11.715-2.315c-3.252-0.643-6.294,1.398-6.794,4.558l-3.124,19.742
				c-0.5,3.155,1.731,6.227,4.979,6.862l11.651,2.28c0.106,5.375,0.698,10.75,1.757,16.061l-10.951,3.675
				c-3.06,1.027-4.577,4.324-3.385,7.363l7.433,18.978c1.187,3.031,4.625,4.653,7.677,3.624l10.844-3.653
				c2.802,4.657,6.06,9.113,9.718,13.335l-7.294,8.554c-2.049,2.401-1.644,6.051,0.901,8.15l15.891,13.108
				c2.537,2.093,6.25,1.846,8.293-0.55l7.278-8.535c4.834,2.802,9.824,5.172,14.928,7.065l-1.789,11.078
				c-0.504,3.116,1.688,6.135,4.894,6.745l20.023,3.808c3.198,0.609,6.199-1.418,6.705-4.527l1.813-11.137
				c5.415,0.095,10.809-0.27,16.118-1.101l4.145,10.755c1.154,2.993,4.533,4.588,7.547,3.562l18.829-6.41
				c3.009-1.024,4.517-4.279,3.371-7.272l-4.14-10.8c4.557-2.53,8.902-5.497,12.998-8.867l9.053,7.561
				c2.493,2.081,6.16,1.838,8.19-0.543l12.698-14.89c2.03-2.381,1.66-6.002-0.828-8.09l-9.112-7.641
				c2.63-4.557,4.828-9.287,6.552-14.149l11.615,2.272c3.17,0.62,6.157-1.396,6.674-4.507l3.233-19.461
				C2959.935,1084.276,2957.784,1081.243,2954.611,1080.616z M2896.762,1114.798c-20.574,24.126-57.87,26.566-83.406,5.364
				c-25.65-21.297-29.714-58.347-8.974-82.67c20.741-24.322,58.296-26.545,83.78-5.052
				C2913.531,1053.838,2917.335,1090.673,2896.762,1114.798z"/>
		</g>
		<g>
			
				<linearGradient id="SVGID_00000054229312335085825490000009831957266609593993_" gradientUnits="userSpaceOnUse" x1="1465.9866" y1="1973.9749" x2="1476.4868" y2="5857.875">
				<stop  offset="0" style="stop-color:#AA80F9"/>
				<stop  offset="0.9964" style="stop-color:#6165D7"/>
			</linearGradient>
			<path style="fill:url(#SVGID_00000054229312335085825490000009831957266609593993_);" d="M1465.577,1846.927
				c-7.729,0-13.995-6.266-13.995-13.995v-20.992c0-7.728,6.266-13.995,13.995-13.995s13.995,6.266,13.995,13.995v20.992
				C1479.572,1840.661,1473.305,1846.927,1465.577,1846.927z"/>
		</g>
		<g>
			
				<linearGradient id="SVGID_00000173140952111005649900000018367357693752028316_" gradientUnits="userSpaceOnUse" x1="1466.8094" y1="1973.9722" x2="1477.3097" y2="5857.8721">
				<stop  offset="0" style="stop-color:#AA80F9"/>
				<stop  offset="0.9964" style="stop-color:#6165D7"/>
			</linearGradient>
			<path style="fill:url(#SVGID_00000173140952111005649900000018367357693752028316_);" d="M1465.577,1762.959
				c-7.729,0-13.995-6.266-13.995-13.995v-41.984c0-7.729,6.266-13.995,13.995-13.995s13.995,6.266,13.995,13.995v41.984
				C1479.572,1756.693,1473.305,1762.959,1465.577,1762.959z M1465.577,1658c-7.729,0-13.995-6.266-13.995-13.995v-41.984
				c0-7.729,6.266-13.995,13.995-13.995s13.995,6.266,13.995,13.995v41.984C1479.572,1651.734,1473.305,1658,1465.577,1658z
				 M1465.577,1553.04c-7.729,0-13.995-6.266-13.995-13.995v-41.984c0-7.729,6.266-13.995,13.995-13.995s13.995,6.266,13.995,13.995
				v41.984C1479.572,1546.774,1473.305,1553.04,1465.577,1553.04z M1465.577,1448.08c-7.729,0-13.995-6.266-13.995-13.995v-41.984
				c0-7.728,6.266-13.995,13.995-13.995s13.995,6.266,13.995,13.995v41.984C1479.572,1441.814,1473.305,1448.08,1465.577,1448.08z
				 M1465.577,1343.12c-7.729,0-13.995-6.266-13.995-13.995v-41.984c0-7.729,6.266-13.995,13.995-13.995s13.995,6.266,13.995,13.995
				v41.984C1479.572,1336.854,1473.305,1343.12,1465.577,1343.12z"/>
		</g>
		<g>
			
				<linearGradient id="SVGID_00000119109395621535114600000000418751773462093223_" gradientUnits="userSpaceOnUse" x1="1478.1567" y1="1973.9391" x2="1488.6569" y2="5857.8394">
				<stop  offset="0" style="stop-color:#AA80F9"/>
				<stop  offset="0.9964" style="stop-color:#6165D7"/>
			</linearGradient>
			<path style="fill:url(#SVGID_00000119109395621535114600000000418751773462093223_);" d="M1465.577,1227.665
				c-7.729,0-13.995-6.266-13.995-13.995v-20.992c0-7.729,6.266-13.995,13.995-13.995h20.992c7.729,0,13.995,6.266,13.995,13.995
				s-6.266,13.995-13.995,13.995h-6.997v6.997C1479.572,1221.398,1473.305,1227.665,1465.577,1227.665z"/>
		</g>
		<g>
			
				<linearGradient id="SVGID_00000179616522808974401140000000363460947233152394_" gradientUnits="userSpaceOnUse" x1="1822.8005" y1="1973.0195" x2="1833.3009" y2="5856.9697">
				<stop  offset="0" style="stop-color:#AA80F9"/>
				<stop  offset="0.9964" style="stop-color:#6165D7"/>
			</linearGradient>
			<path style="fill:url(#SVGID_00000179616522808974401140000000363460947233152394_);" d="M2095.336,1206.672h-41.984
				c-7.729,0-13.995-6.266-13.995-13.995s6.266-13.995,13.995-13.995h41.984c7.729,0,13.995,6.266,13.995,13.995
				S2103.064,1206.672,2095.336,1206.672z M1993.875,1206.672h-41.984c-7.729,0-13.995-6.266-13.995-13.995
				s6.266-13.995,13.995-13.995h41.984c7.729,0,13.995,6.266,13.995,13.995S2001.603,1206.672,1993.875,1206.672z
				 M1892.413,1206.672h-41.984c-7.728,0-13.995-6.266-13.995-13.995s6.266-13.995,13.995-13.995h41.984
				c7.728,0,13.995,6.266,13.995,13.995S1900.142,1206.672,1892.413,1206.672z M1790.952,1206.672h-41.984
				c-7.729,0-13.995-6.266-13.995-13.995s6.266-13.995,13.995-13.995h41.984c7.729,0,13.995,6.266,13.995,13.995
				S1798.681,1206.672,1790.952,1206.672z M1689.491,1206.672h-41.984c-7.729,0-13.995-6.266-13.995-13.995
				s6.266-13.995,13.995-13.995h41.984c7.729,0,13.995,6.266,13.995,13.995S1697.22,1206.672,1689.491,1206.672z M1588.03,1206.672
				h-41.984c-7.729,0-13.995-6.266-13.995-13.995s6.266-13.995,13.995-13.995h41.984c7.729,0,13.995,6.266,13.995,13.995
				S1595.759,1206.672,1588.03,1206.672z"/>
		</g>
		<g>
			
				<linearGradient id="SVGID_00000000188528998721704360000005068012193817231027_" gradientUnits="userSpaceOnUse" x1="2167.416" y1="1972.0778" x2="2177.916" y2="5855.9712">
				<stop  offset="0" style="stop-color:#AA80F9"/>
				<stop  offset="0.9964" style="stop-color:#6165D7"/>
			</linearGradient>
			<path style="fill:url(#SVGID_00000000188528998721704360000005068012193817231027_);" d="M2175.805,1206.672h-20.992
				c-7.729,0-13.995-6.266-13.995-13.995s6.266-13.995,13.995-13.995h20.992c7.729,0,13.995,6.266,13.995,13.995
				S2183.533,1206.672,2175.805,1206.672z"/>
		</g>
		
			<linearGradient id="SVGID_00000043426233545975369440000015841528476675046305_" gradientUnits="userSpaceOnUse" x1="2462.5864" y1="1971.2816" x2="2473.0867" y2="5855.1821">
			<stop  offset="0" style="stop-color:#AA80F9"/>
			<stop  offset="0.9964" style="stop-color:#6165D7"/>
		</linearGradient>
		<path style="fill:url(#SVGID_00000043426233545975369440000015841528476675046305_);" d="M2462.695,2347.236
			c-7.729,0-13.995-6.266-13.995-13.995v-41.984c0-7.729,6.266-13.995,13.995-13.995s13.995,6.266,13.995,13.995v41.984
			C2476.689,2340.969,2470.423,2347.236,2462.695,2347.236z M2462.695,2242.276c-7.729,0-13.995-6.266-13.995-13.995v-41.984
			c0-7.729,6.266-13.995,13.995-13.995s13.995,6.266,13.995,13.995v41.984C2476.689,2236.01,2470.423,2242.276,2462.695,2242.276z
			 M2462.695,2137.316c-7.729,0-13.995-6.266-13.995-13.995v-41.984c0-7.729,6.266-13.995,13.995-13.995s13.995,6.266,13.995,13.995
			v41.984C2476.689,2131.05,2470.423,2137.316,2462.695,2137.316z M2462.695,2032.356c-7.729,0-13.995-6.266-13.995-13.995v-41.984
			c0-7.729,6.266-13.995,13.995-13.995s13.995,6.266,13.995,13.995v41.984C2476.689,2026.09,2470.423,2032.356,2462.695,2032.356z
			 M2462.695,1927.396c-7.729,0-13.995-6.266-13.995-13.995v-41.984c0-7.728,6.266-13.995,13.995-13.995s13.995,6.266,13.995,13.995
			v41.984C2476.689,1921.13,2470.423,1927.396,2462.695,1927.396z M2462.695,1822.437c-7.729,0-13.995-6.266-13.995-13.995v-41.984
			c0-7.729,6.266-13.995,13.995-13.995s13.995,6.266,13.995,13.995v41.984C2476.689,1816.171,2470.423,1822.437,2462.695,1822.437z
			 M2462.695,1717.477c-7.729,0-13.995-6.266-13.995-13.995v-13.995c0-7.728,6.266-13.995,13.995-13.995s13.995,6.266,13.995,13.995
			v13.995C2476.689,1711.211,2470.423,1717.477,2462.695,1717.477z"/>
		
			<linearGradient id="SVGID_00000037651692562877181500000007247527256698251660_" gradientUnits="userSpaceOnUse" x1="2941.3792" y1="1969.9872" x2="2951.8794" y2="5853.8911">
			<stop  offset="0" style="stop-color:#AA80F9"/>
			<stop  offset="0.9964" style="stop-color:#6165D7"/>
		</linearGradient>
		<path style="fill:url(#SVGID_00000037651692562877181500000007247527256698251660_);" d="M2942.011,2711.096
			c-7.729,0-13.995-6.266-13.995-13.995v-41.984c0-7.729,6.266-13.995,13.995-13.995s13.995,6.266,13.995,13.995v41.984
			C2956.006,2704.83,2949.74,2711.096,2942.011,2711.096z M2942.011,2606.136c-7.729,0-13.995-6.266-13.995-13.995v-41.984
			c0-7.729,6.266-13.995,13.995-13.995s13.995,6.266,13.995,13.995v41.984C2956.006,2599.87,2949.74,2606.136,2942.011,2606.136z
			 M2942.011,2501.177c-7.729,0-13.995-6.266-13.995-13.995v-41.984c0-7.729,6.266-13.995,13.995-13.995s13.995,6.266,13.995,13.995
			v41.984C2956.006,2494.91,2949.74,2501.177,2942.011,2501.177z M2942.011,2396.217c-7.729,0-13.995-6.266-13.995-13.995v-41.984
			c0-7.729,6.266-13.995,13.995-13.995s13.995,6.266,13.995,13.995v41.984C2956.006,2389.951,2949.74,2396.217,2942.011,2396.217z
			 M2942.011,2291.257c-7.729,0-13.995-6.266-13.995-13.995v-41.984c0-7.729,6.266-13.995,13.995-13.995s13.995,6.266,13.995,13.995
			v41.984C2956.006,2284.991,2949.74,2291.257,2942.011,2291.257z M2942.011,2186.297c-7.729,0-13.995-6.266-13.995-13.995v-41.984
			c0-7.729,6.266-13.995,13.995-13.995s13.995,6.266,13.995,13.995v41.984C2956.006,2180.031,2949.74,2186.297,2942.011,2186.297z
			 M2942.011,2081.337c-7.729,0-13.995-6.266-13.995-13.995v-41.984c0-7.729,6.266-13.995,13.995-13.995s13.995,6.266,13.995,13.995
			v41.984C2956.006,2075.071,2949.74,2081.337,2942.011,2081.337z M2942.011,1976.378c-7.729,0-13.995-6.266-13.995-13.995v-41.984
			c0-7.728,6.266-13.995,13.995-13.995s13.995,6.266,13.995,13.995v41.984C2956.006,1970.111,2949.74,1976.378,2942.011,1976.378z
			 M2942.011,1871.418c-7.729,0-13.995-6.266-13.995-13.995v-41.984c0-7.729,6.266-13.995,13.995-13.995s13.995,6.266,13.995,13.995
			v41.984C2956.006,1865.152,2949.74,1871.418,2942.011,1871.418z M2942.011,1766.458c-7.729,0-13.995-6.266-13.995-13.995v-41.984
			c0-7.729,6.266-13.995,13.995-13.995s13.995,6.266,13.995,13.995v41.984C2956.006,1760.192,2949.74,1766.458,2942.011,1766.458z"
			/>
		<g>
			
				<linearGradient id="SVGID_00000119805935707654380060000002258153907853288356_" gradientUnits="userSpaceOnUse" x1="1223.0022" y1="2274.7214" x2="1189.7649" y2="2857.2485">
				<stop  offset="0" style="stop-color:#AA80F9"/>
				<stop  offset="0.9964" style="stop-color:#6165D7"/>
			</linearGradient>
			<path style="fill:url(#SVGID_00000119805935707654380060000002258153907853288356_);" d="M1315.973,2535.983
				c27.446-15.211,19.411-101.54-17.824-162.201c-52.871-86.133-168.747-127.251-192.503-101.598
				c-24.312,26.253,45.671,124.804,57.039,140.812C1203.923,2471.07,1283.509,2553.977,1315.973,2535.983z"/>
			
				<linearGradient id="SVGID_00000016772851227901099140000001484522580285425804_" gradientUnits="userSpaceOnUse" x1="1431.5466" y1="3126.6145" x2="1514.6284" y2="3126.6145" gradientTransform="matrix(-0.9642 0.2651 0.2651 0.9642 2192.8501 -308.9189)">
				<stop  offset="0" style="stop-color:#444B8C"/>
				<stop  offset="0.9964" style="stop-color:#26264F"/>
			</linearGradient>
			<path style="fill:url(#SVGID_00000016772851227901099140000001484522580285425804_);" d="M1564.214,3086.199
				c-5.126,5.66-6.294,16.082-1.837,21.216c4.38,5.048,10.968,1.262,29.65,1.82c20.011,0.599,25.236,5.323,38.835,1.573
				c5.494-1.519,15.198-5.202,15.013-9.126c-0.13-2.759-5.07-4.183-21.569-9.711c-23.42-7.845-23.317-8.274-28.29-9.097
				C1583.525,3080.803,1570.983,3078.726,1564.214,3086.199z"/>
			
				<linearGradient id="SVGID_00000113355089270307238390000011104885153532262272_" gradientUnits="userSpaceOnUse" x1="1258.2645" y1="3138.3767" x2="1293.2996" y2="3065.8621" gradientTransform="matrix(-0.9802 0.1979 0.1979 0.9802 2204.0603 -227.1835)">
				<stop  offset="0" style="stop-color:#FFC444"/>
				<stop  offset="0.9964" style="stop-color:#F36F56"/>
			</linearGradient>
			<path style="fill:url(#SVGID_00000113355089270307238390000011104885153532262272_);" d="M1577.035,3053.559l10.037,33.387
				c-0.759,1.791-10.963,7.765-19.72,3.98l-14.906-32.405L1577.035,3053.559z"/>
			
				<linearGradient id="SVGID_00000090282526898494461360000004974689185098492325_" gradientUnits="userSpaceOnUse" x1="1561.7034" y1="3121.2588" x2="1644.785" y2="3121.2588" gradientTransform="matrix(-0.9642 0.2651 0.2651 0.9642 2192.8501 -308.9189)">
				<stop  offset="0" style="stop-color:#444B8C"/>
				<stop  offset="0.9964" style="stop-color:#26264F"/>
			</linearGradient>
			<path style="fill:url(#SVGID_00000090282526898494461360000004974689185098492325_);" d="M1437.297,3115.539
				c-5.126,5.66-6.294,16.083-1.837,21.217c4.38,5.048,10.968,1.263,29.65,1.819c20.011,0.598,25.237,5.324,38.835,1.573
				c5.495-1.519,15.198-5.202,15.013-9.126c-0.129-2.758-5.07-4.182-21.569-9.71c-23.42-7.845-23.316-8.274-28.29-9.098
				C1456.609,3110.145,1444.066,3108.066,1437.297,3115.539z"/>
			
				<linearGradient id="SVGID_00000017489326199617800710000017929287954685783709_" gradientUnits="userSpaceOnUse" x1="1388.4806" y1="3142.0195" x2="1423.5155" y2="3069.5054" gradientTransform="matrix(-0.9802 0.1979 0.1979 0.9802 2204.0603 -227.1835)">
				<stop  offset="0" style="stop-color:#FFC444"/>
				<stop  offset="0.9964" style="stop-color:#F36F56"/>
			</linearGradient>
			<path style="fill:url(#SVGID_00000017489326199617800710000017929287954685783709_);" d="M1450.118,3082.9l10.037,33.387
				c-0.759,1.791-10.962,7.764-19.719,3.98l-14.906-32.404L1450.118,3082.9z"/>
			
				<linearGradient id="SVGID_00000127021488484845313840000014809144423934457986_" gradientUnits="userSpaceOnUse" x1="1077.1957" y1="2266.4021" x2="1043.9583" y2="2848.9287">
				<stop  offset="0" style="stop-color:#AA80F9"/>
				<stop  offset="0.9964" style="stop-color:#6165D7"/>
			</linearGradient>
			<path style="fill:url(#SVGID_00000127021488484845313840000014809144423934457986_);" d="M885.515,2277.767
				c31.843-10.852,80.507-23.463,140.446-23.455c67.485,0.008,121.682,0.014,159.104,31.909
				c90.823,77.41-10.831,262.823,41.243,400.132c5.703,15.039,22.301,62.718,7.865,114.142c-2.661,9.478-8.14,17.692-17.51,31.596
				c-55.012,81.616-209.539,88.305-280.327,17.542c-37.412-37.399-71.049-30.55-71.949-73.223
				C860.839,2607.964,886.973,2439.945,885.515,2277.767z"/>
			
				<linearGradient id="SVGID_00000054979712929693231890000003779101172704752560_" gradientUnits="userSpaceOnUse" x1="908.9835" y1="2728.103" x2="1109.4712" y2="2474.2388">
				<stop  offset="0" style="stop-color:#AA80F9"/>
				<stop  offset="0.9964" style="stop-color:#6165D7"/>
			</linearGradient>
			<path style="opacity:0.4;fill:url(#SVGID_00000054979712929693231890000003779101172704752560_);" d="M924.689,2480.513
				c-12.865-35.222,0.466-75.541-28.217-93.141c-10.511-6.449-23.574-9.182-37.804-8.869c1.702,123.805,4.139,247.492,7.15,376.698
				c0.995,42.674,6.331,44.787,47.698,82.186c47.93,43.333,130.529,57.479,201.374,43.301
				c-92.783-57.061-158.984-116.168-149.502-166.832c11.041-59.003,119.093-76.426,114.745-118.376
				C1075.524,2551.021,952.811,2557.512,924.689,2480.513z"/>
			
				<linearGradient id="SVGID_00000181083950810215063110000011309080579717563531_" gradientUnits="userSpaceOnUse" x1="882.3057" y1="2255.2825" x2="849.0682" y2="2837.8105">
				<stop  offset="0" style="stop-color:#AA80F9"/>
				<stop  offset="0.9964" style="stop-color:#6165D7"/>
			</linearGradient>
			<path style="fill:url(#SVGID_00000181083950810215063110000011309080579717563531_);" d="M915.024,2281.576
				c-31.193-21.059-106.348,32.049-148.009,78.798c-19.364,21.726-86.781,97.37-70.031,198.987
				c2.729,16.559,15.297,93.981,81.573,131.904c59.341,33.957,139.469,25.222,203.669-22.87
				c8.772-7.786,17.547-15.568,26.321-23.355c8.632-9.329,17.264-18.658,25.895-27.99c-13.569-11.287-36.624-27.569-69-38.015
				c-49.336-15.919-81.771,7.699-93.571-7.849c-14.528-19.144,29.698-54.809,41.303-135.95
				C916.305,2413.339,949.866,2305.099,915.024,2281.576z"/>
			
				<linearGradient id="SVGID_00000123416789228346676930000018428287386353958072_" gradientUnits="userSpaceOnUse" x1="1196.1193" y1="3033.0854" x2="1475.2428" y2="2679.6501">
				<stop  offset="0" style="stop-color:#FF9085"/>
				<stop  offset="1" style="stop-color:#FB6FBB"/>
			</linearGradient>
			<path style="fill:url(#SVGID_00000123416789228346676930000018428287386353958072_);" d="M966.193,2811.416
				c-20.613,67.082,17.552,39.811,95.28,1.516c81.863-40.332,260.81-98.251,337.917-22.386
				c57.427,56.503,16.803,145.842,105.652,244.179c15.651,17.322,30.484,29.421,39.753,36.441
				c16.012-6.626,32.024-13.25,48.036-19.876c6.282-36.687,26.07-178.115-62.943-304.779
				c-21.521-30.623-62.457-89.418-132.513-114.292C1207.983,2564.979,985.202,2749.547,966.193,2811.416z"/>
			
				<linearGradient id="SVGID_00000145045111127108630600000010337770279770043800_" gradientUnits="userSpaceOnUse" x1="1362.3215" y1="2706.6484" x2="1038.4856" y2="3065.3594">
				<stop  offset="0" style="stop-color:#FF9085"/>
				<stop  offset="1" style="stop-color:#FB6FBB"/>
			</linearGradient>
			<path style="fill:url(#SVGID_00000145045111127108630600000010337770279770043800_);" d="M890.617,2748.829
				c-13.345,38.53-1.334,82.812,20.472,110.323c48.404,61.072,157.07,54.648,224.944,32.094
				c82.585-27.441,101.031-77.416,133.508-65.132c50.466,19.088,14.559,143.357,105.652,244.18
				c15.65,17.322,30.484,29.418,39.753,36.442c16.011-6.627,32.024-13.252,48.035-19.879c12.094-85.429,3.257-153.878-5.953-197.599
				c-10.561-50.137-20.022-95.054-55.348-138.372c-43.891-53.819-101.245-72.72-134.154-83.097
				C1128.297,2623.885,925.291,2648.717,890.617,2748.829z"/>
			<g>
				
					<linearGradient id="SVGID_00000005960182300320781400000013055251389904019612_" gradientUnits="userSpaceOnUse" x1="1209.9578" y1="2800.0491" x2="1164.4901" y2="2671.2239">
					<stop  offset="0" style="stop-color:#311944"/>
					<stop  offset="1" style="stop-color:#893976"/>
				</linearGradient>
				<polygon style="fill:url(#SVGID_00000005960182300320781400000013055251389904019612_);" points="1342.054,2644.658 
					966.193,2639.047 1066.141,2687.283 1343.016,2669.163 				"/>
				
					<linearGradient id="SVGID_00000183932067924741335920000004019914776904110979_" gradientUnits="userSpaceOnUse" x1="1011.33" y1="2613.4014" x2="1028.0013" y2="2728.5859">
					<stop  offset="0" style="stop-color:#311944"/>
					<stop  offset="1" style="stop-color:#893976"/>
				</linearGradient>
				<path style="fill:url(#SVGID_00000183932067924741335920000004019914776904110979_);" d="M952.928,2649.035v0.003
					c0,7.033,4.402,13.317,11.013,15.721l120.101,47.082l0.547-32.642l-118.395-40.151
					C959.549,2637.138,952.928,2642.124,952.928,2649.035z"/>
			</g>
			
				<linearGradient id="SVGID_00000027606991327824251400000010615700872552918708_" gradientUnits="userSpaceOnUse" x1="1006.3292" y1="2638.6362" x2="1100.5522" y2="2638.6362">
				<stop  offset="0" style="stop-color:#FFC444"/>
				<stop  offset="0.9964" style="stop-color:#F36F56"/>
			</linearGradient>
			<path style="fill:url(#SVGID_00000027606991327824251400000010615700872552918708_);" d="M1006.589,2633.95
				c-2.306-0.514,11.239-27.503,21.872-24.389c10.631,3.115,62.636,33.254,67.363,45.665c4.728,12.41,4.728,12.41,4.728,12.41
				s-22.684,1.773-36.754-2.954C1049.729,2659.954,1025.348,2638.132,1006.589,2633.95z"/>
			<g>
				<g>
					
						<linearGradient id="SVGID_00000117660123759708594930000000857918180413519498_" gradientUnits="userSpaceOnUse" x1="1341.667" y1="2623.4895" x2="1253.0216" y2="2497.6133">
						<stop  offset="0" style="stop-color:#444B8C"/>
						<stop  offset="0.9964" style="stop-color:#26264F"/>
					</linearGradient>
					<path style="fill:url(#SVGID_00000117660123759708594930000000857918180413519498_);" d="M1094.558,2450.172l-26.493,241.227
						c-0.915,8.323,10.738,20.724,19.102,20.328l388.661-23.86c6.387-0.304,11.704-5.003,12.785-11.305l48.782-232.982
						c1.456-8.478-13.785-17.235-22.385-16.995l-407.291,11.452C1100.918,2438.229,1095.301,2443.407,1094.558,2450.172z"/>
					
						<linearGradient id="SVGID_00000139992954018368548950000000114530148999275439_" gradientUnits="userSpaceOnUse" x1="1171.6295" y1="2831.8123" x2="1365.6254" y2="2437.7585">
						<stop  offset="0" style="stop-color:#311944"/>
						<stop  offset="1" style="stop-color:#893976"/>
					</linearGradient>
					<path style="fill:url(#SVGID_00000139992954018368548950000000114530148999275439_);" d="M1103.441,2457.204l-26.495,241.229
						c-0.912,8.324,5.827,15.495,14.191,15.1l393.576-18.632c6.386-0.303,11.702-5.005,12.785-11.304l40.209-234.048
						c1.457-8.48-5.212-16.171-13.813-15.929l-407.292,11.452C1109.801,2445.262,1104.183,2450.442,1103.441,2457.204z"/>
				</g>
				
					<linearGradient id="SVGID_00000071518208056277456920000005986845391251194556_" gradientUnits="userSpaceOnUse" x1="1076.8629" y1="2578.8958" x2="1503.0461" y2="2578.8958">
					<stop  offset="0" style="stop-color:#311944"/>
					<stop  offset="1" style="stop-color:#893976"/>
				</linearGradient>
				<path style="opacity:0.3;fill:url(#SVGID_00000071518208056277456920000005986845391251194556_);" d="M1334.548,2638.375
					c-34.366-14.565-22.235-42.342-62.817-76.951c-53.536-45.66-108.105-25.858-127.208-61.248
					c-5.948-11.023-8.791-28.174,1.572-55.932l-29.494,0.829c-6.801,0.19-12.419,5.371-13.161,12.133l-26.495,241.229
					c-0.911,8.323,5.828,15.495,14.191,15.1l393.576-18.632c6.386-0.303,11.702-5.003,12.785-11.304l5.548-32.297
					c-11.942-6.646-26.211-12.688-42.862-16.066C1402.443,2623.522,1374.114,2655.144,1334.548,2638.375z"/>
			</g>
			<g>
				
					<linearGradient id="SVGID_00000016766553428948883990000004801807492599936404_" gradientUnits="userSpaceOnUse" x1="1557.2516" y1="2094.8423" x2="1566.637" y2="1844.8489" gradientTransform="matrix(0.917 0.3988 -0.3988 0.917 399.6047 -184.8945)">
					<stop  offset="0" style="stop-color:#FFC444"/>
					<stop  offset="0.9964" style="stop-color:#F36F56"/>
				</linearGradient>
				<path style="fill:url(#SVGID_00000016766553428948883990000004801807492599936404_);" d="M1032.263,2162.112
					c0.209,25.019-2.582,44.86-5.223,58.448c-3.025,15.569-5.203,19.591-7.985,22.854c-4.187,4.914-10.532,9.034-46.382,17.924
					c-19.509,4.836-22.018,4.705-22.45,6.641c-2.101,9.445,51.096,41.632,106.056,33.875c33.636-4.748,64.24-23.938,62.362-34.016
					c-1.89-10.142-35.49-4.7-45.505-23.048c-6.965-12.764,0.843-30.884,10.074-45.891
					C1074.27,2182.149,1041.202,2178.863,1032.263,2162.112z"/>
				<g>
					
						<linearGradient id="SVGID_00000018932477348608852960000005364771099048650391_" gradientUnits="userSpaceOnUse" x1="965.8478" y1="2164.29" x2="902.2165" y2="2002.6782" gradientTransform="matrix(-0.9687 -0.2485 -0.2485 0.9687 2456.1904 427.3052)">
						<stop  offset="0" style="stop-color:#311944"/>
						<stop  offset="1" style="stop-color:#6B3976"/>
					</linearGradient>
					<path style="fill:url(#SVGID_00000018932477348608852960000005364771099048650391_);" d="M1102.848,2193.924
						c10.34-8.203,15.453-25.895,9.534-39.462c-5.093-11.674-16.72-16.177-23.68-18.876c-20.17-7.817-48.669-5.969-62.78,10.793
						c-8.362,9.934-2.801,36.547-2.073,41.26c0.827,5.332,4.158,7.954,6.694,12.482c3.513,6.281,8.982,16.234,17.824,32.801
						c1.984-3.692,4.711-8.193,8.401-12.88c1.421-1.804,7.067-8.824,14.194-14.009
						C1085.242,2195.64,1093.047,2201.7,1102.848,2193.924z"/>
					
						<linearGradient id="SVGID_00000168097255856770762530000005736747633715622580_" gradientUnits="userSpaceOnUse" x1="473.5542" y1="2029.8757" x2="470.6277" y2="2265.6587" gradientTransform="matrix(0.982 0.1887 -0.1887 0.982 983.7829 102.0635)">
						<stop  offset="0" style="stop-color:#FFC444"/>
						<stop  offset="0.9964" style="stop-color:#F36F56"/>
					</linearGradient>
					<path style="fill:url(#SVGID_00000168097255856770762530000005736747633715622580_);" d="M1033.718,2217.112
						c0,0,7.83,25.989,35.51,31.306c24.783,4.76,42.585-48.961,30.041-64.612c-4.186-5.221-14.168-9.536-23.241-9.369
						c-5.359,0.1-7.592,1.733-16.351,1.724c-8.082-0.007-10-1.403-12.786-0.076c-3.484,1.661-7.113,7.013-6.502,24.231
						c-3.424-5.918-8.534-9.178-12.975-8.341c-0.708,0.135-2.678,0.836-4.069,2.317
						C1018.312,2199.647,1021.937,2209.104,1033.718,2217.112z"/>
					
						<linearGradient id="SVGID_00000131368376883363474680000010532283208488146365_" gradientUnits="userSpaceOnUse" x1="946.4064" y1="2172.0261" x2="882.713" y2="2010.2567" gradientTransform="matrix(-0.9687 -0.2485 -0.2485 0.9687 2456.1904 427.3052)">
						<stop  offset="0" style="stop-color:#311944"/>
						<stop  offset="1" style="stop-color:#6B3976"/>
					</linearGradient>
					<path style="fill:url(#SVGID_00000131368376883363474680000010532283208488146365_);" d="M1046.639,2172.531
						c0.948,1.182-3.787,4.632-5.671,10.768c-3.658,11.91,4.769,29.546,16.888,34.012c7.165,2.64,10.342-1.266,22.833,0.616
						c7.733,1.165,13.75,3.754,17.468,5.642c0.379,14.207-6.646,26.445-17.068,30.256c-11.221,4.103-22.327-3.052-26.97-6.044
						c-3.105-2.001-13.064-8.39-16.154-19.854c-3.218-11.946,4.231-16.701-0.736-25.507c-2.505-4.442-6.609-7.152-9.206-15.165
						c-0.706-2.177-1.071-4.035-1.267-5.272C1034.779,2176.958,1045.268,2170.818,1046.639,2172.531z"/>
					
						<linearGradient id="SVGID_00000057145292514957679450000015957208051164748700_" gradientUnits="userSpaceOnUse" x1="884.0673" y1="2074.5522" x2="887.3798" y2="2104.083" gradientTransform="matrix(-0.9687 -0.2485 -0.2485 0.9687 2456.1904 427.3052)">
						<stop  offset="0" style="stop-color:#FFC444"/>
						<stop  offset="1" style="stop-color:#F36F56"/>
					</linearGradient>
					<path style="fill:url(#SVGID_00000057145292514957679450000015957208051164748700_);" d="M1088.036,2226.162
						c0,0-5.98,1.378-14.941-1.501c-0.436-0.142-0.958-0.139-1.074,0.076c-0.433,0.809,4.394,6.196,10.163,6.085
						c4.097-0.08,8.009-2.919,7.735-3.973C1089.8,2226.406,1088.924,2226.232,1088.036,2226.162z"/>
				</g>
			</g>
		</g>
	</g>
</g>
</svg>
