<?xml version="1.0" encoding="utf-8"?>
<!-- Generator: Adobe Illustrator 27.5.0, SVG Export Plug-In . SVG Version: 6.00 Build 0)  -->
<svg version="1.1" xmlns="http://www.w3.org/2000/svg" xmlns:xlink="http://www.w3.org/1999/xlink" x="0px" y="0px"
	 viewBox="0 0 750 500" style="enable-background:new 0 0 750 500;" xml:space="preserve">
<g id="Background_Complete">
	<g>
		<path style="fill-rule:evenodd;clip-rule:evenodd;fill:#EBEBEB;" d="M591.491,183.275c1.343,1.003,2.527,2.171,3.535,3.463
			l4.514-0.824l2.979,6.982l-3.718,2.689c0.235,1.621,0.26,3.285,0.055,4.949l3.773,2.608l-2.831,7.044l-4.528-0.727
			c-1.003,1.344-2.172,2.528-3.464,3.535l0.824,4.514l-6.981,2.979l-2.69-3.718c-1.621,0.235-3.284,0.259-4.949,0.054l-2.607,3.773
			l-7.045-2.83l0.728-4.529c-1.344-1.003-2.527-2.171-3.535-3.463l-4.515,0.824l-2.979-6.982l3.719-2.689
			c-0.235-1.621-0.259-3.284-0.055-4.949l-3.772-2.608l2.83-7.044l4.528,0.728c1.003-1.344,2.172-2.528,3.464-3.536l-0.824-4.514
			l6.982-2.979l2.689,3.718c1.621-0.235,3.284-0.259,4.949-0.054l2.607-3.773l7.044,2.83L591.491,183.275L591.491,183.275z
			 M583.644,190.829c-4.173-1.677-8.916,0.347-10.593,4.52c-1.677,4.173,0.348,8.916,4.521,10.593
			c4.174,1.677,8.916-0.347,10.593-4.52C589.841,197.248,587.818,192.506,583.644,190.829z"/>
		<path style="fill-rule:evenodd;clip-rule:evenodd;fill:#EBEBEB;" d="M172.821,213.715c2.429,1.813,4.569,3.925,6.391,6.259
			l8.159-1.49l5.385,12.621l-6.72,4.86c0.425,2.93,0.469,5.937,0.098,8.945l6.82,4.714l-5.117,12.732l-8.184-1.314
			c-1.814,2.429-3.926,4.569-6.261,6.391l1.489,8.158l-12.62,5.386l-4.861-6.72c-2.93,0.425-5.936,0.468-8.944,0.098l-4.714,6.819
			l-12.732-5.115l1.314-8.185c-2.429-1.814-4.569-3.926-6.39-6.261l-8.159,1.489l-5.386-12.621l6.721-4.86
			c-0.425-2.93-0.468-5.936-0.098-8.944l-6.82-4.714l5.116-12.732l8.185,1.315c1.814-2.429,3.925-4.57,6.26-6.391l-1.489-8.159
			l12.62-5.386l4.861,6.721c2.93-0.425,5.936-0.468,8.944-0.098l4.714-6.82l12.733,5.115L172.821,213.715L172.821,213.715z
			 M158.64,227.368c-7.543-3.031-16.116,0.627-19.146,8.17c-3.031,7.544,0.627,16.115,8.171,19.146
			c7.544,3.03,16.116-0.627,19.147-8.171C169.841,238.971,166.184,230.398,158.64,227.368z"/>
		<path style="fill-rule:evenodd;clip-rule:evenodd;fill:#F0F0F0;" d="M139.335,149.83c1.344,1.003,2.528,2.171,3.536,3.463
			l4.514-0.824l2.98,6.982l-3.718,2.689c0.235,1.621,0.259,3.285,0.054,4.949l3.773,2.608l-2.831,7.044l-4.528-0.727
			c-1.004,1.344-2.172,2.528-3.464,3.536l0.824,4.514l-6.982,2.979l-2.689-3.718c-1.621,0.235-3.284,0.259-4.949,0.054l-2.608,3.773
			l-7.044-2.83l0.728-4.529c-1.344-1.003-2.528-2.172-3.536-3.463l-4.514,0.824l-2.979-6.982l3.718-2.689
			c-0.235-1.621-0.259-3.284-0.054-4.949l-3.773-2.608l2.83-7.044l4.528,0.728c1.003-1.344,2.171-2.528,3.463-3.536l-0.824-4.514
			l6.982-2.98l2.689,3.718c1.621-0.235,3.284-0.259,4.948-0.054l2.608-3.773l7.044,2.831L139.335,149.83L139.335,149.83z
			 M131.489,157.384c-4.174-1.677-8.916,0.347-10.593,4.52c-1.677,4.173,0.347,8.915,4.521,10.593
			c4.173,1.676,8.916-0.347,10.593-4.521C137.687,163.803,135.663,159.061,131.489,157.384z"/>
		<path style="fill-rule:evenodd;clip-rule:evenodd;fill:#E0E0E0;" d="M231.186,94.286c3.923,1.442,7.582,3.391,10.907,5.761
			l10.198-5.177l12.08,14.563l-6.971,9.066c1.714,3.706,2.954,7.663,3.646,11.784l10.866,3.549l-1.756,18.839l-11.334,1.48
			c-1.443,3.923-3.392,7.583-5.763,10.908l5.176,10.198l-14.563,12.079l-9.066-6.971c-3.706,1.714-7.662,2.953-11.783,3.646
			l-3.55,10.868l-18.839-1.756l-1.48-11.335c-3.923-1.443-7.583-3.392-10.908-5.763l-10.198,5.177l-12.08-14.563l6.972-9.066
			c-1.714-3.706-2.953-7.662-3.645-11.783l-10.868-3.55l1.756-18.84l11.335-1.48c1.443-3.923,3.392-7.582,5.762-10.908
			l-5.177-10.198l14.563-12.08l9.067,6.972c3.706-1.714,7.662-2.953,11.783-3.646l3.55-10.868l18.839,1.755L231.186,94.286
			L231.186,94.286z M217.81,117.906c-11.162-1.041-21.054,7.165-22.094,18.327c-1.04,11.162,7.165,21.053,18.327,22.093
			c11.163,1.04,21.054-7.165,22.094-18.327C237.177,128.838,228.971,118.946,217.81,117.906z"/>
	</g>
</g>
<g id="Background_Simple" style="display:none;">
	<path style="display:inline;fill:#F0F0F0;" d="M177.08,111.013c101.374-88.362,210.118,67.635,325.951,64.999
		c74.605-1.698,153.184,41.584,134.894,131.872c-26.6,131.3-237.641,115.322-348.99,78.227
		C177.587,349.017,87.312,189.258,177.08,111.013z"/>
</g>
<g id="Plant">
	<g>
		<g>
			<g>
				<path style="fill:#E8505B;" d="M152.109,406.04c12.485-8.172,15.655-23.818,15.516-37.953c-0.023-2.36,0.3-4.84-0.786-6.936
					c-1.086-2.096-3.702-3.572-5.866-2.63c-1.794,0.782-2.617,2.8-3.651,4.461c-1.375,2.209-3.388,4.017-5.732,5.146
					c-1.54,0.743-3.433,1.175-4.915,0.321c-2.033-1.171-2.207-3.986-2.135-6.331c0.135-4.37,0.27-8.739,0.404-13.108
					c0.072-2.345,0.138-4.739-0.546-6.982c-0.684-2.243-2.266-4.351-4.511-5.028c-2.245-0.679-5.072,0.54-5.605,2.824
					c-0.222,0.95-0.049,1.946-0.139,2.918c-0.09,0.972-0.576,2.038-1.52,2.287c-0.955,0.251-1.889-0.435-2.583-1.139
					c-2.395-2.427-3.984-5.517-5.465-8.587c-1.481-3.069-2.914-6.211-5.076-8.847c-2.162-2.635-5.19-4.755-8.587-5.026
					c-3.398-0.272-7.074,1.715-8.015,4.991c-0.944,3.284,0.929,6.686,2.99,9.412c3.057,4.045,6.703,7.646,10.787,10.651
					c0.736,0.543,1.535,1.129,1.8,2.005c0.478,1.575-1.062,3.093-2.638,3.568c-1.786,0.54-3.703,0.313-5.561,0.483
					s-3.885,0.93-4.628,2.641c-1.031,2.374,0.938,4.935,2.896,6.627c3.921,3.391,8.427,6.103,13.258,7.981
					c1.732,0.674,3.558,1.271,4.937,2.517c1.38,1.245,2.179,3.373,1.287,5.004c-0.893,1.634-3.091,2.109-4.914,1.73
					c-1.822-0.378-3.438-1.398-5.165-2.09c-3.235-1.295-7.457-1.173-9.617,1.563c-1.419,1.797-1.603,4.345-0.961,6.543
					c0.642,2.198,2.005,4.111,3.46,5.881c5.084,6.185,11.664,11.222,19.175,13.995C137.515,407.707,144.515,408.576,152.109,406.04"
					/>
			</g>
		</g>
		<g>
			<g>
				<g>
					<path style="fill:#263238;" d="M106.41,323.288c-0.004,0.006,0.072,0.083,0.226,0.229c0.171,0.158,0.4,0.369,0.69,0.638
						c0.609,0.558,1.507,1.381,2.633,2.471c2.257,2.174,5.423,5.438,8.838,9.884c1.715,2.215,3.491,4.72,5.35,7.442
						c1.854,2.727,3.815,5.654,5.761,8.807c1.946,3.15,3.888,6.525,5.616,10.161c0.872,1.814,1.642,3.71,2.429,5.643
						c0.782,1.931,1.575,3.892,2.378,5.874c3.184,7.944,5.966,15.617,7.914,22.768c1.96,7.145,3.069,13.751,3.488,19.335
						c0.433,5.587,0.204,10.134-0.102,13.249c-0.163,1.558-0.314,2.767-0.445,3.581c-0.056,0.392-0.1,0.699-0.133,0.931
						c-0.027,0.209-0.038,0.317-0.031,0.319c0.007,0.001,0.033-0.104,0.075-0.313c0.044-0.229,0.102-0.534,0.176-0.923
						c0.16-0.811,0.338-2.018,0.527-3.577c0.359-3.118,0.635-7.679,0.241-13.29c-0.381-5.608-1.463-12.245-3.408-19.418
						c-1.932-7.179-4.71-14.873-7.897-22.823c-0.804-1.984-1.598-3.945-2.381-5.878c-0.786-1.927-1.565-3.838-2.445-5.661
						c-1.743-3.655-3.7-7.036-5.661-10.19c-1.96-3.154-3.936-6.078-5.804-8.799c-1.875-2.717-3.669-5.217-5.405-7.427
						c-3.458-4.435-6.669-7.679-8.965-9.817c-1.146-1.073-2.063-1.877-2.692-2.413c-0.303-0.255-0.541-0.455-0.719-0.606
						C106.501,323.348,106.415,323.282,106.41,323.288z"/>
				</g>
			</g>
		</g>
		<g>
			<g>
				<g>
					<path style="fill:#263238;" d="M135.785,362.714c0.03,0.006,0.12-0.349,0.257-0.994c0.141-0.646,0.313-1.585,0.509-2.748
						c0.393-2.327,0.825-5.559,1.287-9.123c0.462-3.566,0.939-6.782,1.368-9.097c0.21-1.157,0.391-2.093,0.523-2.738
						c0.129-0.645,0.187-1.007,0.157-1.014c-0.029-0.008-0.143,0.34-0.323,0.976c-0.184,0.634-0.411,1.563-0.661,2.717
						c-0.507,2.308-1.035,5.53-1.498,9.1c-0.447,3.519-0.851,6.701-1.16,9.134c-0.147,1.098-0.271,2.023-0.371,2.765
						C135.789,362.345,135.756,362.71,135.785,362.714z"/>
				</g>
			</g>
		</g>
		<g>
			<g>
				<g>
					<path style="fill:#263238;" d="M105.378,356.351c-0.002,0.03,0.431,0.09,1.214,0.174c0.782,0.087,1.915,0.207,3.309,0.401
						c2.79,0.364,6.627,1.002,10.829,1.887c4.202,0.895,7.969,1.862,10.674,2.641c1.355,0.38,2.444,0.716,3.197,0.943
						c0.753,0.231,1.175,0.347,1.185,0.317c0.01-0.028-0.392-0.196-1.13-0.478c-0.739-0.277-1.816-0.659-3.163-1.078
						c-2.69-0.856-6.458-1.875-10.672-2.771c-4.215-0.889-8.074-1.479-10.883-1.768c-1.403-0.154-2.544-0.229-3.332-0.264
						C105.816,356.324,105.38,356.321,105.378,356.351z"/>
				</g>
			</g>
		</g>
		<g>
			<g>
				<g>
					<path style="fill:#263238;" d="M148.27,396.534c0.014,0.006,0.089-0.119,0.219-0.363c0.148-0.291,0.33-0.647,0.549-1.078
						c0.473-0.938,1.121-2.313,1.898-4.023c1.559-3.418,3.561-8.207,5.698-13.522c2.138-5.315,4.092-10.116,5.576-13.561
						c0.727-1.675,1.325-3.053,1.77-4.076c0.19-0.444,0.347-0.811,0.475-1.111c0.105-0.257,0.152-0.395,0.139-0.401
						s-0.088,0.118-0.218,0.363c-0.148,0.291-0.33,0.646-0.549,1.077c-0.473,0.939-1.121,2.314-1.898,4.024
						c-1.558,3.418-3.561,8.207-5.698,13.523c-2.138,5.314-4.091,10.114-5.576,13.56c-0.727,1.675-1.325,3.052-1.77,4.076
						c-0.189,0.444-0.346,0.811-0.475,1.111C148.305,396.389,148.256,396.527,148.27,396.534z"/>
				</g>
			</g>
		</g>
		<g>
			<g>
				<g>
					<path style="fill:#263238;" d="M107.996,382.652c-0.004,0.015,0.132,0.074,0.398,0.175c0.314,0.111,0.701,0.25,1.169,0.418
						c1.08,0.374,2.539,0.879,4.313,1.493c3.641,1.262,8.65,3.063,14.182,5.061c5.534,1.997,10.564,3.753,14.233,4.942
						c1.834,0.595,3.323,1.061,4.359,1.362c0.479,0.137,0.874,0.249,1.194,0.34c0.274,0.073,0.421,0.105,0.425,0.091
						c0.005-0.015-0.133-0.074-0.399-0.174c-0.314-0.113-0.7-0.251-1.168-0.418c-1.08-0.374-2.539-0.88-4.313-1.494
						c-3.641-1.263-8.65-3.063-14.184-5.061c-5.532-1.997-10.562-3.753-14.231-4.942c-1.834-0.595-3.324-1.06-4.359-1.362
						c-0.479-0.137-0.873-0.249-1.194-0.34C108.146,382.669,108.001,382.637,107.996,382.652z"/>
				</g>
			</g>
		</g>
	</g>
</g>
<g id="Mobile">
	<g>
		<g>
			<g>
				<g>
					<g>
						<path style="fill:#455A64;" d="M557.923,300.483l-60.334-0.278c-7.257-0.032-13.113-5.925-13.082-13.161l0.639-150.837
							c0.031-7.24,5.943-13.084,13.203-13.051l60.335,0.278c7.256,0.033,13.112,5.925,13.082,13.161l-0.64,150.838
							C571.095,294.673,565.183,300.517,557.923,300.483z"/>
					</g>
				</g>
				<g>
					<g>
						<path style="fill:#FFFFFF;" d="M558.598,128.639l-11.698-0.054c-1.568-0.007-2.846,1.313-2.853,2.948l-0.01,2.116
							c-0.006,1.635-1.284,2.956-2.853,2.948l-22.802-0.105c-1.568-0.007-2.835-1.339-2.828-2.975l0.01-2.116
							c0.007-1.635-1.26-2.967-2.828-2.974l-4.114-0.02l-10.238-0.047c-5.085-0.023-9.226,4.069-9.247,9.14l-0.624,147.228
							c-0.021,5.068,4.08,9.194,9.162,9.218l60.214,0.277c5.084,0.023,9.225-4.068,9.246-9.14l0.624-147.229
							C567.781,132.789,563.68,128.663,558.598,128.639z"/>
					</g>
				</g>
			</g>
		</g>
		<g>
			<rect x="498.032" y="228.818" style="fill:#455A64;" width="59.581" height="3.986"/>
		</g>
		<g>
			<g>
				<path style="fill:#455A64;" d="M555.488,244.51c0,0.143-12.718,0.26-28.401,0.26c-15.69,0-28.404-0.117-28.404-0.26
					c0-0.144,12.714-0.261,28.404-0.261C542.77,244.249,555.488,244.366,555.488,244.51z"/>
			</g>
		</g>
		<g>
			<g>
				<path style="fill:#455A64;" d="M555.488,149.973c0,0.144-12.718,0.26-28.401,0.26c-15.69,0-28.404-0.116-28.404-0.26
					c0-0.144,12.714-0.26,28.404-0.26C542.77,149.712,555.488,149.829,555.488,149.973z"/>
			</g>
		</g>
		<g>
			<g>
				<path style="fill:#455A64;" d="M555.488,251.765c0,0.145-12.718,0.261-28.401,0.261c-15.69,0-28.404-0.116-28.404-0.261
					c0-0.144,12.714-0.26,28.404-0.26C542.77,251.505,555.488,251.622,555.488,251.765z"/>
			</g>
		</g>
		<g>
			<g>
				<path style="fill:#455A64;" d="M555.488,259.021c0,0.144-12.718,0.26-28.401,0.26c-15.69,0-28.404-0.116-28.404-0.26
					c0-0.145,12.714-0.261,28.404-0.261C542.77,258.76,555.488,258.876,555.488,259.021z"/>
			</g>
		</g>
		<g>
			<g>
				<path style="fill:#455A64;" d="M555.488,266.276c0,0.144-12.718,0.261-28.401,0.261c-15.69,0-28.404-0.117-28.404-0.261
					c0-0.144,12.714-0.261,28.404-0.261C542.77,266.015,555.488,266.132,555.488,266.276z"/>
			</g>
		</g>
		<g>
			<g>
				<path style="fill:#455A64;" d="M555.488,273.531c0,0.145-12.718,0.261-28.401,0.261c-15.69,0-28.404-0.116-28.404-0.261
					c0-0.144,12.714-0.26,28.404-0.26C542.77,273.271,555.488,273.387,555.488,273.531z"/>
			</g>
		</g>
		<g>
			<g>
				<path style="fill:#455A64;" d="M556.3,281.757c0,0.144-12.718,0.261-28.401,0.261c-15.69,0-28.404-0.117-28.404-0.261
					c0-0.143,12.715-0.261,28.404-0.261C543.583,281.497,556.3,281.614,556.3,281.757z"/>
			</g>
		</g>
		<g>
			<g>
				<g>
					<g>
						<rect x="498.682" y="158.246" style="fill:#E0E0E0;" width="59.731" height="57.789"/>
					</g>
				</g>
			</g>
			<g>
				<g>
					<g>
						<polygon style="fill:#E8505B;" points="503.313,211.088 519.836,181.351 533.352,200.358 541.564,190.264 553.782,211.088 
													"/>
					</g>
				</g>
			</g>
			<g>
				<g>
					<g>
						<path style="fill:#E8505B;" d="M539.109,175.567c0,2.374-1.925,4.299-4.299,4.299c-2.374,0-4.299-1.925-4.299-4.299
							c0-2.374,1.925-4.298,4.299-4.298C537.184,171.269,539.109,173.193,539.109,175.567z"/>
					</g>
				</g>
			</g>
			<g>
				<g>
					<g>
						<g>
							<path style="fill:#455A64;" d="M553.782,211.249c-0.004-0.005-0.009-0.084-0.014-0.237c-0.003-0.173-0.008-0.393-0.014-0.674
								c-0.007-0.615-0.016-1.482-0.028-2.601c-0.015-2.291-0.036-5.606-0.063-9.814c-0.03-8.441-0.073-20.461-0.125-34.893
								l0.244,0.244c-14.617,0.012-31.943,0.026-50.464,0.041c-0.068,0.059,0.534-0.535,0.279-0.276v0.013v0.026v0.052v0.103v0.207
								v0.412v0.823v1.641c0,1.092,0,2.18,0,3.262c-0.001,2.165-0.001,4.311-0.002,6.435c-0.003,4.247-0.005,8.405-0.007,12.453
								c-0.01,8.093-0.019,15.745-0.027,22.784l-0.248-0.248c15.063,0.052,27.645,0.096,36.49,0.126
								c4.411,0.028,7.889,0.049,10.292,0.064c1.175,0.013,2.086,0.023,2.73,0.029c0.296,0.006,0.526,0.01,0.707,0.014
								C553.694,211.24,553.778,211.244,553.782,211.249c0.005,0.004-0.069,0.009-0.221,0.014c-0.174,0.003-0.396,0.008-0.681,0.014
								c-0.633,0.006-1.528,0.017-2.682,0.029c-2.392,0.015-5.851,0.037-10.236,0.065c-8.884,0.031-21.521,0.074-36.649,0.126
								l-0.248,0.001v-0.249c-0.008-7.039-0.018-14.69-0.027-22.784c-0.002-4.048-0.005-8.206-0.007-12.453
								c-0.001-2.124-0.001-4.269-0.002-6.435c0-1.083,0-2.17,0-3.262v-1.641l-0.001-0.823v-0.412v-0.207v-0.103v-0.052v-0.026
								v-0.013c-0.253,0.25,0.346-0.356,0.29-0.293c18.52,0.015,35.847,0.029,50.464,0.04l0.245,0l-0.001,0.245
								c-0.052,14.496-0.095,26.569-0.125,35.048c-0.026,4.185-0.049,7.48-0.063,9.759c-0.012,1.098-0.021,1.95-0.028,2.554
								c-0.006,0.27-0.01,0.481-0.014,0.647C553.792,211.183,553.787,211.253,553.782,211.249z"/>
						</g>
					</g>
				</g>
			</g>
		</g>
	</g>
</g>
<g id="Tablet">
	<g>
		<g>
			<g>
				<path style="fill:#455A64;" d="M468.777,71.975V205.2c0,6.378-5.171,11.549-11.55,11.549H255.989
					c-6.379,0-11.549-5.171-11.549-11.549V71.975c0-6.378,5.17-11.549,11.549-11.549h201.238
					C463.606,60.425,468.777,65.596,468.777,71.975z"/>
			</g>
			<g>
				
					<rect x="280.23" y="44.913" transform="matrix(6.123234e-17 -1 1 6.123234e-17 214.8747 492.0491)" style="fill:#FFFFFF;" width="146.464" height="187.349"/>
			</g>
			<g>
				<path style="fill:#263238;" d="M457.503,132.589c3.313,0,5.998,2.686,5.998,5.998c0,3.313-2.686,5.998-5.998,5.998
					s-5.998-2.685-5.998-5.998C451.505,135.274,454.191,132.589,457.503,132.589z"/>
			</g>
			<g>
				<path style="fill:#263238;" d="M253.378,116.261v44.652c0,0.671-0.544,1.215-1.215,1.215h-0.047
					c-0.671,0-1.215-0.544-1.215-1.215v-44.652c0-0.671,0.544-1.215,1.215-1.215h0.047
					C252.835,115.046,253.378,115.59,253.378,116.261z"/>
			</g>
		</g>
		<g>
			<g>
				<rect x="345.237" y="76.361" style="fill:#455A64;" width="59.581" height="3.985"/>
			</g>
			<g>
				<rect x="267.63" y="144.886" style="fill:#455A64;" width="59.581" height="3.986"/>
			</g>
			<g>
				<g>
					<path style="fill:#455A64;" d="M419.335,91.204c0,0.144-16.589,0.261-37.047,0.261c-20.466,0-37.051-0.117-37.051-0.261
						c0-0.144,16.585-0.26,37.051-0.26C402.746,90.943,419.335,91.06,419.335,91.204z"/>
				</g>
			</g>
			<g>
				<g>
					<path style="fill:#455A64;" d="M419.335,99.907c0,0.143-16.589,0.26-37.047,0.26c-20.466,0-37.051-0.117-37.051-0.26
						c0-0.144,16.585-0.261,37.051-0.261C402.746,99.646,419.335,99.763,419.335,99.907z"/>
				</g>
			</g>
			<g>
				<g>
					<path style="fill:#455A64;" d="M419.335,108.61c0,0.144-16.589,0.26-37.047,0.26c-20.466,0-37.051-0.117-37.051-0.26
						c0-0.144,16.585-0.26,37.051-0.26C402.746,108.35,419.335,108.466,419.335,108.61z"/>
				</g>
			</g>
			<g>
				<g>
					<path style="fill:#455A64;" d="M419.335,117.313c0,0.144-16.589,0.26-37.047,0.26c-20.466,0-37.051-0.117-37.051-0.26
						c0-0.144,16.585-0.26,37.051-0.26C402.746,117.053,419.335,117.17,419.335,117.313z"/>
				</g>
			</g>
			<g>
				<g>
					<path style="fill:#455A64;" d="M419.335,126.017c0,0.144-16.589,0.26-37.047,0.26c-20.466,0-37.051-0.117-37.051-0.26
						c0-0.144,16.585-0.261,37.051-0.261C402.746,125.756,419.335,125.873,419.335,126.017z"/>
				</g>
			</g>
			<g>
				<g>
					<path style="fill:#455A64;" d="M403.085,134.72c0,0.143-12.95,0.26-28.922,0.26c-15.977,0-28.925-0.117-28.925-0.26
						c0-0.144,12.948-0.261,28.925-0.261C390.134,134.459,403.085,134.576,403.085,134.72z"/>
				</g>
			</g>
			<g>
				<g>
					<path style="fill:#455A64;" d="M365.482,160.578c0,0.144-21.761,0.26-48.598,0.26c-26.847,0-48.603-0.116-48.603-0.26
						c0-0.144,21.756-0.26,48.603-0.26C343.721,160.317,365.482,160.434,365.482,160.578z"/>
				</g>
			</g>
			<g>
				<g>
					<path style="fill:#455A64;" d="M365.482,167.833c0,0.144-21.761,0.26-48.598,0.26c-26.847,0-48.603-0.117-48.603-0.26
						c0-0.144,21.756-0.26,48.603-0.26C343.721,167.573,365.482,167.689,365.482,167.833z"/>
				</g>
			</g>
			<g>
				<g>
					<path style="fill:#455A64;" d="M365.482,175.088c0,0.144-21.761,0.26-48.598,0.26c-26.847,0-48.603-0.117-48.603-0.26
						c0-0.144,21.756-0.261,48.603-0.261C343.721,174.828,365.482,174.944,365.482,175.088z"/>
				</g>
			</g>
			<g>
				<g>
					<path style="fill:#455A64;" d="M365.482,182.343c0,0.144-21.761,0.261-48.598,0.261c-26.847,0-48.603-0.117-48.603-0.261
						c0-0.144,21.756-0.26,48.603-0.26C343.721,182.083,365.482,182.2,365.482,182.343z"/>
				</g>
			</g>
			<g>
				<g>
					<path style="fill:#455A64;" d="M365.482,189.599c0,0.144-21.761,0.261-48.598,0.261c-26.847,0-48.603-0.117-48.603-0.261
						c0-0.144,21.756-0.26,48.603-0.26C343.721,189.338,365.482,189.455,365.482,189.599z"/>
				</g>
			</g>
			<g>
				<g>
					<g>
						<g>
							<rect x="268.28" y="74.313" style="fill:#E8505B;" width="59.731" height="57.789"/>
						</g>
					</g>
				</g>
				<g>
					<g>
						<g>
							<polygon style="fill:#E0E0E0;" points="272.912,127.156 289.435,97.419 302.95,116.425 311.163,106.332 323.38,127.156 
															"/>
						</g>
					</g>
				</g>
				<g>
					<g>
						<g>
							<path style="fill:#E0E0E0;" d="M308.707,91.634c0,2.374-1.924,4.299-4.298,4.299c-2.374,0-4.298-1.924-4.298-4.299
								c0-2.374,1.924-4.298,4.298-4.298C306.783,87.336,308.707,89.26,308.707,91.634z"/>
						</g>
					</g>
				</g>
				<g>
					<g>
						<g>
							<g>
								<path style="fill:#455A64;" d="M323.38,127.317c-0.004-0.004-0.009-0.085-0.014-0.237c-0.003-0.173-0.008-0.394-0.014-0.674
									c-0.007-0.615-0.016-1.483-0.028-2.601c-0.015-2.292-0.036-5.606-0.063-9.814c-0.03-8.441-0.073-20.461-0.125-34.893
									l0.244,0.244c-14.617,0.012-31.944,0.026-50.464,0.04c-0.068,0.06,0.534-0.535,0.279-0.276v0.013v0.026v0.052V79.3v0.206
									v0.412v0.823v1.641c0,1.092-0.001,2.18-0.001,3.263c0,2.165-0.001,4.311-0.002,6.434c-0.002,4.247-0.004,8.405-0.007,12.453
									c-0.01,8.093-0.019,15.745-0.027,22.784l-0.248-0.248c15.063,0.053,27.645,0.096,36.49,0.126
									c4.41,0.028,7.888,0.049,10.292,0.065c1.175,0.012,2.086,0.022,2.73,0.029c0.295,0.006,0.527,0.01,0.707,0.014
									C323.292,127.307,323.376,127.312,323.38,127.317c0.005,0.004-0.07,0.009-0.221,0.014c-0.174,0.003-0.397,0.008-0.681,0.015
									c-0.633,0.006-1.528,0.016-2.682,0.028c-2.391,0.015-5.85,0.037-10.236,0.065c-8.884,0.031-21.521,0.074-36.649,0.126
									l-0.248,0.001v-0.249c-0.008-7.039-0.018-14.691-0.027-22.784c-0.002-4.048-0.005-8.206-0.007-12.453
									c0-2.123-0.001-4.269-0.001-6.434c-0.001-1.083-0.001-2.17-0.001-3.263v-1.641l0-0.823v-0.412V79.3v-0.104v-0.052v-0.026
									v-0.013c-0.253,0.25,0.346-0.356,0.29-0.292c18.52,0.015,35.847,0.028,50.464,0.04l0.245,0.001l-0.001,0.244
									c-0.052,14.496-0.095,26.569-0.125,35.048c-0.027,4.185-0.048,7.481-0.063,9.759c-0.012,1.098-0.022,1.95-0.028,2.554
									c-0.005,0.269-0.01,0.481-0.014,0.647C323.39,127.251,323.385,127.321,323.38,127.317z"/>
							</g>
						</g>
					</g>
				</g>
			</g>
			<g>
				<g>
					<g>
						<g>
							<rect x="378.888" y="152.553" style="fill:#E8505B;" width="42.273" height="40.898"/>
						</g>
					</g>
				</g>
				<g>
					<g>
						<g>
							<polygon style="fill:#E0E0E0;" points="382.167,189.95 393.86,168.905 403.425,182.357 409.237,175.213 417.883,189.95 
															"/>
						</g>
					</g>
				</g>
				<g>
					<g>
						<g>
							<path style="fill:#E0E0E0;" d="M407.499,164.811c0,1.68-1.362,3.042-3.042,3.042c-1.681,0-3.042-1.362-3.042-3.042
								c0-1.68,1.361-3.042,3.042-3.042C406.137,161.77,407.499,163.131,407.499,164.811z"/>
						</g>
					</g>
				</g>
				<g>
					<g>
						<g>
							<g>
								<path style="fill:#455A64;" d="M417.883,190.064c-0.003-0.003-0.006-0.06-0.01-0.168c-0.002-0.122-0.005-0.278-0.009-0.477
									c-0.005-0.436-0.012-1.049-0.02-1.841c-0.011-1.622-0.025-3.967-0.045-6.945c-0.021-5.974-0.052-14.48-0.089-24.694
									l0.173,0.173c-10.344,0.008-22.606,0.018-35.714,0.029c-0.048,0.042,0.378-0.379,0.198-0.196v0.009v0.018v0.037v0.073v0.146
									v0.292v0.583v1.162c0,0.773-0.001,1.542-0.001,2.309c0,1.533,0,3.051-0.001,4.554c-0.002,3.006-0.003,5.948-0.005,8.813
									c-0.007,5.728-0.014,11.143-0.02,16.124l-0.175-0.175c10.66,0.037,19.564,0.068,25.824,0.089
									c3.121,0.02,5.583,0.035,7.284,0.046c0.831,0.009,1.476,0.016,1.933,0.02c0.209,0.004,0.372,0.007,0.5,0.01
									C417.821,190.058,417.88,190.061,417.883,190.064c0.004,0.003-0.049,0.006-0.156,0.01c-0.123,0.003-0.28,0.006-0.481,0.01
									c-0.448,0.004-1.081,0.011-1.898,0.02c-1.691,0.011-4.14,0.026-7.244,0.046c-6.287,0.022-15.23,0.053-25.937,0.089l-0.176,0
									v-0.176c-0.006-4.981-0.013-10.397-0.02-16.124c-0.001-2.865-0.003-5.807-0.005-8.813c0-1.503-0.001-3.021-0.001-4.554
									c0-0.766,0-1.536,0-2.309v-1.162l-0.001-0.583v-0.292v-0.146v-0.073v-0.037v-0.018v-0.009
									c-0.18,0.177,0.245-0.252,0.205-0.207c13.107,0.01,25.37,0.02,35.714,0.028h0.174l-0.001,0.173
									c-0.036,10.259-0.066,18.804-0.088,24.804c-0.02,2.961-0.035,5.294-0.045,6.907c-0.009,0.777-0.016,1.38-0.021,1.807
									c-0.004,0.191-0.007,0.34-0.01,0.458C417.89,190.018,417.887,190.067,417.883,190.064z"/>
							</g>
						</g>
					</g>
				</g>
			</g>
		</g>
	</g>
</g>
<g id="Computer">
	<g>
		<g>
			<g>
				<g>
					<path style="fill:#263238;" d="M451.594,439.927H167.141c-8.045,0-14.567-6.522-14.567-14.567V247.122
						c0-8.045,6.522-14.567,14.567-14.567h284.454c8.045,0,14.567,6.522,14.567,14.567V425.36
						C466.162,433.406,459.639,439.927,451.594,439.927z"/>
				</g>
				<g>
					<path style="fill:#263238;" d="M461.411,442.735H157.257c-9.83,0-17.798-7.968-17.798-17.798v-0.347h339.749v0.347
						C479.208,434.767,471.24,442.735,461.411,442.735z"/>
				</g>
				<g>
					<rect x="160.991" y="240.794" style="fill:#E0E0E0;" width="295.876" height="175.122"/>
				</g>
				<g>
					<polygon style="fill:#455A64;" points="278.454,424.59 282.67,431.296 341.994,431.296 345.909,424.59 					"/>
				</g>
			</g>
			<g>
				<rect x="170.858" y="252.456" style="fill:#FAFAFA;" width="272.412" height="163.393"/>
			</g>
			<g>
				<path style="fill:#455A64;" d="M182.486,260.514c0,1.262-1.023,2.285-2.286,2.285c-1.262,0-2.285-1.023-2.285-2.285
					c0-1.263,1.023-2.286,2.285-2.286C181.463,258.228,182.486,259.251,182.486,260.514z"/>
			</g>
			<g>
				<path style="fill:#455A64;" d="M191.813,260.514c0,1.262-1.023,2.285-2.286,2.285c-1.262,0-2.286-1.023-2.286-2.285
					c0-1.263,1.023-2.286,2.286-2.286C190.79,258.228,191.813,259.251,191.813,260.514z"/>
			</g>
			<g>
				<path style="fill:#455A64;" d="M201.141,260.514c0,1.262-1.023,2.285-2.286,2.285c-1.262,0-2.286-1.023-2.286-2.285
					c0-1.263,1.023-2.286,2.286-2.286C200.117,258.228,201.141,259.251,201.141,260.514z"/>
			</g>
			<g>
				<g>
					<path style="fill:#455A64;" d="M443.27,270.514c0,0.144-60.986,0.26-136.199,0.26c-75.239,0-136.212-0.116-136.212-0.26
						c0-0.145,60.973-0.261,136.212-0.261C382.284,270.253,443.27,270.37,443.27,270.514z"/>
				</g>
			</g>
			<g>
				<rect x="152.573" y="424.73" style="fill:#455A64;" width="313.588" height="1"/>
			</g>
		</g>
		<g>
			<g>
				<rect x="193.193" y="349.898" style="fill:#455A64;" width="59.581" height="3.985"/>
			</g>
			<g>
				<rect x="270.15" y="294.562" style="fill:#455A64;" width="59.581" height="3.986"/>
			</g>
			<g>
				<g>
					<path style="fill:#455A64;" d="M418.345,309.406c0,0.143-33.178,0.261-74.094,0.261c-40.931,0-74.101-0.117-74.101-0.261
						c0-0.144,33.17-0.261,74.101-0.261C385.167,309.145,418.345,309.262,418.345,309.406z"/>
				</g>
			</g>
			<g>
				<g>
					<path style="fill:#455A64;" d="M418.345,318.109c0,0.144-33.178,0.261-74.094,0.261c-40.931,0-74.101-0.117-74.101-0.261
						c0-0.143,33.17-0.261,74.101-0.261C385.167,317.848,418.345,317.965,418.345,318.109z"/>
				</g>
			</g>
			<g>
				<g>
					<path style="fill:#455A64;" d="M418.345,326.812c0,0.144-33.178,0.261-74.094,0.261c-40.931,0-74.101-0.117-74.101-0.261
						c0-0.144,33.17-0.261,74.101-0.261C385.167,326.551,418.345,326.668,418.345,326.812z"/>
				</g>
			</g>
			<g>
				<g>
					<path style="fill:#455A64;" d="M418.345,335.515c0,0.143-33.178,0.261-74.094,0.261c-40.931,0-74.101-0.117-74.101-0.261
						c0-0.144,33.17-0.261,74.101-0.261C385.167,335.254,418.345,335.372,418.345,335.515z"/>
				</g>
			</g>
			<g>
				<g>
					<path style="fill:#455A64;" d="M418.345,344.218c0,0.143-33.178,0.261-74.094,0.261c-40.931,0-74.101-0.117-74.101-0.261
						c0-0.144,33.17-0.261,74.101-0.261C385.167,343.957,418.345,344.075,418.345,344.218z"/>
				</g>
			</g>
			<g>
				<g>
					<path style="fill:#455A64;" d="M327.998,352.921c0,0.144-12.951,0.261-28.923,0.261c-15.978,0-28.925-0.117-28.925-0.261
						c0-0.143,12.948-0.261,28.925-0.261C315.047,352.661,327.998,352.778,327.998,352.921z"/>
				</g>
			</g>
			<g>
				<g>
					<path style="fill:#455A64;" d="M417.261,369.812c0,0.144-21.807,0.261-48.7,0.261c-26.903,0-48.705-0.117-48.705-0.261
						c0-0.144,21.802-0.261,48.705-0.261C395.455,369.551,417.261,369.668,417.261,369.812z"/>
				</g>
			</g>
			<g>
				<g>
					<path style="fill:#455A64;" d="M417.261,379.05c0,0.145-21.807,0.261-48.7,0.261c-26.903,0-48.705-0.116-48.705-0.261
						c0-0.143,21.802-0.26,48.705-0.26C395.455,378.791,417.261,378.907,417.261,379.05z"/>
				</g>
			</g>
			<g>
				<g>
					<path style="fill:#455A64;" d="M417.261,388.29c0,0.143-21.807,0.26-48.7,0.26c-26.903,0-48.705-0.116-48.705-0.26
						c0-0.145,21.802-0.261,48.705-0.261C395.455,388.029,417.261,388.145,417.261,388.29z"/>
				</g>
			</g>
			<g>
				<g>
					<path style="fill:#455A64;" d="M417.261,397.528c0,0.143-21.807,0.26-48.7,0.26c-26.903,0-48.705-0.116-48.705-0.26
						c0-0.145,21.802-0.261,48.705-0.261C395.455,397.267,417.261,397.383,417.261,397.528z"/>
				</g>
			</g>
			<g>
				<g>
					<path style="fill:#455A64;" d="M252.925,368.928c0,0.144-12.999,0.261-29.031,0.261c-16.037,0-29.034-0.117-29.034-0.261
						c0-0.143,12.997-0.261,29.034-0.261C239.925,368.668,252.925,368.785,252.925,368.928z"/>
				</g>
			</g>
			<g>
				<g>
					<path style="fill:#455A64;" d="M252.925,376.183c0,0.145-12.999,0.261-29.031,0.261c-16.037,0-29.034-0.116-29.034-0.261
						c0-0.143,12.997-0.26,29.034-0.26C239.925,375.923,252.925,376.04,252.925,376.183z"/>
				</g>
			</g>
			<g>
				<g>
					<path style="fill:#455A64;" d="M252.925,383.439c0,0.143-12.999,0.261-29.031,0.261c-16.037,0-29.034-0.117-29.034-0.261
						c0-0.144,12.997-0.261,29.034-0.261C239.925,383.178,252.925,383.295,252.925,383.439z"/>
				</g>
			</g>
			<g>
				<g>
					<path style="fill:#455A64;" d="M252.925,390.694c0,0.145-12.999,0.261-29.031,0.261c-16.037,0-29.034-0.116-29.034-0.261
						c0-0.144,12.997-0.26,29.034-0.26C239.925,390.434,252.925,390.55,252.925,390.694z"/>
				</g>
			</g>
			<g>
				<g>
					<path style="fill:#455A64;" d="M252.925,397.95c0,0.144-12.999,0.26-29.031,0.26c-16.037,0-29.034-0.116-29.034-0.26
						c0-0.145,12.997-0.261,29.034-0.261C239.925,397.689,252.925,397.805,252.925,397.95z"/>
				</g>
			</g>
			<g>
				<g>
					<g>
						<g>
							<rect x="193.193" y="281.54" style="fill:#E0E0E0;" width="59.731" height="57.789"/>
						</g>
					</g>
				</g>
				<g>
					<g>
						<g>
							<polygon style="fill:#E8505B;" points="197.825,334.382 214.348,304.645 227.863,323.652 236.076,313.558 248.294,334.382 
															"/>
						</g>
					</g>
				</g>
				<g>
					<g>
						<g>
							<path style="fill:#E8505B;" d="M233.62,298.861c0,2.374-1.924,4.299-4.298,4.299c-2.374,0-4.299-1.925-4.299-4.299
								c0-2.374,1.925-4.299,4.299-4.299C231.696,294.562,233.62,296.487,233.62,298.861z"/>
						</g>
					</g>
				</g>
				<g>
					<g>
						<g>
							<g>
								<path style="fill:#455A64;" d="M248.294,334.543c-0.004-0.005-0.009-0.085-0.014-0.237
									c-0.003-0.173-0.008-0.394-0.014-0.674c-0.007-0.614-0.016-1.482-0.028-2.6c-0.015-2.291-0.036-5.605-0.063-9.815
									c-0.03-8.44-0.073-20.461-0.125-34.893l0.244,0.244c-14.617,0.012-31.944,0.025-50.464,0.041
									c-0.068,0.06,0.534-0.535,0.279-0.277v0.014v0.025v0.052v0.103v0.206v0.412v0.823v1.642c0,1.092-0.001,2.179-0.001,3.262
									c-0.001,2.166-0.001,4.311-0.002,6.435c-0.002,4.247-0.004,8.404-0.007,12.452c-0.01,8.094-0.019,15.745-0.027,22.784
									l-0.248-0.247c15.063,0.052,27.645,0.096,36.49,0.126c4.411,0.027,7.888,0.049,10.292,0.065
									c1.175,0.013,2.086,0.022,2.73,0.029c0.295,0.006,0.527,0.011,0.707,0.014C248.205,334.534,248.289,334.539,248.294,334.543
									c0.005,0.004-0.07,0.009-0.221,0.014c-0.174,0.004-0.396,0.009-0.681,0.015c-0.633,0.006-1.528,0.016-2.682,0.028
									c-2.391,0.016-5.85,0.037-10.236,0.065c-8.884,0.03-21.52,0.073-36.649,0.125l-0.248,0.001v-0.249
									c-0.008-7.039-0.018-14.69-0.027-22.784c-0.002-4.048-0.005-8.205-0.007-12.452c0-2.123-0.001-4.269-0.001-6.435
									c-0.001-1.083-0.001-2.17-0.001-3.262v-1.642l-0.001-0.823v-0.412v-0.206v-0.103v-0.052v-0.025v-0.014
									c-0.253,0.25,0.346-0.355,0.29-0.292c18.52,0.015,35.847,0.028,50.464,0.04h0.245l-0.001,0.244
									c-0.052,14.496-0.095,26.569-0.124,35.049c-0.027,4.185-0.049,7.48-0.064,9.759c-0.012,1.098-0.021,1.95-0.028,2.554
									c-0.006,0.27-0.011,0.481-0.014,0.647C248.303,334.477,248.298,334.547,248.294,334.543z"/>
							</g>
						</g>
					</g>
				</g>
			</g>
			<g>
				<g>
					<g>
						<g>
							<rect x="270.114" y="365.404" style="fill:#E0E0E0;" width="42.272" height="40.898"/>
						</g>
					</g>
				</g>
				<g>
					<g>
						<g>
							<polygon style="fill:#E8505B;" points="273.391,402.802 285.085,381.756 294.65,395.207 300.462,388.065 309.108,402.802 
															"/>
						</g>
					</g>
				</g>
				<g>
					<g>
						<g>
							<path style="fill:#E8505B;" d="M298.724,377.663c0,1.681-1.362,3.043-3.042,3.043c-1.68,0-3.042-1.362-3.042-3.043
								c0-1.68,1.362-3.042,3.042-3.042C297.362,374.621,298.724,375.983,298.724,377.663z"/>
						</g>
					</g>
				</g>
				<g>
					<g>
						<g>
							<g>
								<path style="fill:#455A64;" d="M309.108,402.916c-0.003-0.003-0.006-0.06-0.01-0.167c-0.002-0.123-0.005-0.279-0.009-0.478
									c-0.005-0.435-0.012-1.049-0.02-1.84c-0.011-1.622-0.026-3.968-0.045-6.946c-0.022-5.974-0.052-14.48-0.089-24.693
									l0.173,0.172c-10.344,0.009-22.607,0.019-35.714,0.029c-0.048,0.042,0.378-0.379,0.198-0.196v0.01v0.018v0.037v0.073v0.145
									v0.292v0.582v1.162c0,0.773,0,1.542,0,2.309c0,1.532-0.001,3.051-0.002,4.554c-0.001,3.006-0.003,5.948-0.004,8.813
									c-0.007,5.728-0.014,11.144-0.02,16.125l-0.175-0.176c10.66,0.037,19.564,0.068,25.825,0.09
									c3.121,0.02,5.582,0.035,7.284,0.046c0.832,0.009,1.476,0.016,1.933,0.021c0.209,0.004,0.372,0.007,0.501,0.01
									C309.046,402.909,309.105,402.913,309.108,402.916c0.004,0.003-0.049,0.007-0.156,0.01
									c-0.124,0.003-0.281,0.006-0.482,0.011c-0.448,0.004-1.082,0.011-1.898,0.02c-1.692,0.011-4.14,0.026-7.245,0.047
									c-6.287,0.021-15.23,0.052-25.937,0.089h-0.175v-0.176c-0.006-4.981-0.013-10.397-0.019-16.125
									c-0.002-2.864-0.004-5.807-0.005-8.813c0-1.503-0.001-3.021-0.001-4.554c0-0.767,0-1.536,0-2.309v-1.162l-0.001-0.582
									v-0.292v-0.145v-0.073v-0.037v-0.018v-0.01c-0.179,0.177,0.245-0.252,0.205-0.207c13.107,0.011,25.37,0.021,35.714,0.028
									l0.174,0.001l0,0.173c-0.037,10.259-0.067,18.803-0.089,24.804c-0.019,2.961-0.034,5.294-0.045,6.906
									c-0.009,0.777-0.015,1.38-0.02,1.808c-0.004,0.19-0.007,0.341-0.01,0.458C309.115,402.869,309.112,402.918,309.108,402.916z
									"/>
							</g>
						</g>
					</g>
				</g>
			</g>
		</g>
	</g>
</g>
<g id="Character">
	<g>
		<g>
			<g>
				<g>
					<path style="fill:#E8505B;" d="M665.35,424.998l-10.012-1.188l-2.345,18.74l14.63,1.892l0.22-1.152
						c0.934-5.135,4.387-26.177,3.772-29.765C670.927,409.523,665.35,424.998,665.35,424.998z"/>
				</g>
			</g>
			<g>
				<g>
					<g>
						<path style="fill:#263238;" d="M670.75,412.183c0.177,0.021-0.512,7.053-1.537,15.705c-1.026,8.654-2.002,15.651-2.179,15.63
							c-0.177-0.021,0.511-7.052,1.537-15.706C669.597,419.16,670.573,412.162,670.75,412.183z"/>
					</g>
				</g>
			</g>
			<g>
				<g>
					<g>
						<path style="fill:#263238;" d="M667.433,424.12c-0.103,0.144-0.625-0.056-1.1-0.521c-0.477-0.464-0.687-0.983-0.546-1.088
							c0.145-0.109,0.559,0.2,0.997,0.626C667.22,423.566,667.54,423.974,667.433,424.12z"/>
					</g>
				</g>
			</g>
			<g>
				<g>
					<g>
						<path style="fill:#263238;" d="M668.235,423.001c-0.083,0.155-0.676-0.002-1.257-0.446c-0.584-0.442-0.894-0.971-0.766-1.093
							c0.13-0.125,0.617,0.171,1.156,0.579C667.906,422.453,668.322,422.843,668.235,423.001z"/>
					</g>
				</g>
			</g>
			<g>
				<g>
					<g>
						<path style="fill:#263238;" d="M667.638,437.86c0.044,0.08-0.253,0.33-0.746,0.688c-0.488,0.36-1.175,0.829-1.775,1.473
							c-0.595,0.641-0.941,1.368-1.074,1.921c-0.14,0.555-0.106,0.934-0.202,0.953c-0.074,0.024-0.283-0.351-0.249-1.02
							c0.026-0.66,0.367-1.559,1.052-2.293c0.681-0.729,1.458-1.16,2.016-1.427C667.223,437.891,667.594,437.785,667.638,437.86z"/>
					</g>
				</g>
			</g>
			<g>
				<g>
					<g>
						<path style="fill:#263238;" d="M665.557,423.839c0.161-0.071,0.479,0.298,0.604,0.855c0.125,0.556-0.006,1.024-0.182,1.028
							c-0.181,0.006-0.338-0.398-0.449-0.888C665.422,424.344,665.392,423.912,665.557,423.839z"/>
					</g>
				</g>
			</g>
			<g>
				<g>
					<g>
						<path style="fill:#263238;" d="M664.555,424.019c0.179,0.005,0.27,0.522,0.203,1.156c-0.066,0.634-0.264,1.121-0.439,1.088
							c-0.175-0.032-0.266-0.55-0.203-1.155C664.18,424.501,664.378,424.014,664.555,424.019z"/>
					</g>
				</g>
			</g>
		</g>
		<g>
			<polygon style="fill:#263238;" points="659.248,444.043 603.815,438.423 488.885,440.994 519.444,416.352 596.155,412.667 
				663.222,421.909 			"/>
		</g>
		<g>
			<g>
				<path style="fill:#455A64;" d="M565.559,428.653c0,0.145-10.789,0.261-24.095,0.261c-13.311,0-24.097-0.116-24.097-0.261
					c0-0.144,10.786-0.26,24.097-0.26C554.77,428.393,565.559,428.509,565.559,428.653z"/>
			</g>
		</g>
		<g>
			<polygon points="560.195,414.394 564.142,439.184 571.698,439.184 565.946,414.119 			"/>
		</g>
		<g>
			<g>
				<g>
					<path style="fill:#E8505B;" d="M589.458,439.51l-1.121-10.02l-18.782,1.98l1.485,14.677l1.173-0.049
						c5.213-0.259,26.488-1.684,29.842-3.099C605.794,441.42,589.458,439.51,589.458,439.51z"/>
				</g>
			</g>
			<g>
				<g>
					<g>
						<path style="fill:#263238;" d="M602.395,442.034c0.02,0.176-6.984,1.107-15.643,2.075c-8.661,0.97-15.696,1.611-15.717,1.435
							c-0.02-0.177,6.983-1.106,15.644-2.076C595.339,442.498,602.375,441.856,602.395,442.034z"/>
					</g>
				</g>
			</g>
			<g>
				<g>
					<g>
						<path style="fill:#263238;" d="M590.017,441.518c-0.163-0.067-0.089-0.621,0.257-1.189c0.344-0.569,0.802-0.893,0.935-0.779
							c0.14,0.116-0.067,0.59-0.383,1.114C590.507,441.185,590.183,441.588,590.017,441.518z"/>
					</g>
				</g>
			</g>
			<g>
				<g>
					<g>
						<path style="fill:#263238;" d="M591.289,442.044c-0.171-0.045-0.152-0.658,0.148-1.325c0.299-0.669,0.743-1.091,0.891-0.994
							c0.151,0.098-0.025,0.64-0.301,1.258C591.748,441.6,591.461,442.093,591.289,442.044z"/>
					</g>
				</g>
			</g>
			<g>
				<g>
					<g>
						<path style="fill:#263238;" d="M576.683,444.844c-0.067,0.06-0.379-0.172-0.839-0.57c-0.462-0.394-1.074-0.955-1.838-1.395
							c-0.759-0.434-1.547-0.604-2.115-0.607c-0.571-0.012-0.933,0.108-0.975,0.019c-0.039-0.066,0.278-0.355,0.937-0.475
							c0.649-0.124,1.602,0.003,2.473,0.503c0.864,0.497,1.461,1.156,1.849,1.639C576.559,444.447,576.748,444.784,576.683,444.844z
							"/>
					</g>
				</g>
			</g>
			<g>
				<g>
					<g>
						<path style="fill:#263238;" d="M589.863,439.628c0.107,0.14-0.181,0.534-0.694,0.781c-0.513,0.248-0.999,0.228-1.043,0.058
							c-0.047-0.175,0.312-0.42,0.763-0.641C589.34,439.611,589.755,439.483,589.863,439.628z"/>
					</g>
				</g>
			</g>
			<g>
				<g>
					<g>
						<path style="fill:#263238;" d="M589.459,438.693c0.036,0.175-0.447,0.382-1.079,0.461c-0.632,0.08-1.151-0.002-1.159-0.181
							c-0.009-0.178,0.475-0.384,1.079-0.46C588.905,438.437,589.424,438.518,589.459,438.693z"/>
					</g>
				</g>
			</g>
		</g>
		<g>
			<g>
				<g>
					<path style="fill:#B78876;" d="M479.516,325.125l16.027-0.29c0.214-1.855,0.525-9.068,0.525-9.068s6.7-0.622,7.191-7.251
						c0.491-6.63,0.281-21.936,0.281-21.936l0,0c-7.477-3.774-16.41-3.207-23.35,1.482l-1.03,0.696L479.516,325.125z"/>
				</g>
				<g>
					<g>
						<path style="fill:#263238;" d="M501.311,297.887c-0.372-0.382-0.364-0.992,0.018-1.365c0.382-0.372,0.992-0.363,1.365,0.018
							c0.372,0.382,0.363,0.993-0.018,1.365C502.294,298.277,501.683,298.269,501.311,297.887z"/>
					</g>
					<g>
						<g>
							<path style="fill:#263238;" d="M503.012,296.472c-0.11,0.108-0.731-0.433-1.645-0.494c-0.913-0.073-1.605,0.371-1.7,0.247
								c-0.046-0.055,0.07-0.256,0.374-0.458c0.297-0.201,0.798-0.382,1.367-0.34c0.568,0.042,1.037,0.294,1.302,0.537
								C502.981,296.208,503.066,296.424,503.012,296.472z"/>
						</g>
					</g>
				</g>
				<g>
					<g>
						<path style="fill:#263238;" d="M492.436,296.62c0.435,0.307,0.541,0.908,0.233,1.345c-0.307,0.436-0.908,0.541-1.345,0.234
							c-0.435-0.307-0.541-0.909-0.234-1.345C491.397,296.418,491.999,296.313,492.436,296.62z"/>
					</g>
					<g>
						<g>
							<path style="fill:#263238;" d="M493.038,296.665c-0.111,0.108-0.731-0.433-1.645-0.494c-0.913-0.074-1.606,0.371-1.7,0.247
								c-0.046-0.055,0.07-0.256,0.373-0.458c0.298-0.201,0.798-0.382,1.367-0.34c0.569,0.042,1.038,0.294,1.303,0.537
								C493.005,296.401,493.091,296.617,493.038,296.665z"/>
						</g>
					</g>
				</g>
				<g>
					<g>
						<path style="fill:#263238;" d="M496.237,304.429c-0.002-0.072,0.57-0.151,1.497-0.222c0.24-0.012,0.432-0.054,0.457-0.182
							c0.052-0.142-0.025-0.402-0.129-0.695c-0.198-0.618-0.398-1.244-0.608-1.9c-0.835-2.707-1.4-4.936-1.263-4.978
							c0.137-0.043,0.925,2.116,1.76,4.823c0.196,0.661,0.384,1.291,0.569,1.914c0.071,0.281,0.217,0.614,0.069,1.001
							c-0.078,0.193-0.275,0.325-0.436,0.357c-0.161,0.038-0.296,0.03-0.411,0.028C496.814,304.551,496.239,304.501,496.237,304.429
							z"/>
					</g>
				</g>
				<g>
					<path style="fill:#FFFFFF;" d="M493.206,305.255c-0.917-0.626,2.535,1.555,4.401,1.579c0,0-1.173,1.639-3.042,0.821
						C492.624,306.806,493.206,305.255,493.206,305.255z"/>
				</g>
				<g>
					<path style="fill:#A36957;" d="M496.086,315.671c0,0-4.215,0.083-8.498-2.991c0,0,1.75,4.9,8.407,4.711L496.086,315.671z"/>
				</g>
			</g>
		</g>
		<g>
			<path style="fill:#263238;" d="M504.023,284.193c1.522-0.044,2.752-1.744,2.317-3.203c-0.434-1.458-2.393-2.21-3.691-1.416
				c0.745-0.706,1.511-1.441,1.903-2.39c0.393-0.947,0.311-2.173-0.47-2.839c-0.769-0.656-1.941-0.568-2.871-0.171
				c-1.41,0.602-2.521,1.792-3.969,2.296c-1.464,0.509-3.066,0.252-4.614,0.32c-1.712,0.074-3.44,0.58-4.776,1.651
				c-1.337,1.072-2.232,2.753-2.136,4.463c-2.164-0.268-4.565-0.3-6.276,1.051c-1.444,1.14-2.082,3.067-2.087,4.907
				c-0.005,1.839,0.757,3.584,1.296,5.343V294.2c0.322,1.025,0.662,1.385,0.662,1.385l0.807,4.757l2.955-0.057l-0.191-9.908
				c0,0-0.297-4.172,3.294-3.807c3.591,0.365,8.472,4.416,15.466,3.395c1.132-0.165,2.312-0.292,3.259-0.935
				c0.947-0.643,1.628-1.766,1.496-2.902C506.264,284.991,505.149,283.985,504.023,284.193z"/>
		</g>
		<g>
			<g>
				<path style="fill:#B78876;" d="M480.436,294.645c-0.145-0.055-4.923-0.676-4.472,4.967c0.452,5.643,6.001,3.32,5.998,3.158
					C481.96,302.607,480.436,294.645,480.436,294.645z"/>
			</g>
			<g>
				<g>
					<path style="fill:#A36957;" d="M480.076,300.928c-0.026-0.017-0.093,0.076-0.253,0.166c-0.156,0.087-0.431,0.16-0.733,0.074
						c-0.614-0.172-1.191-1.078-1.3-2.093c-0.056-0.513,0.013-1.01,0.162-1.43c0.14-0.427,0.383-0.736,0.679-0.814
						c0.293-0.093,0.521,0.07,0.602,0.223c0.089,0.152,0.061,0.268,0.093,0.275c0.017,0.013,0.113-0.104,0.049-0.334
						c-0.032-0.11-0.108-0.238-0.25-0.336c-0.145-0.1-0.348-0.14-0.555-0.1c-0.434,0.064-0.793,0.496-0.957,0.957
						c-0.189,0.464-0.277,1.024-0.215,1.6c0.127,1.134,0.794,2.151,1.628,2.322c0.405,0.071,0.728-0.074,0.888-0.222
						C480.076,301.065,480.096,300.936,480.076,300.928z"/>
				</g>
			</g>
		</g>
		<g>
			<path style="fill:#455A64;" d="M466.542,424.029c3.005,4.47,21.192,31.849,42.904,11.943
				c27.675-25.372,49.592-47.576,49.592-47.576l8.218,50.151l25.77-1.395c0,0-10.037-74.676-16.388-81.466
				c-7.083-7.573-13.611-6.935-69.284,36.994L466.542,424.029z"/>
		</g>
		<g>
			<g>
				<polygon style="fill:#263238;" points="558.681,338.956 582.736,321.404 583.92,323.29 560.021,341.057 				"/>
			</g>
			<g>
				<path style="fill:#B78876;" d="M564.625,338.416c0,0,3.228-8.398,3.954-10.188c0.727-1.789,1.955-4.905,2.414-4.968
					c0.459-0.063,2.141,0.2-0.056,5.543c-2.195,5.343,2.599,2.077,2.599,2.077l4.633-3.315c0,0,3.664,10.936,1.577,14.23
					c-2.252,3.555-5.488,6.957-5.488,6.957L564.625,338.416z"/>
			</g>
			<g>
				<path style="fill:#E8505B;" d="M564.896,337.445c-0.476-1.097-31.072,25.93-37.161,26.847l-17.842-23.234
					c0,0-3.707-5.876-11.657-15.937c-5.132-6.494-19.294-5.145-23.018,2.767c-6.323,13.439-6.394,28.385-9.766,57.457l-1.424,19.617
					c-0.304,4.183-0.268,8.387,0.191,12.555c0.537,4.876,1.643,9.962,3.904,9.276l40.806-33.733l1.309-15.319
					c8.582,8.699,11.248,10.517,15.714,9.825c11.232-1.74,50.534-37.092,50.534-37.092S565.371,338.542,564.896,337.445z"/>
			</g>
			<g>
				<g>
					<path style="fill:#263238;" d="M571.195,355.424c-0.043,0.051-0.904-0.576-2.194-1.716c-1.289-1.138-2.989-2.809-4.694-4.81
						c-1.703-2.003-3.082-3.948-3.999-5.402c-0.92-1.455-1.401-2.405-1.345-2.439c0.067-0.04,0.658,0.841,1.649,2.233
						c0.99,1.394,2.402,3.286,4.091,5.271c1.689,1.982,3.332,3.678,4.55,4.878C570.469,354.64,571.245,355.366,571.195,355.424z"/>
				</g>
			</g>
			<g>
				<g>
					<path style="fill:#263238;" d="M526.001,373.501c-0.142-0.025,0.109-2.107,0.562-4.649c0.452-2.543,0.933-4.584,1.075-4.559
						c0.141,0.025-0.11,2.106-0.563,4.649C526.624,371.485,526.143,373.526,526.001,373.501z"/>
				</g>
			</g>
			<g>
				<g>
					<path style="fill:#263238;" d="M529.896,372.543c-0.139,0.038-0.744-1.75-1.352-3.993c-0.607-2.244-0.988-4.093-0.85-4.131
						c0.14-0.037,0.744,1.75,1.352,3.994C529.655,370.656,530.035,372.505,529.896,372.543z"/>
				</g>
			</g>
			<g>
				<g>
					<path style="fill:#263238;" d="M485.717,345.144c0.029-0.021,0.394,0.44,1.028,1.29c0.684,0.926,1.583,2.143,2.669,3.612
						c2.25,3.053,5.383,7.25,8.895,11.848c3.508,4.549,6.681,8.664,9.049,11.735c1.111,1.452,2.031,2.653,2.73,3.567
						c0.638,0.849,0.977,1.328,0.948,1.351c-0.027,0.022-0.421-0.415-1.107-1.225c-0.686-0.809-1.665-1.992-2.861-3.464
						c-2.393-2.944-5.657-7.047-9.174-11.649c-3.515-4.601-6.604-8.838-8.779-11.948c-1.088-1.554-1.954-2.822-2.536-3.71
						C485.996,345.665,485.687,345.165,485.717,345.144z"/>
				</g>
			</g>
			<g>
				<g>
					<path style="fill:#263238;" d="M480.499,364.9c-0.096,0.107-1.382-0.89-2.871-2.225c-1.49-1.337-2.62-2.506-2.524-2.613
						c0.096-0.107,1.382,0.889,2.872,2.225C479.465,363.623,480.596,364.793,480.499,364.9z"/>
				</g>
			</g>
			<g>
				<g>
					<path style="fill:#263238;" d="M476.989,376.171c0.119,0.08-0.681,1.474-1.787,3.112c-1.106,1.639-2.101,2.901-2.22,2.821
						c-0.119-0.081,0.682-1.474,1.788-3.113C475.876,377.354,476.87,376.09,476.989,376.171z"/>
				</g>
			</g>
			<g>
				<g>
					<path style="fill:#263238;" d="M481.917,391.72c-0.11,0.092-1.017-0.807-2.023-2.007c-1.008-1.201-1.734-2.25-1.625-2.342
						c0.11-0.093,1.017,0.806,2.023,2.007C481.299,390.58,482.026,391.628,481.917,391.72z"/>
				</g>
			</g>
			<g>
				<g>
					<path style="fill:#263238;" d="M472.399,401.692c0.081,0.119-0.922,0.939-2.239,1.829c-1.317,0.891-2.45,1.517-2.53,1.397
						c-0.081-0.119,0.922-0.938,2.239-1.829C471.185,402.199,472.319,401.573,472.399,401.692z"/>
				</g>
			</g>
			<g>
				<g>
					<path style="fill:#263238;" d="M485.708,404.328c-0.07,0.115-1.431-0.669-2.662-2.131c-1.241-1.455-1.79-2.926-1.665-2.976
						c0.137-0.068,0.871,1.245,2.063,2.639C484.624,403.263,485.798,404.204,485.708,404.328z"/>
				</g>
			</g>
			<g>
				<g>
					<path style="fill:#263238;" d="M498.117,394.907c0.094,0.109-1.053,1.239-2.559,2.522c-1.507,1.283-2.804,2.235-2.897,2.125
						c-0.093-0.109,1.053-1.238,2.56-2.521C496.727,395.75,498.024,394.797,498.117,394.907z"/>
				</g>
			</g>
			<g>
				<g>
					<path style="fill:#263238;" d="M472.582,413.104c-0.074,0.116-1.189-0.49-2.268-1.602c-1.085-1.105-1.665-2.233-1.548-2.305
						c0.126-0.082,0.877,0.879,1.92,1.941C471.723,412.207,472.667,412.981,472.582,413.104z"/>
				</g>
			</g>
			<g>
				<g>
					<path style="fill:#263238;" d="M500.33,386.013c0.052,0.13-1.147,0.707-2.741,1.046c-1.594,0.346-2.924,0.311-2.931,0.172
						c-0.01-0.148,1.271-0.345,2.821-0.681C499.031,386.22,500.279,385.875,500.33,386.013z"/>
				</g>
			</g>
			<g>
				<g>
					<path style="fill:#263238;" d="M491.087,375.495c0.137,0.055-0.369,1.625-0.979,3.558c-0.529,1.668-0.967,3.068-1.168,3.395
						l-0.111-0.027c0.032-0.059,0.059-0.084,0.077-0.08c0.02,0.005,0.031,0.039,0.035,0.106l-0.112-0.027
						c-0.025-0.381,0.248-1.838,0.783-3.522C490.228,376.941,490.958,375.442,491.087,375.495z"/>
				</g>
			</g>
			<g>
				<g>
					<path style="fill:#263238;" d="M494.979,368.818c-0.084,0.117-1.409-0.699-2.959-1.821c-1.551-1.123-2.739-2.127-2.654-2.243
						c0.084-0.117,1.409,0.698,2.959,1.821C493.875,367.697,495.064,368.702,494.979,368.818z"/>
				</g>
			</g>
			<g>
				<g>
					<path style="fill:#263238;" d="M487.041,354.116c0.122,0.07-0.48,1.321-1.48,2.701c-0.998,1.383-1.997,2.346-2.103,2.253
						c-0.111-0.097,0.698-1.197,1.681-2.558C486.123,355.154,486.915,354.041,487.041,354.116z"/>
				</g>
			</g>
			<g>
				<g>
					<path style="fill:#263238;" d="M474.823,352.12c-0.143-0.012-0.134-1.529,0.022-3.389c0.155-1.859,0.396-3.357,0.54-3.345
						c0.144,0.012,0.134,1.528-0.02,3.389C475.208,350.633,474.966,352.131,474.823,352.12z"/>
				</g>
			</g>
			<g>
				<g>
					<path style="fill:#263238;" d="M470.075,374.157c-0.143,0.002-0.287-1.629-0.321-3.644c-0.033-2.015,0.057-3.649,0.2-3.652
						c0.143-0.002,0.287,1.629,0.32,3.643C470.308,372.519,470.218,374.154,470.075,374.157z"/>
				</g>
			</g>
			<g>
				<g>
					<path style="fill:#263238;" d="M469.41,395.301c-0.139,0.039-0.539-0.933-0.893-2.17c-0.355-1.238-0.53-2.273-0.393-2.314
						c0.139-0.039,0.538,0.932,0.893,2.17C469.372,394.225,469.547,395.261,469.41,395.301z"/>
				</g>
			</g>
			<g>
				<g>
					<path style="fill:#263238;" d="M486.246,335.628c0.088,0.121-1.154,1.158-2.573,2.547c-1.426,1.383-2.494,2.598-2.613,2.506
						c-0.11-0.081,0.794-1.466,2.25-2.879C484.759,336.383,486.167,335.514,486.246,335.628z"/>
				</g>
			</g>
			<g>
				<g>
					<path style="fill:#263238;" d="M479.097,333.239c-0.143-0.006-0.197-1.488-0.119-3.311c0.077-1.822,0.256-3.295,0.4-3.289
						c0.144,0.007,0.197,1.488,0.119,3.312C479.42,331.773,479.241,333.246,479.097,333.239z"/>
				</g>
			</g>
			<g>
				<g>
					<path style="fill:#263238;" d="M496.619,330.86c-0.097,0.112-1.279-0.761-2.772-1.775c-1.489-1.019-2.733-1.801-2.664-1.932
						c0.063-0.125,1.44,0.464,2.958,1.502C495.661,329.688,496.711,330.755,496.619,330.86z"/>
				</g>
			</g>
			<g>
				<g>
					<path style="fill:#263238;" d="M492.813,343.34c-0.145,0.003-0.292-1.565-0.331-3.502c-0.038-1.938,0.047-3.51,0.19-3.513
						c0.144-0.003,0.292,1.564,0.33,3.502C493.042,341.764,492.957,343.337,492.813,343.34z"/>
				</g>
			</g>
			<g>
				<g>
					<path style="fill:#263238;" d="M503.075,350.641c-0.055,0.138-1.377-0.271-3.027-0.663c-1.649-0.398-3.013-0.633-2.999-0.781
						c0.01-0.139,1.429-0.134,3.12,0.275C501.861,349.875,503.128,350.513,503.075,350.641z"/>
				</g>
			</g>
			<g>
				<g>
					<path style="fill:#263238;" d="M503.772,343.2c-0.145,0.001-0.273-1.317-0.287-2.943c-0.014-1.628,0.091-2.947,0.234-2.948
						c0.145-0.002,0.272,1.316,0.287,2.943C504.02,341.878,503.916,343.198,503.772,343.2z"/>
				</g>
			</g>
			<g>
				<g>
					<path style="fill:#263238;" d="M511.587,355.687c-0.143,0.007-0.333-1.652-0.424-3.705c-0.091-2.053-0.047-3.722,0.097-3.729
						c0.143-0.006,0.333,1.652,0.424,3.706C511.774,354.011,511.731,355.68,511.587,355.687z"/>
				</g>
			</g>
			<g>
				<g>
					<path style="fill:#263238;" d="M505.58,359.914c-0.107,0.096-0.919-0.643-1.811-1.647c-0.893-1.006-1.529-1.898-1.422-1.994
						c0.107-0.096,0.919,0.643,1.812,1.648C505.05,358.925,505.687,359.818,505.58,359.914z"/>
				</g>
			</g>
			<g>
				<g>
					<path style="fill:#263238;" d="M513.179,365.667c0.011,0.143-1.3,0.357-2.926,0.479c-1.627,0.121-2.954,0.104-2.965-0.04
						c-0.011-0.144,1.299-0.358,2.926-0.479C511.841,365.504,513.169,365.523,513.179,365.667z"/>
				</g>
			</g>
			<g>
				<g>
					<path style="fill:#263238;" d="M518.902,368.592c-0.144,0.006-0.315-1.467-0.385-3.287c-0.068-1.821-0.008-3.302,0.137-3.308
						c0.144-0.005,0.315,1.467,0.384,3.288C519.106,367.106,519.045,368.587,518.902,368.592z"/>
				</g>
			</g>
			<g>
				<g>
					<path style="fill:#263238;" d="M524.544,379.54c0.001,0.14-1.633,0.252-3.631,0.024c-1.999-0.223-3.566-0.695-3.534-0.831
						c0.031-0.145,1.625,0.095,3.593,0.313C522.937,379.271,524.544,379.391,524.544,379.54z"/>
				</g>
			</g>
			<g>
				<g>
					<path style="fill:#263238;" d="M534.236,374.489c0.136,0.047-0.253,1.531-0.868,3.314c-0.616,1.783-1.226,3.191-1.361,3.145
						c-0.136-0.048,0.253-1.531,0.869-3.315C533.491,375.85,534.1,374.442,534.236,374.489z"/>
				</g>
			</g>
			<g>
				<g>
					<path style="fill:#263238;" d="M541.234,365.652c-0.038,0.139-1.421-0.123-3.088-0.583c-1.667-0.461-2.987-0.947-2.949-1.086
						c0.039-0.139,1.421,0.123,3.088,0.584C539.952,365.027,541.272,365.513,541.234,365.652z"/>
				</g>
			</g>
			<g>
				<g>
					<path style="fill:#263238;" d="M546.848,369.013c0.096,0.107-0.875,1.125-2.167,2.271c-1.292,1.147-2.417,1.989-2.512,1.882
						c-0.096-0.107,0.874-1.124,2.166-2.272C545.628,369.749,546.753,368.906,546.848,369.013z"/>
				</g>
			</g>
			<g>
				<g>
					<path style="fill:#263238;" d="M549.103,360.732c-0.131,0.045-0.716-1.367-1.044-3.212c-0.335-1.845-0.278-3.371-0.14-3.375
						c0.149-0.007,0.324,1.478,0.652,3.282C548.893,359.233,549.245,360.686,549.103,360.732z"/>
				</g>
			</g>
			<g>
				<g>
					<path style="fill:#263238;" d="M559.802,358.833c0.091,0.119-1.394,1.386-3.107,3.061c-1.72,1.671-3.022,3.123-3.14,3.028
						c-0.108-0.084,1.03-1.704,2.776-3.401C558.072,359.821,559.72,358.722,559.802,358.833z"/>
				</g>
			</g>
			<g>
				<g>
					<path style="fill:#263238;" d="M560.858,355.032c-0.052,0.135-1.533-0.303-3.309-0.977c-1.776-0.674-3.175-1.329-3.124-1.464
						c0.051-0.135,1.532,0.303,3.309,0.977C559.51,354.242,560.909,354.897,560.858,355.032z"/>
				</g>
			</g>
			<g>
				<g>
					<path style="fill:#263238;" d="M559.836,350.891c-0.139,0.04-0.608-1.172-1.049-2.706c-0.44-1.534-0.685-2.81-0.548-2.85
						c0.139-0.04,0.607,1.172,1.049,2.706C559.729,349.576,559.974,350.852,559.836,350.891z"/>
				</g>
			</g>
			<g>
				<g>
					<path style="fill:#263238;" d="M503.857,379.704c-0.117,0.083-0.959-0.902-1.88-2.2c-0.921-1.298-1.572-2.418-1.455-2.501
						c0.117-0.084,0.959,0.901,1.88,2.2C503.323,378.5,503.974,379.62,503.857,379.704z"/>
				</g>
			</g>
		</g>
		<g>
			<g>
				<path style="fill:#263238;" d="M580.097,430.08c-0.009,0.001-0.035-0.143-0.077-0.427c-0.043-0.307-0.101-0.725-0.176-1.259
					c-0.148-1.134-0.363-2.761-0.638-4.844c-0.565-4.205-1.38-10.291-2.59-17.778c-1.214-7.485-2.816-16.378-5.103-26.138
					c-0.255-1.241-0.625-2.409-1.197-3.533c-0.613-1.095-1.426-2.086-2.397-2.923c-1.976-1.618-4.615-2.567-7.28-2.356
					c-1.323,0.087-2.657,0.412-3.856,1.046c-1.201,0.601-2.293,1.489-3.436,2.318c-2.261,1.681-4.556,3.387-6.877,5.113
					c-9.261,6.947-17.934,13.761-25.666,20.148c-7.753,6.368-14.491,12.369-20.146,17.443c-2.862,2.46-5.912,4.432-9.006,4.747
					c-1.523,0.195-2.966-0.07-4.192-0.504c-1.229-0.451-2.249-1.087-3.11-1.713c-1.714-1.276-2.836-2.502-3.604-3.311
					c-0.361-0.4-0.643-0.714-0.852-0.944c-0.188-0.217-0.28-0.33-0.273-0.336c0.006-0.007,0.112,0.095,0.313,0.3
					c0.217,0.222,0.511,0.522,0.888,0.908c0.79,0.783,1.935,1.982,3.648,3.218c0.859,0.606,1.871,1.219,3.075,1.644
					c1.201,0.409,2.6,0.652,4.075,0.449c2.992-0.331,5.971-2.274,8.8-4.737c5.606-5.096,12.341-11.144,20.079-17.534
					c7.722-6.412,16.393-13.242,25.659-20.194c2.323-1.727,4.619-3.433,6.883-5.113c1.136-0.822,2.229-1.718,3.513-2.362
					c1.26-0.662,2.663-1.005,4.053-1.095c2.799-0.215,5.563,0.782,7.633,2.485c1.018,0.879,1.868,1.921,2.509,3.072
					c0.597,1.165,0.988,2.438,1.233,3.655c2.265,9.782,3.831,18.69,4.999,26.189c1.165,7.501,1.925,13.597,2.428,17.811
					c0.232,2.089,0.415,3.72,0.541,4.857c0.053,0.537,0.094,0.957,0.124,1.266C580.098,429.932,580.106,430.079,580.097,430.08z"/>
			</g>
		</g>
		<g>
			<g>
				<path style="fill:#263238;" d="M591.782,429.522c0.002,0.035-0.357,0.09-1.005,0.158c-0.648,0.068-1.589,0.146-2.751,0.228
					c-2.325,0.164-5.54,0.329-9.09,0.483c-3.482,0.15-6.63,0.285-9.091,0.392c-1.071,0.039-1.989,0.073-2.757,0.102
					c-0.651,0.017-1.014,0.008-1.016-0.027c-0.003-0.036,0.353-0.097,1.001-0.175c0.647-0.08,1.587-0.171,2.748-0.268
					c2.323-0.193,5.538-0.389,9.091-0.543c3.482-0.127,6.632-0.242,9.095-0.331c1.071-0.024,1.99-0.046,2.758-0.063
					C591.417,429.472,591.779,429.486,591.782,429.522z"/>
			</g>
		</g>
		<g>
			<g>
				<path style="fill:#263238;" d="M566.154,380.58c0.111,0.075-1.479,2.532-3.917,5.181c-2.431,2.657-4.741,4.453-4.826,4.35
					c-0.101-0.116,2.037-2.071,4.442-4.701C564.265,382.788,566.03,380.49,566.154,380.58z"/>
			</g>
		</g>
		<g>
			<g>
				<path style="fill:#263238;" d="M567.122,383.617c0.069,0.13-1.883,1.303-4.266,2.778c-2.388,1.473-4.31,2.693-4.395,2.572
					c-0.082-0.113,1.718-1.533,4.12-3.015C564.981,384.467,567.056,383.493,567.122,383.617z"/>
			</g>
		</g>
		<g>
			<g>
				<path style="fill:#455A64;" d="M651.37,432.101c-0.002,0.018-0.213,0.013-0.611-0.013c-0.454-0.037-1.031-0.083-1.742-0.14
					c-1.579-0.15-3.748-0.355-6.398-0.607c-5.458-0.568-12.884-1.343-21.089-2.199c-8.236-0.864-15.681-1.822-21.089-2.09
					c-2.704-0.143-4.897-0.128-6.411-0.077c-0.711,0.031-1.288,0.057-1.743,0.077c-0.398,0.018-0.609,0.02-0.611,0.001
					c-0.002-0.017,0.205-0.054,0.603-0.105c0.396-0.058,0.983-0.112,1.741-0.175c1.517-0.113,3.72-0.185,6.438-0.089
					c5.443,0.176,12.891,1.076,21.126,1.94c8.199,0.915,15.619,1.742,21.073,2.351c2.644,0.32,4.807,0.582,6.382,0.772
					c0.707,0.097,1.28,0.175,1.732,0.236C651.165,432.043,651.371,432.083,651.37,432.101z"/>
			</g>
		</g>
		<g>
			<g>
				<path style="fill:#455A64;" d="M650.1,443.276c-0.143-0.017,0.31-5.033,1.011-11.203c0.7-6.173,1.385-11.162,1.527-11.146
					c0.144,0.016-0.31,5.031-1.011,11.204C650.927,438.301,650.243,443.292,650.1,443.276z"/>
			</g>
		</g>
	</g>
</g>
</svg>
