<?xml version="1.0" encoding="utf-8"?>
<!-- Generator: Adobe Illustrator 27.5.0, SVG Export Plug-In . SVG Version: 6.00 Build 0)  -->
<svg version="1.1" xmlns="http://www.w3.org/2000/svg" xmlns:xlink="http://www.w3.org/1999/xlink" x="0px" y="0px"
	 viewBox="0 0 500 500" style="enable-background:new 0 0 500 500;" xml:space="preserve">
<g id="Floor">
	<path style="fill:#F5F5F5;" d="M412.321,247.867c-90.234-52.097-236.056-52.096-325.704,0.002
		C-3.036,299.97-2.561,384.435,87.673,436.532c90.24,52.1,236.062,52.099,325.715-0.002
		C503.036,384.433,502.561,299.967,412.321,247.867z"/>
</g>
<g id="Shadows_1_">
	<path style="fill:#E0E0E0;" d="M47.927,357.718c6.674-3.854,17.46-3.853,24.091,0c6.631,3.854,6.596,10.101-0.078,13.955
		c-6.675,3.854-17.461,3.853-24.092,0C41.217,367.82,41.252,361.572,47.927,357.718z"/>
	<path style="fill:#E0E0E0;" d="M439.122,330.198c7-4.041,18.311-4.041,25.265,0c6.954,4.041,6.918,10.593-0.082,14.635
		c-7,4.041-18.311,4.041-25.266,0C432.086,340.791,432.123,334.239,439.122,330.198z"/>
	<g>
		<polygon style="fill:#E0E0E0;" points="328.706,260.645 72.35,410.343 61.489,404.073 317.845,254.374 		"/>
	</g>
	<path style="fill:#E0E0E0;" d="M396.868,340.026c-24.986-14.426-65.365-14.426-90.189,0c-21.935,12.747-24.372,32.486-7.41,46.862
		c-13.685-0.848-27.868,1.76-38.32,7.834c-18.345,10.661-18.248,27.945,0.216,38.605c18.465,10.661,48.304,10.661,66.65,0
		c14.595-8.482,17.503-21.153,8.788-31.349c21.033,3.042,44.182-0.192,60.561-9.711
		C421.987,377.841,421.856,354.452,396.868,340.026z"/>
</g>
<g id="Pictures">
	<g>
		<g>
			<g>
				<polygon style="fill:none;" points="114.094,93.271 79.01,113.526 79.087,140.34 114.17,120.084 				"/>
				<polygon style="fill:#F0F0F0;" points="114.094,93.271 114.17,120.084 117.419,121.973 117.332,91.4 				"/>
				<polygon style="fill:#F5F5F5;" points="79.087,140.34 79.097,144.098 117.419,121.973 114.17,120.084 				"/>
				<path style="fill:#E0E0E0;" d="M121.247,84.628l-46.176,26.66l0.112,39.591l46.176-26.66L121.247,84.628z M79.097,144.098
					l-0.011-3.758l-0.076-26.814l35.083-20.255l3.239-1.87l0.087,30.572L79.097,144.098z"/>
				<polygon style="fill:#F5F5F5;" points="121.247,84.628 117.997,82.739 71.821,109.399 75.071,111.287 				"/>
				<polygon style="fill:#F0F0F0;" points="71.821,109.399 71.933,148.989 75.183,150.878 75.071,111.287 				"/>
			</g>
			<g>
				<g style="enable-background:new    ;">
					<g>
						<polygon style="fill:#E0E0E0;" points="102.946,103.452 112.514,110.985 112.535,118.344 80.713,136.717 80.692,129.357 
							86.757,117.312 92.202,121.54 90.277,127.522 93.071,122.21 						"/>
					</g>
					<g>
						<path style="fill:#E0E0E0;" d="M92.494,107.161c1.498-0.865,2.716-0.17,2.721,1.551c0.005,1.721-1.206,3.818-2.703,4.682
							c-1.498,0.865-2.716,0.17-2.721-1.551C89.786,110.122,90.996,108.026,92.494,107.161z"/>
					</g>
				</g>
			</g>
		</g>
		<g>
			<g>
				<polygon style="fill:none;" points="389.651,169.562 424.734,189.817 424.658,216.631 389.575,196.376 				"/>
				<polygon style="fill:#F0F0F0;" points="389.651,169.562 389.575,196.376 386.325,198.264 386.412,167.692 				"/>
				<polygon style="fill:#F5F5F5;" points="424.658,216.631 424.647,220.39 386.325,198.264 389.575,196.376 				"/>
				<path style="fill:#E0E0E0;" d="M382.385,200.51l46.176,26.66l0.112-39.59l-46.176-26.66L382.385,200.51z M386.325,198.264
					l0.087-30.572l3.239,1.87l35.083,20.255l-0.076,26.814l-0.011,3.758L386.325,198.264z"/>
				<polygon style="fill:#F5F5F5;" points="382.498,160.919 385.747,159.031 431.924,185.691 428.674,187.579 				"/>
				<polygon style="fill:#F0F0F0;" points="431.924,185.691 431.811,225.281 428.562,227.169 428.674,187.579 				"/>
			</g>
			<g>
				<g style="enable-background:new    ;">
					<g>
						<polygon style="fill:#E0E0E0;" points="400.798,179.743 391.23,187.276 391.209,194.636 423.032,213.008 423.052,205.649 
							416.988,193.604 411.543,197.831 413.468,203.813 410.673,198.502 						"/>
					</g>
					<g>
						<path style="fill:#E0E0E0;" d="M411.251,183.452c-1.498-0.865-2.716-0.17-2.721,1.551c-0.005,1.721,1.206,3.818,2.704,4.682
							c1.497,0.865,2.716,0.17,2.721-1.551C413.959,186.414,412.748,184.317,411.251,183.452z"/>
					</g>
				</g>
			</g>
		</g>
		<g>
			<path style="fill:none;" d="M168.298,109.808c0.002-0.001,0.004-0.002,0.005-0.003c0.419-0.199,0.839-0.403,1.259-0.617l0,0
				C169.141,109.403,168.719,109.608,168.298,109.808z"/>
			<path style="fill:none;" d="M167.842,110.028c-0.001,0-0.001,0-0.001,0.001c0.154-0.071,0.308-0.15,0.462-0.223
				c-0.002,0.001-0.004,0.002-0.005,0.003C168.146,109.88,167.994,109.958,167.842,110.028z"/>
			<polygon style="fill:none;" points="182.612,57.563 173.018,63.102 163.268,68.731 173.018,63.102 			"/>
			<polygon style="fill:none;" points="182.701,89.187 182.676,80.287 182.653,72.154 182.676,80.287 			"/>
			<path style="fill:none;" d="M169.563,109.188c0.088-0.045,0.175-0.084,0.263-0.129
				C169.738,109.105,169.65,109.144,169.563,109.188L169.563,109.188z"/>
			<polygon style="fill:none;" points="182.812,128.209 182.791,120.765 182.772,114.253 182.791,120.765 			"/>
			<path style="fill:none;" d="M164.117,111.561c1.233-0.442,2.476-0.955,3.725-1.532c0,0,0.001-0.001,0.001-0.001
				C166.594,110.605,165.35,111.119,164.117,111.561z"/>
			<polygon style="fill:none;" points="154.12,85.029 154.201,113.622 154.248,130.192 154.201,113.622 			"/>
			<path style="fill:#EBEBEB;" d="M182.791,120.765l-0.018-6.511c-0.1,0.056-0.198,0.112-0.298,0.17
				c-0.181,0.104-0.362,0.212-0.543,0.321c-4.812,2.904-9.637,7.469-14.134,12.402c-0.745,0.817-1.481,1.644-2.206,2.476
				c-3.789,4.342-7.496,8.934-11.308,13.237l0.03,10.521l4.589-2.65C165.1,139.032,173.612,128.357,182.791,120.765z"/>
			<path style="fill:#EBEBEB;" d="M182.837,136.911l-0.025-8.702c-3.865,4.041-7.277,9.066-9.759,14.351L182.837,136.911z"/>
			<path style="fill:#FAFAFA;" d="M173.052,142.56c2.483-5.284,5.895-10.31,9.759-14.351l-0.021-7.444
				c-9.179,7.593-17.691,18.267-23.888,29.964L173.052,142.56L173.052,142.56z"/>
			
				<line style="fill:none;stroke:#808080;stroke-width:0;stroke-linecap:round;stroke-linejoin:round;" x1="167.842" y1="110.028" x2="167.841" y2="110.029"/>
			
				<line style="fill:none;stroke:#808080;stroke-width:0;stroke-linecap:round;stroke-linejoin:round;" x1="168.298" y1="109.808" x2="168.304" y2="109.805"/>
			<path style="fill:#FAFAFA;" d="M163.453,111.793c0.22-0.075,0.442-0.152,0.663-0.232c1.234-0.442,2.477-0.956,3.726-1.533
				c0.152-0.07,0.304-0.148,0.456-0.22c0.421-0.2,0.843-0.405,1.264-0.62c0.726-0.369,1.452-0.755,2.179-1.167
				c-0.727,0.412-1.454,0.797-2.179,1.167c0.088-0.045,0.175-0.084,0.263-0.129c0.638-0.329,1.278-0.675,1.917-1.038
				c0.137-0.077,0.274-0.156,0.411-0.235c0.111-0.064,0.223-0.129,0.334-0.194c3.304-1.937,6.606-4.303,9.821-7.038
				c0.141-0.12,0.283-0.242,0.424-0.364l-0.031-11.004c-6.981,3.573-13.853,4.684-19.396,2.959c-3.77-1.171-6.892-3.643-9.186-7.118
				l0.081,28.593C157.159,113.478,160.267,112.877,163.453,111.793z"/>
			<path style="fill:#FAFAFA;" d="M167.798,127.145c4.497-4.933,9.322-9.498,14.134-12.402c0.181-0.109,0.362-0.216,0.543-0.321
				c0.099-0.057,0.198-0.114,0.298-0.17l-0.018-6.306c-8.724,5.044-17.439,11.666-25.717,19.58c-0.932,0.889-1.858,1.795-2.79,2.665
				l0.036,12.665c3.812-4.302,7.519-8.895,11.308-13.237C166.317,128.789,167.053,127.962,167.798,127.145z"/>
			<path style="fill:#EBEBEB;" d="M182.755,107.947l-0.022-7.756c-0.141,0.122-0.283,0.243-0.424,0.364
				c-3.215,2.735-6.517,5.101-9.821,7.038c-0.111,0.065-0.223,0.13-0.334,0.194c-0.137,0.079-0.274,0.157-0.411,0.235
				c-0.639,0.362-1.279,0.708-1.917,1.038c-0.088,0.045-0.175,0.084-0.263,0.129c-0.059,0.03-0.117,0.065-0.176,0.094
				c-0.007,0.004-0.015,0.008-0.022,0.012c0.007-0.004,0.015-0.008,0.022-0.012c0.059-0.029,0.117-0.064,0.176-0.094
				c-0.42,0.214-0.84,0.418-1.259,0.617c-0.154,0.073-0.308,0.152-0.462,0.223c-1.248,0.577-2.491,1.09-3.725,1.532
				c0.234-0.084,0.468-0.171,0.702-0.259c-0.234,0.089-0.468,0.176-0.702,0.259c-0.221,0.08-0.443,0.157-0.663,0.232
				c-3.187,1.084-6.294,1.685-9.253,1.829l0.047,16.57c0.932-0.87,1.858-1.775,2.79-2.665
				C165.316,119.613,174.03,112.991,182.755,107.947z"/>
			<path style="fill:#FAFAFA;" d="M182.676,80.287l-0.023-8.133c-4.41-1.033-7.834-4.246-9.635-9.052l-9.75,5.629
				C167.131,76.383,174.146,80.612,182.676,80.287z"/>
			<path style="fill:#EBEBEB;" d="M163.305,92.146c5.543,1.725,12.415,0.614,19.396-2.959l-0.025-8.9
				c-8.53,0.325-15.545-3.904-19.408-11.555l-9.18,5.3l0.031,10.998C156.414,88.503,159.536,90.976,163.305,92.146z"/>
			<path style="fill:#FFFFFF;" d="M184.213,54.794L152.471,73.12l0.236,83.031l31.742-18.326L184.213,54.794z M154.314,153.379
				l-0.03-10.521l-0.036-12.665l-0.047-16.57l-0.081-28.593l-0.031-10.998l9.18-5.3l9.749-5.629l9.594-5.539l0.041,14.591
				l0.023,8.132l0.025,8.9l0.031,11.004l0.022,7.756l0.018,6.306l0.018,6.511l0.021,7.444l0.025,8.702l-9.784,5.649v0l-14.149,8.169
				L154.314,153.379z"/>
			<path style="fill:none;stroke:#808080;stroke-width:0;stroke-linecap:round;stroke-linejoin:round;" d="M169.365,109.294
				c0.007-0.004,0.015-0.008,0.022-0.012"/>
			<path style="fill:none;stroke:#808080;stroke-width:0;stroke-linecap:round;stroke-linejoin:round;" d="M169.387,109.282
				c0.059-0.029,0.117-0.064,0.176-0.094"/>
			<path style="fill:none;stroke:#808080;stroke-width:0;stroke-linecap:round;stroke-linejoin:round;" d="M171.742,108.022
				c-0.727,0.412-1.454,0.797-2.179,1.167"/>
			
				<line style="fill:none;stroke:#808080;stroke-width:0;stroke-linecap:round;stroke-linejoin:round;" x1="169.563" y1="109.188" x2="169.563" y2="109.188"/>
			<path style="fill:none;stroke:#808080;stroke-width:0;stroke-linecap:round;stroke-linejoin:round;" d="M164.117,111.561
				c0.234-0.084,0.468-0.171,0.702-0.259"/>
			<path style="fill:#EBEBEB;" d="M182.653,72.154l-0.041-14.591l-9.594,5.539C174.819,67.908,178.243,71.121,182.653,72.154z"/>
			<polygon style="fill:#CACACA;" points="184.448,137.825 152.706,156.151 152.713,158.357 186.355,138.933 			"/>
			<polygon style="fill:#F0F0F0;" points="184.213,54.794 184.448,137.825 186.355,138.933 186.114,53.696 			"/>
			<path style="fill:#E0E0E0;" d="M191.217,44.858l-43.882,25.335l0.275,97.002l43.882-25.335L191.217,44.858z M152.713,158.357
				l-0.006-2.206l-0.236-83.031l31.742-18.326l1.901-1.097l0.242,85.237L152.713,158.357z"/>
			<polygon style="fill:#F5F5F5;" points="191.217,44.858 187.597,42.914 143.715,68.249 147.335,70.193 			"/>
			<polygon style="fill:#F0F0F0;" points="143.715,68.249 143.99,165.251 147.61,167.195 147.335,70.193 			"/>
		</g>
	</g>
</g>
<g id="Plants">
	<g>
		<g>
			<path style="fill:#FFFFFF;" d="M43.773,335.545l16.16,0.471l16.16-0.471c0.696,10.913-1.435,22.035-4.372,27.467l-0.011-0.002
				c-0.526,1.192-1.583,2.323-3.199,3.255c-4.768,2.753-12.474,2.753-17.211,0c-1.643-0.954-2.699-2.116-3.197-3.339
				C45.188,357.464,43.081,346.404,43.773,335.545z"/>
			<g>
				<path style="fill:#EBEBEB;" d="M48.544,328.926c-6.332,3.655-6.365,9.582-0.075,13.237c6.29,3.656,16.522,3.656,22.854,0
					c6.331-3.655,6.365-9.582,0.074-13.237C65.106,325.271,54.875,325.271,48.544,328.926z"/>
			</g>
			<g>
				<path style="fill:#E0E0E0;" d="M51.048,330.381c-4.94,2.852-4.966,7.476-0.058,10.328c4.908,2.852,12.89,2.852,17.83,0
					c4.939-2.852,4.965-7.475,0.058-10.328C63.969,327.529,55.987,327.529,51.048,330.381z"/>
			</g>
			<g style="opacity:0.15;">
				<path d="M51.048,330.381c-4.94,2.852-4.966,7.476-0.058,10.328c4.908,2.852,12.89,2.852,17.83,0
					c4.939-2.852,4.965-7.475,0.058-10.328C63.969,327.529,55.987,327.529,51.048,330.381z"/>
			</g>
		</g>
		<g>
			<path style="fill:#BA68C8;" d="M33.364,266.587c36.417,11.924,36.747,36.287,28.537,53.636c-2.07,3.512-8.337,5.398-13.79-16.179
				l9.565,1.226l-11.147-5.65l-2.895-8.655l9.294,0.69l-11.797-4.962C36.784,273.547,33.364,266.587,33.364,266.587z"/>
			<path style="opacity:0.2;" d="M33.364,266.587c36.417,11.924,36.747,36.287,28.537,53.636c-2.07,3.512-8.337,5.398-13.79-16.179
				l9.565,1.226l-11.147-5.65l-2.895-8.655l9.294,0.69l-11.797-4.962C36.784,273.547,33.364,266.587,33.364,266.587z"/>
			<path style="opacity:0.2;fill:#FFFFFF;" d="M33.364,266.587c36.417,11.924,36.747,36.287,28.537,53.636
				c-2.07,3.512-8.337,5.398-13.79-16.179l9.565,1.226l-11.147-5.65l-2.895-8.655l9.294,0.69l-11.797-4.962
				C36.784,273.547,33.364,266.587,33.364,266.587z"/>
			<path style="fill:#FFFFFF;" d="M43.664,272.68c19.204,14.576,20.938,31.286,15.513,48.732
				C61.096,306.051,63.17,290.518,43.664,272.68z"/>
		</g>
		<g>
			<path style="fill:#BA68C8;" d="M95.045,291.336c-35.897,5.055-40.252,27.689-35.489,45.211
				c1.345,3.615,6.867,6.412,15.531-12.777l-9.112-0.447l11.32-3.41l4.134-7.579l-8.771-0.901l11.812-2.661
				C90.704,297.249,95.045,291.336,95.045,291.336z"/>
			<path style="opacity:0.2;fill:#FFFFFF;" d="M95.045,291.336c-35.897,5.055-40.252,27.689-35.489,45.211
				c1.345,3.615,6.867,6.412,15.531-12.777l-9.112-0.447l11.32-3.41l4.134-7.579l-8.771-0.901l11.812-2.661
				C90.704,297.249,95.045,291.336,95.045,291.336z"/>
			<path style="opacity:0.1;" d="M95.045,291.336c-35.897,5.055-40.252,27.689-35.489,45.211c1.345,3.615,6.867,6.412,15.531-12.777
				l-9.112-0.447l11.32-3.41l4.134-7.579l-8.771-0.901l11.812-2.661C90.704,297.249,95.045,291.336,95.045,291.336z"/>
			<path style="fill:#FFFFFF;" d="M84.44,295.298c-20.307,10.384-24.698,25.658-22.544,42.807
				C62.661,323.48,63.31,308.671,84.44,295.298z"/>
		</g>
		<g>
			<path style="fill:#BA68C8;" d="M22.857,299.818c32.92,0.538,39.379,20.452,37.046,36.777c-0.807,3.409-5.472,6.548-15.428-9.777
				l8.163-1.423l-10.585-1.806l-4.575-6.369l7.804-1.794l-10.944-1.077C27.432,304.662,22.857,299.818,22.857,299.818z"/>
			<path style="fill:#FFFFFF;" d="M32.86,302.203c19.465,7.086,25.132,20.362,25.11,36.059
				C55.643,325.166,53.401,311.89,32.86,302.203z"/>
			<path style="opacity:0.2;fill:#FFFFFF;" d="M22.857,299.818c32.92,0.538,39.379,20.452,37.046,36.777
				c-0.807,3.409-5.472,6.548-15.428-9.777l8.163-1.423l-10.585-1.806l-4.575-6.369l7.804-1.794l-10.944-1.077
				C27.432,304.662,22.857,299.818,22.857,299.818z"/>
		</g>
	</g>
	<g>
		<g>
			<path style="fill:#FFFFFF;" d="M434.767,306.944l16.947,0.494l16.947-0.494c0.73,11.444-1.505,23.108-4.585,28.805l-0.012-0.002
				c-0.552,1.25-1.66,2.436-3.354,3.414c-5.001,2.887-13.081,2.887-18.049,0c-1.723-1.001-2.83-2.219-3.353-3.502
				C436.25,329.931,434.04,318.332,434.767,306.944z"/>
			<g>
				<path style="fill:#EBEBEB;" d="M439.77,300.003c-6.64,3.833-6.675,10.049-0.079,13.882c6.597,3.834,17.327,3.834,23.967,0
					c6.639-3.833,6.674-10.048,0.078-13.882C457.139,296.17,446.409,296.17,439.77,300.003z"/>
			</g>
			<g>
				<path style="fill:#E0E0E0;" d="M442.395,301.529c-5.18,2.991-5.208,7.84-0.061,10.831c5.147,2.991,13.518,2.991,18.698,0
					c5.18-2.991,5.207-7.84,0.061-10.831C455.947,298.539,447.576,298.539,442.395,301.529z"/>
			</g>
			<g style="opacity:0.15;">
				<path d="M442.395,301.529c-5.18,2.991-5.208,7.84-0.061,10.831c5.147,2.991,13.518,2.991,18.698,0
					c5.18-2.991,5.207-7.84,0.061-10.831C455.947,298.539,447.576,298.539,442.395,301.529z"/>
			</g>
		</g>
		<g>
			<path style="fill:#BA68C8;" d="M460.358,272.263c2.756-3.427,5.957-6.496,8.484-10.095c1.724-2.455,3.166-5.46,2.441-8.372
				c-0.673-2.701-3.197-4.71-5.933-5.222c-2.736-0.512-5.601,0.306-7.964,1.777c-2.363,1.471-4.284,3.552-6.019,5.729
				c-9.482,11.9-14.101,27.563-12.594,42.704c0.173,1.736,0.464,3.561,1.573,4.908c1.189,1.444,3.272,2.081,5.066,1.548
				c4.616-1.37,4.004-7.606,4.759-11.275c1.034-5.028,2.83-9.899,5.302-14.397C456.885,276.998,458.519,274.549,460.358,272.263z"/>
			<path style="opacity:0.2;fill:#FFFFFF;" d="M460.358,272.263c2.756-3.427,5.957-6.496,8.484-10.095
				c1.724-2.455,3.166-5.46,2.441-8.372c-0.673-2.701-3.197-4.71-5.933-5.222c-2.736-0.512-5.601,0.306-7.964,1.777
				c-2.363,1.471-4.284,3.552-6.019,5.729c-9.482,11.9-14.101,27.563-12.594,42.704c0.173,1.736,0.464,3.561,1.573,4.908
				c1.189,1.444,3.272,2.081,5.066,1.548c4.616-1.37,4.004-7.606,4.759-11.275c1.034-5.028,2.83-9.899,5.302-14.397
				C456.885,276.998,458.519,274.549,460.358,272.263z"/>
			<g>
				<path style="fill:#F0F0F0;" d="M445.124,300.593c0.179-0.035,0.317-0.189,0.326-0.379c0.323-7.411,2.732-32.706,20.164-47.057
					c0.172-0.142,0.197-0.397,0.055-0.569c-0.142-0.172-0.396-0.196-0.569-0.055c-17.69,14.564-20.131,40.15-20.458,47.646
					c-0.009,0.223,0.164,0.411,0.386,0.422C445.061,300.601,445.093,300.599,445.124,300.593z"/>
			</g>
			<g>
				<path style="fill:#BA68C8;" d="M442.577,301.395c0.528,2.909,3.026,6.509,5.661,7.849c2.611,1.329,5.643,1.685,8.565,1.434
					c2.975-0.256,5.865-1.109,8.695-2.062c1.397-0.471,2.951-1.106,3.1-2.837c0.079-0.914-0.332-1.799-0.989-2.438
					c-0.276-0.268-0.579-0.53-0.902-0.777c-0.658-0.503-0.349-1.548,0.477-1.605c0.832-0.057,1.659-0.15,2.478-0.306
					c1.892-0.361,3.755-1.083,5.203-2.353c1.087-0.954,1.911-2.199,2.403-3.559c0.421-1.164,0.538-2.625-0.343-3.494
					c-0.506-0.499-1.233-0.688-1.927-0.838c-0.62-0.134-1.241-0.248-1.864-0.345c-0.828-0.129-0.965-1.258-0.192-1.581l2.629-1.095
					c0.73-0.304,1.49-0.63,1.995-1.239c0.805-0.971,0.747-2.384,0.506-3.622c-0.321-1.646-0.89-3.233-1.277-4.865
					c-0.388-1.631-0.591-3.354-0.173-4.978c-4.909-0.497-9.953-0.264-14.727,0.983c-1.426,0.372-2.868,0.839-4.019,1.76
					c-1.639,1.312-2.066,3.28-1.892,5.413c0.033,0.405-0.523,0.558-0.716,0.201l-1.68-3.098c-0.506-0.933-1.651-1.285-2.612-0.835
					c-1.45,0.68-2.744,1.77-3.842,3.021c-1.184,1.35-1.789,3.127-1.644,4.917c0.196,2.42,0.618,4.871,1.225,7.219
					c0.159,0.615-0.53,1.078-1.045,0.707l-0.08-0.058c-0.459-0.332-1.022-0.531-1.584-0.461c-1.485,0.184-1.864,1.689-1.963,2.97
					C441.898,297.279,442.226,299.465,442.577,301.395z"/>
				<path style="opacity:0.2;" d="M442.577,301.395c0.528,2.909,3.026,6.509,5.661,7.849c2.611,1.329,5.643,1.685,8.565,1.434
					c2.975-0.256,5.865-1.109,8.695-2.062c1.397-0.471,2.951-1.106,3.1-2.837c0.079-0.914-0.332-1.799-0.989-2.438
					c-0.276-0.268-0.579-0.53-0.902-0.777c-0.658-0.503-0.349-1.548,0.477-1.605c0.832-0.057,1.659-0.15,2.478-0.306
					c1.892-0.361,3.755-1.083,5.203-2.353c1.087-0.954,1.911-2.199,2.403-3.559c0.421-1.164,0.538-2.625-0.343-3.494
					c-0.506-0.499-1.233-0.688-1.927-0.838c-0.62-0.134-1.241-0.248-1.864-0.345c-0.828-0.129-0.965-1.258-0.192-1.581l2.629-1.095
					c0.73-0.304,1.49-0.63,1.995-1.239c0.805-0.971,0.747-2.384,0.506-3.622c-0.321-1.646-0.89-3.233-1.277-4.865
					c-0.388-1.631-0.591-3.354-0.173-4.978c-4.909-0.497-9.953-0.264-14.727,0.983c-1.426,0.372-2.868,0.839-4.019,1.76
					c-1.639,1.312-2.066,3.28-1.892,5.413c0.033,0.405-0.523,0.558-0.716,0.201l-1.68-3.098c-0.506-0.933-1.651-1.285-2.612-0.835
					c-1.45,0.68-2.744,1.77-3.842,3.021c-1.184,1.35-1.789,3.127-1.644,4.917c0.196,2.42,0.618,4.871,1.225,7.219
					c0.159,0.615-0.53,1.078-1.045,0.707l-0.08-0.058c-0.459-0.332-1.022-0.531-1.584-0.461c-1.485,0.184-1.864,1.689-1.963,2.97
					C441.898,297.279,442.226,299.465,442.577,301.395z"/>
				<path style="opacity:0.2;fill:#FFFFFF;" d="M442.577,301.395c0.528,2.909,3.026,6.509,5.661,7.849
					c2.611,1.329,5.643,1.685,8.565,1.434c2.975-0.256,5.865-1.109,8.695-2.062c1.397-0.471,2.951-1.106,3.1-2.837
					c0.079-0.914-0.332-1.799-0.989-2.438c-0.276-0.268-0.579-0.53-0.902-0.777c-0.658-0.503-0.349-1.548,0.477-1.605
					c0.832-0.057,1.659-0.15,2.478-0.306c1.892-0.361,3.755-1.083,5.203-2.353c1.087-0.954,1.911-2.199,2.403-3.559
					c0.421-1.164,0.538-2.625-0.343-3.494c-0.506-0.499-1.233-0.688-1.927-0.838c-0.62-0.134-1.241-0.248-1.864-0.345
					c-0.828-0.129-0.965-1.258-0.192-1.581l2.629-1.095c0.73-0.304,1.49-0.63,1.995-1.239c0.805-0.971,0.747-2.384,0.506-3.622
					c-0.321-1.646-0.89-3.233-1.277-4.865c-0.388-1.631-0.591-3.354-0.173-4.978c-4.909-0.497-9.953-0.264-14.727,0.983
					c-1.426,0.372-2.868,0.839-4.019,1.76c-1.639,1.312-2.066,3.28-1.892,5.413c0.033,0.405-0.523,0.558-0.716,0.201l-1.68-3.098
					c-0.506-0.933-1.651-1.285-2.612-0.835c-1.45,0.68-2.744,1.77-3.842,3.021c-1.184,1.35-1.789,3.127-1.644,4.917
					c0.196,2.42,0.618,4.871,1.225,7.219c0.159,0.615-0.53,1.078-1.045,0.707l-0.08-0.058c-0.459-0.332-1.022-0.531-1.584-0.461
					c-1.485,0.184-1.864,1.689-1.963,2.97C441.898,297.279,442.226,299.465,442.577,301.395z"/>
				<path style="fill:#F0F0F0;" d="M450.386,308.84c0.02-0.103,1.037-5.031,3.961-11.479c0-0.116,0.049-0.224,0.139-0.302
					c0.092-0.199,0.182-0.398,0.277-0.6c-0.84-7.71-3.893-13.09-3.923-13.143c-0.111-0.194-0.045-0.44,0.148-0.552
					c0.193-0.109,0.44-0.045,0.551,0.149c0.03,0.052,2.84,5,3.868,12.217c3.353-6.724,8.701-14.588,16.958-20.334
					c0.184-0.126,0.435-0.082,0.563,0.101c0.127,0.183,0.082,0.435-0.101,0.563c-8.517,5.927-13.891,14.143-17.157,20.962
					c6.654-3.24,13.724-1.959,14.038-1.9c0.219,0.041,0.363,0.253,0.321,0.472c-0.031,0.167-0.161,0.29-0.319,0.321
					c-0.049,0.01-0.101,0.01-0.154,0c-0.077-0.014-7.785-1.416-14.449,2.31c-2.901,6.383-3.91,11.27-3.931,11.372
					c-0.033,0.166-0.163,0.288-0.318,0.318c-0.05,0.01-0.103,0.011-0.156,0C450.486,309.271,450.343,309.058,450.386,308.84z"/>
			</g>
		</g>
	</g>
</g>
<g id="Window">
	<g>
		<g>
			<g>
				<g>
					<polygon style="fill:#BA68C8;" points="68.549,222.148 68.508,207.882 61.066,203.645 61.106,217.583 61.106,217.583 
						61.107,217.899 68.549,222.148 					"/>
					<path style="fill:#BA68C8;" d="M69.018,387.384l-0.469-165.236l-7.442-4.249l0.467,164.919
						c0.004,1.363,0.482,2.323,1.249,2.793l-0.005,0.004l0.039,0.023c0.01,0.006,0.02,0.013,0.031,0.019l7.338,4.486
						C69.484,389.664,69.021,388.72,69.018,387.384z"/>
					<path style="opacity:0.2;fill:#FFFFFF;" d="M69.018,387.384l-0.469-165.236l-7.442-4.249l0.467,164.919
						c0.004,1.363,0.482,2.323,1.249,2.793l-0.005,0.004l0.039,0.023c0.01,0.006,0.02,0.013,0.031,0.019l7.338,4.486
						C69.484,389.664,69.021,388.72,69.018,387.384z"/>
					<path style="fill:#455A64;" d="M73.438,389.903c-0.294,0.169-0.58,0.298-0.857,0.395
						C72.858,390.203,73.144,390.073,73.438,389.903z"/>
					<path style="fill:#455A64;" d="M71.977,390.439c-0.059,0.01-0.122,0.033-0.18,0.04
						C71.855,390.473,71.918,390.449,71.977,390.439z"/>
					<path style="fill:#455A64;" d="M70.452,390.281v-0.013l0,0c-0.018-0.008-0.039-0.012-0.056-0.021L70.452,390.281z"/>
					<path style="fill:#BA68C8;" d="M68.536,207.855l-0.023-8.219c-0.008-2.801,1.955-6.209,4.392-7.616L321.887,48.27
						c1.197-0.691,2.284-0.762,3.081-0.326l-7.346-4.511v0.008c-0.805-0.5-1.93-0.458-3.179,0.263L65.461,187.454
						c-2.437,1.407-4.4,4.815-4.392,7.616l0.023,8.219l0.012,0.004l-0.039,0.023l0.001,0.329l7.442,4.237L68.536,207.855z"/>
					<path style="opacity:0.3;fill:#FFFFFF;" d="M68.536,207.855l-0.023-8.219c-0.008-2.801,1.955-6.209,4.392-7.616L321.887,48.27
						c1.197-0.691,2.284-0.762,3.081-0.326l-7.346-4.511v0.008c-0.805-0.5-1.93-0.458-3.179,0.263L65.461,187.454
						c-2.437,1.407-4.4,4.815-4.392,7.616l0.023,8.219l0.012,0.004l-0.039,0.023l0.001,0.329l7.442,4.237L68.536,207.855z"/>
					<polygon style="opacity:0.2;" points="68.549,222.148 68.508,207.882 61.066,203.645 61.106,217.583 61.106,217.583 
						61.107,217.899 68.549,222.148 					"/>
					<polygon style="opacity:0.2;fill:#FFFFFF;" points="68.549,222.148 68.508,207.882 61.066,203.645 61.106,217.583 
						61.106,217.583 61.107,217.899 68.549,222.148 					"/>
				</g>
				<g>
					<path style="fill:#BA68C8;" d="M321.887,48.27c2.429-1.403,4.413-0.273,4.42,2.528l0.023,8.219L68.536,207.855l-0.023-8.219
						c-0.008-2.801,1.955-6.209,4.392-7.616L321.887,48.27z"/>
				</g>
				<g>
					<g>
						<path style="fill:#FFFFFF;" d="M305.196,61.866c1.302-0.752,2.361-0.148,2.366,1.348c0.004,1.496-1.048,3.319-2.35,4.07
							c-1.302,0.752-2.361,0.148-2.366-1.348C302.842,64.441,303.894,62.618,305.196,61.866z"/>
					</g>
					<g>
						<path style="fill:#FFFFFF;" d="M312.389,57.714c1.302-0.752,2.361-0.148,2.366,1.348c0.004,1.496-1.048,3.319-2.35,4.071
							c-1.302,0.752-2.361,0.148-2.365-1.348C310.035,60.288,311.087,58.465,312.389,57.714z"/>
					</g>
					<g>
						<path style="fill:#FFFFFF;" d="M319.574,53.565c1.302-0.752,2.361-0.148,2.366,1.348c0.004,1.496-1.048,3.319-2.35,4.071
							c-1.302,0.752-2.362,0.148-2.366-1.348C317.219,56.14,318.272,54.317,319.574,53.565z"/>
					</g>
				</g>
				<g>
					<path style="fill:#E0E0E0;" d="M120.382,169.773c0.969-0.559,1.867-0.466,2.331,0.254l2.34,3.601
						c0.463,0.719,1.354,0.826,2.331,0.263L326.303,59.044l0.04,14.286L68.549,222.168l-0.041-14.286l7.637-4.409
						c0.976-0.564,1.864-1.698,2.33-2.953l2.304-6.283c0.458-1.251,1.353-2.38,2.321-2.939L120.382,169.773z"/>
				</g>
				<g>
					<path style="fill:#BA68C8;" d="M326.343,73.311l0.469,165.236c0.008,2.792-1.962,6.204-4.392,7.607L73.438,389.903
						c-2.437,1.407-4.413,0.272-4.42-2.519l-0.469-165.236L326.343,73.311z"/>
				</g>
				<g style="opacity:0.4;">
					<path style="fill:#FFFFFF;" d="M326.343,73.311l0.469,165.236c0.008,2.792-1.962,6.204-4.392,7.607L73.438,389.903
						c-2.437,1.407-4.413,0.272-4.42-2.519l-0.469-165.236L326.343,73.311z"/>
				</g>
				<g>
					<g>
						<path style="fill:#FFFFFF;" d="M316.147,67.821c1.731-0.999,3.132-0.2,3.138,1.788c0.005,1.989-1.387,4.41-3.118,5.409
							L97.949,201.007c-1.731,0.999-3.14,0.196-3.146-1.793c-0.006-1.989,1.395-4.406,3.126-5.405L316.147,67.821z"/>
					</g>
					<g>
						<path style="fill:#E0E0E0;" d="M72.672,209.15c0.118-0.068,0.236-0.081,0.323-0.022c0.167,0.113,0.152,0.442-0.022,0.734
							l-1.377,2.248l3.612-2.086c0.246-0.142,0.445-0.029,0.446,0.245c0.001,0.283-0.197,0.625-0.443,0.768l-3.612,2.085
							l1.386,0.653c0.175,0.091,0.192,0.401,0.026,0.698c-0.087,0.16-0.206,0.283-0.325,0.352c-0.103,0.059-0.214,0.087-0.302,0.046
							l-2.214-1.061l-0.088-0.086l-0.016-0.027l-0.04-0.178l0.039-0.224l0.016-0.037l0.079-0.183l2.208-3.614
							C72.455,209.321,72.564,209.212,72.672,209.15z"/>
					</g>
					<g>
						<path style="fill:#E0E0E0;" d="M80.488,204.637c0.107-0.062,0.216-0.079,0.304-0.038l2.214,1.052l0.088,0.096l0.024,0.014
							l0.032,0.182l-0.031,0.219l-0.024,0.05l-0.079,0.173l-2.208,3.623c-0.087,0.142-0.19,0.238-0.301,0.302
							c-0.119,0.069-0.23,0.078-0.318,0.019c-0.167-0.105-0.16-0.428,0.022-0.725l1.369-2.243l-3.612,2.086
							c-0.238,0.137-0.437,0.024-0.438-0.259c-0.001-0.274,0.197-0.616,0.435-0.754l3.612-2.086l-1.378-0.658
							c-0.183-0.086-0.192-0.401-0.026-0.707C80.255,204.827,80.37,204.705,80.488,204.637z"/>
					</g>
					<g>
						<path style="fill:#E0E0E0;" d="M87.912,200.351c0.548-0.316,1.064-0.404,1.494-0.278l0.333-0.439
							c0.071-0.096,0.155-0.171,0.238-0.22c0.083-0.048,0.167-0.069,0.238-0.055c0.151,0.022,0.223,0.182,0.2,0.396l-0.187,1.36
							c-0.016,0.155-0.087,0.315-0.19,0.457c-0.071,0.087-0.159,0.174-0.238,0.22l-0.111,0.046l-1.073,0.3
							c-0.167,0.042-0.294-0.04-0.327-0.223c-0.032-0.182,0.047-0.42,0.197-0.616l0.103-0.142c-0.207,0.001-0.437,0.07-0.675,0.207
							c-0.873,0.504-1.586,1.738-1.583,2.741c0.003,1.013,0.72,1.412,1.593,0.908c0.579-0.335,1.111-0.998,1.395-1.746
							c0.076-0.212,0.226-0.395,0.382-0.485c0.072-0.042,0.145-0.063,0.213-0.059c0.215,0.013,0.295,0.277,0.177,0.592
							c-0.434,1.155-1.258,2.188-2.163,2.711c-1.358,0.784-2.473,0.158-2.477-1.412C85.447,203.054,86.555,201.135,87.912,200.351z"
							/>
					</g>
					<g style="opacity:0.3;">
						<path d="M72.672,209.15c0.118-0.068,0.236-0.081,0.323-0.022c0.167,0.113,0.152,0.442-0.022,0.734l-1.377,2.248l3.612-2.086
							c0.246-0.142,0.445-0.029,0.446,0.245c0.001,0.283-0.197,0.625-0.443,0.768l-3.612,2.085l1.386,0.653
							c0.175,0.091,0.192,0.401,0.026,0.698c-0.087,0.16-0.206,0.283-0.325,0.352c-0.103,0.059-0.214,0.087-0.302,0.046
							l-2.214-1.061l-0.088-0.086l-0.016-0.027l-0.04-0.178l0.039-0.224l0.016-0.037l0.079-0.183l2.208-3.614
							C72.455,209.321,72.564,209.212,72.672,209.15z"/>
					</g>
					<g style="opacity:0.3;">
						<path d="M80.488,204.637c0.107-0.062,0.216-0.079,0.304-0.038l2.214,1.052l0.088,0.096l0.024,0.014l0.032,0.182l-0.031,0.219
							l-0.024,0.05l-0.079,0.173l-2.208,3.623c-0.087,0.142-0.19,0.238-0.301,0.302c-0.119,0.069-0.23,0.078-0.318,0.019
							c-0.167-0.105-0.16-0.428,0.022-0.725l1.369-2.243l-3.612,2.086c-0.238,0.137-0.437,0.024-0.438-0.259
							c-0.001-0.274,0.197-0.616,0.435-0.754l3.612-2.086l-1.378-0.658c-0.183-0.086-0.192-0.401-0.026-0.707
							C80.255,204.827,80.37,204.705,80.488,204.637z"/>
					</g>
					<g style="opacity:0.3;">
						<path d="M87.912,200.351c0.548-0.316,1.064-0.404,1.494-0.278l0.333-0.439c0.071-0.096,0.155-0.171,0.238-0.22
							c0.083-0.048,0.167-0.069,0.238-0.055c0.151,0.022,0.223,0.182,0.2,0.396l-0.187,1.36c-0.016,0.155-0.087,0.315-0.19,0.457
							c-0.071,0.087-0.159,0.174-0.238,0.22l-0.111,0.046l-1.073,0.3c-0.167,0.042-0.294-0.04-0.327-0.223
							c-0.032-0.182,0.047-0.42,0.197-0.616l0.103-0.142c-0.207,0.001-0.437,0.07-0.675,0.207c-0.873,0.504-1.586,1.738-1.583,2.741
							c0.003,1.013,0.72,1.412,1.593,0.908c0.579-0.335,1.111-0.998,1.395-1.746c0.076-0.212,0.226-0.395,0.382-0.485
							c0.072-0.042,0.145-0.063,0.213-0.059c0.215,0.013,0.295,0.277,0.177,0.592c-0.434,1.155-1.258,2.188-2.163,2.711
							c-1.358,0.784-2.473,0.158-2.477-1.412C85.447,203.054,86.555,201.135,87.912,200.351z"/>
					</g>
				</g>
			</g>
		</g>
		<g>
			<g>
				<g style="opacity:0.6;">
					<path style="fill:#FFFFFF;" d="M314.901,121.621l0.224,59.411c0.016,5.474-2.893,10.539-7.627,13.286l-128.703,74.661
						c-3.397,1.97-7.653-0.473-7.664-4.4l-0.224-59.411c-0.016-5.474,2.893-10.539,7.628-13.286l128.703-74.66
						C310.634,115.251,314.89,117.694,314.901,121.621z"/>
				</g>
				<g>
					<g>
						<polygon style="fill:#BA68C8;" points="262.707,157.592 236.879,206.654 229.57,220.547 234.605,204.901 220.363,193.844 
							204.501,225.348 204.556,244.597 287.786,196.543 287.732,177.294 						"/>
						<path style="fill:#BA68C8;" d="M235.415,183.596c3.917-2.262,7.083-7.746,7.071-12.247c-0.013-4.501-3.199-6.317-7.117-4.056
							c-3.917,2.261-7.083,7.745-7.071,12.247C228.311,184.041,231.498,185.858,235.415,183.596z"/>
					</g>
					<g style="opacity:0.3;">
						<polygon style="fill:#FFFFFF;" points="262.707,157.592 236.879,206.654 229.57,220.547 234.605,204.901 220.363,193.844 
							204.501,225.348 204.556,244.597 287.786,196.543 287.732,177.294 						"/>
						<path style="fill:#FFFFFF;" d="M235.415,183.596c3.917-2.262,7.083-7.746,7.071-12.247c-0.013-4.501-3.199-6.317-7.117-4.056
							c-3.917,2.261-7.083,7.745-7.071,12.247C228.311,184.041,231.498,185.858,235.415,183.596z"/>
					</g>
				</g>
			</g>
			<g>
				<g style="opacity:0.6;">
					<path style="fill:#FFFFFF;" d="M238.986,245.611l0.101,35.882c0.007,2.475-1.308,4.766-3.449,6.009l-61.163,35.485
						c-1.536,0.891-3.461-0.214-3.466-1.99l-0.101-35.882c-0.007-2.475,1.308-4.766,3.45-6.009l61.163-35.485
						C237.056,242.73,238.981,243.835,238.986,245.611z"/>
				</g>
				<g>
					<g>
						<polygon style="fill:#BA68C8;" points="198.934,275.671 217.879,277.298 199.005,300.763 						"/>
					</g>
					<g style="opacity:0.3;">
						<polygon style="fill:#FFFFFF;" points="198.934,275.671 217.879,277.298 199.005,300.763 						"/>
					</g>
				</g>
			</g>
			<g>
				<g style="opacity:0.6;">
					<path style="fill:#FFFFFF;" d="M314.199,201.962l0.101,35.881c0.007,2.476-1.308,4.766-3.45,6.009L250,278.75
						c-1.536,0.891-3.461-0.214-3.466-1.99l-0.101-35.882c-0.007-2.476,1.308-4.766,3.449-6.009l60.851-34.897
						C312.269,199.082,314.194,200.187,314.199,201.962z"/>
				</g>
				<g>
					<g>
						<polygon style="fill:#BA68C8;" points="273.51,230.76 292.454,232.388 273.581,255.852 						"/>
					</g>
					<g style="opacity:0.3;">
						<polygon style="fill:#FFFFFF;" points="273.51,230.76 292.454,232.388 273.581,255.852 						"/>
					</g>
				</g>
			</g>
			<g style="opacity:0.7;">
				<g>
					<polygon style="fill:#FFFFFF;" points="136.427,199.355 136.453,208.4 84.682,238.29 84.657,229.245 					"/>
				</g>
				<g>
					<polygon style="fill:#FFFFFF;" points="115.654,225.354 115.667,229.854 84.709,247.728 84.696,243.227 					"/>
				</g>
				<g>
					<polygon style="fill:#FFFFFF;" points="199.454,163.01 199.469,168.289 184.476,176.945 184.461,171.667 					"/>
				</g>
				<g>
					<polygon style="fill:#FFFFFF;" points="228.199,146.415 228.214,151.693 208.231,163.23 208.216,157.952 					"/>
				</g>
				<g>
					<polygon style="fill:#FFFFFF;" points="285.989,113.049 286.004,118.328 271.011,126.984 270.996,121.705 					"/>
				</g>
				<g>
					<polygon style="fill:#FFFFFF;" points="314.74,96.45 314.755,101.729 294.766,113.269 294.751,107.991 					"/>
				</g>
				<g>
					<polygon style="fill:#FFFFFF;" points="260.709,127.645 260.724,132.923 236.869,146.696 236.854,141.417 					"/>
				</g>
			</g>
			<g style="opacity:0.7;">
				<g>
					<polygon style="fill:#FFFFFF;" points="136.826,250.19 136.837,254.176 84.77,284.237 84.759,280.251 					"/>
				</g>
				<g>
					<polygon style="fill:#FFFFFF;" points="105.225,275.368 105.237,279.354 84.79,291.159 84.779,287.173 					"/>
				</g>
				<g>
					<polygon style="fill:#FFFFFF;" points="136.892,273.568 136.904,277.555 84.837,307.615 84.825,303.629 					"/>
				</g>
				<g>
					<polygon style="fill:#FFFFFF;" points="136.873,266.646 136.884,270.632 84.817,300.693 84.806,296.707 					"/>
				</g>
				<g>
					<polygon style="fill:#FFFFFF;" points="136.806,243.267 136.818,247.254 84.751,277.315 84.739,273.328 					"/>
				</g>
				<g>
					<polygon style="fill:#FFFFFF;" points="125.669,286.977 125.681,290.963 84.856,314.534 84.845,310.547 					"/>
				</g>
			</g>
			<g>
				<g style="opacity:0.7;">
					<path style="fill:#BA68C8;" d="M135.3,311.989c4.484-2.589,8.134-0.513,8.148,4.643c0.015,5.152-3.612,11.429-8.096,14.017
						l-43.585,25.164c-4.484,2.589-8.134,0.513-8.148-4.639c-0.015-5.157,3.612-11.433,8.095-14.022L135.3,311.989z"/>
				</g>
				<g>
					<g>
						<polygon style="fill:#FFFFFF;" points="107.206,334.024 107.245,340.999 105.382,342.074 105.353,338.904 104.037,342.221 
							103.138,342.74 101.808,341.063 101.817,344.133 99.953,345.208 99.934,338.222 101.615,337.252 103.606,339.829 
							105.525,334.994 						"/>
					</g>
					<g>
						<path style="fill:#FFFFFF;" d="M111.409,331.44c1.981-1.144,3.432-0.444,3.438,1.675c0.006,2.112-1.436,4.489-3.417,5.633
							c-1.981,1.144-3.438,0.44-3.445-1.671C107.979,334.957,109.428,332.583,111.409,331.44z M111.424,336.839
							c0.756-0.436,1.36-1.445,1.357-2.531c-0.003-1.086-0.611-1.395-1.367-0.958c-0.756,0.436-1.36,1.445-1.357,2.531
							C110.06,336.966,110.668,337.275,111.424,336.839"/>
					</g>
					<g>
						<path style="fill:#FFFFFF;" d="M120.155,331.385l1.283,1.419l-2.19,1.264l-1.041-1.154l-0.554,0.32l0.005,1.752l-2.053,1.185
							l-0.02-6.986l2.932-1.693c1.688-0.974,2.772-0.581,2.777,1.037C121.298,329.54,120.883,330.537,120.155,331.385z
							 M118.391,331.023c0.567-0.327,0.833-0.789,0.832-1.298c-0.001-0.509-0.27-0.662-0.837-0.335l-0.743,0.429l0.005,1.632
							L118.391,331.023"/>
					</g>
					<g>
						<polygon style="fill:#FFFFFF;" points="127.003,322.594 127.008,324.376 124.082,326.065 124.084,326.881 126.652,325.399 
							126.657,327.091 124.089,328.574 124.092,329.495 127.128,327.741 127.133,329.516 122.083,332.432 122.063,325.446 						"/>
					</g>
				</g>
			</g>
		</g>
	</g>
</g>
<g id="Datas">
	<g>
		<g>
			<g>
				<polygon style="fill:#BA68C8;" points="253.259,426.918 253.247,431.293 223.51,414.124 223.522,409.75 				"/>
			</g>
			<g>
				<polygon style="fill:#BA68C8;" points="253.278,420.317 253.265,424.703 241.17,417.72 241.182,413.334 				"/>
			</g>
			<g style="enable-background:new    ;">
				<g>
					<polygon style="fill:#BA68C8;" points="203.973,405.064 203.961,409.438 182.552,397.078 182.565,392.703 					"/>
				</g>
				<g>
					<polygon style="fill:#BA68C8;" points="216.903,405.928 216.89,410.302 182.571,390.488 182.583,386.114 					"/>
				</g>
				<g>
					<polygon style="fill:#BA68C8;" points="235.418,410.006 235.405,414.391 201.444,394.784 198.134,392.873 182.361,383.766 
						182.374,379.381 198.147,388.487 201.456,390.398 					"/>
				</g>
				<g>
					<polygon style="fill:#BA68C8;" points="225.523,388.701 225.51,393.075 182.634,368.321 182.646,363.946 					"/>
				</g>
				<g>
					<polygon style="fill:#BA68C8;" points="223.057,380.666 223.044,385.04 214.666,380.202 214.678,375.828 					"/>
				</g>
			</g>
			<g>
				<polygon style="fill:#BA68C8;" points="220.621,414.675 220.609,419.049 208.523,412.072 208.535,407.698 				"/>
			</g>
			<g>
				<polygon style="fill:#BA68C8;" points="253.341,398.15 253.328,402.524 229.485,388.758 229.497,384.384 				"/>
			</g>
			<g>
				<polygon style="fill:#BA68C8;" points="253.359,391.56 253.347,395.935 236.679,386.311 233.002,384.188 210.908,371.432 
					210.92,367.058 233.014,379.814 236.692,381.937 				"/>
			</g>
			<g>
				<polygon style="fill:#BA68C8;" points="235.537,368.058 235.524,372.432 207.775,356.411 207.787,352.037 				"/>
			</g>
			<g>
				<polygon style="fill:#BA68C8;" points="207.731,371.817 207.719,376.191 182.653,361.719 182.665,357.345 				"/>
			</g>
			<g style="enable-background:new    ;">
				<g>
					<polygon style="fill:#BA68C8;" points="204.092,363.116 204.08,367.49 182.671,355.13 182.684,350.756 					"/>
				</g>
				<g>
					<polygon style="fill:#BA68C8;" points="201.575,348.45 201.563,352.824 182.48,341.807 182.493,337.433 					"/>
				</g>
				<g>
					<polygon style="fill:#BA68C8;" points="217.022,363.98 217.009,368.354 182.69,348.54 182.702,344.166 					"/>
				</g>
				<g>
					<polygon style="fill:#BA68C8;" points="210.708,347.123 210.696,351.497 182.499,335.217 182.511,330.843 					"/>
				</g>
			</g>
			<g>
				<polygon style="fill:#BA68C8;" points="253.378,384.971 253.366,389.345 223.628,372.176 223.641,367.802 				"/>
			</g>
			<g>
				<polygon style="fill:#BA68C8;" points="253.397,378.37 253.384,382.744 241.289,375.76 241.301,371.386 				"/>
			</g>
		</g>
		<g style="opacity:0.6;">
			<g>
				<polygon style="fill:#FFFFFF;" points="253.259,426.918 253.247,431.293 223.51,414.124 223.522,409.75 				"/>
			</g>
			<g>
				<polygon style="fill:#FFFFFF;" points="253.278,420.317 253.265,424.703 241.17,417.72 241.182,413.334 				"/>
			</g>
			<g style="enable-background:new    ;">
				<g>
					<polygon style="fill:#FFFFFF;" points="203.973,405.064 203.961,409.438 182.552,397.078 182.565,392.703 					"/>
				</g>
				<g>
					<polygon style="fill:#FFFFFF;" points="216.903,405.928 216.89,410.302 182.571,390.488 182.583,386.114 					"/>
				</g>
				<g>
					<polygon style="fill:#FFFFFF;" points="235.418,410.006 235.405,414.391 201.444,394.784 198.134,392.873 182.361,383.766 
						182.374,379.381 198.147,388.487 201.456,390.398 					"/>
				</g>
				<g>
					<polygon style="fill:#FFFFFF;" points="225.523,388.701 225.51,393.075 182.634,368.321 182.646,363.946 					"/>
				</g>
				<g>
					<polygon style="fill:#FFFFFF;" points="223.057,380.666 223.044,385.04 214.666,380.202 214.678,375.828 					"/>
				</g>
			</g>
			<g>
				<polygon style="fill:#FFFFFF;" points="220.621,414.675 220.609,419.049 208.523,412.072 208.535,407.698 				"/>
			</g>
			<g>
				<polygon style="fill:#FFFFFF;" points="253.341,398.15 253.328,402.524 229.485,388.758 229.497,384.384 				"/>
			</g>
			<g>
				<polygon style="fill:#FFFFFF;" points="253.359,391.56 253.347,395.935 236.679,386.311 233.002,384.188 210.908,371.432 
					210.92,367.058 233.014,379.814 236.692,381.937 				"/>
			</g>
			<g>
				<polygon style="fill:#FFFFFF;" points="235.537,368.058 235.524,372.432 207.775,356.411 207.787,352.037 				"/>
			</g>
			<g>
				<polygon style="fill:#FFFFFF;" points="207.731,371.817 207.719,376.191 182.653,361.719 182.665,357.345 				"/>
			</g>
			<g style="enable-background:new    ;">
				<g>
					<polygon style="fill:#FFFFFF;" points="204.092,363.116 204.08,367.49 182.671,355.13 182.684,350.756 					"/>
				</g>
				<g>
					<polygon style="fill:#FFFFFF;" points="201.575,348.45 201.563,352.824 182.48,341.807 182.493,337.433 					"/>
				</g>
				<g>
					<polygon style="fill:#FFFFFF;" points="217.022,363.98 217.009,368.354 182.69,348.54 182.702,344.166 					"/>
				</g>
				<g>
					<polygon style="fill:#FFFFFF;" points="210.708,347.123 210.696,351.497 182.499,335.217 182.511,330.843 					"/>
				</g>
			</g>
			<g>
				<polygon style="fill:#FFFFFF;" points="253.378,384.971 253.366,389.345 223.628,372.176 223.641,367.802 				"/>
			</g>
			<g>
				<polygon style="fill:#FFFFFF;" points="253.397,378.37 253.384,382.744 241.289,375.76 241.301,371.386 				"/>
			</g>
		</g>
	</g>
	<g>
		<g>
			<g>
				<path style="fill:#BA68C8;" d="M167.964,341.757l-10.144-5.961c-0.156-0.092-0.252-0.258-0.252-0.44v-63.232l-13.077-7.571
					l0.511-0.883l13.332,7.719c0.158,0.091,0.255,0.259,0.255,0.442v63.234l9.892,5.814L167.964,341.757z"/>
			</g>
			<g>
				<path style="fill:#BA68C8;" d="M170.918,338.7c2.003,1.157,3.621,3.96,3.614,6.261c-0.007,2.3-1.635,3.229-3.637,2.073
					c-2.003-1.156-3.62-3.96-3.614-6.26C167.287,338.473,168.915,337.543,170.918,338.7z"/>
			</g>
			<g>
				<path style="fill:#BA68C8;" d="M146.672,261.009c2.003,1.156,3.62,3.96,3.614,6.261c-0.007,2.3-1.635,3.229-3.637,2.073
					c-2.003-1.156-3.62-3.96-3.614-6.259C143.041,260.782,144.669,259.853,146.672,261.009z"/>
			</g>
		</g>
		<g style="opacity:0.2;">
			<g>
				<path style="fill:#FFFFFF;" d="M167.964,341.757l-10.144-5.961c-0.156-0.092-0.252-0.258-0.252-0.44v-63.232l-13.077-7.571
					l0.511-0.883l13.332,7.719c0.158,0.091,0.255,0.259,0.255,0.442v63.234l9.892,5.814L167.964,341.757z"/>
			</g>
			<g>
				<path style="fill:#FFFFFF;" d="M170.918,338.7c2.003,1.157,3.621,3.96,3.614,6.261c-0.007,2.3-1.635,3.229-3.637,2.073
					c-2.003-1.156-3.62-3.96-3.614-6.26C167.287,338.473,168.915,337.543,170.918,338.7z"/>
			</g>
			<g>
				<path style="fill:#FFFFFF;" d="M146.672,261.009c2.003,1.156,3.62,3.96,3.614,6.261c-0.007,2.3-1.635,3.229-3.637,2.073
					c-2.003-1.156-3.62-3.96-3.614-6.259C143.041,260.782,144.669,259.853,146.672,261.009z"/>
			</g>
		</g>
	</g>
	<g>
		<g>
			<g>
				<g>
					<polygon style="fill:#BA68C8;" points="430.115,131.603 430.103,135.977 400.365,118.808 400.378,114.434 					"/>
				</g>
				<g>
					<polygon style="fill:#BA68C8;" points="430.134,125.001 430.121,129.387 418.026,122.403 418.038,118.018 					"/>
				</g>
				<g style="enable-background:new    ;">
					<g>
						<polygon style="fill:#BA68C8;" points="380.829,109.748 380.817,114.122 359.408,101.762 359.421,97.388 						"/>
					</g>
					<g>
						<polygon style="fill:#BA68C8;" points="393.759,110.612 393.746,114.986 359.427,95.172 359.439,90.798 						"/>
					</g>
					<g>
						<polygon style="fill:#BA68C8;" points="412.274,114.69 412.261,119.075 378.3,99.468 374.99,97.557 359.217,88.45 
							359.23,84.065 375.003,93.171 378.312,95.082 						"/>
					</g>
				</g>
				<g>
					<polygon style="fill:#BA68C8;" points="397.477,119.359 397.465,123.733 385.379,116.756 385.391,112.382 					"/>
				</g>
			</g>
			<g style="opacity:0.6;">
				<g>
					<polygon style="fill:#FFFFFF;" points="430.115,131.603 430.103,135.977 400.365,118.808 400.378,114.434 					"/>
				</g>
				<g>
					<polygon style="fill:#FFFFFF;" points="430.134,125.001 430.121,129.387 418.026,122.403 418.038,118.018 					"/>
				</g>
				<g style="enable-background:new    ;">
					<g>
						<polygon style="fill:#FFFFFF;" points="380.829,109.748 380.817,114.122 359.408,101.762 359.421,97.388 						"/>
					</g>
					<g>
						<polygon style="fill:#FFFFFF;" points="393.759,110.612 393.746,114.986 359.427,95.172 359.439,90.798 						"/>
					</g>
					<g>
						<polygon style="fill:#FFFFFF;" points="412.274,114.69 412.261,119.075 378.3,99.468 374.99,97.557 359.217,88.45 
							359.23,84.065 375.003,93.171 378.312,95.082 						"/>
					</g>
				</g>
				<g>
					<polygon style="fill:#FFFFFF;" points="397.477,119.359 397.465,123.733 385.379,116.756 385.391,112.382 					"/>
				</g>
			</g>
		</g>
		<g>
			<g>
				<g>
					<polygon style="fill:#BA68C8;" points="430.134,148.649 430.121,153.035 418.026,146.051 418.038,141.666 					"/>
				</g>
				<g style="enable-background:new    ;">
					<g>
						<polygon style="fill:#BA68C8;" points="393.759,134.26 393.746,138.634 359.427,118.82 359.439,114.446 						"/>
					</g>
					<g>
						<polygon style="fill:#BA68C8;" points="412.274,138.338 412.261,142.723 378.3,123.116 374.99,121.205 359.217,112.098 
							359.23,107.713 375.003,116.819 378.312,118.73 						"/>
					</g>
				</g>
			</g>
			<g style="opacity:0.6;">
				<g>
					<polygon style="fill:#FFFFFF;" points="430.134,148.649 430.121,153.035 418.026,146.051 418.038,141.666 					"/>
				</g>
				<g style="enable-background:new    ;">
					<g>
						<polygon style="fill:#FFFFFF;" points="393.759,134.26 393.746,138.634 359.427,118.82 359.439,114.446 						"/>
					</g>
					<g>
						<polygon style="fill:#FFFFFF;" points="412.274,138.338 412.261,142.723 378.3,123.116 374.99,121.205 359.217,112.098 
							359.23,107.713 375.003,116.819 378.312,118.73 						"/>
					</g>
				</g>
			</g>
		</g>
	</g>
	<g>
		<path style="fill:#BA68C8;" d="M377.283,134.957c-2.003-1.157-3.631-0.227-3.638,2.074c-0.003,1.027,0.33,2.148,0.864,3.184
			l-51.022,29.521l-16.081-9.381c-0.023-2.29-1.624-5.051-3.609-6.197c-2.003-1.156-3.631-0.227-3.638,2.074
			c-0.007,2.3,1.611,5.103,3.614,6.26c1.663,0.96,3.053,0.466,3.485-1.04l16.226,9.465l51.543-29.823
			c0.616,0.916,1.384,1.708,2.231,2.197c2.003,1.156,3.631,0.227,3.637-2.073C380.903,138.917,379.286,136.114,377.283,134.957z"/>
		<path style="opacity:0.2;fill:#FFFFFF;" d="M377.283,134.957c-2.003-1.157-3.631-0.227-3.638,2.074
			c-0.003,1.027,0.33,2.148,0.864,3.184l-51.022,29.521l-16.081-9.381c-0.023-2.29-1.624-5.051-3.609-6.197
			c-2.003-1.156-3.631-0.227-3.638,2.074c-0.007,2.3,1.611,5.103,3.614,6.26c1.663,0.96,3.053,0.466,3.485-1.04l16.226,9.465
			l51.543-29.823c0.616,0.916,1.384,1.708,2.231,2.197c2.003,1.156,3.631,0.227,3.637-2.073
			C380.903,138.917,379.286,136.114,377.283,134.957z"/>
	</g>
</g>
<g id="Character">
	<g>
		<g>
			<path style="fill:#37474F;" d="M318.751,290.321c-8.522,5.918-18.118,10.011-25.235,17.945
				c-13.291,14.818-13.602,38.66-3.162,55.608c10.439,16.949,29.854,27.132,49.623,29.462c20.741,2.445,42.507-3.286,58.779-16.378
				c16.273-13.091,26.625-33.546,26.618-54.431c-0.007-20.885-10.705-41.681-28.199-53.09c-15.96-10.409-38.892-13.378-54.905-1.468
				c-8.096,6.021-13.493,14.908-21.569,20.947C320.059,289.397,319.408,289.865,318.751,290.321z"/>
			<path style="opacity:0.2;" d="M318.751,290.321c-8.522,5.918-18.118,10.011-25.235,17.945
				c-13.291,14.818-13.602,38.66-3.162,55.608c10.439,16.949,29.854,27.132,49.623,29.462c20.741,2.445,42.507-3.286,58.779-16.378
				c16.273-13.091,26.625-33.546,26.618-54.431c-0.007-20.885-10.705-41.681-28.199-53.09c-15.96-10.409-38.892-13.378-54.905-1.468
				c-8.096,6.021-13.493,14.908-21.569,20.947C320.059,289.397,319.408,289.865,318.751,290.321z"/>
			<path style="opacity:0.1;fill:#FFFFFF;" d="M318.751,290.321c-8.522,5.918-18.118,10.011-25.235,17.945
				c-13.291,14.818-13.602,38.66-3.162,55.608c10.439,16.949,29.854,27.132,49.623,29.462c20.741,2.445,42.507-3.286,58.779-16.378
				c16.273-13.091,26.625-33.546,26.618-54.431c-0.007-20.885-10.705-41.681-28.199-53.09c-15.96-10.409-38.892-13.378-54.905-1.468
				c-8.096,6.021-13.493,14.908-21.569,20.947C320.059,289.397,319.408,289.865,318.751,290.321z"/>
			<path style="opacity:0.1;" d="M322.222,377.142c0.019-0.141,0.039-0.282,0.059-0.424c1.355-9.494,8.757-16.879,18.175-18.687
				c8.204-1.575,16.133-4.594,23.281-8.917c5.088-3.077,9.895-6.848,15.602-8.515c5.266-1.539,11.824-1.301,16.815,0.976
				c-4.797-5.036-13.019-7.253-19.591-4.975c4.549-6.962,8.551-14.462,10.118-22.629s0.454-17.129-4.471-23.831
				c-4.182-5.69-10.988-9.367-18.04-9.744c-7.052-0.377-14.211,2.552-18.976,7.764c-4.877,5.335-7.627,12.843-10.83,19.323
				c-2.301,4.655-4.68,9.417-8.472,12.964c-5.723,5.353-13.951,7.282-19.883,12.402c-6.727,5.806-9.628,15.088-9.659,23.973
				c-0.021,5.996,1.109,11.898,2.603,17.725c6.812,6.628,15.241,11.629,24.329,14.876
				C321.911,385.56,321.659,381.238,322.222,377.142z"/>
			<g style="opacity:0.2;">
				<path style="fill:#FFFFFF;" d="M414.239,319.663c-0.349-17.771-8.796-35.068-22.597-46.269
					c-8.443-6.852-18.707-11.269-29.401-12.911c-1.985,0.195-3.948,0.525-5.88,0.986c12.409,0.726,24.571,5.303,34.267,13.173
					c13.438,10.906,21.663,27.749,22.003,45.053c0.382,19.437-9.126,39.249-25.434,52.996c-12.78,10.775-29.756,17.919-48.415,20.49
					c0.398,0.053,0.796,0.109,1.194,0.156c1.677,0.198,3.362,0.336,5.049,0.427c16.578-3.215,31.591-10.049,43.208-19.844
					C404.909,359.863,414.63,339.579,414.239,319.663z"/>
			</g>
		</g>
		<g>
			<g>
				<g>
					<path style="fill:#FFA8A7;" d="M300.499,370.646c0.868,3.461,1.039,9.699,1.039,9.699l2.301-0.867
						c2.23-0.841,4.747-0.268,6.394,1.456l0.113,0.118c0.856,0.896,2.265,0.959,3.198,0.145l0,0
						c0.485-0.423,0.772-1.029,0.792-1.672l0.309-9.793L300.499,370.646z"/>
					<path style="fill:#F5F5F5;" d="M309.382,407.045c-4.775,5.108-13.567,9.572-19.954,5.215l0.717,1.625
						c6.387,4.357,15.18-0.108,19.954-5.215s1.676-8.646,5.973-13.177c2.803-2.774,3.715-5.519,3.715-5.519
						c-0.191-0.488-0.374-1.124-0.599-1.854c-0.566,1.275-1.836,3.77-3.833,5.747C311.059,398.399,314.157,401.937,309.382,407.045z
						"/>
					<path style="fill:#455A64;" d="M316.835,382.785c-1.05-1.65-1.399-2.791-1.501-3.483c-0.087-0.591-0.438-1.105-0.946-1.42
						l-0.052,1.643c-0.02,0.643-0.307,1.249-0.792,1.672c-0.933,0.815-2.342,0.751-3.198-0.145l-0.113-0.118
						c-1.647-1.723-4.163-2.296-6.394-1.456l-2.338,0.881c-0.715,0.27-1.18,0.957-1.163,1.721c0.15,6.698-2.979,15.592-6.259,20.48
						c-3.374,1.397-6.287,5.994-4.8,9.365l0.148,0.336c6.387,4.356,15.179-0.108,19.954-5.215c4.775-5.108,1.677-8.646,5.973-13.177
						c1.998-1.977,3.267-4.473,3.833-5.747C318.738,386.657,318.11,384.788,316.835,382.785z"/>
					<g>
						<path style="fill:#FFFFFF;" d="M307.495,392.453c0.397,0.201,0.882,0.031,1.083-0.365c0.198-0.392,0.058-0.882-0.332-1.083
							c-3.673-1.898-6.823-1.268-9.172,0.015c-0.143,0.527-0.294,1.052-0.456,1.574C301.323,391.22,304.067,390.721,307.495,392.453
							z"/>
						<path style="fill:#FFFFFF;" d="M308.67,388.832c0.397,0.201,0.882,0.031,1.083-0.365c0.198-0.392,0.058-0.882-0.332-1.083
							c-3.653-1.887-7.003-1.315-9.544,0.076c-0.096,0.545-0.209,1.093-0.33,1.643C302.332,387.634,305.138,387.047,308.67,388.832z
							"/>
						<path style="fill:#FFFFFF;" d="M306.204,396.056c0.397,0.201,0.882,0.031,1.083-0.365c0.198-0.392,0.058-0.882-0.332-1.083
							c-3.572-1.846-6.649-1.3-8.976-0.089c-0.203,0.567-0.417,1.123-0.637,1.671C300.042,394.821,302.782,394.326,306.204,396.056z
							"/>
						<path style="fill:#FFFFFF;" d="M294.08,402.56c-3.374,1.397-6.287,5.994-4.8,9.365l0.148,0.336
							c6.293,4.292,14.912,0.021,19.732-4.991C305.14,399.386,296.736,401.352,294.08,402.56z"/>
						<path style="fill:#FFFFFF;" d="M304.792,399.575c0.397,0.201,0.882,0.031,1.083-0.365c0.198-0.392,0.058-0.882-0.332-1.083
							c-3.581-1.85-6.665-1.297-8.994-0.081c-0.285,0.625-0.579,1.223-0.88,1.799C298.454,398.376,301.26,397.79,304.792,399.575z"
							/>
					</g>
				</g>
				<g>
					<path style="fill:#FFA8A7;" d="M290.462,390.118c-0.603,3.516-2.964,9.293-2.964,9.293l2.455,0.135
						c2.38,0.131,4.451,1.671,5.262,3.913l0.056,0.154c0.422,1.165,1.685,1.792,2.868,1.423l0,0c0.615-0.191,1.121-0.63,1.4-1.21
						l4.236-8.836L290.462,390.118z"/>
					<path style="fill:#F5F5F5;" d="M283.899,427.005c-6.43,2.746-16.276,3.282-20.362-3.282v1.777
						c4.086,6.564,13.932,6.028,20.362,3.282c6.43-2.746,5.023-7.234,10.783-9.645c3.684-1.407,5.626-3.55,5.626-3.55
						c0.022-0.523,0.111-1.18,0.201-1.938c-1.033,0.938-3.201,2.709-5.827,3.711C288.922,419.771,290.329,424.259,283.899,427.005z"
						/>
					<path style="fill:#455A64;" d="M300.509,407.817c-0.295-1.934-0.154-3.118,0.033-3.792c0.159-0.576,0.045-1.188-0.292-1.681
						l-0.711,1.483c-0.278,0.58-0.785,1.019-1.4,1.21c-1.183,0.368-2.446-0.259-2.868-1.423l-0.056-0.154
						c-0.811-2.241-2.883-3.781-5.262-3.913l-2.495-0.137c-0.763-0.042-1.466,0.399-1.758,1.105
						c-2.566,6.188-9.019,13.064-13.992,16.211c-3.65-0.084-8.171,2.947-8.171,6.631v0.367c4.086,6.564,13.932,6.028,20.362,3.282
						c6.43-2.746,5.023-7.234,10.783-9.645c2.625-1.002,4.794-2.773,5.827-3.711C300.688,412.128,300.867,410.164,300.509,407.817z"
						/>
					<g>
						<path style="fill:#FFFFFF;" d="M288.061,412.893c0.282,0.344,0.795,0.385,1.138,0.103c0.34-0.278,0.409-0.783,0.133-1.125
							c-2.595-3.219-5.731-3.914-8.398-3.689c-0.344,0.425-0.694,0.844-1.052,1.256
							C282.912,409.274,285.624,409.924,288.061,412.893z"/>
						<path style="fill:#FFFFFF;" d="M290.598,410.055c0.282,0.344,0.795,0.385,1.138,0.103c0.339-0.278,0.408-0.783,0.133-1.125
							c-2.58-3.201-5.876-4.03-8.763-3.782c-0.308,0.46-0.632,0.916-0.965,1.37C285.283,406.4,288.087,406.996,290.598,410.055z"/>
						<path style="fill:#FFFFFF;" d="M285.426,415.669c0.282,0.343,0.794,0.384,1.138,0.103c0.339-0.278,0.409-0.783,0.133-1.125
							c-2.523-3.13-5.559-3.873-8.176-3.704c-0.415,0.438-0.835,0.859-1.258,1.272C280.287,412.052,282.994,412.705,285.426,415.669
							z"/>
						<path style="fill:#FFFFFF;" d="M271.708,416.725c-3.65-0.084-8.171,2.947-8.171,6.631v0.367
							c4.025,6.467,13.635,6.037,20.068,3.397C283.109,418.286,274.626,416.692,271.708,416.725z"/>
						<path style="fill:#FFFFFF;" d="M282.714,418.318c0.282,0.344,0.794,0.385,1.138,0.103c0.34-0.278,0.409-0.783,0.133-1.125
							c-2.529-3.138-5.574-3.877-8.196-3.703c-0.513,0.456-1.024,0.885-1.531,1.291
							C277.399,414.663,280.203,415.259,282.714,418.318z"/>
					</g>
				</g>
				<path style="fill:#BA68C8;" d="M328.239,306.478l-32.186,17.932c-5.982,3.333-9.169,10.112-7.919,16.844l6.247,33.642
					l-5.124,16.276c4.421,5.928,14.568,6.229,14.568,6.229c5.66-11.353,9.812-16.175,13.027-25.686
					c3.215-9.511,5.358-16.075,5.358-16.075l26.73-7.305c12.495-3.415,21.71-14.077,23.161-26.949
					c0.456-4.042,0.476-6.802,0.476-6.802L328.239,306.478z"/>
				<path style="opacity:0.3;" d="M328.239,306.478l-32.186,17.932c-5.982,3.333-9.169,10.112-7.919,16.844l6.247,33.642
					l-5.124,16.276c4.421,5.928,14.568,6.229,14.568,6.229c5.66-11.353,9.812-16.175,13.027-25.686
					c3.215-9.511,5.358-16.075,5.358-16.075l26.73-7.305c12.495-3.415,21.71-14.077,23.161-26.949
					c0.456-4.042,0.476-6.802,0.476-6.802L328.239,306.478z"/>
				<path style="opacity:0.1;fill:#FFFFFF;" d="M328.239,306.478l-32.186,17.932c-5.982,3.333-9.169,10.112-7.919,16.844
					l6.247,33.642l-5.124,16.276c4.421,5.928,14.568,6.229,14.568,6.229c5.66-11.353,9.812-16.175,13.027-25.686
					c3.215-9.511,5.358-16.075,5.358-16.075l26.73-7.305c12.495-3.415,21.71-14.077,23.161-26.949
					c0.456-4.042,0.476-6.802,0.476-6.802L328.239,306.478z"/>
				<path style="opacity:0.2;" d="M328.482,315.52c-0.008,3.557,1.293,7.102,3.599,9.809l-22.712,14.216
					c-3.333,2.086-5.801,5.305-6.95,9.065l-8.039,26.286l7.25-29.275c0.834-3.367,2.953-6.274,5.904-8.098l20.971-12.962
					C326.363,319.204,328.482,315.52,328.482,315.52z"/>
			</g>
			<g>
				<g>
					<path style="fill:#FFA8A7;" d="M306.941,269.516l-7.243,6.543c-4.627-5.904-10.836-9.896-16.269-18.18
						c-1.563-1.982-1.399-5.933-2.463-7.948c-0.835-1.583-2.292-3.959-2.906-5.286c-0.236-0.51-0.884-0.696-1.33-0.354
						c-1.49,1.139-0.684,3.795,0.122,6.592c0.951,3.302-4.03-1.175-4.702-1.931c-3.162-2.938-5.876-10.149-8.032-9.431
						c-2.156,0.718-0.448,4.31-0.448,4.31c-1.983,0.418-1.231,3.582-1.231,3.582c-1.175,2.071-0.839,5.261,1.567,8.228
						c1.748,2.155,6.48,5.107,8.938,6.561c1.025,0.606,1.897,1.43,2.562,2.418l15.517,23.058c2.963,4.403,9.008,5.428,13.257,2.25
						l10.531-7.878L306.941,269.516z"/>
					<path style="opacity:0.3;" d="M306.941,269.516l-7.243,6.543c-4.627-5.904-10.836-9.896-16.269-18.18
						c-1.563-1.982-1.399-5.933-2.463-7.948c-0.835-1.583-2.292-3.959-2.906-5.286c-0.236-0.51-0.884-0.696-1.33-0.354
						c-1.49,1.139-0.684,3.795,0.122,6.592c0.951,3.302-4.03-1.175-4.702-1.931c-3.162-2.938-5.876-10.149-8.032-9.431
						c-2.156,0.718-0.448,4.31-0.448,4.31c-1.983,0.418-1.231,3.582-1.231,3.582c-1.175,2.071-0.839,5.261,1.567,8.228
						c1.748,2.155,6.48,5.107,8.938,6.561c1.025,0.606,1.897,1.43,2.562,2.418l15.517,23.058c2.963,4.403,9.008,5.428,13.257,2.25
						l10.531-7.878L306.941,269.516z"/>
					<path style="fill:#455A64;" d="M330.369,251.413c-7.86-0.346-18.29,11.322-25.015,18.307c1.274,5.48,4.4,10.531,8.775,14.072
						c9.094-6.368,16.24-12.816,16.24-12.816V251.413z"/>
					<path style="opacity:0.3;fill:#FFFFFF;" d="M330.369,251.413c-7.86-0.346-18.29,11.322-25.015,18.307
						c1.274,5.48,4.4,10.531,8.775,14.072c9.094-6.368,16.24-12.816,16.24-12.816V251.413z"/>
				</g>
				<path style="fill:#455A64;" d="M373.093,317.095c-5.709,5.485-33.134,6.492-47.127-6.828c1.343-9.403,0.896-19.477,0-29.44
					c-0.895-9.963-6.716-27.388,4.403-29.414c14.851-2.9,24.552-2.676,34.477,2.921
					C375.444,271.983,373.989,298.401,373.093,317.095z"/>
				<path style="fill:#455A64;" d="M373.093,317.095c-5.709,5.485-33.134,6.492-47.127-6.828c1.343-9.403,0.896-19.477,0-29.44
					c-0.895-9.963-6.716-27.388,4.403-29.414c14.851-2.9,24.552-2.676,34.477,2.921
					C375.444,271.983,373.989,298.401,373.093,317.095z"/>
				<path style="opacity:0.2;fill:#FFFFFF;" d="M373.093,317.095c-5.709,5.485-33.134,6.492-47.127-6.828
					c1.343-9.403,0.896-19.477,0-29.44c-0.895-9.963-6.716-27.388,4.403-29.414c14.851-2.9,24.552-2.676,34.477,2.921
					C375.444,271.983,373.989,298.401,373.093,317.095z"/>
				<g>
					<path style="fill:#E0E0E0;" d="M350.949,328.922c0.01,0.142,0.001,0.285-0.041,0.426c-0.003,0.01-0.003,0.021-0.007,0.031
						c-0.037,0.112-0.095,0.222-0.166,0.33c-0.008,0.012-0.011,0.024-0.019,0.036c-0.078,0.112-0.177,0.22-0.292,0.324
						c-0.007,0.006-0.011,0.013-0.018,0.019c-0.124,0.109-0.268,0.213-0.434,0.31l-23.554,13.688
						c-0.206,0.12-0.436,0.214-0.676,0.297c-0.084,0.029-0.172,0.054-0.259,0.079c-0.113,0.032-0.225,0.061-0.343,0.085
						c-0.138,0.028-0.277,0.054-0.419,0.072c-0.034,0.004-0.066,0.01-0.1,0.014c-0.191,0.02-0.383,0.03-0.577,0.032
						c-0.031,0-0.061,0-0.092,0c-0.19-0.001-0.381-0.012-0.569-0.032c-0.029-0.003-0.057-0.006-0.085-0.009
						c-0.186-0.023-0.371-0.054-0.55-0.095c-0.033-0.008-0.066-0.016-0.099-0.024c-0.163-0.04-0.321-0.089-0.474-0.144
						c-0.028-0.01-0.058-0.018-0.085-0.029c-0.184-0.071-0.359-0.152-0.521-0.246l-38.86-22.436
						c-0.168-0.097-0.315-0.201-0.441-0.311c-0.044-0.039-0.072-0.081-0.111-0.121c-0.072-0.074-0.15-0.147-0.205-0.225
						c-0.034-0.048-0.049-0.098-0.076-0.147c-0.04-0.073-0.088-0.146-0.113-0.221c-0.018-0.053-0.017-0.107-0.027-0.161
						c-0.014-0.073-0.036-0.145-0.036-0.219v1.378c0,0.073,0.022,0.145,0.036,0.218c0.01,0.054,0.009,0.108,0.027,0.161
						c0.025,0.075,0.073,0.148,0.113,0.221c0.027,0.049,0.042,0.099,0.076,0.147c0.055,0.078,0.132,0.151,0.205,0.225
						c0.039,0.04,0.066,0.082,0.111,0.121c0.126,0.11,0.273,0.215,0.441,0.312l38.86,22.436c0.162,0.094,0.338,0.175,0.521,0.246
						c0.028,0.011,0.057,0.019,0.085,0.029c0.153,0.055,0.311,0.104,0.474,0.144c0.033,0.008,0.065,0.017,0.099,0.024
						c0.18,0.04,0.364,0.072,0.55,0.095c0.028,0.004,0.057,0.007,0.085,0.01c0.188,0.02,0.378,0.03,0.569,0.032
						c0.031,0,0.061,0,0.092,0c0.193-0.002,0.386-0.011,0.577-0.032c0.034-0.004,0.066-0.01,0.1-0.014
						c0.142-0.018,0.281-0.043,0.419-0.072c0.117-0.024,0.23-0.054,0.343-0.085c0.088-0.025,0.175-0.05,0.259-0.079
						c0.239-0.083,0.47-0.177,0.676-0.297l23.554-13.688c0.166-0.096,0.31-0.2,0.434-0.309c0.007-0.006,0.011-0.013,0.018-0.019
						c0.115-0.104,0.214-0.212,0.292-0.324c0.008-0.012,0.012-0.024,0.019-0.035c0.071-0.108,0.129-0.218,0.166-0.33
						c0.003-0.01,0.003-0.021,0.007-0.031c0.031-0.103,0.027-0.207,0.03-0.311l0.022,0.003v-1.495L350.949,328.922z"/>
					<path style="opacity:0.2;" d="M350.949,328.922c0.01,0.142,0.001,0.285-0.041,0.426c-0.003,0.01-0.003,0.021-0.007,0.031
						c-0.037,0.112-0.095,0.222-0.166,0.33c-0.008,0.012-0.011,0.024-0.019,0.036c-0.078,0.112-0.177,0.22-0.292,0.324
						c-0.007,0.006-0.011,0.013-0.018,0.019c-0.124,0.109-0.268,0.213-0.434,0.31l-23.554,13.688
						c-0.206,0.12-0.436,0.214-0.676,0.297c-0.084,0.029-0.172,0.054-0.259,0.079c-0.113,0.032-0.225,0.061-0.343,0.085
						c-0.138,0.028-0.277,0.054-0.419,0.072c-0.034,0.004-0.066,0.01-0.1,0.014c-0.191,0.02-0.383,0.03-0.577,0.032
						c-0.031,0-0.061,0-0.092,0c-0.19-0.001-0.381-0.012-0.569-0.032c-0.029-0.003-0.057-0.006-0.085-0.009
						c-0.186-0.023-0.371-0.054-0.55-0.095c-0.033-0.008-0.066-0.016-0.099-0.024c-0.163-0.04-0.321-0.089-0.474-0.144
						c-0.028-0.01-0.058-0.018-0.085-0.029c-0.184-0.071-0.359-0.152-0.521-0.246l-38.86-22.436
						c-0.168-0.097-0.315-0.201-0.441-0.311c-0.044-0.039-0.072-0.081-0.111-0.121c-0.072-0.074-0.15-0.147-0.205-0.225
						c-0.034-0.048-0.049-0.098-0.076-0.147c-0.04-0.073-0.088-0.146-0.113-0.221c-0.018-0.053-0.017-0.107-0.027-0.161
						c-0.014-0.073-0.036-0.145-0.036-0.219v1.378c0,0.073,0.022,0.145,0.036,0.218c0.01,0.054,0.009,0.108,0.027,0.161
						c0.025,0.075,0.073,0.148,0.113,0.221c0.027,0.049,0.042,0.099,0.076,0.147c0.055,0.078,0.132,0.151,0.205,0.225
						c0.039,0.04,0.066,0.082,0.111,0.121c0.126,0.11,0.273,0.215,0.441,0.312l38.86,22.436c0.162,0.094,0.338,0.175,0.521,0.246
						c0.028,0.011,0.057,0.019,0.085,0.029c0.153,0.055,0.311,0.104,0.474,0.144c0.033,0.008,0.065,0.017,0.099,0.024
						c0.18,0.04,0.364,0.072,0.55,0.095c0.028,0.004,0.057,0.007,0.085,0.01c0.188,0.02,0.378,0.03,0.569,0.032
						c0.031,0,0.061,0,0.092,0c0.193-0.002,0.386-0.011,0.577-0.032c0.034-0.004,0.066-0.01,0.1-0.014
						c0.142-0.018,0.281-0.043,0.419-0.072c0.117-0.024,0.23-0.054,0.343-0.085c0.088-0.025,0.175-0.05,0.259-0.079
						c0.239-0.083,0.47-0.177,0.676-0.297l23.554-13.688c0.166-0.096,0.31-0.2,0.434-0.309c0.007-0.006,0.011-0.013,0.018-0.019
						c0.115-0.104,0.214-0.212,0.292-0.324c0.008-0.012,0.012-0.024,0.019-0.035c0.071-0.108,0.129-0.218,0.166-0.33
						c0.003-0.01,0.003-0.021,0.007-0.031c0.031-0.103,0.027-0.207,0.03-0.311l0.022,0.003v-1.495L350.949,328.922z"/>
					<path style="fill:#E0E0E0;" d="M281.767,320.623c0.025,0.075,0.073,0.148,0.113,0.221c0.027,0.049,0.042,0.099,0.076,0.147
						c0.055,0.078,0.132,0.151,0.205,0.225c0.039,0.04,0.066,0.082,0.111,0.121c0.126,0.11,0.273,0.215,0.441,0.311l38.86,22.436
						c0.162,0.094,0.338,0.175,0.521,0.246c0.028,0.011,0.057,0.018,0.085,0.029c0.153,0.055,0.311,0.104,0.474,0.144
						c0.033,0.008,0.065,0.017,0.099,0.024c0.18,0.04,0.364,0.072,0.55,0.095c0.028,0.003,0.057,0.006,0.085,0.009
						c0.188,0.02,0.378,0.03,0.569,0.032c0.031,0,0.061,0,0.092,0c0.193-0.002,0.386-0.012,0.577-0.032
						c0.034-0.004,0.066-0.01,0.1-0.014c0.142-0.018,0.281-0.044,0.419-0.072c0.117-0.024,0.23-0.054,0.343-0.085
						c0.088-0.025,0.175-0.05,0.259-0.079c0.239-0.083,0.47-0.177,0.676-0.297l23.554-13.688c0.166-0.096,0.31-0.2,0.434-0.31
						c0.007-0.006,0.011-0.013,0.018-0.019c0.115-0.104,0.214-0.212,0.292-0.324c0.008-0.012,0.012-0.024,0.019-0.036
						c0.071-0.108,0.129-0.218,0.166-0.33c0.003-0.01,0.003-0.021,0.007-0.031c0.042-0.141,0.051-0.283,0.041-0.426
						c-0.034-0.483-0.361-0.961-0.999-1.329l-38.86-22.436c-1.34-0.773-3.503-0.773-4.834,0l-23.554,13.688
						c-0.668,0.388-1,0.894-1,1.4c0,0.073,0.022,0.146,0.036,0.219C281.749,320.516,281.749,320.57,281.767,320.623z"/>
					<path style="fill:#E0E0E0;" d="M285.003,320.244l37.752,21.796c0.039,0.023,0.081,0.043,0.149,0.071l0.082,0.028
						c0.07,0.026,0.144,0.049,0.295,0.086c0.102,0.024,0.204,0.04,0.208,0.044l0.143,0.014c0.1,0.01,0.21,0.016,0.368,0.019h0.033
						c0.116-0.001,0.233-0.007,0.386-0.025c0.081-0.01,0.159-0.025,0.247-0.044c0.059-0.012,0.306-0.082,0.306-0.082
						c0.09-0.031,0.18-0.06,0.262-0.108l12.144-7.06l-38.997-22.515L285.003,320.244z"/>
					<path style="fill:#263238;" d="M324.042,342.303c-0.017,0-0.027-0.001-0.042-0.001h-0.014L324.042,342.303z"/>
					<path style="fill:#E0E0E0;" d="M320.918,314.248l-7.102,4.177c-0.475,0.279-0.472,0.966,0.005,1.242l10.62,6.131
						c0.368,0.213,0.822,0.211,1.189-0.005l7.102-4.177c0.474-0.279,0.472-0.966-0.005-1.241l-10.62-6.132
						C321.739,314.031,321.285,314.033,320.918,314.248z"/>
					<path style="opacity:0.4;" d="M285.003,320.244l37.752,21.796c0.039,0.023,0.081,0.043,0.149,0.071l0.082,0.028
						c0.07,0.026,0.144,0.049,0.295,0.086c0.102,0.024,0.204,0.04,0.208,0.044l0.143,0.014c0.1,0.01,0.21,0.016,0.368,0.019h0.033
						c0.116-0.001,0.233-0.007,0.386-0.025c0.081-0.01,0.159-0.025,0.247-0.044c0.059-0.012,0.306-0.082,0.306-0.082
						c0.09-0.031,0.18-0.06,0.262-0.108l12.144-7.06l-38.997-22.515L285.003,320.244z"/>
					<path style="opacity:0.4;" d="M320.918,314.248l-7.102,4.177c-0.475,0.279-0.472,0.966,0.005,1.242l10.62,6.131
						c0.368,0.213,0.822,0.211,1.189-0.005l7.102-4.177c0.474-0.279,0.472-0.966-0.005-1.241l-10.62-6.132
						C321.739,314.031,321.285,314.033,320.918,314.248z"/>
				</g>
				<g>
					<path style="fill:#E0E0E0;" d="M323.762,342.691l-4.023-25.581c-0.221-1.405-1.063-2.635-2.292-3.349l-39.129-22.75
						c-0.346-0.202-0.722-0.198-1.04-0.065l-0.002-0.006l-0.93,0.464l0.314,0.118c-0.098,0.203-0.143,0.439-0.102,0.694
						l4.023,25.581c0.221,1.405,1.063,2.635,2.292,3.349l39.129,22.75c0.083,0.048,0.169,0.076,0.255,0.102l-0.036,0.377
						l0.901-0.444l-0.017-0.003C323.542,343.715,323.85,343.25,323.762,342.691z"/>
					<path style="opacity:0.3;" d="M323.762,342.691l-4.023-25.581c-0.221-1.405-1.063-2.635-2.292-3.349l-39.129-22.75
						c-0.346-0.202-0.722-0.198-1.04-0.065l-0.002-0.006l-0.93,0.464l0.314,0.118c-0.098,0.203-0.143,0.439-0.102,0.694
						l4.023,25.581c0.221,1.405,1.063,2.635,2.292,3.349l39.129,22.75c0.083,0.048,0.169,0.076,0.255,0.102l-0.036,0.377
						l0.901-0.444l-0.017-0.003C323.542,343.715,323.85,343.25,323.762,342.691z"/>
					<path style="fill:#E0E0E0;" d="M316.661,314.154l-39.129-22.75c-0.86-0.5-1.914,0.222-1.76,1.204l4.023,25.581
						c0.221,1.405,1.062,2.635,2.292,3.349l39.129,22.75c0.86,0.5,1.914-0.222,1.76-1.204l-4.023-25.581
						C318.732,316.099,317.89,314.868,316.661,314.154z"/>
					<g>
						<path style="fill:#FFFFFF;" d="M297.697,314.815c1.896,1.094,3.628,3.598,3.883,5.593c0.255,1.996-1.063,2.737-2.959,1.643
							c-1.887-1.089-3.628-3.598-3.883-5.593C294.483,314.462,295.81,313.726,297.697,314.815z"/>
					</g>
				</g>
				<g>
					<path style="fill:#FFA8A7;" d="M382.052,298.338l-4.199-15.616l-14.731,3.229l3.532,12.108l-21.592,15.336l-7.259,3.056
						c-1.924,0.81-3.588,2.133-4.811,3.825l-5.921,8.192c-0.052,0.109-0.07,0.229-0.059,0.355c0.078,0.948,1.352,1.258,1.978,0.543
						c1.313-1.5,2.406-2.892,3.784-4.208c-1.163,1.573-2.326,3.145-3.49,4.718c-0.495,0.669-0.288,1.618,0.434,2.031
						c0.462,0.265,0.906,0.461,1.259,0.551c1.738,0.445,3.582-0.017,4.905-1.229l4.571-4.185l1.261-0.446
						c3.692-1.304,6.896-3.708,9.181-6.887l25.31-9.828C380.815,308.092,383.336,303.115,382.052,298.338z"/>
					<path style="opacity:0.3;" d="M382.052,298.338l-4.199-15.616l-14.731,3.229l3.532,12.108l-21.592,15.336l-7.259,3.056
						c-1.924,0.81-3.588,2.133-4.811,3.825l-5.921,8.192c-0.052,0.109-0.07,0.229-0.059,0.355c0.078,0.948,1.352,1.258,1.978,0.543
						c1.313-1.5,2.406-2.892,3.784-4.208c-1.163,1.573-2.326,3.145-3.49,4.718c-0.495,0.669-0.288,1.618,0.434,2.031
						c0.462,0.265,0.906,0.461,1.259,0.551c1.738,0.445,3.582-0.017,4.905-1.229l4.571-4.185l1.261-0.446
						c3.692-1.304,6.896-3.708,9.181-6.887l25.31-9.828C380.815,308.092,383.336,303.115,382.052,298.338z"/>
					<path style="fill:#455A64;" d="M380.158,284.758l-0.451-2.07c-5.348-24.316-9.616-26.044-16.79-29.375
						c-6.977,6.08-5.811,16.413-5.811,16.413l6.256,18.713l0.185,0.54C369.389,289.855,375.5,288.417,380.158,284.758z"/>
					<path style="opacity:0.3;fill:#FFFFFF;" d="M380.158,284.758l-0.451-2.07c-5.348-24.316-9.616-26.044-16.79-29.375
						c-6.977,6.08-5.811,16.413-5.811,16.413l6.256,18.713l0.185,0.54C369.389,289.855,375.5,288.417,380.158,284.758z"/>
				</g>
				<g>
					<path style="fill:#455A64;" d="M352.944,233.849c1.485-4.401,2.273-9.036,2.327-13.68c0.028-2.481-0.248-5.194-1.981-6.969
						c-2.087-2.139-5.673-2.122-8.34-0.772c-2.667,1.35-4.629,3.741-6.509,6.064c0.987,3.958,2.25,8.092,4.121,11.717
						c0.938,1.816,2.076,3.671,3.895,4.604C348.288,235.751,351.315,235.106,352.944,233.849z"/>
					<g>
						<path style="fill:#FFA8A7;" d="M339.728,262.415c-3.587,2.271-8.253-1.933-4.074-8.078c0.043-0.063,0.047-0.106,0.047-0.106
							v-4.061v-6.196l13.538-7.472l0.307,13.668C348.096,254.43,342.849,260.439,339.728,262.415z"/>
						<path style="opacity:0.3;" d="M339.728,262.415c-3.587,2.271-8.253-1.933-4.074-8.078c0.043-0.063,0.047-0.106,0.047-0.106
							v-4.061v-6.196l13.538-7.472l0.307,13.668C348.096,254.43,342.849,260.439,339.728,262.415z"/>
						<path style="opacity:0.2;" d="M342.669,247.266c-2.259,1.091-5.075,2.195-6.967,2.904v-6.196l13.538-7.472
							C349.128,243.298,346.426,245.451,342.669,247.266z"/>
					</g>
					<path style="fill:#FFA8A7;" d="M323.884,217.759c-0.608,6.791-0.304,14.13,0.274,20.226c0.557,5.88,6.092,10.006,11.878,8.823
						c2.226-0.455,4.348-0.982,6.147-1.468c3.259-0.88,5.769-3.48,6.557-6.762l0.499-2.076c1.052,1.591,3.365,1.938,5.123,1.2
						c1.758-0.738,2.947-2.527,3.25-4.41c0.15-0.933,0.102-1.912-0.245-2.791c-0.347-0.879-1.011-1.651-1.877-2.029
						c-1.533-0.67-3.407,0.029-4.512,1.285c-1.105,1.256-1.576,2.947-1.822,4.602c-2.501-2.75-3.759-6.523-3.562-10.235
						c-1.168-0.141-2.56-0.745-3.271-1.682c-0.711-0.937-1.023-2.167-0.845-3.329C336.149,221.79,328.85,221.066,323.884,217.759z"
						/>
					<path style="opacity:0.3;" d="M323.884,217.759c-0.608,6.791-0.304,14.13,0.274,20.226c0.557,5.88,6.092,10.006,11.878,8.823
						c2.226-0.455,4.348-0.982,6.147-1.468c3.259-0.88,5.769-3.48,6.557-6.762l0.499-2.076c1.052,1.591,3.365,1.938,5.123,1.2
						c1.758-0.738,2.947-2.527,3.25-4.41c0.15-0.933,0.102-1.912-0.245-2.791c-0.347-0.879-1.011-1.651-1.877-2.029
						c-1.533-0.67-3.407,0.029-4.512,1.285c-1.105,1.256-1.576,2.947-1.822,4.602c-2.501-2.75-3.759-6.523-3.562-10.235
						c-1.168-0.141-2.56-0.745-3.271-1.682c-0.711-0.937-1.023-2.167-0.845-3.329C336.149,221.79,328.85,221.066,323.884,217.759z"
						/>
					<g>
						<polygon style="fill:#F28F8F;" points="333.333,229.084 328.634,234.776 332.946,236.3 						"/>
						<polygon style="opacity:0.3;" points="333.333,229.084 328.634,234.776 332.946,236.3 						"/>
						<path style="fill:#F28F8F;" d="M336.891,239.126c-1.21,0.372-2.42,0.744-3.63,1.116c0.372,0.843,1.557,1.369,2.446,1.125
							C336.595,241.124,337.001,240.041,336.891,239.126z"/>
						<path style="opacity:0.4;" d="M336.891,239.126c-1.21,0.372-2.42,0.744-3.63,1.116c0.372,0.843,1.557,1.369,2.446,1.125
							C336.595,241.124,337.001,240.041,336.891,239.126z"/>
						<path style="fill:#F28F8F;" d="M334.518,241.296c0.395,0.135,0.817,0.174,1.189,0.071c0.698-0.191,1.093-0.9,1.179-1.638
							c-0.479-0.072-0.984,0.01-1.402,0.256C335.002,240.268,334.658,240.756,334.518,241.296z"/>
						<path style="fill:#263238;" d="M339.726,230.333c-0.038,0.712-0.646,1.258-1.358,1.22c-0.712-0.038-1.258-0.646-1.22-1.359
							c0.038-0.712,0.646-1.258,1.358-1.22C339.219,229.013,339.765,229.621,339.726,230.333z"/>
						<path style="fill:#263238;" d="M328.926,229.334c-0.038,0.712-0.647,1.258-1.358,1.22c-0.712-0.038-1.258-0.646-1.22-1.358
							c0.038-0.712,0.647-1.258,1.359-1.22C328.419,228.014,328.965,228.622,328.926,229.334z"/>
						<path style="fill:#263238;" d="M327.948,224.136c-0.988,0.608-1.976,1.215-2.964,1.823c-0.246-0.693,0.073-1.558,0.667-1.993
							C326.245,223.532,327.362,223.692,327.948,224.136z"/>
						<path style="fill:#263238;" d="M338.994,224.574c0.917,0.71,1.834,1.42,2.751,2.13c0.319-0.663,0.094-1.557-0.45-2.053
							C340.752,224.156,339.624,224.195,338.994,224.574z"/>
					</g>
					<path style="fill:#263238;" d="M342.059,218.685c-0.187,0.924-0.564,1.742-1.235,2.404c-0.671,0.663-1.599,1.082-2.542,1.055
						c-0.942-0.027-1.878-0.533-2.344-1.352c-0.711,0.995-1.829,1.434-3.049,1.349c-1.22-0.085-2.371-0.84-2.937-1.923
						c-0.726,1.141-2.313,1.752-3.627,1.427c-1.313-0.325-2.352-1.547-2.462-2.896c-1.09,0.253-2.288,0.134-3.237-0.458
						c-0.949-0.592-1.603-1.687-1.537-2.803c0.066-1.116,0.927-2.175,2.032-2.344c-0.733-1.273-0.276-3.065,0.837-4.023
						c1.113-0.958,2.913-0.994,4.063-0.081c0.005-0.97,0.633-1.91,1.528-2.284c0.895-0.375,2.005-0.163,2.7,0.516
						c0.18-1.687,1.527-3.184,3.186-3.542c1.658-0.357,3.502,0.452,4.361,1.915c0.535-1.145,2.016-1.82,3.278-1.749
						c1.262,0.071,2.439,0.967,2.842,2.166c0.935-1.428,2.832-2.147,4.479-1.698c1.647,0.448,2.917,2.03,3,3.734
						c0.932-0.893,2.596-0.744,3.471,0.205c0.875,0.949,0.945,2.488,0.299,3.605c-0.646,1.117-1.904,1.807-3.188,1.932
						c0.586,1.454-0.052,3.293-1.412,4.073c-1.36,0.779-3.27,0.4-4.228-0.841c0.166,1.075-0.519,2.219-1.544,2.58
						C343.767,220.013,342.603,219.627,342.059,218.685z"/>
				</g>
			</g>
		</g>
	</g>
</g>
</svg>
